G75*
%MOIN*%
%OFA0B0*%
%FSLAX24Y24*%
%IPPOS*%
%LPD*%
%AMOC8*
5,1,8,0,0,1.08239X$1,22.5*
%
%ADD10C,0.0000*%
%ADD11C,0.0050*%
%ADD12C,0.0030*%
%ADD13C,0.0160*%
D10*
X002209Y000487D02*
X002209Y016235D01*
X011068Y016235D01*
X011068Y000487D01*
X002209Y000487D01*
D11*
X005670Y001908D02*
X005771Y001807D01*
X005975Y001807D01*
X006077Y001908D01*
X005670Y002315D01*
X005670Y001908D01*
X005670Y002315D02*
X005771Y002417D01*
X005975Y002417D01*
X006077Y002315D01*
X006077Y001908D01*
X006277Y001908D02*
X006379Y001807D01*
X006583Y001807D01*
X006684Y001908D01*
X006277Y002315D01*
X006277Y001908D01*
X006277Y002315D02*
X006379Y002417D01*
X006583Y002417D01*
X006684Y002315D01*
X006684Y001908D01*
X006885Y001807D02*
X007292Y002214D01*
X007493Y002315D02*
X007493Y001908D01*
X007595Y001807D01*
X007798Y001807D01*
X007900Y001908D01*
X007493Y002315D01*
X007595Y002417D01*
X007798Y002417D01*
X007900Y002315D01*
X007900Y001908D01*
X007292Y001807D02*
X006885Y002214D01*
D12*
X006939Y002552D02*
X007124Y002552D01*
X007186Y002613D01*
X007124Y002675D01*
X006939Y002675D01*
X006939Y002737D02*
X006939Y002552D01*
X006939Y002737D02*
X007000Y002799D01*
X007124Y002799D01*
X007307Y002737D02*
X007369Y002799D01*
X007554Y002799D01*
X007554Y002922D02*
X007554Y002552D01*
X007369Y002552D01*
X007307Y002613D01*
X007307Y002737D01*
X006817Y002799D02*
X006694Y002799D01*
X006756Y002860D02*
X006756Y002613D01*
X006694Y002552D01*
X006572Y002613D02*
X006510Y002552D01*
X006325Y002552D01*
X006203Y002552D02*
X006203Y002922D01*
X006142Y002799D02*
X006203Y002737D01*
X006142Y002799D02*
X006018Y002799D01*
X005957Y002737D01*
X005957Y002552D01*
X006325Y002799D02*
X006510Y002799D01*
X006572Y002737D01*
X006572Y002613D01*
X006064Y005153D02*
X006002Y005153D01*
X005941Y005215D01*
X005941Y005524D01*
X005819Y005647D02*
X005696Y005524D01*
X005696Y005400D01*
X005819Y005277D01*
X005941Y005277D02*
X006126Y005277D01*
X006188Y005338D01*
X006188Y005524D01*
X006309Y005462D02*
X006309Y005277D01*
X006494Y005277D01*
X006556Y005338D01*
X006494Y005400D01*
X006309Y005400D01*
X006309Y005462D02*
X006371Y005524D01*
X006494Y005524D01*
X006740Y005647D02*
X006740Y005277D01*
X006801Y005277D02*
X006678Y005277D01*
X006923Y005338D02*
X006923Y005462D01*
X006985Y005524D01*
X007170Y005524D01*
X007170Y005153D01*
X007170Y005277D02*
X006985Y005277D01*
X006923Y005338D01*
X006801Y005647D02*
X006740Y005647D01*
X007292Y005647D02*
X007415Y005524D01*
X007415Y005400D01*
X007292Y005277D01*
X007061Y015552D02*
X007061Y015799D01*
X006875Y015799D01*
X006814Y015737D01*
X006814Y015552D01*
X006692Y015613D02*
X006631Y015552D01*
X006507Y015552D01*
X006445Y015613D01*
X006445Y015737D01*
X006507Y015799D01*
X006631Y015799D01*
X006692Y015737D01*
X006692Y015613D01*
X006324Y015799D02*
X006201Y015799D01*
X006262Y015860D02*
X006262Y015613D01*
X006201Y015552D01*
X005710Y015613D02*
X005648Y015552D01*
X005463Y015552D01*
X005463Y015737D01*
X005525Y015799D01*
X005648Y015799D01*
X005648Y015675D02*
X005463Y015675D01*
X005648Y015675D02*
X005710Y015613D01*
X004973Y015552D02*
X004788Y015552D01*
X004727Y015613D01*
X004727Y015737D01*
X004788Y015799D01*
X004973Y015799D01*
X004973Y015922D02*
X004973Y015552D01*
X004605Y015613D02*
X004543Y015552D01*
X004420Y015552D01*
X004358Y015613D01*
X004358Y015737D01*
X004420Y015799D01*
X004543Y015799D01*
X004605Y015737D01*
X004605Y015613D01*
X004237Y015552D02*
X004237Y015799D01*
X004175Y015799D01*
X004113Y015737D01*
X004052Y015799D01*
X003990Y015737D01*
X003990Y015552D01*
X003869Y015552D02*
X003683Y015552D01*
X003622Y015613D01*
X003622Y015737D01*
X003683Y015799D01*
X003869Y015799D01*
X003869Y015922D02*
X003869Y015552D01*
X004113Y015552D02*
X004113Y015737D01*
X003500Y015922D02*
X003377Y015799D01*
X003377Y015675D01*
X003500Y015552D01*
X007550Y015613D02*
X007612Y015675D01*
X007735Y015675D01*
X007797Y015737D01*
X007735Y015799D01*
X007550Y015799D01*
X007550Y015613D02*
X007612Y015552D01*
X007797Y015552D01*
X007919Y015552D02*
X008043Y015552D01*
X007981Y015552D02*
X007981Y015799D01*
X008043Y015799D01*
X007981Y015922D02*
X007981Y015984D01*
X008532Y015799D02*
X008718Y015799D01*
X008779Y015737D01*
X008718Y015675D01*
X008594Y015675D01*
X008532Y015613D01*
X008594Y015552D01*
X008779Y015552D01*
X008901Y015552D02*
X009025Y015552D01*
X008963Y015552D02*
X008963Y015799D01*
X009025Y015799D01*
X009146Y015737D02*
X009146Y015552D01*
X009146Y015737D02*
X009208Y015799D01*
X009332Y015799D01*
X009393Y015737D01*
X009515Y015799D02*
X009639Y015799D01*
X009577Y015860D02*
X009577Y015613D01*
X009515Y015552D01*
X009393Y015552D02*
X009393Y015922D01*
X009761Y015922D02*
X009884Y015799D01*
X009884Y015675D01*
X009761Y015552D01*
X008963Y015922D02*
X008963Y015984D01*
D13*
X007084Y007737D02*
X007084Y006362D01*
X005834Y006987D01*
X007084Y007737D01*
X007084Y007619D02*
X006889Y007619D01*
X007084Y007461D02*
X006624Y007461D01*
X006360Y007302D02*
X007084Y007302D01*
X007084Y007144D02*
X006096Y007144D01*
X005837Y006985D02*
X007084Y006985D01*
X007084Y006827D02*
X006154Y006827D01*
X006471Y006668D02*
X007084Y006668D01*
X007084Y006510D02*
X006788Y006510D01*
M02*
