G75*
%MOIN*%
%OFA0B0*%
%FSLAX24Y24*%
%IPPOS*%
%LPD*%
%AMOC8*
5,1,8,0,0,1.08239X$1,22.5*
%
%ADD10C,0.0000*%
%ADD11C,0.0515*%
%ADD12C,0.0740*%
%ADD13OC8,0.0520*%
%ADD14R,0.0650X0.0650*%
%ADD15C,0.0650*%
%ADD16C,0.0160*%
D10*
X002209Y000487D02*
X002209Y016235D01*
X011068Y016235D01*
X011068Y000487D01*
X002209Y000487D01*
D11*
X004763Y005424D02*
X005278Y005424D01*
X005278Y006424D02*
X004763Y006424D01*
X004763Y007424D02*
X005278Y007424D01*
X005278Y008424D02*
X004763Y008424D01*
X007763Y008424D02*
X008278Y008424D01*
X008278Y007424D02*
X007763Y007424D01*
X007763Y006424D02*
X008278Y006424D01*
X008278Y005424D02*
X007763Y005424D01*
D12*
X007599Y003767D03*
X009209Y001987D03*
X010209Y001987D03*
X009459Y004737D03*
X009459Y005737D03*
X010209Y009987D03*
X009984Y014145D03*
X009118Y014645D03*
X007209Y014487D03*
X006209Y014487D03*
X004201Y014703D03*
X003334Y014203D03*
X006209Y009987D03*
X003459Y009487D03*
X003459Y005487D03*
X005819Y003767D03*
X004209Y001487D03*
X003209Y001487D03*
X005819Y001207D03*
X007599Y001207D03*
D13*
X009709Y007237D03*
X010459Y007737D03*
X009709Y008237D03*
X009459Y011237D03*
X008959Y011987D03*
X009959Y011987D03*
X007209Y011987D03*
X006709Y011237D03*
X006209Y011987D03*
X004209Y011987D03*
X003709Y011237D03*
X003209Y011987D03*
D14*
X004209Y003487D03*
D15*
X003209Y003487D03*
D16*
X003644Y003498D02*
X002449Y003498D01*
X003644Y003498D01*
X003644Y003340D02*
X002449Y003340D01*
X003644Y003340D01*
X003644Y003181D02*
X002449Y003181D01*
X003644Y003181D01*
X003644Y003114D02*
X003681Y003026D01*
X003749Y002958D01*
X003837Y002922D01*
X004582Y002922D01*
X004670Y002958D01*
X004738Y003026D01*
X004774Y003114D01*
X004774Y003859D01*
X004738Y003948D01*
X004670Y004015D01*
X004582Y004052D01*
X003837Y004052D01*
X003749Y004015D01*
X003681Y003948D01*
X003644Y003859D01*
X003644Y003114D01*
X003681Y003026D01*
X003749Y002958D01*
X003837Y002922D01*
X004582Y002922D01*
X004670Y002958D01*
X004738Y003026D01*
X004774Y003114D01*
X004774Y003859D01*
X004738Y003948D01*
X004670Y004015D01*
X004582Y004052D01*
X003837Y004052D01*
X003749Y004015D01*
X003681Y003948D01*
X003644Y003859D01*
X003644Y003114D01*
X003684Y003023D02*
X002449Y003023D01*
X003684Y003023D01*
X003644Y003657D02*
X002449Y003657D01*
X003644Y003657D01*
X003644Y003815D02*
X002449Y003815D01*
X003644Y003815D01*
X003707Y003974D02*
X002449Y003974D01*
X003707Y003974D01*
X004044Y004449D02*
X002449Y004449D01*
X004044Y004449D01*
X003886Y004608D02*
X002449Y004608D01*
X003886Y004608D01*
X003727Y004766D02*
X002449Y004766D01*
X003727Y004766D01*
X003606Y004887D02*
X004188Y004305D01*
X004278Y004215D01*
X004396Y004167D01*
X005827Y004167D01*
X006139Y003854D01*
X006139Y003423D01*
X006188Y003305D01*
X007438Y002055D01*
X007528Y001965D01*
X007646Y001917D01*
X008577Y001917D01*
X008599Y001894D01*
X008599Y001865D01*
X008692Y001641D01*
X008864Y001470D01*
X009088Y001377D01*
X009331Y001377D01*
X009555Y001470D01*
X009709Y001624D01*
X009864Y001470D01*
X010088Y001377D01*
X010331Y001377D01*
X010555Y001470D01*
X010727Y001641D01*
X010819Y001865D01*
X010819Y002108D01*
X010727Y002332D01*
X010555Y002504D01*
X010529Y002514D01*
X010529Y002550D01*
X010481Y002668D01*
X010391Y002758D01*
X008222Y004926D01*
X008377Y004926D01*
X008560Y005002D01*
X008700Y005142D01*
X008775Y005325D01*
X008775Y005523D01*
X008700Y005705D01*
X008560Y005845D01*
X008377Y005921D01*
X007664Y005921D01*
X007481Y005845D01*
X007442Y005807D01*
X007342Y005807D01*
X006529Y006619D01*
X006529Y009459D01*
X006555Y009470D01*
X006727Y009641D01*
X006819Y009865D01*
X006819Y010108D01*
X006727Y010332D01*
X006555Y010504D01*
X006331Y010597D01*
X006088Y010597D01*
X005864Y010504D01*
X005692Y010332D01*
X005599Y010108D01*
X005599Y009865D01*
X005692Y009641D01*
X005864Y009470D01*
X005889Y009459D01*
X005889Y007009D01*
X005716Y007182D01*
X005775Y007325D01*
X005775Y007523D01*
X005700Y007705D01*
X005560Y007845D01*
X005377Y007921D01*
X004664Y007921D01*
X004481Y007845D01*
X004341Y007705D01*
X004266Y007523D01*
X004266Y007325D01*
X004341Y007142D01*
X004481Y007002D01*
X004664Y006926D01*
X005067Y006926D01*
X005072Y006921D01*
X004664Y006921D01*
X004481Y006845D01*
X004341Y006705D01*
X004266Y006523D01*
X004266Y006325D01*
X004341Y006142D01*
X004481Y006002D01*
X004664Y005926D01*
X005377Y005926D01*
X005560Y006002D01*
X005666Y006108D01*
X005688Y006055D01*
X007188Y004555D01*
X007278Y004465D01*
X007396Y004417D01*
X007827Y004417D01*
X009802Y002442D01*
X009709Y002349D01*
X009555Y002504D01*
X009331Y002597D01*
X009088Y002597D01*
X008882Y002511D01*
X008773Y002557D01*
X007842Y002557D01*
X006779Y003619D01*
X006779Y004050D01*
X006731Y004168D01*
X006641Y004258D01*
X006141Y004758D01*
X006023Y004807D01*
X004592Y004807D01*
X004059Y005340D01*
X004069Y005365D01*
X004069Y005608D01*
X003977Y005832D01*
X003805Y006004D01*
X003581Y006097D01*
X003338Y006097D01*
X003114Y006004D01*
X002942Y005832D01*
X002849Y005608D01*
X002849Y005365D01*
X002942Y005141D01*
X003114Y004970D01*
X003338Y004877D01*
X003581Y004877D01*
X003606Y004887D01*
X004188Y004305D01*
X004278Y004215D01*
X004396Y004167D01*
X005827Y004167D01*
X006139Y003854D01*
X006139Y003423D01*
X006188Y003305D01*
X007438Y002055D01*
X007528Y001965D01*
X007646Y001917D01*
X008577Y001917D01*
X008599Y001894D01*
X008599Y001865D01*
X008692Y001641D01*
X008864Y001470D01*
X009088Y001377D01*
X009331Y001377D01*
X009555Y001470D01*
X009709Y001624D01*
X009864Y001470D01*
X010088Y001377D01*
X010331Y001377D01*
X010555Y001470D01*
X010727Y001641D01*
X010819Y001865D01*
X010819Y002108D01*
X010727Y002332D01*
X010555Y002504D01*
X010529Y002514D01*
X010529Y002550D01*
X010481Y002668D01*
X010391Y002758D01*
X008222Y004926D01*
X008377Y004926D01*
X008560Y005002D01*
X008700Y005142D01*
X008775Y005325D01*
X008775Y005523D01*
X008700Y005705D01*
X008560Y005845D01*
X008377Y005921D01*
X007664Y005921D01*
X007481Y005845D01*
X007442Y005807D01*
X007342Y005807D01*
X006529Y006619D01*
X006529Y009459D01*
X006555Y009470D01*
X006727Y009641D01*
X006819Y009865D01*
X006819Y010108D01*
X006727Y010332D01*
X006555Y010504D01*
X006331Y010597D01*
X006088Y010597D01*
X005864Y010504D01*
X005692Y010332D01*
X005599Y010108D01*
X005599Y009865D01*
X005692Y009641D01*
X005864Y009470D01*
X005889Y009459D01*
X005889Y007009D01*
X005716Y007182D01*
X005775Y007325D01*
X005775Y007523D01*
X005700Y007705D01*
X005560Y007845D01*
X005377Y007921D01*
X004664Y007921D01*
X004481Y007845D01*
X004341Y007705D01*
X004266Y007523D01*
X004266Y007325D01*
X004341Y007142D01*
X004481Y007002D01*
X004664Y006926D01*
X005067Y006926D01*
X005072Y006921D01*
X004664Y006921D01*
X004481Y006845D01*
X004341Y006705D01*
X004266Y006523D01*
X004266Y006325D01*
X004341Y006142D01*
X004481Y006002D01*
X004664Y005926D01*
X005377Y005926D01*
X005560Y006002D01*
X005666Y006108D01*
X005688Y006055D01*
X007188Y004555D01*
X007278Y004465D01*
X007396Y004417D01*
X007827Y004417D01*
X009802Y002442D01*
X009709Y002349D01*
X009555Y002504D01*
X009331Y002597D01*
X009088Y002597D01*
X008882Y002511D01*
X008773Y002557D01*
X007842Y002557D01*
X006779Y003619D01*
X006779Y004050D01*
X006731Y004168D01*
X006641Y004258D01*
X006141Y004758D01*
X006023Y004807D01*
X004592Y004807D01*
X004059Y005340D01*
X004069Y005365D01*
X004069Y005608D01*
X003977Y005832D01*
X003805Y006004D01*
X003581Y006097D01*
X003338Y006097D01*
X003114Y006004D01*
X002942Y005832D01*
X002849Y005608D01*
X002849Y005365D01*
X002942Y005141D01*
X003114Y004970D01*
X003338Y004877D01*
X003581Y004877D01*
X003606Y004887D01*
X003222Y004925D02*
X002449Y004925D01*
X003222Y004925D01*
X003000Y005083D02*
X002449Y005083D01*
X003000Y005083D01*
X002901Y005242D02*
X002449Y005242D01*
X002901Y005242D01*
X002849Y005400D02*
X002449Y005400D01*
X002849Y005400D01*
X002849Y005559D02*
X002449Y005559D01*
X002849Y005559D01*
X002895Y005717D02*
X002449Y005717D01*
X002895Y005717D01*
X002986Y005876D02*
X002449Y005876D01*
X002986Y005876D01*
X003187Y006034D02*
X002449Y006034D01*
X003187Y006034D01*
X003459Y005487D02*
X004459Y004487D01*
X005959Y004487D01*
X006459Y003987D01*
X006459Y003487D01*
X007709Y002237D01*
X008709Y002237D01*
X008959Y001987D01*
X009209Y001987D01*
X008969Y002547D02*
X008796Y002547D01*
X008969Y002547D01*
X009379Y002864D02*
X007535Y002864D01*
X009379Y002864D01*
X009221Y003023D02*
X007376Y003023D01*
X009221Y003023D01*
X009062Y003181D02*
X007780Y003181D01*
X009062Y003181D01*
X008904Y003340D02*
X008035Y003340D01*
X008904Y003340D01*
X008745Y003498D02*
X008149Y003498D01*
X008745Y003498D01*
X008587Y003657D02*
X008209Y003657D01*
X008587Y003657D01*
X008428Y003815D02*
X008209Y003815D01*
X008428Y003815D01*
X008270Y003974D02*
X008174Y003974D01*
X008270Y003974D01*
X008209Y003888D02*
X008209Y003645D01*
X008117Y003421D01*
X007945Y003250D01*
X007721Y003157D01*
X007478Y003157D01*
X007254Y003250D01*
X007082Y003421D01*
X006989Y003645D01*
X006989Y003888D01*
X007082Y004112D01*
X007254Y004284D01*
X007478Y004377D01*
X007721Y004377D01*
X007945Y004284D01*
X008117Y004112D01*
X008209Y003888D01*
X008117Y004112D01*
X007945Y004284D01*
X007721Y004377D01*
X007478Y004377D01*
X007254Y004284D01*
X007082Y004112D01*
X006989Y003888D01*
X006989Y003645D01*
X007082Y003421D01*
X007254Y003250D01*
X007478Y003157D01*
X007721Y003157D01*
X007945Y003250D01*
X008117Y003421D01*
X008209Y003645D01*
X008209Y003888D01*
X008111Y004132D02*
X008097Y004132D01*
X008111Y004132D01*
X007953Y004291D02*
X007928Y004291D01*
X007953Y004291D01*
X007959Y004737D02*
X007459Y004737D01*
X005959Y006237D01*
X005959Y006487D01*
X005209Y007237D01*
X005021Y007424D01*
X004664Y007926D02*
X005377Y007926D01*
X005560Y008002D01*
X005700Y008142D01*
X005775Y008325D01*
X005775Y008523D01*
X005700Y008705D01*
X005560Y008845D01*
X005377Y008921D01*
X004664Y008921D01*
X004481Y008845D01*
X004341Y008705D01*
X004266Y008523D01*
X004266Y008325D01*
X004341Y008142D01*
X004481Y008002D01*
X004664Y007926D01*
X005377Y007926D01*
X005560Y008002D01*
X005700Y008142D01*
X005775Y008325D01*
X005775Y008523D01*
X005700Y008705D01*
X005560Y008845D01*
X005377Y008921D01*
X004664Y008921D01*
X004481Y008845D01*
X004341Y008705D01*
X004266Y008523D01*
X004266Y008325D01*
X004341Y008142D01*
X004481Y008002D01*
X004664Y007926D01*
X004640Y007936D02*
X002449Y007936D01*
X004640Y007936D01*
X004413Y007778D02*
X002449Y007778D01*
X004413Y007778D01*
X004306Y007619D02*
X002449Y007619D01*
X004306Y007619D01*
X004266Y007461D02*
X002449Y007461D01*
X004266Y007461D01*
X004275Y007302D02*
X002449Y007302D01*
X004275Y007302D01*
X004341Y007144D02*
X002449Y007144D01*
X004341Y007144D01*
X004522Y006985D02*
X002449Y006985D01*
X004522Y006985D01*
X004462Y006827D02*
X002449Y006827D01*
X004462Y006827D01*
X004326Y006668D02*
X002449Y006668D01*
X004326Y006668D01*
X004266Y006510D02*
X002449Y006510D01*
X004266Y006510D01*
X004266Y006351D02*
X002449Y006351D01*
X004266Y006351D01*
X004320Y006193D02*
X002449Y006193D01*
X004320Y006193D01*
X004449Y006034D02*
X003732Y006034D01*
X004449Y006034D01*
X004069Y005559D02*
X006185Y005559D01*
X004069Y005559D01*
X004069Y005400D02*
X006343Y005400D01*
X004069Y005400D01*
X004157Y005242D02*
X006502Y005242D01*
X004157Y005242D01*
X004316Y005083D02*
X006660Y005083D01*
X004316Y005083D01*
X004474Y004925D02*
X006819Y004925D01*
X004474Y004925D01*
X004203Y004291D02*
X002449Y004291D01*
X004203Y004291D01*
X004712Y003974D02*
X006020Y003974D01*
X004712Y003974D01*
X004774Y003815D02*
X006139Y003815D01*
X004774Y003815D01*
X004774Y003657D02*
X006139Y003657D01*
X004774Y003657D01*
X004774Y003498D02*
X006139Y003498D01*
X004774Y003498D01*
X004774Y003340D02*
X006174Y003340D01*
X004774Y003340D01*
X004774Y003181D02*
X006312Y003181D01*
X004774Y003181D01*
X004735Y003023D02*
X006471Y003023D01*
X004735Y003023D01*
X004331Y002097D02*
X004088Y002097D01*
X003864Y002004D01*
X003692Y001832D01*
X003599Y001608D01*
X003599Y001365D01*
X003692Y001141D01*
X003864Y000970D01*
X004088Y000877D01*
X004331Y000877D01*
X004555Y000970D01*
X004727Y001141D01*
X004819Y001365D01*
X004819Y001608D01*
X004727Y001832D01*
X004555Y002004D01*
X004331Y002097D01*
X004088Y002097D01*
X003864Y002004D01*
X003692Y001832D01*
X003599Y001608D01*
X003599Y001365D01*
X003692Y001141D01*
X003864Y000970D01*
X004088Y000877D01*
X004331Y000877D01*
X004555Y000970D01*
X004727Y001141D01*
X004819Y001365D01*
X004819Y001608D01*
X004727Y001832D01*
X004555Y002004D01*
X004331Y002097D01*
X004391Y002072D02*
X007422Y002072D01*
X004391Y002072D01*
X004646Y001913D02*
X008580Y001913D01*
X004646Y001913D01*
X004759Y001755D02*
X005548Y001755D01*
X004759Y001755D01*
X004819Y001596D02*
X005346Y001596D01*
X004819Y001596D01*
X004819Y001438D02*
X005255Y001438D01*
X004819Y001438D01*
X004784Y001279D02*
X005209Y001279D01*
X004784Y001279D01*
X004706Y001121D02*
X005209Y001121D01*
X004706Y001121D01*
X004537Y000962D02*
X005260Y000962D01*
X004537Y000962D01*
X003882Y000962D02*
X002449Y000962D01*
X003882Y000962D01*
X003713Y001121D02*
X002449Y001121D01*
X003713Y001121D01*
X003635Y001279D02*
X002449Y001279D01*
X003635Y001279D01*
X003599Y001438D02*
X002449Y001438D01*
X003599Y001438D01*
X003599Y001596D02*
X002449Y001596D01*
X003599Y001596D01*
X003660Y001755D02*
X002449Y001755D01*
X003660Y001755D01*
X003773Y001913D02*
X002449Y001913D01*
X003773Y001913D01*
X004028Y002072D02*
X002449Y002072D01*
X004028Y002072D01*
X005302Y001552D02*
X005209Y001328D01*
X005209Y001085D01*
X005302Y000861D01*
X005437Y000727D01*
X002449Y000727D01*
X002449Y015995D01*
X010828Y015995D01*
X010828Y008076D01*
X010667Y008237D01*
X010252Y008237D01*
X010209Y008194D01*
X010209Y008444D01*
X009917Y008737D01*
X009529Y008737D01*
X009529Y010604D01*
X009641Y010715D01*
X009662Y010737D01*
X009667Y010737D01*
X009959Y011030D01*
X009959Y011444D01*
X009917Y011487D01*
X010167Y011487D01*
X010459Y011780D01*
X010459Y012194D01*
X010167Y012487D01*
X009752Y012487D01*
X009459Y012194D01*
X009459Y011780D01*
X009502Y011737D01*
X009252Y011737D01*
X008959Y011444D01*
X008959Y011030D01*
X009005Y010984D01*
X008938Y010918D01*
X008889Y010800D01*
X008889Y009759D01*
X007209Y011439D01*
X007209Y011444D01*
X007167Y011487D01*
X007417Y011487D01*
X007709Y011780D01*
X007709Y012194D01*
X007417Y012487D01*
X007002Y012487D01*
X006709Y012194D01*
X006709Y011780D01*
X006752Y011737D01*
X006502Y011737D01*
X006209Y011444D01*
X006209Y011030D01*
X006502Y010737D01*
X006917Y010737D01*
X006962Y010782D01*
X008889Y008854D01*
X008889Y007923D01*
X008938Y007805D01*
X009028Y007715D01*
X009255Y007489D01*
X009209Y007444D01*
X009209Y007030D01*
X009502Y006737D01*
X009917Y006737D01*
X010209Y007030D01*
X010209Y007280D01*
X010252Y007237D01*
X010667Y007237D01*
X010828Y007398D01*
X010828Y000727D01*
X007982Y000727D01*
X008117Y000861D01*
X008209Y001085D01*
X008209Y001328D01*
X008117Y001552D01*
X007945Y001724D01*
X007721Y001817D01*
X007478Y001817D01*
X007254Y001724D01*
X007082Y001552D01*
X006989Y001328D01*
X006989Y001085D01*
X007082Y000861D01*
X007217Y000727D01*
X006202Y000727D01*
X006337Y000861D01*
X006429Y001085D01*
X006429Y001328D01*
X006337Y001552D01*
X006165Y001724D01*
X005941Y001817D01*
X005698Y001817D01*
X005474Y001724D01*
X005302Y001552D01*
X005209Y001328D01*
X005209Y001085D01*
X005302Y000861D01*
X005437Y000727D01*
X002449Y000727D01*
X002449Y015995D01*
X010828Y015995D01*
X010828Y008076D01*
X010667Y008237D01*
X010252Y008237D01*
X010209Y008194D01*
X010209Y008444D01*
X009917Y008737D01*
X009529Y008737D01*
X009529Y010604D01*
X009641Y010715D01*
X009662Y010737D01*
X009667Y010737D01*
X009959Y011030D01*
X009959Y011444D01*
X009917Y011487D01*
X010167Y011487D01*
X010459Y011780D01*
X010459Y012194D01*
X010167Y012487D01*
X009752Y012487D01*
X009459Y012194D01*
X009459Y011780D01*
X009502Y011737D01*
X009252Y011737D01*
X008959Y011444D01*
X008959Y011030D01*
X009005Y010984D01*
X008938Y010918D01*
X008889Y010800D01*
X008889Y009759D01*
X007209Y011439D01*
X007209Y011444D01*
X007167Y011487D01*
X007417Y011487D01*
X007709Y011780D01*
X007709Y012194D01*
X007417Y012487D01*
X007002Y012487D01*
X006709Y012194D01*
X006709Y011780D01*
X006752Y011737D01*
X006502Y011737D01*
X006209Y011444D01*
X006209Y011030D01*
X006502Y010737D01*
X006917Y010737D01*
X006962Y010782D01*
X008889Y008854D01*
X008889Y007923D01*
X008938Y007805D01*
X009028Y007715D01*
X009255Y007489D01*
X009209Y007444D01*
X009209Y007030D01*
X009502Y006737D01*
X009917Y006737D01*
X010209Y007030D01*
X010209Y007280D01*
X010252Y007237D01*
X010667Y007237D01*
X010828Y007398D01*
X010828Y000727D01*
X007982Y000727D01*
X008117Y000861D01*
X008209Y001085D01*
X008209Y001328D01*
X008117Y001552D01*
X007945Y001724D01*
X007721Y001817D01*
X007478Y001817D01*
X007254Y001724D01*
X007082Y001552D01*
X006989Y001328D01*
X006989Y001085D01*
X007082Y000861D01*
X007217Y000727D01*
X006202Y000727D01*
X006337Y000861D01*
X006429Y001085D01*
X006429Y001328D01*
X006337Y001552D01*
X006165Y001724D01*
X005941Y001817D01*
X005698Y001817D01*
X005474Y001724D01*
X005302Y001552D01*
X005360Y000804D02*
X002449Y000804D01*
X005360Y000804D01*
X006090Y001755D02*
X007328Y001755D01*
X006090Y001755D01*
X006293Y001596D02*
X007126Y001596D01*
X006293Y001596D01*
X006384Y001438D02*
X007035Y001438D01*
X006384Y001438D01*
X006429Y001279D02*
X006989Y001279D01*
X006429Y001279D01*
X006429Y001121D02*
X006989Y001121D01*
X006429Y001121D01*
X006378Y000962D02*
X007040Y000962D01*
X006378Y000962D01*
X006279Y000804D02*
X007140Y000804D01*
X006279Y000804D01*
X007263Y002230D02*
X002449Y002230D01*
X007263Y002230D01*
X007105Y002389D02*
X002449Y002389D01*
X007105Y002389D01*
X006946Y002547D02*
X002449Y002547D01*
X006946Y002547D01*
X006788Y002706D02*
X002449Y002706D01*
X006788Y002706D01*
X006629Y002864D02*
X002449Y002864D01*
X006629Y002864D01*
X007059Y003340D02*
X007164Y003340D01*
X007059Y003340D01*
X007050Y003498D02*
X006901Y003498D01*
X007050Y003498D01*
X006989Y003657D02*
X006779Y003657D01*
X006989Y003657D01*
X006989Y003815D02*
X006779Y003815D01*
X006989Y003815D01*
X007025Y003974D02*
X006779Y003974D01*
X007025Y003974D01*
X007102Y004132D02*
X006746Y004132D01*
X007102Y004132D01*
X007271Y004291D02*
X006608Y004291D01*
X007271Y004291D01*
X007317Y004449D02*
X006450Y004449D01*
X007317Y004449D01*
X007136Y004608D02*
X006291Y004608D01*
X007136Y004608D01*
X006977Y004766D02*
X006121Y004766D01*
X006977Y004766D01*
X007209Y005487D02*
X006209Y006487D01*
X006209Y009987D01*
X005812Y009521D02*
X002449Y009521D01*
X005812Y009521D01*
X005889Y009363D02*
X002449Y009363D01*
X005889Y009363D01*
X005889Y009204D02*
X002449Y009204D01*
X005889Y009204D01*
X005889Y009046D02*
X002449Y009046D01*
X005889Y009046D01*
X005889Y008887D02*
X005459Y008887D01*
X005889Y008887D01*
X005889Y008729D02*
X005677Y008729D01*
X005889Y008729D01*
X005889Y008570D02*
X005756Y008570D01*
X005889Y008570D01*
X005889Y008412D02*
X005775Y008412D01*
X005889Y008412D01*
X005889Y008253D02*
X005746Y008253D01*
X005889Y008253D01*
X005889Y008095D02*
X005653Y008095D01*
X005889Y008095D01*
X005889Y007936D02*
X005401Y007936D01*
X005889Y007936D01*
X005889Y007778D02*
X005628Y007778D01*
X005889Y007778D01*
X005889Y007619D02*
X005735Y007619D01*
X005889Y007619D01*
X005889Y007461D02*
X005775Y007461D01*
X005889Y007461D01*
X005889Y007302D02*
X005766Y007302D01*
X005889Y007302D01*
X005889Y007144D02*
X005755Y007144D01*
X005889Y007144D01*
X006529Y007144D02*
X007341Y007144D01*
X006529Y007144D01*
X006529Y007302D02*
X007275Y007302D01*
X006529Y007302D01*
X006529Y007461D02*
X007266Y007461D01*
X006529Y007461D01*
X006529Y007619D02*
X007306Y007619D01*
X006529Y007619D01*
X006529Y007778D02*
X007413Y007778D01*
X006529Y007778D01*
X006529Y007936D02*
X007640Y007936D01*
X006529Y007936D01*
X006529Y008095D02*
X007388Y008095D01*
X006529Y008095D01*
X006529Y008253D02*
X007295Y008253D01*
X006529Y008253D01*
X006529Y008412D02*
X007266Y008412D01*
X006529Y008412D01*
X006529Y008570D02*
X007285Y008570D01*
X006529Y008570D01*
X006529Y008729D02*
X007364Y008729D01*
X006529Y008729D01*
X006529Y008887D02*
X007582Y008887D01*
X006529Y008887D01*
X006529Y009046D02*
X008698Y009046D01*
X006529Y009046D01*
X006529Y009204D02*
X008539Y009204D01*
X006529Y009204D01*
X006529Y009363D02*
X008381Y009363D01*
X006529Y009363D01*
X006607Y009521D02*
X008222Y009521D01*
X006607Y009521D01*
X006743Y009680D02*
X008064Y009680D01*
X006743Y009680D01*
X006808Y009838D02*
X007905Y009838D01*
X006808Y009838D01*
X006819Y009997D02*
X007747Y009997D01*
X006819Y009997D01*
X006800Y010155D02*
X007588Y010155D01*
X006800Y010155D01*
X006734Y010314D02*
X007430Y010314D01*
X006734Y010314D01*
X006587Y010472D02*
X007271Y010472D01*
X006587Y010472D01*
X006450Y010789D02*
X003969Y010789D01*
X006450Y010789D01*
X006291Y010948D02*
X004128Y010948D01*
X006291Y010948D01*
X006209Y011106D02*
X004209Y011106D01*
X006209Y011106D01*
X006209Y011265D02*
X004209Y011265D01*
X006209Y011265D01*
X006209Y011423D02*
X004209Y011423D01*
X006209Y011423D01*
X006347Y011582D02*
X004512Y011582D01*
X006347Y011582D01*
X006749Y011740D02*
X004670Y011740D01*
X006749Y011740D01*
X006709Y011899D02*
X004709Y011899D01*
X006709Y011899D01*
X006709Y012057D02*
X004709Y012057D01*
X006709Y012057D01*
X006731Y012216D02*
X004688Y012216D01*
X006731Y012216D01*
X006890Y012374D02*
X004529Y012374D01*
X006890Y012374D01*
X007529Y012374D02*
X009640Y012374D01*
X007529Y012374D01*
X007688Y012216D02*
X009481Y012216D01*
X007688Y012216D01*
X007709Y012057D02*
X009459Y012057D01*
X007709Y012057D01*
X007709Y011899D02*
X009459Y011899D01*
X007709Y011899D01*
X007670Y011740D02*
X009499Y011740D01*
X007670Y011740D01*
X007512Y011582D02*
X009097Y011582D01*
X007512Y011582D01*
X007226Y011423D02*
X008959Y011423D01*
X007226Y011423D01*
X007384Y011265D02*
X008959Y011265D01*
X007384Y011265D01*
X007543Y011106D02*
X008959Y011106D01*
X007543Y011106D01*
X007701Y010948D02*
X008968Y010948D01*
X007701Y010948D01*
X007860Y010789D02*
X008889Y010789D01*
X007860Y010789D01*
X008018Y010631D02*
X008889Y010631D01*
X008018Y010631D01*
X008177Y010472D02*
X008889Y010472D01*
X008177Y010472D01*
X008335Y010314D02*
X008889Y010314D01*
X008335Y010314D01*
X008494Y010155D02*
X008889Y010155D01*
X008494Y010155D01*
X008652Y009997D02*
X008889Y009997D01*
X008652Y009997D01*
X008811Y009838D02*
X008889Y009838D01*
X008811Y009838D01*
X009529Y009838D02*
X009611Y009838D01*
X009529Y009838D01*
X009599Y009865D02*
X009692Y009641D01*
X009864Y009470D01*
X010088Y009377D01*
X010331Y009377D01*
X010555Y009470D01*
X010727Y009641D01*
X010819Y009865D01*
X010819Y010108D01*
X010727Y010332D01*
X010555Y010504D01*
X010331Y010597D01*
X010088Y010597D01*
X009864Y010504D01*
X009692Y010332D01*
X009599Y010108D01*
X009599Y009865D01*
X009692Y009641D01*
X009864Y009470D01*
X010088Y009377D01*
X010331Y009377D01*
X010555Y009470D01*
X010727Y009641D01*
X010819Y009865D01*
X010819Y010108D01*
X010727Y010332D01*
X010555Y010504D01*
X010331Y010597D01*
X010088Y010597D01*
X009864Y010504D01*
X009692Y010332D01*
X009599Y010108D01*
X009599Y009865D01*
X009599Y009997D02*
X009529Y009997D01*
X009599Y009997D01*
X009619Y010155D02*
X009529Y010155D01*
X009619Y010155D01*
X009685Y010314D02*
X009529Y010314D01*
X009685Y010314D01*
X009832Y010472D02*
X009529Y010472D01*
X009832Y010472D01*
X009556Y010631D02*
X010828Y010631D01*
X009556Y010631D01*
X009719Y010789D02*
X010828Y010789D01*
X009719Y010789D01*
X009878Y010948D02*
X010828Y010948D01*
X009878Y010948D01*
X009959Y011106D02*
X010828Y011106D01*
X009959Y011106D01*
X009959Y011265D02*
X010828Y011265D01*
X009959Y011265D01*
X009959Y011423D02*
X010828Y011423D01*
X009959Y011423D01*
X010262Y011582D02*
X010828Y011582D01*
X010262Y011582D01*
X010420Y011740D02*
X010828Y011740D01*
X010420Y011740D01*
X010459Y011899D02*
X010828Y011899D01*
X010459Y011899D01*
X010459Y012057D02*
X010828Y012057D01*
X010459Y012057D01*
X010438Y012216D02*
X010828Y012216D01*
X010438Y012216D01*
X010279Y012374D02*
X010828Y012374D01*
X010279Y012374D01*
X010828Y012533D02*
X002449Y012533D01*
X010828Y012533D01*
X010828Y012691D02*
X002449Y012691D01*
X010828Y012691D01*
X010828Y012850D02*
X002449Y012850D01*
X010828Y012850D01*
X010828Y013008D02*
X002449Y013008D01*
X010828Y013008D01*
X010828Y013167D02*
X004773Y013167D01*
X004891Y013215D01*
X005754Y014079D01*
X005864Y013970D01*
X006088Y013877D01*
X006331Y013877D01*
X006555Y013970D01*
X006709Y014124D01*
X006864Y013970D01*
X007088Y013877D01*
X007331Y013877D01*
X007555Y013970D01*
X007727Y014141D01*
X007819Y014365D01*
X007819Y014608D01*
X007727Y014832D01*
X007555Y015004D01*
X007331Y015097D01*
X007088Y015097D01*
X006864Y015004D01*
X006709Y014849D01*
X006555Y015004D01*
X006331Y015097D01*
X006088Y015097D01*
X005864Y015004D01*
X005692Y014832D01*
X005682Y014807D01*
X005646Y014807D01*
X005528Y014758D01*
X005438Y014668D01*
X004577Y013807D01*
X004092Y013807D01*
X003907Y013992D01*
X003944Y014082D01*
X003944Y014149D01*
X004079Y014093D01*
X004322Y014093D01*
X004546Y014186D01*
X004718Y014358D01*
X004811Y014582D01*
X004811Y014825D01*
X004718Y015049D01*
X004546Y015220D01*
X004322Y015313D01*
X004079Y015313D01*
X003855Y015220D01*
X003683Y015049D01*
X003591Y014825D01*
X003591Y014757D01*
X003456Y014813D01*
X003213Y014813D01*
X002989Y014720D01*
X002817Y014549D01*
X002724Y014325D01*
X002724Y014082D01*
X002817Y013858D01*
X002989Y013686D01*
X003213Y013593D01*
X003400Y013593D01*
X003688Y013305D01*
X003778Y013215D01*
X003896Y013167D01*
X004773Y013167D01*
X004891Y013215D01*
X005754Y014079D01*
X005864Y013970D01*
X006088Y013877D01*
X006331Y013877D01*
X006555Y013970D01*
X006709Y014124D01*
X006864Y013970D01*
X007088Y013877D01*
X007331Y013877D01*
X007555Y013970D01*
X007727Y014141D01*
X007819Y014365D01*
X007819Y014608D01*
X007727Y014832D01*
X007555Y015004D01*
X007331Y015097D01*
X007088Y015097D01*
X006864Y015004D01*
X006709Y014849D01*
X006555Y015004D01*
X006331Y015097D01*
X006088Y015097D01*
X005864Y015004D01*
X005692Y014832D01*
X005682Y014807D01*
X005646Y014807D01*
X005528Y014758D01*
X005438Y014668D01*
X005438Y014668D01*
X004577Y013807D01*
X004092Y013807D01*
X003907Y013992D01*
X003944Y014082D01*
X003944Y014149D01*
X004079Y014093D01*
X004322Y014093D01*
X004546Y014186D01*
X004718Y014358D01*
X004811Y014582D01*
X004811Y014825D01*
X004718Y015049D01*
X004546Y015220D01*
X004322Y015313D01*
X004079Y015313D01*
X003855Y015220D01*
X003683Y015049D01*
X003591Y014825D01*
X003591Y014757D01*
X003456Y014813D01*
X003213Y014813D01*
X002989Y014720D01*
X002817Y014549D01*
X002724Y014325D01*
X002724Y014082D01*
X002817Y013858D01*
X002989Y013686D01*
X003213Y013593D01*
X003400Y013593D01*
X003688Y013305D01*
X003688Y013305D01*
X003778Y013215D01*
X003896Y013167D01*
X004773Y013167D01*
X010828Y013167D01*
X010828Y013325D02*
X005001Y013325D01*
X010828Y013325D01*
X010828Y013484D02*
X005159Y013484D01*
X010828Y013484D01*
X010828Y013642D02*
X010344Y013642D01*
X010828Y013642D01*
X010828Y013801D02*
X010502Y013801D01*
X010828Y013801D01*
X010828Y013959D02*
X010567Y013959D01*
X010828Y013959D01*
X010828Y014118D02*
X010594Y014118D01*
X010828Y014118D01*
X010828Y014276D02*
X010590Y014276D01*
X010828Y014276D01*
X010828Y014435D02*
X010524Y014435D01*
X010828Y014435D01*
X010828Y014593D02*
X010399Y014593D01*
X010828Y014593D01*
X010828Y014752D02*
X010114Y014752D01*
X010828Y014752D01*
X010828Y014910D02*
X009668Y014910D01*
X010828Y014910D01*
X010828Y015069D02*
X009557Y015069D01*
X010828Y015069D01*
X010828Y015227D02*
X009307Y015227D01*
X010828Y015227D01*
X010828Y015386D02*
X002449Y015386D01*
X010828Y015386D01*
X010828Y015544D02*
X002449Y015544D01*
X010828Y015544D01*
X010828Y015703D02*
X002449Y015703D01*
X010828Y015703D01*
X010828Y015861D02*
X002449Y015861D01*
X010828Y015861D01*
X010330Y014662D02*
X010105Y014755D01*
X009863Y014755D01*
X009728Y014699D01*
X009728Y014766D01*
X009635Y014991D01*
X009464Y015162D01*
X009239Y015255D01*
X008997Y015255D01*
X008772Y015162D01*
X008601Y014991D01*
X008508Y014766D01*
X008508Y014524D01*
X008601Y014300D01*
X008772Y014128D01*
X008997Y014035D01*
X009239Y014035D01*
X009374Y014091D01*
X009374Y014024D01*
X009467Y013800D01*
X009638Y013628D01*
X009863Y013535D01*
X010105Y013535D01*
X010330Y013628D01*
X010501Y013800D01*
X010594Y014024D01*
X010594Y014266D01*
X010501Y014491D01*
X010330Y014662D01*
X010105Y014755D01*
X009863Y014755D01*
X009728Y014699D01*
X009728Y014766D01*
X009635Y014991D01*
X009464Y015162D01*
X009239Y015255D01*
X008997Y015255D01*
X008772Y015162D01*
X008601Y014991D01*
X008508Y014766D01*
X008508Y014524D01*
X008601Y014300D01*
X008772Y014128D01*
X008997Y014035D01*
X009239Y014035D01*
X009374Y014091D01*
X009374Y014024D01*
X009467Y013800D01*
X009638Y013628D01*
X009863Y013535D01*
X010105Y013535D01*
X010330Y013628D01*
X010501Y013800D01*
X010594Y014024D01*
X010594Y014266D01*
X010501Y014491D01*
X010330Y014662D01*
X009854Y014752D02*
X009728Y014752D01*
X009854Y014752D01*
X009401Y013959D02*
X007530Y013959D01*
X009401Y013959D01*
X009466Y013801D02*
X005476Y013801D01*
X009466Y013801D01*
X009624Y013642D02*
X005318Y013642D01*
X009624Y013642D01*
X008797Y014118D02*
X007703Y014118D01*
X008797Y014118D01*
X008624Y014276D02*
X007783Y014276D01*
X008624Y014276D01*
X008545Y014435D02*
X007819Y014435D01*
X008545Y014435D01*
X008508Y014593D02*
X007819Y014593D01*
X008508Y014593D01*
X008508Y014752D02*
X007760Y014752D01*
X008508Y014752D01*
X008567Y014910D02*
X007649Y014910D01*
X008567Y014910D01*
X008679Y015069D02*
X007398Y015069D01*
X008679Y015069D01*
X008929Y015227D02*
X004529Y015227D01*
X008929Y015227D01*
X007021Y015069D02*
X006398Y015069D01*
X007021Y015069D01*
X006770Y014910D02*
X006649Y014910D01*
X006770Y014910D01*
X006209Y014487D02*
X005709Y014487D01*
X004709Y013487D01*
X003959Y013487D01*
X003459Y013987D01*
X003334Y014203D01*
X003065Y014752D02*
X002449Y014752D01*
X003065Y014752D01*
X002862Y014593D02*
X002449Y014593D01*
X002862Y014593D01*
X002770Y014435D02*
X002449Y014435D01*
X002770Y014435D01*
X002724Y014276D02*
X002449Y014276D01*
X002724Y014276D01*
X002724Y014118D02*
X002449Y014118D01*
X002724Y014118D01*
X002775Y013959D02*
X002449Y013959D01*
X002775Y013959D01*
X002874Y013801D02*
X002449Y013801D01*
X002874Y013801D01*
X003095Y013642D02*
X002449Y013642D01*
X003095Y013642D01*
X003510Y013484D02*
X002449Y013484D01*
X003510Y013484D01*
X003668Y013325D02*
X002449Y013325D01*
X003668Y013325D01*
X003688Y013305D02*
X003688Y013305D01*
X003896Y013167D02*
X002449Y013167D01*
X003896Y013167D01*
X004002Y012487D02*
X003709Y012194D01*
X003709Y011780D01*
X003752Y011737D01*
X003502Y011737D01*
X003209Y011444D01*
X003209Y011030D01*
X003502Y010737D01*
X003917Y010737D01*
X004209Y011030D01*
X004209Y011444D01*
X004167Y011487D01*
X004417Y011487D01*
X004709Y011780D01*
X004709Y012194D01*
X004417Y012487D01*
X004002Y012487D01*
X003709Y012194D01*
X003709Y011780D01*
X003752Y011737D01*
X003502Y011737D01*
X003209Y011444D01*
X003209Y011030D01*
X003502Y010737D01*
X003917Y010737D01*
X004209Y011030D01*
X004209Y011444D01*
X004167Y011487D01*
X004417Y011487D01*
X004709Y011780D01*
X004709Y012194D01*
X004417Y012487D01*
X004002Y012487D01*
X003890Y012374D02*
X002449Y012374D01*
X003890Y012374D01*
X003731Y012216D02*
X002449Y012216D01*
X003731Y012216D01*
X003709Y012057D02*
X002449Y012057D01*
X003709Y012057D01*
X003709Y011899D02*
X002449Y011899D01*
X003709Y011899D01*
X003749Y011740D02*
X002449Y011740D01*
X003749Y011740D01*
X003347Y011582D02*
X002449Y011582D01*
X003347Y011582D01*
X003209Y011423D02*
X002449Y011423D01*
X003209Y011423D01*
X003209Y011265D02*
X002449Y011265D01*
X003209Y011265D01*
X003209Y011106D02*
X002449Y011106D01*
X003209Y011106D01*
X003291Y010948D02*
X002449Y010948D01*
X003291Y010948D01*
X003450Y010789D02*
X002449Y010789D01*
X003450Y010789D01*
X002449Y010631D02*
X007113Y010631D01*
X002449Y010631D01*
X002449Y010472D02*
X005832Y010472D01*
X002449Y010472D01*
X002449Y010314D02*
X005685Y010314D01*
X002449Y010314D01*
X002449Y010155D02*
X005619Y010155D01*
X002449Y010155D01*
X002449Y009997D02*
X005599Y009997D01*
X002449Y009997D01*
X002449Y009838D02*
X005611Y009838D01*
X002449Y009838D01*
X002449Y009680D02*
X005676Y009680D01*
X002449Y009680D01*
X002449Y008887D02*
X004582Y008887D01*
X002449Y008887D01*
X002449Y008729D02*
X004364Y008729D01*
X002449Y008729D01*
X002449Y008570D02*
X004285Y008570D01*
X002449Y008570D01*
X002449Y008412D02*
X004266Y008412D01*
X002449Y008412D01*
X002449Y008253D02*
X004295Y008253D01*
X002449Y008253D01*
X002449Y008095D02*
X004388Y008095D01*
X002449Y008095D01*
X003933Y005876D02*
X005868Y005876D01*
X003933Y005876D01*
X004024Y005717D02*
X006026Y005717D01*
X004024Y005717D01*
X005592Y006034D02*
X005709Y006034D01*
X005592Y006034D01*
X006529Y006668D02*
X007326Y006668D01*
X006529Y006668D01*
X006529Y006827D02*
X007462Y006827D01*
X006529Y006827D01*
X006529Y006985D02*
X007522Y006985D01*
X006529Y006985D01*
X006639Y006510D02*
X007266Y006510D01*
X006639Y006510D01*
X006798Y006351D02*
X007266Y006351D01*
X006798Y006351D01*
X006956Y006193D02*
X007320Y006193D01*
X006956Y006193D01*
X007115Y006034D02*
X007449Y006034D01*
X007115Y006034D01*
X007273Y005876D02*
X007554Y005876D01*
X007273Y005876D01*
X007481Y006002D02*
X007341Y006142D01*
X007266Y006325D01*
X007266Y006523D01*
X007341Y006705D01*
X007481Y006845D01*
X007664Y006921D01*
X008377Y006921D01*
X008560Y006845D01*
X008700Y006705D01*
X008775Y006523D01*
X008775Y006325D01*
X008700Y006142D01*
X008560Y006002D01*
X008377Y005926D01*
X007664Y005926D01*
X007481Y006002D01*
X007664Y005926D01*
X008377Y005926D01*
X008560Y006002D01*
X008700Y006142D01*
X008775Y006325D01*
X008775Y006523D01*
X008700Y006705D01*
X008560Y006845D01*
X008377Y006921D01*
X007664Y006921D01*
X007481Y006845D01*
X007341Y006705D01*
X007266Y006523D01*
X007266Y006325D01*
X007341Y006142D01*
X007481Y006002D01*
X007209Y005487D02*
X007959Y005487D01*
X008021Y005424D01*
X008224Y004925D02*
X010828Y004925D01*
X008224Y004925D01*
X008383Y004766D02*
X010828Y004766D01*
X008383Y004766D01*
X008541Y004608D02*
X010828Y004608D01*
X008541Y004608D01*
X008700Y004449D02*
X010828Y004449D01*
X008700Y004449D01*
X008858Y004291D02*
X010828Y004291D01*
X008858Y004291D01*
X009017Y004132D02*
X010828Y004132D01*
X009017Y004132D01*
X009175Y003974D02*
X010828Y003974D01*
X009175Y003974D01*
X009334Y003815D02*
X010828Y003815D01*
X009334Y003815D01*
X009492Y003657D02*
X010828Y003657D01*
X009492Y003657D01*
X009651Y003498D02*
X010828Y003498D01*
X009651Y003498D01*
X009809Y003340D02*
X010828Y003340D01*
X009809Y003340D01*
X009968Y003181D02*
X010828Y003181D01*
X009968Y003181D01*
X010126Y003023D02*
X010828Y003023D01*
X010126Y003023D01*
X010285Y002864D02*
X010828Y002864D01*
X010285Y002864D01*
X010443Y002706D02*
X010828Y002706D01*
X010443Y002706D01*
X010529Y002547D02*
X010828Y002547D01*
X010529Y002547D01*
X010670Y002389D02*
X010828Y002389D01*
X010670Y002389D01*
X010769Y002230D02*
X010828Y002230D01*
X010769Y002230D01*
X010819Y002072D02*
X010828Y002072D01*
X010819Y002072D01*
X010819Y001913D02*
X010828Y001913D01*
X010819Y001913D01*
X010828Y001755D02*
X010774Y001755D01*
X010828Y001755D01*
X010828Y001596D02*
X010682Y001596D01*
X010828Y001596D01*
X010828Y001438D02*
X010478Y001438D01*
X010828Y001438D01*
X010828Y001279D02*
X008209Y001279D01*
X010828Y001279D01*
X010828Y001121D02*
X008209Y001121D01*
X010828Y001121D01*
X010828Y000962D02*
X008158Y000962D01*
X010828Y000962D01*
X010828Y000804D02*
X008059Y000804D01*
X010828Y000804D01*
X009941Y001438D02*
X009478Y001438D01*
X009941Y001438D01*
X009737Y001596D02*
X009682Y001596D01*
X009737Y001596D01*
X010209Y001987D02*
X010209Y002487D01*
X007959Y004737D01*
X008641Y005083D02*
X010828Y005083D01*
X008641Y005083D01*
X008741Y005242D02*
X009092Y005242D01*
X008741Y005242D01*
X008775Y005400D02*
X008939Y005400D01*
X008775Y005400D01*
X008761Y005559D02*
X008873Y005559D01*
X008761Y005559D01*
X008849Y005615D02*
X008849Y005858D01*
X008942Y006082D01*
X009114Y006254D01*
X009338Y006347D01*
X009581Y006347D01*
X009805Y006254D01*
X009977Y006082D01*
X010069Y005858D01*
X010069Y005615D01*
X009977Y005391D01*
X009805Y005220D01*
X009581Y005127D01*
X009338Y005127D01*
X009114Y005220D01*
X008942Y005391D01*
X008849Y005615D01*
X008942Y005391D01*
X009114Y005220D01*
X009338Y005127D01*
X009581Y005127D01*
X009805Y005220D01*
X009977Y005391D01*
X010069Y005615D01*
X010069Y005858D01*
X009977Y006082D01*
X009805Y006254D01*
X009581Y006347D01*
X009338Y006347D01*
X009114Y006254D01*
X008942Y006082D01*
X008849Y005858D01*
X008849Y005615D01*
X008849Y005717D02*
X008688Y005717D01*
X008849Y005717D01*
X008857Y005876D02*
X008487Y005876D01*
X008857Y005876D01*
X008922Y006034D02*
X008592Y006034D01*
X008922Y006034D01*
X009053Y006193D02*
X008721Y006193D01*
X009053Y006193D01*
X008775Y006351D02*
X010828Y006351D01*
X008775Y006351D01*
X008775Y006510D02*
X010828Y006510D01*
X008775Y006510D01*
X008715Y006668D02*
X010828Y006668D01*
X008715Y006668D01*
X008579Y006827D02*
X009412Y006827D01*
X008579Y006827D01*
X008519Y006985D02*
X009254Y006985D01*
X008519Y006985D01*
X008560Y007002D02*
X008700Y007142D01*
X008775Y007325D01*
X008775Y007523D01*
X008700Y007705D01*
X008560Y007845D01*
X008377Y007921D01*
X007664Y007921D01*
X007481Y007845D01*
X007341Y007705D01*
X007266Y007523D01*
X007266Y007325D01*
X007341Y007142D01*
X007481Y007002D01*
X007664Y006926D01*
X008377Y006926D01*
X008560Y007002D01*
X008700Y007142D01*
X008775Y007325D01*
X008775Y007523D01*
X008700Y007705D01*
X008560Y007845D01*
X008377Y007921D01*
X007664Y007921D01*
X007481Y007845D01*
X007341Y007705D01*
X007266Y007523D01*
X007266Y007325D01*
X007341Y007142D01*
X007481Y007002D01*
X007664Y006926D01*
X008377Y006926D01*
X008560Y007002D01*
X008700Y007144D02*
X009209Y007144D01*
X008700Y007144D01*
X008766Y007302D02*
X009209Y007302D01*
X008766Y007302D01*
X008775Y007461D02*
X009226Y007461D01*
X008775Y007461D01*
X008735Y007619D02*
X009124Y007619D01*
X008735Y007619D01*
X008628Y007778D02*
X008966Y007778D01*
X008628Y007778D01*
X008560Y008002D02*
X008700Y008142D01*
X008775Y008325D01*
X008775Y008523D01*
X008700Y008705D01*
X008560Y008845D01*
X008377Y008921D01*
X007664Y008921D01*
X007481Y008845D01*
X007341Y008705D01*
X007266Y008523D01*
X007266Y008325D01*
X007341Y008142D01*
X007481Y008002D01*
X007664Y007926D01*
X008377Y007926D01*
X008560Y008002D01*
X008700Y008142D01*
X008775Y008325D01*
X008775Y008523D01*
X008700Y008705D01*
X008560Y008845D01*
X008377Y008921D01*
X007664Y008921D01*
X007481Y008845D01*
X007341Y008705D01*
X007266Y008523D01*
X007266Y008325D01*
X007341Y008142D01*
X007481Y008002D01*
X007664Y007926D01*
X008377Y007926D01*
X008560Y008002D01*
X008653Y008095D02*
X008889Y008095D01*
X008653Y008095D01*
X008746Y008253D02*
X008889Y008253D01*
X008746Y008253D01*
X008775Y008412D02*
X008889Y008412D01*
X008775Y008412D01*
X008756Y008570D02*
X008889Y008570D01*
X008756Y008570D01*
X008677Y008729D02*
X008889Y008729D01*
X008677Y008729D01*
X008856Y008887D02*
X008459Y008887D01*
X008856Y008887D01*
X009209Y008987D02*
X006959Y011237D01*
X006709Y011237D01*
X006530Y013959D02*
X006889Y013959D01*
X006530Y013959D01*
X006703Y014118D02*
X006716Y014118D01*
X006703Y014118D01*
X005889Y013959D02*
X005635Y013959D01*
X005889Y013959D01*
X005363Y014593D02*
X004811Y014593D01*
X005363Y014593D01*
X005438Y014668D02*
X005438Y014668D01*
X005522Y014752D02*
X004811Y014752D01*
X005522Y014752D01*
X005770Y014910D02*
X004775Y014910D01*
X005770Y014910D01*
X006021Y015069D02*
X004698Y015069D01*
X006021Y015069D01*
X005205Y014435D02*
X004750Y014435D01*
X005205Y014435D01*
X005046Y014276D02*
X004636Y014276D01*
X005046Y014276D01*
X004888Y014118D02*
X004381Y014118D01*
X004888Y014118D01*
X004729Y013959D02*
X003940Y013959D01*
X004729Y013959D01*
X004020Y014118D02*
X003944Y014118D01*
X004020Y014118D01*
X003626Y014910D02*
X002449Y014910D01*
X003626Y014910D01*
X003703Y015069D02*
X002449Y015069D01*
X003703Y015069D01*
X003872Y015227D02*
X002449Y015227D01*
X003872Y015227D01*
X009209Y010737D02*
X009209Y008987D01*
X009209Y007987D01*
X009709Y007487D01*
X009709Y007237D01*
X010007Y006827D02*
X010828Y006827D01*
X010007Y006827D01*
X010165Y006985D02*
X010828Y006985D01*
X010165Y006985D01*
X010209Y007144D02*
X010828Y007144D01*
X010209Y007144D01*
X010732Y007302D02*
X010828Y007302D01*
X010732Y007302D01*
X010809Y008095D02*
X010828Y008095D01*
X010809Y008095D01*
X010828Y008253D02*
X010209Y008253D01*
X010828Y008253D01*
X010828Y008412D02*
X010209Y008412D01*
X010828Y008412D01*
X010828Y008570D02*
X010083Y008570D01*
X010828Y008570D01*
X010828Y008729D02*
X009925Y008729D01*
X010828Y008729D01*
X010828Y008887D02*
X009529Y008887D01*
X010828Y008887D01*
X010828Y009046D02*
X009529Y009046D01*
X010828Y009046D01*
X010828Y009204D02*
X009529Y009204D01*
X010828Y009204D01*
X010828Y009363D02*
X009529Y009363D01*
X010828Y009363D01*
X010828Y009521D02*
X010607Y009521D01*
X010828Y009521D01*
X010828Y009680D02*
X010743Y009680D01*
X010828Y009680D01*
X010828Y009838D02*
X010808Y009838D01*
X010828Y009838D01*
X010819Y009997D02*
X010828Y009997D01*
X010819Y009997D01*
X010828Y010155D02*
X010800Y010155D01*
X010828Y010155D01*
X010828Y010314D02*
X010734Y010314D01*
X010828Y010314D01*
X010828Y010472D02*
X010587Y010472D01*
X010828Y010472D01*
X009812Y009521D02*
X009529Y009521D01*
X009812Y009521D01*
X009676Y009680D02*
X009529Y009680D01*
X009676Y009680D01*
X009209Y010737D02*
X009459Y010987D01*
X009459Y011237D01*
X008889Y007936D02*
X008401Y007936D01*
X008889Y007936D01*
X009866Y006193D02*
X010828Y006193D01*
X009866Y006193D01*
X009997Y006034D02*
X010828Y006034D01*
X009997Y006034D01*
X010062Y005876D02*
X010828Y005876D01*
X010062Y005876D01*
X010069Y005717D02*
X010828Y005717D01*
X010069Y005717D01*
X010046Y005559D02*
X010828Y005559D01*
X010046Y005559D01*
X009980Y005400D02*
X010828Y005400D01*
X009980Y005400D01*
X009827Y005242D02*
X010828Y005242D01*
X009827Y005242D01*
X009538Y002706D02*
X007693Y002706D01*
X009538Y002706D01*
X009450Y002547D02*
X009696Y002547D01*
X009450Y002547D01*
X009670Y002389D02*
X009749Y002389D01*
X009670Y002389D01*
X008941Y001438D02*
X008164Y001438D01*
X008941Y001438D01*
X008737Y001596D02*
X008073Y001596D01*
X008737Y001596D01*
X008645Y001755D02*
X007870Y001755D01*
X008645Y001755D01*
X007419Y003181D02*
X007218Y003181D01*
X007419Y003181D01*
X005861Y004132D02*
X002449Y004132D01*
X005861Y004132D01*
M02*
