G75*
%MOIN*%
%OFA0B0*%
%FSLAX24Y24*%
%IPPOS*%
%LPD*%
%AMOC8*
5,1,8,0,0,1.08239X$1,22.5*
%
%ADD10C,0.0000*%
%ADD11C,0.0515*%
%ADD12C,0.0740*%
%ADD13OC8,0.0520*%
%ADD14R,0.0650X0.0650*%
%ADD15C,0.0650*%
%ADD16C,0.0160*%
%ADD17C,0.0100*%
D10*
X002209Y000150D02*
X002209Y015898D01*
X011208Y015898D01*
X011208Y000150D01*
X002209Y000150D01*
D11*
X005428Y004081D02*
X005428Y004596D01*
X006428Y004596D02*
X006428Y004081D01*
X007428Y004081D02*
X007428Y004596D01*
X008428Y004596D02*
X008428Y004081D01*
X008428Y007081D02*
X008428Y007596D01*
X007428Y007596D02*
X007428Y007081D01*
X006428Y007081D02*
X006428Y007596D01*
X005428Y007596D02*
X005428Y007081D01*
D12*
X007367Y009619D03*
X009959Y007900D03*
X009959Y006900D03*
X010239Y003040D03*
X010239Y001260D03*
X007679Y001260D03*
X007679Y003040D03*
X005959Y001900D03*
X004959Y001900D03*
X003209Y001900D03*
X003209Y005900D03*
X003367Y009619D03*
X003276Y014150D03*
X004142Y014650D03*
X006209Y014400D03*
X007209Y014400D03*
X009276Y014650D03*
X010142Y014150D03*
D13*
X010209Y012150D03*
X009709Y011400D03*
X009209Y012150D03*
X009459Y010150D03*
X009459Y009150D03*
X010209Y009650D03*
X007209Y012150D03*
X006709Y011400D03*
X006209Y012150D03*
X004209Y012150D03*
X003709Y011400D03*
X003209Y012150D03*
D14*
X003209Y007650D03*
D15*
X004209Y007650D03*
D16*
X003709Y009650D02*
X003367Y009619D01*
X003709Y009650D02*
X004209Y010150D01*
X007709Y010150D01*
X009209Y008650D01*
X009709Y008650D01*
X010209Y009150D01*
X010209Y009650D01*
X009459Y009150D02*
X009209Y009150D01*
X007209Y011150D01*
X009709Y011150D01*
X009709Y011400D01*
X010209Y012150D02*
X010209Y014150D01*
X010142Y014150D01*
X007209Y011150D02*
X006709Y011650D01*
X006709Y011400D01*
X006709Y011150D01*
X003709Y011150D01*
X003709Y011400D01*
X004209Y013650D02*
X005709Y013650D01*
X006209Y014150D01*
X006209Y014400D01*
X004209Y013650D02*
X003709Y014150D01*
X003276Y014150D01*
X003209Y014150D01*
X007367Y009619D02*
X007709Y009650D01*
X009209Y008150D01*
X009209Y007150D01*
X008209Y006150D01*
X006709Y006150D01*
X005209Y004650D01*
X005428Y004339D01*
X007209Y004150D02*
X007209Y003150D01*
X007709Y003150D01*
X007679Y003040D01*
X007209Y004150D02*
X007428Y004339D01*
X004959Y001900D02*
X004709Y002150D01*
X003209Y002150D01*
X003209Y001900D01*
D17*
X002806Y002317D02*
X002419Y002317D01*
X002419Y002219D02*
X002714Y002219D01*
X002718Y002229D02*
X002629Y002015D01*
X002629Y001785D01*
X002718Y001571D01*
X002881Y001408D01*
X003094Y001320D01*
X003325Y001320D01*
X003538Y001408D01*
X003701Y001571D01*
X003789Y001785D01*
X003789Y001860D01*
X004379Y001860D01*
X004379Y001785D01*
X004468Y001571D01*
X004631Y001408D01*
X004844Y001320D01*
X005075Y001320D01*
X005288Y001408D01*
X005451Y001571D01*
X005459Y001591D01*
X005468Y001571D01*
X005631Y001408D01*
X005844Y001320D01*
X006075Y001320D01*
X006288Y001408D01*
X006451Y001571D01*
X006539Y001785D01*
X006539Y002015D01*
X006451Y002229D01*
X006288Y002392D01*
X006075Y002480D01*
X005844Y002480D01*
X005631Y002392D01*
X005468Y002229D01*
X005459Y002209D01*
X005451Y002229D01*
X005288Y002392D01*
X005075Y002480D01*
X004844Y002480D01*
X004748Y002440D01*
X003421Y002440D01*
X003325Y002480D01*
X003094Y002480D01*
X002881Y002392D01*
X002718Y002229D01*
X002673Y002120D02*
X002419Y002120D01*
X002419Y002022D02*
X002632Y002022D01*
X002629Y001923D02*
X002419Y001923D01*
X002419Y001825D02*
X002629Y001825D01*
X002654Y001726D02*
X002419Y001726D01*
X002419Y001628D02*
X002695Y001628D01*
X002760Y001529D02*
X002419Y001529D01*
X002419Y001431D02*
X002859Y001431D01*
X003065Y001332D02*
X002419Y001332D01*
X002419Y001234D02*
X007629Y001234D01*
X007629Y001210D02*
X007161Y001210D01*
X007172Y001138D01*
X007198Y001060D01*
X007235Y000987D01*
X007283Y000921D01*
X007341Y000863D01*
X007407Y000815D01*
X007480Y000778D01*
X007558Y000753D01*
X007629Y000741D01*
X007629Y001210D01*
X007629Y001310D01*
X007161Y001310D01*
X007172Y001382D01*
X007198Y001460D01*
X007235Y001533D01*
X007283Y001599D01*
X007341Y001657D01*
X007407Y001705D01*
X007480Y001742D01*
X007558Y001767D01*
X007629Y001779D01*
X007629Y001310D01*
X007729Y001310D01*
X007729Y001779D01*
X007801Y001767D01*
X007879Y001742D01*
X007952Y001705D01*
X008018Y001657D01*
X008076Y001599D01*
X008124Y001533D01*
X008161Y001460D01*
X008187Y001382D01*
X008198Y001310D01*
X007729Y001310D01*
X007729Y001210D01*
X007729Y000741D01*
X007801Y000753D01*
X007879Y000778D01*
X007952Y000815D01*
X008018Y000863D01*
X008076Y000921D01*
X008124Y000987D01*
X008161Y001060D01*
X008187Y001138D01*
X008198Y001210D01*
X007729Y001210D01*
X007629Y001210D01*
X007629Y001135D02*
X007729Y001135D01*
X007729Y001037D02*
X007629Y001037D01*
X007629Y000938D02*
X007729Y000938D01*
X007729Y000840D02*
X007629Y000840D01*
X007374Y000840D02*
X002419Y000840D01*
X002419Y000938D02*
X007271Y000938D01*
X007210Y001037D02*
X002419Y001037D01*
X002419Y001135D02*
X007173Y001135D01*
X007164Y001332D02*
X006104Y001332D01*
X006310Y001431D02*
X007188Y001431D01*
X007233Y001529D02*
X006409Y001529D01*
X006474Y001628D02*
X007312Y001628D01*
X007449Y001726D02*
X006515Y001726D01*
X006539Y001825D02*
X010087Y001825D01*
X010124Y001840D02*
X009911Y001752D01*
X009748Y001589D01*
X009659Y001375D01*
X009659Y001145D01*
X009748Y000931D01*
X009911Y000768D01*
X010124Y000680D01*
X010355Y000680D01*
X010568Y000768D01*
X010731Y000931D01*
X010819Y001145D01*
X010819Y001375D01*
X010731Y001589D01*
X010568Y001752D01*
X010355Y001840D01*
X010124Y001840D01*
X009885Y001726D02*
X007910Y001726D01*
X008047Y001628D02*
X009787Y001628D01*
X009723Y001529D02*
X008126Y001529D01*
X008171Y001431D02*
X009682Y001431D01*
X009659Y001332D02*
X008195Y001332D01*
X008186Y001135D02*
X009663Y001135D01*
X009659Y001234D02*
X007729Y001234D01*
X007729Y001332D02*
X007629Y001332D01*
X007629Y001431D02*
X007729Y001431D01*
X007729Y001529D02*
X007629Y001529D01*
X007629Y001628D02*
X007729Y001628D01*
X007729Y001726D02*
X007629Y001726D01*
X007564Y002460D02*
X007351Y002548D01*
X007188Y002711D01*
X002419Y002711D01*
X002419Y002613D02*
X007287Y002613D01*
X007188Y002711D02*
X007121Y002873D01*
X007045Y002904D01*
X006964Y002986D01*
X006919Y003092D01*
X006919Y004103D01*
X006916Y004113D01*
X006919Y004160D01*
X006919Y004208D01*
X006924Y004218D01*
X006924Y004228D01*
X006946Y004271D01*
X006961Y004307D01*
X006961Y004689D01*
X007032Y004861D01*
X007163Y004993D01*
X007335Y005064D01*
X007521Y005064D01*
X007693Y004993D01*
X007824Y004861D01*
X007895Y004689D01*
X007895Y003989D01*
X007824Y003817D01*
X007693Y003685D01*
X007521Y003614D01*
X007499Y003614D01*
X007499Y003593D01*
X007564Y003620D01*
X007795Y003620D01*
X008008Y003532D01*
X008171Y003369D01*
X008259Y003155D01*
X008259Y002925D01*
X008171Y002711D01*
X009748Y002711D01*
X009911Y002548D01*
X010124Y002460D01*
X010355Y002460D01*
X010568Y002548D01*
X010731Y002711D01*
X010998Y002711D01*
X010998Y002613D02*
X010632Y002613D01*
X010731Y002711D02*
X010819Y002925D01*
X010819Y003155D01*
X010731Y003369D01*
X010568Y003532D01*
X010355Y003620D01*
X010124Y003620D01*
X009911Y003532D01*
X009748Y003369D01*
X009659Y003155D01*
X009659Y002925D01*
X009748Y002711D01*
X009707Y002810D02*
X008212Y002810D01*
X008253Y002908D02*
X009666Y002908D01*
X009659Y003007D02*
X008259Y003007D01*
X008259Y003105D02*
X009659Y003105D01*
X009679Y003204D02*
X008240Y003204D01*
X008199Y003302D02*
X009720Y003302D01*
X009780Y003401D02*
X008139Y003401D01*
X008041Y003499D02*
X009878Y003499D01*
X010070Y003598D02*
X007849Y003598D01*
X007704Y003696D02*
X008152Y003696D01*
X008163Y003685D02*
X008335Y003614D01*
X008521Y003614D01*
X008693Y003685D01*
X008824Y003817D01*
X008895Y003989D01*
X008895Y004689D01*
X008824Y004861D01*
X008693Y004993D01*
X008521Y005064D01*
X008335Y005064D01*
X008163Y004993D01*
X008032Y004861D01*
X007961Y004689D01*
X007961Y003989D01*
X008032Y003817D01*
X008163Y003685D01*
X008054Y003795D02*
X007802Y003795D01*
X007856Y003893D02*
X008000Y003893D01*
X007961Y003992D02*
X007895Y003992D01*
X007895Y004090D02*
X007961Y004090D01*
X007961Y004189D02*
X007895Y004189D01*
X007895Y004287D02*
X007961Y004287D01*
X007961Y004386D02*
X007895Y004386D01*
X007895Y004484D02*
X007961Y004484D01*
X007961Y004583D02*
X007895Y004583D01*
X007895Y004681D02*
X007961Y004681D01*
X007998Y004780D02*
X007858Y004780D01*
X007808Y004878D02*
X008048Y004878D01*
X008147Y004977D02*
X007709Y004977D01*
X007147Y004977D02*
X006709Y004977D01*
X006693Y004993D02*
X006521Y005064D01*
X006335Y005064D01*
X006163Y004993D01*
X006032Y004861D01*
X005961Y004689D01*
X005961Y003989D01*
X006032Y003817D01*
X006163Y003685D01*
X006335Y003614D01*
X006521Y003614D01*
X006693Y003685D01*
X006824Y003817D01*
X006895Y003989D01*
X006895Y004689D01*
X006824Y004861D01*
X006693Y004993D01*
X006808Y004878D02*
X007048Y004878D01*
X006998Y004780D02*
X006858Y004780D01*
X006895Y004681D02*
X006961Y004681D01*
X006961Y004583D02*
X006895Y004583D01*
X006895Y004484D02*
X006961Y004484D01*
X006961Y004386D02*
X006895Y004386D01*
X006895Y004287D02*
X006952Y004287D01*
X006919Y004189D02*
X006895Y004189D01*
X006895Y004090D02*
X006919Y004090D01*
X006919Y003992D02*
X006895Y003992D01*
X006919Y003893D02*
X006856Y003893D01*
X006802Y003795D02*
X006919Y003795D01*
X006919Y003696D02*
X006704Y003696D01*
X006919Y003598D02*
X002419Y003598D01*
X002419Y003696D02*
X005152Y003696D01*
X005163Y003685D02*
X005032Y003817D01*
X004961Y003989D01*
X004961Y004493D01*
X004954Y004509D01*
X004939Y004530D01*
X004932Y004562D01*
X004919Y004592D01*
X004919Y004618D01*
X004914Y004643D01*
X004919Y004675D01*
X004919Y004708D01*
X004929Y004731D01*
X004934Y004757D01*
X004951Y004784D01*
X004964Y004814D01*
X004982Y004832D01*
X004996Y004854D01*
X005022Y004873D01*
X006464Y006314D01*
X006545Y006396D01*
X006652Y006440D01*
X008089Y006440D01*
X008284Y006635D01*
X008163Y006685D01*
X008032Y006817D01*
X007961Y006989D01*
X007961Y007689D01*
X008032Y007861D01*
X008163Y007993D01*
X008335Y008064D01*
X008521Y008064D01*
X008693Y007993D01*
X008824Y007861D01*
X008895Y007689D01*
X008895Y007246D01*
X008919Y007270D01*
X008919Y008030D01*
X008603Y008030D01*
X008722Y008227D02*
X002419Y008227D01*
X002419Y008129D02*
X002741Y008129D01*
X002797Y008185D02*
X002674Y008062D01*
X002674Y007238D01*
X002797Y007115D01*
X003621Y007115D01*
X003744Y007238D01*
X003744Y007549D01*
X003746Y007539D01*
X003769Y007468D01*
X003803Y007401D01*
X003847Y007341D01*
X003900Y007288D01*
X003961Y007244D01*
X004027Y007210D01*
X004098Y007187D01*
X004172Y007175D01*
X004191Y007175D01*
X004191Y007631D01*
X004228Y007631D01*
X004228Y007175D01*
X004247Y007175D01*
X004321Y007187D01*
X004392Y007210D01*
X004458Y007244D01*
X004519Y007288D01*
X004572Y007341D01*
X004616Y007401D01*
X004650Y007468D01*
X004673Y007539D01*
X004684Y007613D01*
X004684Y007631D01*
X004228Y007631D01*
X004228Y007669D01*
X004191Y007669D01*
X004191Y008125D01*
X004172Y008125D01*
X004098Y008113D01*
X004027Y008090D01*
X003961Y008056D01*
X003900Y008012D01*
X003847Y007959D01*
X003803Y007899D01*
X003769Y007832D01*
X003746Y007761D01*
X003744Y007751D01*
X003744Y008062D01*
X003621Y008185D01*
X002797Y008185D01*
X002674Y008030D02*
X002419Y008030D01*
X002419Y007932D02*
X002674Y007932D01*
X002674Y007833D02*
X002419Y007833D01*
X002419Y007735D02*
X002674Y007735D01*
X002674Y007636D02*
X002419Y007636D01*
X002419Y007538D02*
X002674Y007538D01*
X002674Y007439D02*
X002419Y007439D01*
X002419Y007341D02*
X002674Y007341D01*
X002674Y007242D02*
X002419Y007242D01*
X002419Y007144D02*
X002769Y007144D01*
X002419Y007045D02*
X005021Y007045D01*
X005021Y007049D02*
X005031Y006986D01*
X005050Y006925D01*
X005079Y006868D01*
X005117Y006816D01*
X005163Y006771D01*
X005214Y006733D01*
X005272Y006704D01*
X005333Y006684D01*
X005396Y006674D01*
X005399Y006674D01*
X005399Y007310D01*
X005021Y007310D01*
X005021Y007049D01*
X005021Y007144D02*
X003650Y007144D01*
X003744Y007242D02*
X003964Y007242D01*
X003847Y007341D02*
X003744Y007341D01*
X003744Y007439D02*
X003784Y007439D01*
X003747Y007538D02*
X003744Y007538D01*
X003744Y007833D02*
X003770Y007833D01*
X003744Y007932D02*
X003827Y007932D01*
X003744Y008030D02*
X003924Y008030D01*
X003678Y008129D02*
X008821Y008129D01*
X008919Y008030D02*
X007759Y009190D01*
X007696Y009127D01*
X007482Y009039D01*
X007252Y009039D01*
X007038Y009127D01*
X006875Y009290D01*
X006787Y009503D01*
X006787Y009734D01*
X006839Y009860D01*
X004330Y009860D01*
X003929Y009459D01*
X003859Y009290D01*
X003696Y009127D01*
X003482Y009039D01*
X003252Y009039D01*
X003038Y009127D01*
X002875Y009290D01*
X002787Y009503D01*
X002787Y009734D01*
X002875Y009947D01*
X003038Y010110D01*
X003252Y010199D01*
X003482Y010199D01*
X003696Y010110D01*
X003728Y010078D01*
X004045Y010396D01*
X004152Y010440D01*
X007509Y010440D01*
X007045Y010904D01*
X006964Y010986D01*
X006962Y010988D01*
X006904Y010930D01*
X006900Y010930D01*
X006874Y010904D01*
X006767Y010860D01*
X003652Y010860D01*
X003545Y010904D01*
X003519Y010930D01*
X003515Y010930D01*
X003239Y011205D01*
X003239Y011595D01*
X003515Y011870D01*
X003825Y011870D01*
X003739Y011955D01*
X003739Y012345D01*
X004015Y012620D01*
X004404Y012620D01*
X004679Y012345D01*
X004679Y011955D01*
X004404Y011680D01*
X004094Y011680D01*
X004179Y011595D01*
X004179Y011440D01*
X006239Y011440D01*
X006239Y011595D01*
X006515Y011870D01*
X006519Y011870D01*
X006545Y011896D01*
X006652Y011940D01*
X006755Y011940D01*
X006739Y011955D01*
X006739Y012345D01*
X007015Y012620D01*
X007404Y012620D01*
X007679Y012345D01*
X007679Y011955D01*
X007404Y011680D01*
X007094Y011680D01*
X007179Y011595D01*
X007179Y011590D01*
X007330Y011440D01*
X009239Y011440D01*
X009239Y011595D01*
X009515Y011870D01*
X009825Y011870D01*
X009739Y011955D01*
X009739Y012345D01*
X009919Y012525D01*
X009919Y013615D01*
X009814Y013658D01*
X009651Y013821D01*
X009562Y014035D01*
X009562Y014141D01*
X009392Y014070D01*
X009161Y014070D01*
X008948Y014158D01*
X008785Y014321D01*
X008696Y014535D01*
X008696Y014765D01*
X008785Y014979D01*
X008948Y015142D01*
X009161Y015230D01*
X009392Y015230D01*
X009605Y015142D01*
X009768Y014979D01*
X009856Y014765D01*
X009856Y014659D01*
X010027Y014730D01*
X010258Y014730D01*
X010471Y014642D01*
X010634Y014479D01*
X010722Y014265D01*
X010722Y014035D01*
X010634Y013821D01*
X010499Y013687D01*
X010499Y012525D01*
X010679Y012345D01*
X010679Y011955D01*
X010404Y011680D01*
X010094Y011680D01*
X010179Y011595D01*
X010179Y011205D01*
X009904Y010930D01*
X009900Y010930D01*
X009874Y010904D01*
X009767Y010860D01*
X007910Y010860D01*
X009207Y009562D01*
X009265Y009620D01*
X009654Y009620D01*
X009739Y009535D01*
X009739Y009765D01*
X009654Y009680D01*
X009265Y009680D01*
X008989Y009955D01*
X008989Y010345D01*
X009265Y010620D01*
X009654Y010620D01*
X009929Y010345D01*
X009929Y010035D01*
X010015Y010120D01*
X010404Y010120D01*
X010679Y009845D01*
X010679Y009455D01*
X010499Y009275D01*
X010499Y009092D01*
X010455Y008986D01*
X009955Y008486D01*
X009950Y008480D01*
X010075Y008480D01*
X010288Y008392D01*
X010451Y008229D01*
X010539Y008015D01*
X010539Y007785D01*
X010451Y007571D01*
X010288Y007408D01*
X010188Y007367D01*
X010232Y007345D01*
X010298Y007297D01*
X010356Y007239D01*
X010404Y007173D01*
X010441Y007100D01*
X010467Y007022D01*
X010478Y006950D01*
X010009Y006950D01*
X010009Y006850D01*
X010009Y006381D01*
X010081Y006393D01*
X010159Y006418D01*
X010232Y006455D01*
X010298Y006503D01*
X010356Y006561D01*
X010404Y006627D01*
X010441Y006700D01*
X010467Y006778D01*
X010478Y006850D01*
X010009Y006850D01*
X009909Y006850D01*
X009441Y006850D01*
X009452Y006778D01*
X009478Y006700D01*
X009515Y006627D01*
X009563Y006561D01*
X009621Y006503D01*
X009687Y006455D01*
X009760Y006418D01*
X009838Y006393D01*
X009909Y006381D01*
X009909Y006850D01*
X009909Y006950D01*
X009441Y006950D01*
X009445Y006975D01*
X009374Y006904D01*
X008374Y005904D01*
X008267Y005860D01*
X006830Y005860D01*
X005826Y004857D01*
X005895Y004689D01*
X005895Y003989D01*
X005824Y003817D01*
X005693Y003685D01*
X005521Y003614D01*
X005335Y003614D01*
X005163Y003685D01*
X005054Y003795D02*
X002419Y003795D01*
X002419Y003893D02*
X005000Y003893D01*
X004961Y003992D02*
X002419Y003992D01*
X002419Y004090D02*
X004961Y004090D01*
X004961Y004189D02*
X002419Y004189D01*
X002419Y004287D02*
X004961Y004287D01*
X004961Y004386D02*
X002419Y004386D01*
X002419Y004484D02*
X004961Y004484D01*
X004924Y004583D02*
X002419Y004583D01*
X002419Y004681D02*
X004919Y004681D01*
X004948Y004780D02*
X002419Y004780D01*
X002419Y004878D02*
X005027Y004878D01*
X005126Y004977D02*
X002419Y004977D01*
X002419Y005075D02*
X005224Y005075D01*
X005323Y005174D02*
X002419Y005174D01*
X002419Y005272D02*
X005421Y005272D01*
X005520Y005371D02*
X002419Y005371D01*
X002419Y005469D02*
X002918Y005469D01*
X002937Y005455D02*
X003010Y005418D01*
X003088Y005393D01*
X003169Y005380D01*
X003171Y005380D01*
X003171Y005861D01*
X003248Y005861D01*
X003248Y005380D01*
X003250Y005380D01*
X003331Y005393D01*
X003409Y005418D01*
X003482Y005455D01*
X003548Y005503D01*
X003606Y005561D01*
X003654Y005627D01*
X003691Y005700D01*
X003717Y005778D01*
X003729Y005859D01*
X003729Y005861D01*
X003248Y005861D01*
X003248Y005939D01*
X003171Y005939D01*
X003171Y006420D01*
X003169Y006420D01*
X003088Y006407D01*
X003010Y006382D01*
X002937Y006345D01*
X002871Y006297D01*
X002813Y006239D01*
X002765Y006173D01*
X002728Y006100D01*
X002702Y006022D01*
X002689Y005941D01*
X002689Y005939D01*
X003171Y005939D01*
X003171Y005861D01*
X002689Y005861D01*
X002689Y005859D01*
X002702Y005778D01*
X002728Y005700D01*
X002765Y005627D01*
X002813Y005561D01*
X002871Y005503D01*
X002937Y005455D01*
X002808Y005568D02*
X002419Y005568D01*
X002419Y005666D02*
X002745Y005666D01*
X002707Y005765D02*
X002419Y005765D01*
X002419Y005863D02*
X003171Y005863D01*
X003248Y005863D02*
X006012Y005863D01*
X005914Y005765D02*
X003712Y005765D01*
X003674Y005666D02*
X005815Y005666D01*
X005717Y005568D02*
X003611Y005568D01*
X003501Y005469D02*
X005618Y005469D01*
X006045Y005075D02*
X010998Y005075D01*
X010998Y004977D02*
X008709Y004977D01*
X008808Y004878D02*
X010998Y004878D01*
X010998Y004780D02*
X008858Y004780D01*
X008895Y004681D02*
X010998Y004681D01*
X010998Y004583D02*
X008895Y004583D01*
X008895Y004484D02*
X010998Y004484D01*
X010998Y004386D02*
X008895Y004386D01*
X008895Y004287D02*
X010998Y004287D01*
X010998Y004189D02*
X008895Y004189D01*
X008895Y004090D02*
X010998Y004090D01*
X010998Y003992D02*
X008895Y003992D01*
X008856Y003893D02*
X010998Y003893D01*
X010998Y003795D02*
X008802Y003795D01*
X008704Y003696D02*
X010998Y003696D01*
X010998Y003598D02*
X010409Y003598D01*
X010601Y003499D02*
X010998Y003499D01*
X010998Y003401D02*
X010699Y003401D01*
X010759Y003302D02*
X010998Y003302D01*
X010998Y003204D02*
X010800Y003204D01*
X010819Y003105D02*
X010998Y003105D01*
X010998Y003007D02*
X010819Y003007D01*
X010813Y002908D02*
X010998Y002908D01*
X010998Y002810D02*
X010772Y002810D01*
X010998Y002514D02*
X010485Y002514D01*
X009994Y002514D02*
X007925Y002514D01*
X008008Y002548D02*
X007795Y002460D01*
X007564Y002460D01*
X007434Y002514D02*
X002419Y002514D01*
X002419Y002416D02*
X002938Y002416D01*
X002419Y002810D02*
X007147Y002810D01*
X007041Y002908D02*
X002419Y002908D01*
X002419Y003007D02*
X006955Y003007D01*
X006919Y003105D02*
X002419Y003105D01*
X002419Y003204D02*
X006919Y003204D01*
X006919Y003302D02*
X002419Y003302D01*
X002419Y003401D02*
X006919Y003401D01*
X006919Y003499D02*
X002419Y003499D01*
X003789Y001825D02*
X004379Y001825D01*
X004404Y001726D02*
X003765Y001726D01*
X003724Y001628D02*
X004445Y001628D01*
X004510Y001529D02*
X003659Y001529D01*
X003560Y001431D02*
X004609Y001431D01*
X004815Y001332D02*
X003354Y001332D01*
X002419Y000741D02*
X009977Y000741D01*
X009840Y000840D02*
X007985Y000840D01*
X008088Y000938D02*
X009745Y000938D01*
X009704Y001037D02*
X008149Y001037D01*
X008008Y002548D02*
X008171Y002711D01*
X008072Y002613D02*
X009847Y002613D01*
X010392Y001825D02*
X010998Y001825D01*
X010998Y001923D02*
X006539Y001923D01*
X006537Y002022D02*
X010998Y002022D01*
X010998Y002120D02*
X006496Y002120D01*
X006455Y002219D02*
X010998Y002219D01*
X010998Y002317D02*
X006363Y002317D01*
X006231Y002416D02*
X010998Y002416D01*
X010998Y001726D02*
X010594Y001726D01*
X010692Y001628D02*
X010998Y001628D01*
X010998Y001529D02*
X010756Y001529D01*
X010797Y001431D02*
X010998Y001431D01*
X010998Y001332D02*
X010819Y001332D01*
X010819Y001234D02*
X010998Y001234D01*
X010998Y001135D02*
X010815Y001135D01*
X010775Y001037D02*
X010998Y001037D01*
X010998Y000938D02*
X010734Y000938D01*
X010639Y000840D02*
X010998Y000840D01*
X010998Y000741D02*
X010502Y000741D01*
X010998Y000643D02*
X002419Y000643D01*
X002419Y000544D02*
X010998Y000544D01*
X010998Y000446D02*
X002419Y000446D01*
X002419Y000360D02*
X002419Y015688D01*
X010998Y015688D01*
X010998Y000360D01*
X002419Y000360D01*
X005104Y001332D02*
X005815Y001332D01*
X005609Y001431D02*
X005310Y001431D01*
X005409Y001529D02*
X005510Y001529D01*
X005464Y002219D02*
X005455Y002219D01*
X005363Y002317D02*
X005556Y002317D01*
X005688Y002416D02*
X005231Y002416D01*
X005704Y003696D02*
X006152Y003696D01*
X006054Y003795D02*
X005802Y003795D01*
X005856Y003893D02*
X006000Y003893D01*
X005961Y003992D02*
X005895Y003992D01*
X005895Y004090D02*
X005961Y004090D01*
X005961Y004189D02*
X005895Y004189D01*
X005895Y004287D02*
X005961Y004287D01*
X005961Y004386D02*
X005895Y004386D01*
X005895Y004484D02*
X005961Y004484D01*
X005961Y004583D02*
X005895Y004583D01*
X005895Y004681D02*
X005961Y004681D01*
X005998Y004780D02*
X005858Y004780D01*
X005848Y004878D02*
X006048Y004878D01*
X006147Y004977D02*
X005946Y004977D01*
X006143Y005174D02*
X010998Y005174D01*
X010998Y005272D02*
X006242Y005272D01*
X006340Y005371D02*
X010998Y005371D01*
X010998Y005469D02*
X006439Y005469D01*
X006537Y005568D02*
X010998Y005568D01*
X010998Y005666D02*
X006636Y005666D01*
X006734Y005765D02*
X010998Y005765D01*
X010998Y005863D02*
X008274Y005863D01*
X008431Y005962D02*
X010998Y005962D01*
X010998Y006060D02*
X008530Y006060D01*
X008628Y006159D02*
X010998Y006159D01*
X010998Y006257D02*
X008727Y006257D01*
X008825Y006356D02*
X010998Y006356D01*
X010998Y006454D02*
X010230Y006454D01*
X010347Y006553D02*
X010998Y006553D01*
X010998Y006651D02*
X010416Y006651D01*
X010457Y006750D02*
X010998Y006750D01*
X010998Y006848D02*
X010478Y006848D01*
X010459Y007045D02*
X010998Y007045D01*
X010998Y006947D02*
X010009Y006947D01*
X010009Y006848D02*
X009909Y006848D01*
X009909Y006750D02*
X010009Y006750D01*
X010009Y006651D02*
X009909Y006651D01*
X009909Y006553D02*
X010009Y006553D01*
X010009Y006454D02*
X009909Y006454D01*
X009689Y006454D02*
X008924Y006454D01*
X009022Y006553D02*
X009572Y006553D01*
X009503Y006651D02*
X009121Y006651D01*
X009219Y006750D02*
X009462Y006750D01*
X009441Y006848D02*
X009318Y006848D01*
X009416Y006947D02*
X009909Y006947D01*
X010238Y007341D02*
X010998Y007341D01*
X010998Y007439D02*
X010319Y007439D01*
X010417Y007538D02*
X010998Y007538D01*
X010998Y007636D02*
X010478Y007636D01*
X010519Y007735D02*
X010998Y007735D01*
X010998Y007833D02*
X010539Y007833D01*
X010539Y007932D02*
X010998Y007932D01*
X010998Y008030D02*
X010533Y008030D01*
X010493Y008129D02*
X010998Y008129D01*
X010998Y008227D02*
X010452Y008227D01*
X010354Y008326D02*
X010998Y008326D01*
X010998Y008424D02*
X010210Y008424D01*
X010091Y008621D02*
X010998Y008621D01*
X010998Y008523D02*
X009992Y008523D01*
X010189Y008720D02*
X010998Y008720D01*
X010998Y008818D02*
X010288Y008818D01*
X010386Y008917D02*
X010998Y008917D01*
X010998Y009015D02*
X010467Y009015D01*
X010499Y009114D02*
X010998Y009114D01*
X010998Y009212D02*
X010499Y009212D01*
X010535Y009311D02*
X010998Y009311D01*
X010998Y009409D02*
X010633Y009409D01*
X010679Y009508D02*
X010998Y009508D01*
X010998Y009606D02*
X010679Y009606D01*
X010679Y009705D02*
X010998Y009705D01*
X010998Y009803D02*
X010679Y009803D01*
X010623Y009902D02*
X010998Y009902D01*
X010998Y010000D02*
X010524Y010000D01*
X010426Y010099D02*
X010998Y010099D01*
X010998Y010197D02*
X009929Y010197D01*
X009929Y010099D02*
X009993Y010099D01*
X009929Y010296D02*
X010998Y010296D01*
X010998Y010394D02*
X009880Y010394D01*
X009782Y010493D02*
X010998Y010493D01*
X010998Y010591D02*
X009683Y010591D01*
X009831Y010887D02*
X010998Y010887D01*
X010998Y010985D02*
X009959Y010985D01*
X010058Y011084D02*
X010998Y011084D01*
X010998Y011182D02*
X010156Y011182D01*
X010179Y011281D02*
X010998Y011281D01*
X010998Y011379D02*
X010179Y011379D01*
X010179Y011478D02*
X010998Y011478D01*
X010998Y011576D02*
X010179Y011576D01*
X010100Y011675D02*
X010998Y011675D01*
X010998Y011773D02*
X010497Y011773D01*
X010596Y011872D02*
X010998Y011872D01*
X010998Y011970D02*
X010679Y011970D01*
X010679Y012069D02*
X010998Y012069D01*
X010998Y012167D02*
X010679Y012167D01*
X010679Y012266D02*
X010998Y012266D01*
X010998Y012364D02*
X010660Y012364D01*
X010562Y012463D02*
X010998Y012463D01*
X010998Y012561D02*
X010499Y012561D01*
X010499Y012660D02*
X010998Y012660D01*
X010998Y012758D02*
X010499Y012758D01*
X010499Y012857D02*
X010998Y012857D01*
X010998Y012955D02*
X010499Y012955D01*
X010499Y013054D02*
X010998Y013054D01*
X010998Y013152D02*
X010499Y013152D01*
X010499Y013251D02*
X010998Y013251D01*
X010998Y013349D02*
X010499Y013349D01*
X010499Y013448D02*
X010998Y013448D01*
X010998Y013546D02*
X010499Y013546D01*
X010499Y013645D02*
X010998Y013645D01*
X010998Y013743D02*
X010556Y013743D01*
X010643Y013842D02*
X010998Y013842D01*
X010998Y013940D02*
X010683Y013940D01*
X010722Y014039D02*
X010998Y014039D01*
X010998Y014137D02*
X010722Y014137D01*
X010722Y014236D02*
X010998Y014236D01*
X010998Y014334D02*
X010694Y014334D01*
X010653Y014433D02*
X010998Y014433D01*
X010998Y014531D02*
X010582Y014531D01*
X010483Y014630D02*
X010998Y014630D01*
X010998Y014728D02*
X010263Y014728D01*
X010022Y014728D02*
X009856Y014728D01*
X009831Y014827D02*
X010998Y014827D01*
X010998Y014925D02*
X009790Y014925D01*
X009723Y015024D02*
X010998Y015024D01*
X010998Y015122D02*
X009625Y015122D01*
X009415Y015221D02*
X010998Y015221D01*
X010998Y015319D02*
X002419Y015319D01*
X002419Y015221D02*
X004004Y015221D01*
X004027Y015230D02*
X003814Y015142D01*
X003651Y014979D01*
X003562Y014765D01*
X003562Y014659D01*
X003392Y014730D01*
X003161Y014730D01*
X002948Y014642D01*
X002785Y014479D01*
X002696Y014265D01*
X002696Y014035D01*
X002785Y013821D01*
X002948Y013658D01*
X003161Y013570D01*
X003392Y013570D01*
X003605Y013658D01*
X003698Y013751D01*
X003964Y013486D01*
X004045Y013404D01*
X004152Y013360D01*
X005767Y013360D01*
X005874Y013404D01*
X006290Y013820D01*
X006325Y013820D01*
X006538Y013908D01*
X006701Y014071D01*
X006709Y014091D01*
X006718Y014071D01*
X006881Y013908D01*
X007094Y013820D01*
X007325Y013820D01*
X007538Y013908D01*
X007701Y014071D01*
X007789Y014285D01*
X007789Y014515D01*
X007701Y014729D01*
X007538Y014892D01*
X007325Y014980D01*
X007094Y014980D01*
X006881Y014892D01*
X006718Y014729D01*
X006709Y014709D01*
X006701Y014729D01*
X006538Y014892D01*
X006325Y014980D01*
X006094Y014980D01*
X005881Y014892D01*
X005718Y014729D01*
X005629Y014515D01*
X005629Y014285D01*
X005718Y014071D01*
X005719Y014070D01*
X005589Y013940D01*
X004330Y013940D01*
X004200Y014070D01*
X004258Y014070D01*
X004471Y014158D01*
X004634Y014321D01*
X004722Y014535D01*
X004722Y014765D01*
X004634Y014979D01*
X004471Y015142D01*
X004258Y015230D01*
X004027Y015230D01*
X004281Y015221D02*
X009138Y015221D01*
X008928Y015122D02*
X004491Y015122D01*
X004589Y015024D02*
X008830Y015024D01*
X008763Y014925D02*
X007458Y014925D01*
X007603Y014827D02*
X008722Y014827D01*
X008696Y014728D02*
X007701Y014728D01*
X007742Y014630D02*
X008696Y014630D01*
X008698Y014531D02*
X007783Y014531D01*
X007789Y014433D02*
X008739Y014433D01*
X008780Y014334D02*
X007789Y014334D01*
X007769Y014236D02*
X008871Y014236D01*
X008999Y014137D02*
X007728Y014137D01*
X007668Y014039D02*
X009562Y014039D01*
X009554Y014137D02*
X009562Y014137D01*
X009602Y013940D02*
X007570Y013940D01*
X007377Y013842D02*
X009642Y013842D01*
X009729Y013743D02*
X006213Y013743D01*
X006114Y013645D02*
X009847Y013645D01*
X009919Y013546D02*
X006016Y013546D01*
X005917Y013448D02*
X009919Y013448D01*
X009919Y013349D02*
X002419Y013349D01*
X002419Y013251D02*
X009919Y013251D01*
X009919Y013152D02*
X002419Y013152D01*
X002419Y013054D02*
X009919Y013054D01*
X009919Y012955D02*
X002419Y012955D01*
X002419Y012857D02*
X009919Y012857D01*
X009919Y012758D02*
X002419Y012758D01*
X002419Y012660D02*
X009919Y012660D01*
X009919Y012561D02*
X007463Y012561D01*
X007562Y012463D02*
X008942Y012463D01*
X009040Y012560D02*
X008799Y012320D01*
X008799Y012180D01*
X009179Y012180D01*
X009179Y012120D01*
X008799Y012120D01*
X008799Y011980D01*
X009040Y011740D01*
X009179Y011740D01*
X009179Y012120D01*
X009239Y012120D01*
X009239Y011740D01*
X009379Y011740D01*
X009619Y011980D01*
X009619Y012120D01*
X009239Y012120D01*
X009239Y012180D01*
X009179Y012180D01*
X009179Y012560D01*
X009040Y012560D01*
X009179Y012463D02*
X009239Y012463D01*
X009239Y012560D02*
X009379Y012560D01*
X009619Y012320D01*
X009619Y012180D01*
X009239Y012180D01*
X009239Y012560D01*
X009239Y012364D02*
X009179Y012364D01*
X009179Y012266D02*
X009239Y012266D01*
X009239Y012167D02*
X009739Y012167D01*
X009739Y012069D02*
X009619Y012069D01*
X009609Y011970D02*
X009739Y011970D01*
X009823Y011872D02*
X009511Y011872D01*
X009418Y011773D02*
X009412Y011773D01*
X009319Y011675D02*
X007100Y011675D01*
X007194Y011576D02*
X009239Y011576D01*
X009239Y011478D02*
X007292Y011478D01*
X007497Y011773D02*
X009007Y011773D01*
X008908Y011872D02*
X007596Y011872D01*
X007679Y011970D02*
X008810Y011970D01*
X008799Y012069D02*
X007679Y012069D01*
X007679Y012167D02*
X009179Y012167D01*
X009179Y012069D02*
X009239Y012069D01*
X009239Y011970D02*
X009179Y011970D01*
X009179Y011872D02*
X009239Y011872D01*
X009239Y011773D02*
X009179Y011773D01*
X008799Y012266D02*
X007679Y012266D01*
X007660Y012364D02*
X008844Y012364D01*
X009477Y012463D02*
X009857Y012463D01*
X009759Y012364D02*
X009575Y012364D01*
X009619Y012266D02*
X009739Y012266D01*
X009236Y010591D02*
X008179Y010591D01*
X008277Y010493D02*
X009137Y010493D01*
X009039Y010394D02*
X008376Y010394D01*
X008474Y010296D02*
X008989Y010296D01*
X008989Y010197D02*
X008573Y010197D01*
X008671Y010099D02*
X008989Y010099D01*
X008989Y010000D02*
X008770Y010000D01*
X008868Y009902D02*
X009043Y009902D01*
X008967Y009803D02*
X009142Y009803D01*
X009065Y009705D02*
X009240Y009705D01*
X009251Y009606D02*
X009164Y009606D01*
X009668Y009606D02*
X009739Y009606D01*
X009739Y009705D02*
X009679Y009705D01*
X008624Y008326D02*
X002419Y008326D01*
X002419Y008424D02*
X008525Y008424D01*
X008427Y008523D02*
X002419Y008523D01*
X002419Y008621D02*
X008328Y008621D01*
X008230Y008720D02*
X002419Y008720D01*
X002419Y008818D02*
X008131Y008818D01*
X008033Y008917D02*
X002419Y008917D01*
X002419Y009015D02*
X007934Y009015D01*
X007836Y009114D02*
X007663Y009114D01*
X007070Y009114D02*
X003663Y009114D01*
X003781Y009212D02*
X006953Y009212D01*
X006867Y009311D02*
X003867Y009311D01*
X003908Y009409D02*
X006826Y009409D01*
X006787Y009508D02*
X003977Y009508D01*
X004076Y009606D02*
X006787Y009606D01*
X006787Y009705D02*
X004174Y009705D01*
X004273Y009803D02*
X006816Y009803D01*
X007457Y010493D02*
X002419Y010493D01*
X002419Y010591D02*
X007358Y010591D01*
X007260Y010690D02*
X002419Y010690D01*
X002419Y010788D02*
X007161Y010788D01*
X007063Y010887D02*
X006831Y010887D01*
X006959Y010985D02*
X006964Y010985D01*
X006239Y011478D02*
X004179Y011478D01*
X004179Y011576D02*
X006239Y011576D01*
X006319Y011675D02*
X004100Y011675D01*
X003823Y011872D02*
X003511Y011872D01*
X003418Y011773D02*
X003412Y011773D01*
X003379Y011740D02*
X003619Y011980D01*
X003619Y012120D01*
X003239Y012120D01*
X003239Y011740D01*
X003379Y011740D01*
X003319Y011675D02*
X002419Y011675D01*
X002419Y011773D02*
X003007Y011773D01*
X003040Y011740D02*
X003179Y011740D01*
X003179Y012120D01*
X002799Y012120D01*
X002799Y011980D01*
X003040Y011740D01*
X002908Y011872D02*
X002419Y011872D01*
X002419Y011970D02*
X002810Y011970D01*
X002799Y012069D02*
X002419Y012069D01*
X002419Y012167D02*
X003179Y012167D01*
X003179Y012180D02*
X003179Y012120D01*
X003239Y012120D01*
X003239Y012180D01*
X003179Y012180D01*
X002799Y012180D01*
X002799Y012320D01*
X003040Y012560D01*
X003179Y012560D01*
X003179Y012180D01*
X003239Y012180D02*
X003239Y012560D01*
X003379Y012560D01*
X003619Y012320D01*
X003619Y012180D01*
X003239Y012180D01*
X003239Y012167D02*
X003739Y012167D01*
X003739Y012069D02*
X003619Y012069D01*
X003609Y011970D02*
X003739Y011970D01*
X003739Y012266D02*
X003619Y012266D01*
X003575Y012364D02*
X003759Y012364D01*
X003857Y012463D02*
X003477Y012463D01*
X003239Y012463D02*
X003179Y012463D01*
X003179Y012364D02*
X003239Y012364D01*
X003239Y012266D02*
X003179Y012266D01*
X003179Y012069D02*
X003239Y012069D01*
X003239Y011970D02*
X003179Y011970D01*
X003179Y011872D02*
X003239Y011872D01*
X003239Y011773D02*
X003179Y011773D01*
X003239Y011576D02*
X002419Y011576D01*
X002419Y011478D02*
X003239Y011478D01*
X003239Y011379D02*
X002419Y011379D01*
X002419Y011281D02*
X003239Y011281D01*
X003263Y011182D02*
X002419Y011182D01*
X002419Y011084D02*
X003361Y011084D01*
X003460Y010985D02*
X002419Y010985D01*
X002419Y010887D02*
X003588Y010887D01*
X004043Y010394D02*
X002419Y010394D01*
X002419Y010296D02*
X003945Y010296D01*
X003846Y010197D02*
X003486Y010197D01*
X003248Y010197D02*
X002419Y010197D01*
X002419Y010099D02*
X003027Y010099D01*
X002928Y010000D02*
X002419Y010000D01*
X002419Y009902D02*
X002856Y009902D01*
X002816Y009803D02*
X002419Y009803D01*
X002419Y009705D02*
X002787Y009705D01*
X002787Y009606D02*
X002419Y009606D01*
X002419Y009508D02*
X002787Y009508D01*
X002826Y009409D02*
X002419Y009409D01*
X002419Y009311D02*
X002867Y009311D01*
X002953Y009212D02*
X002419Y009212D01*
X002419Y009114D02*
X003070Y009114D01*
X003707Y010099D02*
X003748Y010099D01*
X004497Y011773D02*
X006007Y011773D01*
X006040Y011740D02*
X006179Y011740D01*
X006179Y012120D01*
X005799Y012120D01*
X005799Y011980D01*
X006040Y011740D01*
X006179Y011773D02*
X006239Y011773D01*
X006239Y011740D02*
X006379Y011740D01*
X006619Y011980D01*
X006619Y012120D01*
X006239Y012120D01*
X006239Y011740D01*
X006239Y011872D02*
X006179Y011872D01*
X006179Y011970D02*
X006239Y011970D01*
X006239Y012069D02*
X006179Y012069D01*
X006179Y012120D02*
X006239Y012120D01*
X006239Y012180D01*
X006179Y012180D01*
X006179Y012120D01*
X006179Y012167D02*
X004679Y012167D01*
X004679Y012069D02*
X005799Y012069D01*
X005810Y011970D02*
X004679Y011970D01*
X004596Y011872D02*
X005908Y011872D01*
X005799Y012180D02*
X006179Y012180D01*
X006179Y012560D01*
X006040Y012560D01*
X005799Y012320D01*
X005799Y012180D01*
X005799Y012266D02*
X004679Y012266D01*
X004660Y012364D02*
X005844Y012364D01*
X005942Y012463D02*
X004562Y012463D01*
X004463Y012561D02*
X006956Y012561D01*
X006857Y012463D02*
X006477Y012463D01*
X006379Y012560D02*
X006239Y012560D01*
X006239Y012180D01*
X006619Y012180D01*
X006619Y012320D01*
X006379Y012560D01*
X006239Y012463D02*
X006179Y012463D01*
X006179Y012364D02*
X006239Y012364D01*
X006239Y012266D02*
X006179Y012266D01*
X006239Y012167D02*
X006739Y012167D01*
X006739Y012069D02*
X006619Y012069D01*
X006609Y011970D02*
X006739Y011970D01*
X006521Y011872D02*
X006511Y011872D01*
X006418Y011773D02*
X006412Y011773D01*
X006619Y012266D02*
X006739Y012266D01*
X006759Y012364D02*
X006575Y012364D01*
X006377Y013842D02*
X007042Y013842D01*
X006849Y013940D02*
X006570Y013940D01*
X006668Y014039D02*
X006751Y014039D01*
X006718Y014728D02*
X006701Y014728D01*
X006603Y014827D02*
X006816Y014827D01*
X006961Y014925D02*
X006458Y014925D01*
X005961Y014925D02*
X004656Y014925D01*
X004697Y014827D02*
X005816Y014827D01*
X005718Y014728D02*
X004722Y014728D01*
X004722Y014630D02*
X005677Y014630D01*
X005636Y014531D02*
X004721Y014531D01*
X004680Y014433D02*
X005629Y014433D01*
X005629Y014334D02*
X004639Y014334D01*
X004548Y014236D02*
X005650Y014236D01*
X005691Y014137D02*
X004420Y014137D01*
X004231Y014039D02*
X005688Y014039D01*
X005589Y013940D02*
X004330Y013940D01*
X004002Y013448D02*
X002419Y013448D01*
X002419Y013546D02*
X003903Y013546D01*
X003805Y013645D02*
X003572Y013645D01*
X003690Y013743D02*
X003706Y013743D01*
X002981Y013645D02*
X002419Y013645D01*
X002419Y013743D02*
X002863Y013743D01*
X002776Y013842D02*
X002419Y013842D01*
X002419Y013940D02*
X002736Y013940D01*
X002696Y014039D02*
X002419Y014039D01*
X002419Y014137D02*
X002696Y014137D01*
X002696Y014236D02*
X002419Y014236D01*
X002419Y014334D02*
X002725Y014334D01*
X002766Y014433D02*
X002419Y014433D01*
X002419Y014531D02*
X002837Y014531D01*
X002936Y014630D02*
X002419Y014630D01*
X002419Y014728D02*
X003156Y014728D01*
X003397Y014728D02*
X003562Y014728D01*
X003588Y014827D02*
X002419Y014827D01*
X002419Y014925D02*
X003629Y014925D01*
X003696Y015024D02*
X002419Y015024D01*
X002419Y015122D02*
X003794Y015122D01*
X002419Y015418D02*
X010998Y015418D01*
X010998Y015516D02*
X002419Y015516D01*
X002419Y015615D02*
X010998Y015615D01*
X010998Y010788D02*
X007982Y010788D01*
X008080Y010690D02*
X010998Y010690D01*
X008919Y007932D02*
X008754Y007932D01*
X008836Y007833D02*
X008919Y007833D01*
X008919Y007735D02*
X008877Y007735D01*
X008895Y007636D02*
X008919Y007636D01*
X008919Y007538D02*
X008895Y007538D01*
X008895Y007439D02*
X008919Y007439D01*
X008919Y007341D02*
X008895Y007341D01*
X008253Y008030D02*
X007603Y008030D01*
X007521Y008064D02*
X007335Y008064D01*
X007163Y007993D01*
X007032Y007861D01*
X006961Y007689D01*
X006961Y006989D01*
X007032Y006817D01*
X007163Y006685D01*
X007335Y006614D01*
X007521Y006614D01*
X007693Y006685D01*
X007824Y006817D01*
X007895Y006989D01*
X007895Y007689D01*
X007824Y007861D01*
X007693Y007993D01*
X007521Y008064D01*
X007754Y007932D02*
X008102Y007932D01*
X008020Y007833D02*
X007836Y007833D01*
X007877Y007735D02*
X007979Y007735D01*
X007961Y007636D02*
X007895Y007636D01*
X007895Y007538D02*
X007961Y007538D01*
X007961Y007439D02*
X007895Y007439D01*
X007895Y007341D02*
X007961Y007341D01*
X007961Y007242D02*
X007895Y007242D01*
X007895Y007144D02*
X007961Y007144D01*
X007961Y007045D02*
X007895Y007045D01*
X007878Y006947D02*
X007978Y006947D01*
X008019Y006848D02*
X007837Y006848D01*
X007757Y006750D02*
X008099Y006750D01*
X008246Y006651D02*
X007610Y006651D01*
X007246Y006651D02*
X006610Y006651D01*
X006693Y006685D02*
X006521Y006614D01*
X006335Y006614D01*
X006163Y006685D01*
X006032Y006817D01*
X005961Y006989D01*
X005961Y007689D01*
X006032Y007861D01*
X006163Y007993D01*
X006335Y008064D01*
X006521Y008064D01*
X006693Y007993D01*
X006824Y007861D01*
X006895Y007689D01*
X006895Y006989D01*
X006824Y006817D01*
X006693Y006685D01*
X006757Y006750D02*
X007099Y006750D01*
X007019Y006848D02*
X006837Y006848D01*
X006878Y006947D02*
X006978Y006947D01*
X006961Y007045D02*
X006895Y007045D01*
X006895Y007144D02*
X006961Y007144D01*
X006961Y007242D02*
X006895Y007242D01*
X006895Y007341D02*
X006961Y007341D01*
X006961Y007439D02*
X006895Y007439D01*
X006895Y007538D02*
X006961Y007538D01*
X006961Y007636D02*
X006895Y007636D01*
X006877Y007735D02*
X006979Y007735D01*
X007020Y007833D02*
X006836Y007833D01*
X006754Y007932D02*
X007102Y007932D01*
X007253Y008030D02*
X006603Y008030D01*
X006253Y008030D02*
X004495Y008030D01*
X004519Y008012D02*
X004458Y008056D01*
X004392Y008090D01*
X004321Y008113D01*
X004247Y008125D01*
X004228Y008125D01*
X004228Y007669D01*
X004684Y007669D01*
X004684Y007687D01*
X004673Y007761D01*
X004650Y007832D01*
X004616Y007899D01*
X004572Y007959D01*
X004519Y008012D01*
X004592Y007932D02*
X005196Y007932D01*
X005214Y007945D02*
X005163Y007907D01*
X005117Y007862D01*
X005079Y007810D01*
X005050Y007753D01*
X005031Y007692D01*
X005021Y007629D01*
X005021Y007368D01*
X005399Y007368D01*
X005399Y008004D01*
X005396Y008004D01*
X005333Y007994D01*
X005272Y007974D01*
X005214Y007945D01*
X005096Y007833D02*
X004649Y007833D01*
X004677Y007735D02*
X005044Y007735D01*
X005022Y007636D02*
X004228Y007636D01*
X004228Y007538D02*
X004191Y007538D01*
X004191Y007439D02*
X004228Y007439D01*
X004228Y007341D02*
X004191Y007341D01*
X004191Y007242D02*
X004228Y007242D01*
X004455Y007242D02*
X005021Y007242D01*
X005021Y007439D02*
X004635Y007439D01*
X004672Y007538D02*
X005021Y007538D01*
X005399Y007538D02*
X005457Y007538D01*
X005457Y007636D02*
X005399Y007636D01*
X005399Y007735D02*
X005457Y007735D01*
X005457Y007833D02*
X005399Y007833D01*
X005399Y007932D02*
X005457Y007932D01*
X005457Y008004D02*
X005457Y007368D01*
X005399Y007368D01*
X005399Y007310D01*
X005457Y007310D01*
X005457Y007368D01*
X005835Y007368D01*
X005835Y007629D01*
X005825Y007692D01*
X005806Y007753D01*
X005776Y007810D01*
X005739Y007862D01*
X005693Y007907D01*
X005642Y007945D01*
X005584Y007974D01*
X005523Y007994D01*
X005460Y008004D01*
X005457Y008004D01*
X005660Y007932D02*
X006102Y007932D01*
X006020Y007833D02*
X005760Y007833D01*
X005812Y007735D02*
X005979Y007735D01*
X005961Y007636D02*
X005834Y007636D01*
X005835Y007538D02*
X005961Y007538D01*
X005961Y007439D02*
X005835Y007439D01*
X005835Y007310D02*
X005457Y007310D01*
X005457Y006674D01*
X005460Y006674D01*
X005523Y006684D01*
X005584Y006704D01*
X005642Y006733D01*
X005693Y006771D01*
X005739Y006816D01*
X005776Y006868D01*
X005806Y006925D01*
X005825Y006986D01*
X005835Y007049D01*
X005835Y007310D01*
X005835Y007242D02*
X005961Y007242D01*
X005961Y007144D02*
X005835Y007144D01*
X005835Y007045D02*
X005961Y007045D01*
X005978Y006947D02*
X005813Y006947D01*
X005762Y006848D02*
X006019Y006848D01*
X006099Y006750D02*
X005664Y006750D01*
X005457Y006750D02*
X005399Y006750D01*
X005399Y006848D02*
X005457Y006848D01*
X005457Y006947D02*
X005399Y006947D01*
X005399Y007045D02*
X005457Y007045D01*
X005457Y007144D02*
X005399Y007144D01*
X005399Y007242D02*
X005457Y007242D01*
X005457Y007341D02*
X005961Y007341D01*
X005457Y007439D02*
X005399Y007439D01*
X005399Y007341D02*
X004572Y007341D01*
X004228Y007735D02*
X004191Y007735D01*
X004191Y007833D02*
X004228Y007833D01*
X004228Y007932D02*
X004191Y007932D01*
X004191Y008030D02*
X004228Y008030D01*
X005043Y006947D02*
X002419Y006947D01*
X002419Y006848D02*
X005094Y006848D01*
X005192Y006750D02*
X002419Y006750D01*
X002419Y006651D02*
X006246Y006651D01*
X006505Y006356D02*
X003461Y006356D01*
X003482Y006345D02*
X003409Y006382D01*
X003331Y006407D01*
X003250Y006420D01*
X003248Y006420D01*
X003248Y005939D01*
X003729Y005939D01*
X003729Y005941D01*
X003717Y006022D01*
X003691Y006100D01*
X003654Y006173D01*
X003606Y006239D01*
X003548Y006297D01*
X003482Y006345D01*
X003588Y006257D02*
X006406Y006257D01*
X006308Y006159D02*
X003661Y006159D01*
X003704Y006060D02*
X006209Y006060D01*
X006111Y005962D02*
X003726Y005962D01*
X003248Y005962D02*
X003171Y005962D01*
X003171Y006060D02*
X003248Y006060D01*
X003248Y006159D02*
X003171Y006159D01*
X003171Y006257D02*
X003248Y006257D01*
X003248Y006356D02*
X003171Y006356D01*
X002958Y006356D02*
X002419Y006356D01*
X002419Y006454D02*
X008103Y006454D01*
X008202Y006553D02*
X002419Y006553D01*
X002419Y006257D02*
X002831Y006257D01*
X002758Y006159D02*
X002419Y006159D01*
X002419Y006060D02*
X002715Y006060D01*
X002693Y005962D02*
X002419Y005962D01*
X003171Y005765D02*
X003248Y005765D01*
X003248Y005666D02*
X003171Y005666D01*
X003171Y005568D02*
X003248Y005568D01*
X003248Y005469D02*
X003171Y005469D01*
X007499Y003598D02*
X007510Y003598D01*
X010419Y007144D02*
X010998Y007144D01*
X010998Y007242D02*
X010353Y007242D01*
X003956Y012561D02*
X002419Y012561D01*
X002419Y012463D02*
X002942Y012463D01*
X002844Y012364D02*
X002419Y012364D01*
X002419Y012266D02*
X002799Y012266D01*
M02*
