G75*
%MOIN*%
%OFA0B0*%
%FSLAX24Y24*%
%IPPOS*%
%LPD*%
%AMOC8*
5,1,8,0,0,1.08239X$1,22.5*
%
%ADD10C,0.0000*%
%ADD11C,0.0050*%
%ADD12C,0.0040*%
%ADD13C,0.0080*%
%ADD14C,0.0010*%
%ADD15C,0.0060*%
%ADD16C,0.0100*%
D10*
X002209Y000150D02*
X002209Y015898D01*
X011208Y015898D01*
X011208Y000150D01*
X002209Y000150D01*
D11*
X002893Y001275D02*
X003193Y001275D01*
X003353Y001275D02*
X003654Y001275D01*
X003814Y001275D02*
X004039Y001275D01*
X004114Y001350D01*
X004114Y001650D01*
X004039Y001725D01*
X003814Y001725D01*
X003814Y001275D01*
X003503Y001500D02*
X003353Y001500D01*
X003353Y001725D02*
X003353Y001275D01*
X003353Y001725D02*
X003654Y001725D01*
X004274Y001500D02*
X004574Y001500D01*
X004499Y001275D02*
X004499Y001725D01*
X004274Y001500D01*
X003334Y003025D02*
X003334Y003205D01*
X003334Y003115D02*
X003064Y003115D01*
X003154Y003025D01*
X003064Y003614D02*
X003334Y003614D01*
X003244Y003614D02*
X003334Y003749D01*
X003334Y003860D02*
X003334Y003905D01*
X003244Y003905D01*
X003199Y003860D01*
X003109Y003860D01*
X003064Y003905D01*
X003064Y003995D01*
X003109Y004040D01*
X003199Y004040D01*
X003244Y003995D01*
X003334Y003995D01*
X003334Y004040D01*
X003154Y003749D02*
X003244Y003614D01*
X002434Y003150D02*
X002434Y002970D01*
X002254Y003150D01*
X002209Y003150D01*
X002164Y003105D01*
X002164Y003015D01*
X002209Y002970D01*
X002209Y002855D02*
X002299Y002855D01*
X002344Y002810D01*
X002344Y002675D01*
X002344Y002765D02*
X002434Y002855D01*
X002434Y002675D02*
X002164Y002675D01*
X002164Y002810D01*
X002209Y002855D01*
X002893Y001725D02*
X002893Y001275D01*
X004178Y005339D02*
X004178Y007339D01*
X004428Y007339D01*
X004928Y007339D02*
X005428Y007339D01*
X005928Y007339D02*
X006428Y007339D01*
X006928Y007339D02*
X007428Y007339D01*
X007928Y007339D02*
X008178Y007339D01*
X008178Y006839D01*
X007678Y006339D02*
X007680Y006295D01*
X007686Y006252D01*
X007695Y006210D01*
X007708Y006168D01*
X007725Y006128D01*
X007745Y006089D01*
X007768Y006052D01*
X007795Y006018D01*
X007824Y005985D01*
X007857Y005956D01*
X007891Y005929D01*
X007928Y005906D01*
X007967Y005886D01*
X008007Y005869D01*
X008049Y005856D01*
X008091Y005847D01*
X008134Y005841D01*
X008178Y005839D01*
X008178Y005339D01*
X007928Y005339D01*
X007428Y005339D02*
X006928Y005339D01*
X006428Y005339D02*
X005928Y005339D01*
X005428Y005339D02*
X004928Y005339D01*
X004428Y005339D02*
X004178Y005339D01*
X006053Y008574D02*
X006053Y008844D01*
X006188Y008844D01*
X006233Y008799D01*
X006233Y008709D01*
X006188Y008664D01*
X006053Y008664D01*
X006143Y008664D02*
X006233Y008574D01*
X006347Y008574D02*
X006527Y008574D01*
X006437Y008574D02*
X006437Y008844D01*
X006347Y008754D01*
X006177Y009474D02*
X006132Y009474D01*
X006132Y009564D01*
X006177Y009609D01*
X006177Y009699D01*
X006132Y009744D01*
X006042Y009744D01*
X005997Y009699D01*
X005997Y009609D01*
X006042Y009564D01*
X006042Y009474D01*
X005997Y009474D01*
X005887Y009474D02*
X005752Y009564D01*
X005887Y009654D01*
X005752Y009744D02*
X005752Y009474D01*
X005343Y009474D02*
X005162Y009474D01*
X005253Y009474D02*
X005253Y009744D01*
X005162Y009654D01*
X005099Y011425D02*
X005024Y011500D01*
X005099Y011425D02*
X005249Y011425D01*
X005324Y011500D01*
X005324Y011575D01*
X005249Y011650D01*
X005174Y011650D01*
X005249Y011650D02*
X005324Y011725D01*
X005324Y011800D01*
X005249Y011875D01*
X005099Y011875D01*
X005024Y011800D01*
X004864Y011875D02*
X004564Y011875D01*
X004714Y011875D02*
X004714Y011425D01*
X004755Y012250D02*
X004597Y012250D01*
X004534Y012800D02*
X002885Y012800D01*
X002822Y012250D02*
X002664Y012250D01*
X002249Y011875D02*
X002324Y011800D01*
X002324Y011725D01*
X002024Y011425D01*
X002324Y011425D01*
X002249Y011875D02*
X002099Y011875D01*
X002024Y011800D01*
X001864Y011875D02*
X001564Y011875D01*
X001714Y011875D02*
X001714Y011425D01*
X003597Y012250D02*
X003822Y012250D01*
X004534Y012800D02*
X004569Y012752D01*
X004602Y012702D01*
X004633Y012650D01*
X004660Y012596D01*
X004684Y012541D01*
X004704Y012484D01*
X004722Y012427D01*
X004736Y012369D01*
X004747Y012310D01*
X004754Y012250D01*
X005664Y012250D02*
X005822Y012250D01*
X005885Y012800D02*
X007534Y012800D01*
X007597Y012250D02*
X007755Y012250D01*
X007714Y011875D02*
X007714Y011425D01*
X008024Y011650D02*
X008324Y011650D01*
X008249Y011425D02*
X008249Y011875D01*
X008024Y011650D01*
X007864Y011875D02*
X007564Y011875D01*
X006822Y012250D02*
X006597Y012250D01*
X007534Y012800D02*
X007569Y012752D01*
X007602Y012702D01*
X007633Y012650D01*
X007660Y012596D01*
X007684Y012541D01*
X007704Y012484D01*
X007722Y012427D01*
X007736Y012369D01*
X007747Y012310D01*
X007754Y012250D01*
X008664Y012250D02*
X008822Y012250D01*
X008885Y012800D02*
X010534Y012800D01*
X010597Y012250D02*
X010755Y012250D01*
X009822Y012250D02*
X009597Y012250D01*
X010534Y012800D02*
X010569Y012752D01*
X010602Y012702D01*
X010633Y012650D01*
X010660Y012596D01*
X010684Y012541D01*
X010704Y012484D01*
X010722Y012427D01*
X010736Y012369D01*
X010747Y012310D01*
X010754Y012250D01*
X011590Y013586D02*
X011330Y013736D01*
X011555Y014126D01*
X011815Y013976D01*
X011954Y013896D02*
X012149Y013783D01*
X012176Y013681D01*
X012026Y013420D01*
X011924Y013393D01*
X011729Y013506D01*
X011954Y013896D01*
X011572Y013856D02*
X011442Y013931D01*
X011191Y013816D02*
X010931Y013966D01*
X011156Y014356D01*
X012165Y013340D02*
X012192Y013238D01*
X012322Y013163D01*
X012425Y013190D01*
X012462Y013255D01*
X012435Y013358D01*
X012370Y013395D01*
X012435Y013358D02*
X012537Y013385D01*
X012575Y013450D01*
X012548Y013553D01*
X012417Y013628D01*
X012315Y013600D01*
X009666Y014635D02*
X009366Y014635D01*
X009666Y014935D01*
X009666Y015010D01*
X009591Y015085D01*
X009441Y015085D01*
X009366Y015010D01*
X009206Y015010D02*
X009130Y015085D01*
X008905Y015085D01*
X008905Y014635D01*
X009130Y014635D01*
X009206Y014710D01*
X009206Y015010D01*
X008745Y015085D02*
X008445Y015085D01*
X008445Y014635D01*
X008745Y014635D01*
X008595Y014860D02*
X008445Y014860D01*
X008285Y014635D02*
X007984Y014635D01*
X007984Y015085D01*
X006152Y016082D02*
X005892Y015932D01*
X006022Y016007D02*
X005797Y016397D01*
X005742Y016192D01*
X005566Y016177D02*
X005716Y015917D01*
X005689Y015814D01*
X005494Y015701D01*
X005268Y016091D01*
X005463Y016204D01*
X005566Y016177D01*
X005355Y015621D02*
X005095Y015471D01*
X004870Y015861D01*
X005130Y016011D01*
X005112Y015741D02*
X004982Y015666D01*
X004956Y015391D02*
X004696Y015241D01*
X004471Y015631D01*
X002884Y012800D02*
X002847Y012749D01*
X002812Y012696D01*
X002780Y012640D01*
X002752Y012583D01*
X002728Y012524D01*
X002707Y012464D01*
X002690Y012403D01*
X002676Y012341D01*
X002667Y012278D01*
X002661Y012215D01*
X002659Y012151D01*
X002661Y012087D01*
X002667Y012024D01*
X002676Y011961D01*
X002689Y011899D01*
X002707Y011838D01*
X002727Y011778D01*
X002752Y011719D01*
X002779Y011662D01*
X002811Y011606D01*
X002845Y011553D01*
X002883Y011502D01*
X002924Y011453D01*
X002968Y011407D01*
X003014Y011363D01*
X003063Y011322D01*
X003114Y011285D01*
X003168Y011250D01*
X003223Y011219D01*
X003280Y011191D01*
X003339Y011167D01*
X003399Y011147D01*
X004019Y011147D02*
X004078Y011167D01*
X004135Y011190D01*
X004192Y011217D01*
X004246Y011248D01*
X004299Y011281D01*
X004349Y011318D01*
X004398Y011357D01*
X004443Y011400D01*
X004487Y011445D01*
X004527Y011492D01*
X004565Y011542D01*
X004600Y011594D01*
X004631Y011648D01*
X004659Y011703D01*
X004684Y011760D01*
X004705Y011819D01*
X004723Y011879D01*
X004738Y011940D01*
X004748Y012001D01*
X004755Y012063D01*
X004759Y012125D01*
X004758Y012188D01*
X004754Y012250D01*
X005884Y012800D02*
X005847Y012749D01*
X005812Y012696D01*
X005780Y012640D01*
X005752Y012583D01*
X005728Y012524D01*
X005707Y012464D01*
X005690Y012403D01*
X005676Y012341D01*
X005667Y012278D01*
X005661Y012215D01*
X005659Y012151D01*
X005661Y012087D01*
X005667Y012024D01*
X005676Y011961D01*
X005689Y011899D01*
X005707Y011838D01*
X005727Y011778D01*
X005752Y011719D01*
X005779Y011662D01*
X005811Y011606D01*
X005845Y011553D01*
X005883Y011502D01*
X005924Y011453D01*
X005968Y011407D01*
X006014Y011363D01*
X006063Y011322D01*
X006114Y011285D01*
X006168Y011250D01*
X006223Y011219D01*
X006280Y011191D01*
X006339Y011167D01*
X006399Y011147D01*
X007019Y011147D02*
X007078Y011167D01*
X007135Y011190D01*
X007192Y011217D01*
X007246Y011248D01*
X007299Y011281D01*
X007349Y011318D01*
X007398Y011357D01*
X007443Y011400D01*
X007487Y011445D01*
X007527Y011492D01*
X007565Y011542D01*
X007600Y011594D01*
X007631Y011648D01*
X007659Y011703D01*
X007684Y011760D01*
X007705Y011819D01*
X007723Y011879D01*
X007738Y011940D01*
X007748Y012001D01*
X007755Y012063D01*
X007759Y012125D01*
X007758Y012188D01*
X007754Y012250D01*
X008809Y010475D02*
X008809Y008825D01*
X009359Y008763D02*
X009359Y008605D01*
X009734Y008115D02*
X010184Y008115D01*
X010184Y007965D02*
X010184Y008265D01*
X009884Y007965D02*
X009734Y008115D01*
X009734Y007804D02*
X009734Y007504D01*
X009734Y007654D02*
X010184Y007654D01*
X009290Y007006D02*
X008689Y007006D01*
X008764Y007081D02*
X008839Y007156D01*
X008764Y007081D02*
X008764Y006930D01*
X008839Y006855D01*
X008914Y006855D01*
X008989Y006930D01*
X008989Y007081D01*
X009064Y007156D01*
X009139Y007156D01*
X009214Y007081D01*
X009214Y006930D01*
X009139Y006855D01*
X009214Y006695D02*
X009214Y006395D01*
X008764Y006395D01*
X008764Y006695D01*
X008989Y006545D02*
X008989Y006395D01*
X008914Y007316D02*
X008764Y007466D01*
X009214Y007466D01*
X009214Y007316D02*
X009214Y007616D01*
X008178Y006839D02*
X008134Y006837D01*
X008091Y006831D01*
X008049Y006822D01*
X008007Y006809D01*
X007967Y006792D01*
X007928Y006772D01*
X007891Y006749D01*
X007857Y006722D01*
X007824Y006693D01*
X007795Y006660D01*
X007768Y006626D01*
X007745Y006589D01*
X007725Y006550D01*
X007708Y006510D01*
X007695Y006468D01*
X007686Y006426D01*
X007680Y006383D01*
X007678Y006339D01*
X008060Y004125D02*
X007984Y004050D01*
X007984Y003975D01*
X008060Y003900D01*
X008210Y003900D01*
X008285Y003825D01*
X008285Y003750D01*
X008210Y003675D01*
X008060Y003675D01*
X007984Y003750D01*
X008060Y004125D02*
X008210Y004125D01*
X008285Y004050D01*
X008445Y003975D02*
X008595Y004125D01*
X008595Y003675D01*
X008445Y003675D02*
X008745Y003675D01*
X009359Y009537D02*
X009359Y009763D01*
X008809Y010475D02*
X008857Y010510D01*
X008907Y010543D01*
X008959Y010574D01*
X009013Y010601D01*
X009068Y010625D01*
X009125Y010645D01*
X009182Y010663D01*
X009240Y010677D01*
X009299Y010688D01*
X009359Y010695D01*
X009359Y010537D01*
X010462Y009340D02*
X010442Y009280D01*
X010418Y009221D01*
X010390Y009164D01*
X010359Y009109D01*
X010324Y009055D01*
X010287Y009004D01*
X010246Y008955D01*
X010202Y008909D01*
X010156Y008865D01*
X010107Y008824D01*
X010056Y008786D01*
X010003Y008752D01*
X009947Y008720D01*
X009890Y008693D01*
X009831Y008668D01*
X009771Y008648D01*
X009710Y008630D01*
X009648Y008617D01*
X009585Y008608D01*
X009522Y008602D01*
X009458Y008600D01*
X009394Y008602D01*
X009331Y008608D01*
X009268Y008617D01*
X009206Y008631D01*
X009145Y008648D01*
X009085Y008669D01*
X009026Y008693D01*
X008969Y008721D01*
X008913Y008753D01*
X008860Y008788D01*
X008809Y008825D01*
X009359Y010695D02*
X009421Y010699D01*
X009484Y010700D01*
X009546Y010696D01*
X009608Y010689D01*
X009669Y010679D01*
X009730Y010664D01*
X009790Y010646D01*
X009849Y010625D01*
X009906Y010600D01*
X009961Y010572D01*
X010015Y010541D01*
X010067Y010506D01*
X010117Y010468D01*
X010164Y010428D01*
X010209Y010384D01*
X010252Y010339D01*
X010291Y010290D01*
X010328Y010240D01*
X010361Y010187D01*
X010392Y010133D01*
X010419Y010076D01*
X010442Y010019D01*
X010462Y009960D01*
X010019Y011147D02*
X010078Y011167D01*
X010135Y011190D01*
X010192Y011217D01*
X010246Y011248D01*
X010299Y011281D01*
X010349Y011318D01*
X010398Y011357D01*
X010443Y011400D01*
X010487Y011445D01*
X010527Y011492D01*
X010565Y011542D01*
X010600Y011594D01*
X010631Y011648D01*
X010659Y011703D01*
X010684Y011760D01*
X010705Y011819D01*
X010723Y011879D01*
X010738Y011940D01*
X010748Y012001D01*
X010755Y012063D01*
X010759Y012125D01*
X010758Y012188D01*
X010754Y012250D01*
X009399Y011147D02*
X009339Y011167D01*
X009280Y011191D01*
X009223Y011219D01*
X009168Y011250D01*
X009114Y011285D01*
X009063Y011322D01*
X009014Y011363D01*
X008968Y011407D01*
X008924Y011453D01*
X008883Y011502D01*
X008845Y011553D01*
X008811Y011606D01*
X008779Y011662D01*
X008752Y011719D01*
X008727Y011778D01*
X008707Y011838D01*
X008689Y011899D01*
X008676Y011961D01*
X008667Y012024D01*
X008661Y012087D01*
X008659Y012151D01*
X008661Y012215D01*
X008667Y012278D01*
X008676Y012341D01*
X008690Y012403D01*
X008707Y012464D01*
X008728Y012524D01*
X008752Y012583D01*
X008780Y012640D01*
X008812Y012696D01*
X008847Y012749D01*
X008884Y012800D01*
D12*
X008908Y007206D02*
X008908Y006899D01*
X008908Y007052D02*
X008448Y007052D01*
X008601Y006899D01*
X008524Y006745D02*
X008448Y006668D01*
X008448Y006515D01*
X008524Y006438D01*
X008601Y006438D01*
X008678Y006515D01*
X008678Y006668D01*
X008755Y006745D01*
X008831Y006745D01*
X008908Y006668D01*
X008908Y006515D01*
X008831Y006438D01*
X008831Y006285D02*
X008448Y006285D01*
X008448Y005978D02*
X008831Y005978D01*
X008908Y006055D01*
X008908Y006208D01*
X008831Y006285D01*
X008985Y006592D02*
X008371Y006592D01*
D13*
X009459Y006650D02*
X009709Y006400D01*
X010209Y006400D01*
X010459Y006650D01*
X010459Y007150D01*
X010209Y007400D01*
X010459Y007650D01*
X010459Y008150D01*
X010209Y008400D01*
X009709Y008400D01*
X009459Y008150D01*
X009459Y007650D01*
X009709Y007400D01*
X009459Y007150D01*
X009459Y006650D01*
X009809Y003350D02*
X008109Y003350D01*
X007759Y002555D02*
X007759Y001750D01*
X008109Y000950D02*
X009809Y000950D01*
X010159Y001750D02*
X010159Y002543D01*
X008259Y002150D02*
X008261Y002202D01*
X008267Y002254D01*
X008277Y002306D01*
X008290Y002356D01*
X008307Y002406D01*
X008328Y002454D01*
X008353Y002500D01*
X008381Y002544D01*
X008412Y002586D01*
X008446Y002626D01*
X008483Y002663D01*
X008523Y002697D01*
X008565Y002728D01*
X008609Y002756D01*
X008655Y002781D01*
X008703Y002802D01*
X008753Y002819D01*
X008803Y002832D01*
X008855Y002842D01*
X008907Y002848D01*
X008959Y002850D01*
X009011Y002848D01*
X009063Y002842D01*
X009115Y002832D01*
X009165Y002819D01*
X009215Y002802D01*
X009263Y002781D01*
X009309Y002756D01*
X009353Y002728D01*
X009395Y002697D01*
X009435Y002663D01*
X009472Y002626D01*
X009506Y002586D01*
X009537Y002544D01*
X009565Y002500D01*
X009590Y002454D01*
X009611Y002406D01*
X009628Y002356D01*
X009641Y002306D01*
X009651Y002254D01*
X009657Y002202D01*
X009659Y002150D01*
X009657Y002098D01*
X009651Y002046D01*
X009641Y001994D01*
X009628Y001944D01*
X009611Y001894D01*
X009590Y001846D01*
X009565Y001800D01*
X009537Y001756D01*
X009506Y001714D01*
X009472Y001674D01*
X009435Y001637D01*
X009395Y001603D01*
X009353Y001572D01*
X009309Y001544D01*
X009263Y001519D01*
X009215Y001498D01*
X009165Y001481D01*
X009115Y001468D01*
X009063Y001458D01*
X009011Y001452D01*
X008959Y001450D01*
X008907Y001452D01*
X008855Y001458D01*
X008803Y001468D01*
X008753Y001481D01*
X008703Y001498D01*
X008655Y001519D01*
X008609Y001544D01*
X008565Y001572D01*
X008523Y001603D01*
X008483Y001637D01*
X008446Y001674D01*
X008412Y001714D01*
X008381Y001756D01*
X008353Y001800D01*
X008328Y001846D01*
X008307Y001894D01*
X008290Y001944D01*
X008277Y001994D01*
X008267Y002046D01*
X008261Y002098D01*
X008259Y002150D01*
X003682Y002660D02*
X003682Y005140D01*
X002737Y005140D01*
X002737Y002660D01*
X003682Y002660D01*
X004127Y009146D02*
X004127Y010091D01*
X006607Y010091D01*
X006607Y009146D01*
X004127Y009146D01*
X007709Y013650D02*
X007709Y015150D01*
X010201Y013250D02*
X010951Y014550D01*
X004951Y014250D02*
X004201Y015550D01*
D14*
X004213Y015592D02*
X004177Y015510D01*
X004178Y015510D02*
X004114Y015535D01*
X004049Y015556D01*
X003983Y015573D01*
X003916Y015587D01*
X003849Y015597D01*
X003781Y015603D01*
X003712Y015605D01*
X003644Y015603D01*
X003576Y015598D01*
X003508Y015588D01*
X003441Y015575D01*
X003375Y015558D01*
X003310Y015537D01*
X003246Y015513D01*
X003184Y015485D01*
X003124Y015453D01*
X003065Y015418D01*
X003008Y015380D01*
X002954Y015339D01*
X002902Y015295D01*
X002852Y015247D01*
X002806Y015198D01*
X002762Y015145D01*
X002721Y015090D01*
X002684Y015033D01*
X002650Y014974D01*
X002619Y014913D01*
X002591Y014851D01*
X002568Y014787D01*
X002548Y014721D01*
X002531Y014655D01*
X002519Y014588D01*
X002510Y014520D01*
X002505Y014452D01*
X002504Y014384D01*
X002507Y014316D01*
X002514Y014248D01*
X002524Y014180D01*
X002539Y014113D01*
X002557Y014047D01*
X002579Y013983D01*
X002604Y013919D01*
X002633Y013858D01*
X002665Y013798D01*
X002701Y013739D01*
X002740Y013683D01*
X002782Y013630D01*
X002828Y013578D01*
X002876Y013530D01*
X002926Y013484D01*
X002979Y013441D01*
X003035Y013401D01*
X003092Y013365D01*
X003152Y013331D01*
X003214Y013302D01*
X003277Y013275D01*
X003341Y013253D01*
X003407Y013234D01*
X003473Y013218D01*
X003540Y013207D01*
X003608Y013199D01*
X003677Y013195D01*
X003745Y013196D01*
X003813Y013199D01*
X003881Y013207D01*
X003948Y013219D01*
X004015Y013234D01*
X004080Y013254D01*
X004145Y013276D01*
X004207Y013303D01*
X004269Y013333D01*
X004328Y013366D01*
X004386Y013403D01*
X004441Y013443D01*
X004494Y013486D01*
X004545Y013532D01*
X004593Y013581D01*
X004638Y013632D01*
X004680Y013686D01*
X004719Y013742D01*
X004754Y013800D01*
X004787Y013861D01*
X004815Y013922D01*
X004841Y013986D01*
X004862Y014051D01*
X004880Y014117D01*
X004894Y014183D01*
X004905Y014251D01*
X004994Y014241D01*
X004994Y014240D01*
X004983Y014170D01*
X004969Y014100D01*
X004951Y014032D01*
X004929Y013964D01*
X004903Y013898D01*
X004874Y013834D01*
X004841Y013771D01*
X004805Y013710D01*
X004765Y013651D01*
X004722Y013594D01*
X004677Y013540D01*
X004628Y013488D01*
X004577Y013439D01*
X004523Y013393D01*
X004466Y013350D01*
X004408Y013310D01*
X004347Y013273D01*
X004284Y013240D01*
X004220Y013210D01*
X004154Y013184D01*
X004087Y013161D01*
X004018Y013142D01*
X003949Y013127D01*
X003879Y013116D01*
X003808Y013109D01*
X003737Y013105D01*
X003666Y013106D01*
X003595Y013110D01*
X003525Y013118D01*
X003455Y013130D01*
X003386Y013146D01*
X003317Y013166D01*
X003250Y013189D01*
X003185Y013216D01*
X003121Y013246D01*
X003058Y013280D01*
X002998Y013318D01*
X002940Y013358D01*
X002884Y013402D01*
X002830Y013449D01*
X002780Y013498D01*
X002732Y013551D01*
X002686Y013605D01*
X002644Y013663D01*
X002606Y013722D01*
X002570Y013783D01*
X002538Y013847D01*
X002510Y013912D01*
X002485Y013978D01*
X002463Y014046D01*
X002446Y014115D01*
X002432Y014184D01*
X002422Y014255D01*
X002416Y014325D01*
X002414Y014396D01*
X002416Y014467D01*
X002421Y014538D01*
X002431Y014608D01*
X002444Y014678D01*
X002461Y014747D01*
X002482Y014815D01*
X002507Y014881D01*
X002535Y014947D01*
X002567Y015010D01*
X002602Y015072D01*
X002640Y015131D01*
X002682Y015189D01*
X002727Y015244D01*
X002774Y015296D01*
X002825Y015346D01*
X002878Y015393D01*
X002934Y015437D01*
X002992Y015478D01*
X003052Y015516D01*
X003114Y015550D01*
X003178Y015581D01*
X003244Y015608D01*
X003310Y015632D01*
X003379Y015652D01*
X003448Y015668D01*
X003518Y015681D01*
X003588Y015689D01*
X003659Y015694D01*
X003730Y015695D01*
X003801Y015692D01*
X003871Y015685D01*
X003942Y015674D01*
X004011Y015659D01*
X004080Y015641D01*
X004147Y015619D01*
X004213Y015593D01*
X004210Y015585D01*
X004143Y015610D01*
X004075Y015633D01*
X004007Y015651D01*
X003937Y015666D01*
X003866Y015676D01*
X003795Y015683D01*
X003724Y015686D01*
X003653Y015685D01*
X003582Y015680D01*
X003511Y015671D01*
X003441Y015658D01*
X003372Y015641D01*
X003304Y015620D01*
X003237Y015596D01*
X003171Y015568D01*
X003107Y015536D01*
X003045Y015501D01*
X002985Y015463D01*
X002927Y015421D01*
X002872Y015376D01*
X002819Y015328D01*
X002769Y015278D01*
X002722Y015224D01*
X002678Y015168D01*
X002637Y015110D01*
X002599Y015050D01*
X002565Y014987D01*
X002534Y014923D01*
X002507Y014857D01*
X002483Y014790D01*
X002464Y014721D01*
X002448Y014652D01*
X002436Y014581D01*
X002428Y014511D01*
X002424Y014439D01*
X002423Y014368D01*
X002427Y014297D01*
X002435Y014226D01*
X002446Y014156D01*
X002462Y014086D01*
X002481Y014018D01*
X002504Y013950D01*
X002531Y013884D01*
X002561Y013820D01*
X002595Y013757D01*
X002633Y013696D01*
X002673Y013638D01*
X002717Y013582D01*
X002764Y013528D01*
X002814Y013477D01*
X002866Y013429D01*
X002921Y013383D01*
X002979Y013341D01*
X003039Y013303D01*
X003100Y013267D01*
X003164Y013235D01*
X003230Y013207D01*
X003296Y013182D01*
X003364Y013161D01*
X003434Y013144D01*
X003504Y013131D01*
X003574Y013121D01*
X003645Y013116D01*
X003717Y013114D01*
X003788Y013116D01*
X003859Y013123D01*
X003929Y013133D01*
X003999Y013147D01*
X004068Y013165D01*
X004136Y013187D01*
X004203Y013212D01*
X004268Y013242D01*
X004331Y013274D01*
X004392Y013311D01*
X004452Y013350D01*
X004509Y013393D01*
X004563Y013439D01*
X004615Y013487D01*
X004664Y013539D01*
X004711Y013593D01*
X004754Y013650D01*
X004794Y013709D01*
X004830Y013770D01*
X004863Y013833D01*
X004893Y013898D01*
X004919Y013964D01*
X004941Y014032D01*
X004960Y014101D01*
X004974Y014171D01*
X004985Y014241D01*
X004976Y014242D01*
X004966Y014172D01*
X004951Y014103D01*
X004933Y014035D01*
X004911Y013967D01*
X004885Y013902D01*
X004855Y013837D01*
X004822Y013775D01*
X004786Y013714D01*
X004746Y013655D01*
X004704Y013599D01*
X004658Y013545D01*
X004609Y013494D01*
X004557Y013445D01*
X004503Y013400D01*
X004446Y013357D01*
X004387Y013318D01*
X004327Y013282D01*
X004264Y013250D01*
X004199Y013221D01*
X004133Y013195D01*
X004066Y013174D01*
X003997Y013156D01*
X003928Y013142D01*
X003858Y013132D01*
X003787Y013125D01*
X003717Y013123D01*
X003646Y013125D01*
X003575Y013130D01*
X003505Y013139D01*
X003436Y013153D01*
X003367Y013170D01*
X003299Y013191D01*
X003233Y013215D01*
X003168Y013243D01*
X003105Y013275D01*
X003043Y013310D01*
X002984Y013349D01*
X002927Y013391D01*
X002872Y013435D01*
X002820Y013483D01*
X002771Y013534D01*
X002724Y013587D01*
X002681Y013643D01*
X002640Y013701D01*
X002603Y013762D01*
X002569Y013824D01*
X002539Y013888D01*
X002513Y013953D01*
X002490Y014020D01*
X002471Y014088D01*
X002455Y014158D01*
X002444Y014227D01*
X002436Y014298D01*
X002432Y014368D01*
X002433Y014439D01*
X002437Y014510D01*
X002445Y014580D01*
X002457Y014650D01*
X002472Y014719D01*
X002492Y014787D01*
X002515Y014854D01*
X002542Y014919D01*
X002573Y014983D01*
X002607Y015045D01*
X002644Y015105D01*
X002685Y015163D01*
X002729Y015219D01*
X002776Y015272D01*
X002825Y015322D01*
X002878Y015369D01*
X002933Y015414D01*
X002990Y015455D01*
X003050Y015494D01*
X003111Y015529D01*
X003175Y015560D01*
X003240Y015588D01*
X003306Y015612D01*
X003374Y015632D01*
X003443Y015649D01*
X003513Y015662D01*
X003583Y015671D01*
X003653Y015676D01*
X003724Y015677D01*
X003795Y015674D01*
X003865Y015667D01*
X003935Y015657D01*
X004004Y015642D01*
X004073Y015624D01*
X004140Y015602D01*
X004206Y015576D01*
X004202Y015568D01*
X004136Y015594D01*
X004069Y015616D01*
X004000Y015634D01*
X003930Y015649D01*
X003860Y015659D01*
X003789Y015665D01*
X003718Y015668D01*
X003647Y015667D01*
X003577Y015661D01*
X003506Y015652D01*
X003436Y015638D01*
X003367Y015621D01*
X003299Y015600D01*
X003233Y015575D01*
X003168Y015547D01*
X003104Y015515D01*
X003043Y015479D01*
X002984Y015440D01*
X002926Y015398D01*
X002872Y015352D01*
X002820Y015304D01*
X002770Y015253D01*
X002724Y015199D01*
X002681Y015142D01*
X002641Y015084D01*
X002604Y015023D01*
X002571Y014960D01*
X002542Y014895D01*
X002516Y014829D01*
X002494Y014761D01*
X002475Y014693D01*
X002461Y014623D01*
X002450Y014553D01*
X002444Y014482D01*
X002441Y014411D01*
X002442Y014340D01*
X002448Y014269D01*
X002457Y014199D01*
X002470Y014129D01*
X002487Y014060D01*
X002508Y013992D01*
X002533Y013926D01*
X002562Y013860D01*
X002594Y013797D01*
X002629Y013735D01*
X002668Y013676D01*
X002710Y013619D01*
X002756Y013564D01*
X002804Y013512D01*
X002855Y013463D01*
X002909Y013416D01*
X002965Y013373D01*
X003024Y013333D01*
X003085Y013296D01*
X003148Y013263D01*
X003212Y013233D01*
X003278Y013207D01*
X003346Y013185D01*
X003414Y013167D01*
X003484Y013152D01*
X003554Y013141D01*
X003625Y013135D01*
X003696Y013132D01*
X003767Y013133D01*
X003838Y013139D01*
X003908Y013148D01*
X003978Y013161D01*
X004047Y013178D01*
X004115Y013199D01*
X004182Y013223D01*
X004247Y013252D01*
X004310Y013284D01*
X004372Y013319D01*
X004431Y013358D01*
X004489Y013400D01*
X004543Y013445D01*
X004596Y013494D01*
X004645Y013545D01*
X004692Y013598D01*
X004735Y013655D01*
X004775Y013713D01*
X004812Y013774D01*
X004845Y013837D01*
X004875Y013901D01*
X004901Y013968D01*
X004923Y014035D01*
X004942Y014104D01*
X004957Y014173D01*
X004967Y014243D01*
X004958Y014244D01*
X004948Y014175D01*
X004933Y014106D01*
X004915Y014038D01*
X004893Y013971D01*
X004867Y013905D01*
X004837Y013841D01*
X004804Y013779D01*
X004767Y013718D01*
X004728Y013660D01*
X004685Y013604D01*
X004638Y013551D01*
X004589Y013500D01*
X004538Y013452D01*
X004483Y013407D01*
X004426Y013365D01*
X004367Y013327D01*
X004306Y013292D01*
X004243Y013260D01*
X004178Y013232D01*
X004112Y013207D01*
X004045Y013187D01*
X003976Y013170D01*
X003907Y013157D01*
X003837Y013148D01*
X003767Y013142D01*
X003696Y013141D01*
X003626Y013144D01*
X003555Y013150D01*
X003486Y013161D01*
X003416Y013175D01*
X003348Y013194D01*
X003281Y013216D01*
X003216Y013242D01*
X003152Y013271D01*
X003089Y013304D01*
X003029Y013341D01*
X002970Y013380D01*
X002915Y013423D01*
X002861Y013469D01*
X002810Y013518D01*
X002762Y013570D01*
X002717Y013624D01*
X002675Y013681D01*
X002637Y013740D01*
X002601Y013801D01*
X002570Y013864D01*
X002541Y013929D01*
X002517Y013995D01*
X002496Y014063D01*
X002479Y014131D01*
X002466Y014200D01*
X002457Y014270D01*
X002451Y014341D01*
X002450Y014411D01*
X002453Y014482D01*
X002459Y014552D01*
X002470Y014622D01*
X002484Y014691D01*
X002502Y014759D01*
X002524Y014826D01*
X002550Y014892D01*
X002579Y014956D01*
X002612Y015018D01*
X002649Y015079D01*
X002688Y015137D01*
X002731Y015193D01*
X002777Y015247D01*
X002826Y015297D01*
X002878Y015346D01*
X002932Y015391D01*
X002989Y015433D01*
X003048Y015471D01*
X003109Y015507D01*
X003172Y015539D01*
X003236Y015567D01*
X003302Y015592D01*
X003370Y015612D01*
X003438Y015630D01*
X003507Y015643D01*
X003577Y015652D01*
X003648Y015658D01*
X003718Y015659D01*
X003789Y015656D01*
X003859Y015650D01*
X003929Y015640D01*
X003998Y015625D01*
X004066Y015607D01*
X004133Y015585D01*
X004199Y015560D01*
X004195Y015551D01*
X004130Y015577D01*
X004064Y015599D01*
X003996Y015617D01*
X003927Y015631D01*
X003858Y015641D01*
X003788Y015647D01*
X003718Y015650D01*
X003648Y015649D01*
X003578Y015643D01*
X003509Y015634D01*
X003440Y015621D01*
X003372Y015604D01*
X003305Y015583D01*
X003240Y015559D01*
X003175Y015530D01*
X003113Y015499D01*
X003052Y015464D01*
X002994Y015425D01*
X002937Y015383D01*
X002884Y015339D01*
X002832Y015291D01*
X002784Y015241D01*
X002738Y015187D01*
X002696Y015132D01*
X002656Y015074D01*
X002620Y015014D01*
X002587Y014952D01*
X002558Y014888D01*
X002533Y014823D01*
X002511Y014756D01*
X002493Y014689D01*
X002479Y014620D01*
X002468Y014551D01*
X002462Y014481D01*
X002459Y014411D01*
X002460Y014341D01*
X002466Y014271D01*
X002475Y014202D01*
X002488Y014133D01*
X002505Y014065D01*
X002525Y013998D01*
X002550Y013932D01*
X002578Y013868D01*
X002609Y013806D01*
X002644Y013745D01*
X002683Y013686D01*
X002724Y013630D01*
X002769Y013576D01*
X002817Y013525D01*
X002867Y013476D01*
X002920Y013430D01*
X002976Y013388D01*
X003034Y013348D01*
X003094Y013312D01*
X003156Y013279D01*
X003219Y013250D01*
X003284Y013224D01*
X003351Y013202D01*
X003419Y013184D01*
X003487Y013170D01*
X003556Y013159D01*
X003626Y013153D01*
X003696Y013150D01*
X003766Y013151D01*
X003836Y013156D01*
X003905Y013166D01*
X003974Y013178D01*
X004042Y013195D01*
X004109Y013216D01*
X004175Y013240D01*
X004239Y013268D01*
X004302Y013300D01*
X004363Y013334D01*
X004421Y013373D01*
X004478Y013414D01*
X004532Y013459D01*
X004583Y013506D01*
X004632Y013557D01*
X004678Y013610D01*
X004720Y013665D01*
X004760Y013723D01*
X004796Y013783D01*
X004829Y013845D01*
X004858Y013908D01*
X004884Y013974D01*
X004906Y014040D01*
X004924Y014108D01*
X004939Y014176D01*
X004949Y014246D01*
X004940Y014247D01*
X004930Y014178D01*
X004916Y014110D01*
X004897Y014043D01*
X004876Y013977D01*
X004850Y013912D01*
X004821Y013849D01*
X004788Y013787D01*
X004752Y013728D01*
X004713Y013671D01*
X004671Y013615D01*
X004625Y013563D01*
X004577Y013513D01*
X004526Y013466D01*
X004472Y013421D01*
X004416Y013380D01*
X004358Y013342D01*
X004298Y013307D01*
X004235Y013276D01*
X004172Y013248D01*
X004106Y013224D01*
X004040Y013204D01*
X003972Y013187D01*
X003904Y013174D01*
X003835Y013165D01*
X003766Y013160D01*
X003696Y013159D01*
X003627Y013162D01*
X003557Y013168D01*
X003489Y013179D01*
X003421Y013193D01*
X003353Y013211D01*
X003287Y013233D01*
X003223Y013258D01*
X003159Y013287D01*
X003098Y013320D01*
X003038Y013356D01*
X002981Y013395D01*
X002926Y013437D01*
X002873Y013483D01*
X002823Y013531D01*
X002776Y013582D01*
X002731Y013635D01*
X002690Y013691D01*
X002652Y013750D01*
X002617Y013810D01*
X002586Y013872D01*
X002558Y013936D01*
X002534Y014001D01*
X002513Y014067D01*
X002497Y014135D01*
X002484Y014203D01*
X002475Y014272D01*
X002469Y014341D01*
X002468Y014411D01*
X002471Y014480D01*
X002477Y014550D01*
X002487Y014618D01*
X002502Y014687D01*
X002519Y014754D01*
X002541Y014820D01*
X002567Y014885D01*
X002595Y014948D01*
X002628Y015009D01*
X002664Y015069D01*
X002703Y015126D01*
X002745Y015182D01*
X002790Y015234D01*
X002839Y015285D01*
X002890Y015332D01*
X002943Y015376D01*
X002999Y015418D01*
X003057Y015456D01*
X003117Y015491D01*
X003179Y015522D01*
X003243Y015550D01*
X003308Y015574D01*
X003375Y015595D01*
X003442Y015612D01*
X003510Y015625D01*
X003579Y015634D01*
X003649Y015640D01*
X003718Y015641D01*
X003788Y015639D01*
X003857Y015632D01*
X003926Y015622D01*
X003994Y015608D01*
X004061Y015590D01*
X004127Y015568D01*
X004192Y015543D01*
X004188Y015535D01*
X004124Y015560D01*
X004058Y015581D01*
X003992Y015599D01*
X003924Y015613D01*
X003856Y015623D01*
X003787Y015630D01*
X003718Y015632D01*
X003649Y015631D01*
X003580Y015625D01*
X003512Y015616D01*
X003444Y015603D01*
X003377Y015586D01*
X003311Y015566D01*
X003246Y015542D01*
X003183Y015514D01*
X003121Y015483D01*
X003062Y015448D01*
X003004Y015410D01*
X002949Y015369D01*
X002895Y015325D01*
X002845Y015278D01*
X002797Y015228D01*
X002752Y015176D01*
X002710Y015121D01*
X002671Y015064D01*
X002636Y015005D01*
X002604Y014944D01*
X002575Y014881D01*
X002550Y014817D01*
X002528Y014751D01*
X002510Y014684D01*
X002496Y014617D01*
X002486Y014549D01*
X002480Y014480D01*
X002477Y014411D01*
X002478Y014342D01*
X002484Y014273D01*
X002493Y014205D01*
X002505Y014137D01*
X002522Y014070D01*
X002542Y014004D01*
X002566Y013939D01*
X002594Y013876D01*
X002625Y013814D01*
X002660Y013754D01*
X002698Y013697D01*
X002739Y013641D01*
X002783Y013588D01*
X002830Y013537D01*
X002879Y013489D01*
X002932Y013444D01*
X002986Y013402D01*
X003043Y013363D01*
X003102Y013328D01*
X003163Y013295D01*
X003226Y013267D01*
X003290Y013241D01*
X003356Y013220D01*
X003423Y013202D01*
X003490Y013188D01*
X003559Y013177D01*
X003627Y013171D01*
X003696Y013168D01*
X003765Y013169D01*
X003834Y013174D01*
X003903Y013183D01*
X003970Y013196D01*
X004037Y013213D01*
X004103Y013233D01*
X004168Y013257D01*
X004232Y013284D01*
X004293Y013315D01*
X004353Y013350D01*
X004411Y013387D01*
X004466Y013428D01*
X004520Y013472D01*
X004570Y013519D01*
X004618Y013569D01*
X004664Y013621D01*
X004706Y013676D01*
X004745Y013733D01*
X004780Y013792D01*
X004813Y013853D01*
X004842Y013915D01*
X004867Y013980D01*
X004889Y014045D01*
X004907Y014112D01*
X004921Y014179D01*
X004932Y014248D01*
X004923Y014249D01*
X004912Y014180D01*
X004898Y014112D01*
X004880Y014046D01*
X004858Y013980D01*
X004832Y013915D01*
X004803Y013853D01*
X004770Y013792D01*
X004734Y013732D01*
X004694Y013675D01*
X004652Y013621D01*
X004606Y013569D01*
X004557Y013519D01*
X004506Y013472D01*
X004452Y013429D01*
X004396Y013388D01*
X004338Y013351D01*
X004277Y013317D01*
X004215Y013287D01*
X004151Y013260D01*
X004086Y013236D01*
X004019Y013217D01*
X003952Y013201D01*
X003883Y013190D01*
X003815Y013182D01*
X003745Y013178D01*
X003676Y013177D01*
X003607Y013181D01*
X003538Y013189D01*
X003470Y013201D01*
X003402Y013216D01*
X003336Y013235D01*
X003270Y013258D01*
X003206Y013285D01*
X003144Y013315D01*
X003083Y013349D01*
X003025Y013386D01*
X002968Y013427D01*
X002914Y013470D01*
X002863Y013517D01*
X002814Y013566D01*
X002769Y013618D01*
X002726Y013673D01*
X002686Y013729D01*
X002650Y013789D01*
X002617Y013849D01*
X002587Y013912D01*
X002562Y013977D01*
X002539Y014042D01*
X002521Y014109D01*
X002507Y014177D01*
X002496Y014245D01*
X002489Y014314D01*
X002486Y014384D01*
X002487Y014453D01*
X002492Y014522D01*
X002501Y014591D01*
X002514Y014659D01*
X002530Y014726D01*
X002551Y014792D01*
X002575Y014857D01*
X002602Y014921D01*
X002634Y014983D01*
X002669Y015043D01*
X002707Y015101D01*
X002748Y015156D01*
X002792Y015210D01*
X002840Y015260D01*
X002890Y015308D01*
X002943Y015353D01*
X002998Y015395D01*
X003055Y015434D01*
X003115Y015469D01*
X003176Y015501D01*
X003240Y015529D01*
X003304Y015554D01*
X003370Y015575D01*
X003437Y015592D01*
X003505Y015606D01*
X003574Y015616D01*
X003643Y015621D01*
X003712Y015623D01*
X003782Y015621D01*
X003851Y015615D01*
X003919Y015605D01*
X003987Y015591D01*
X004054Y015573D01*
X004120Y015552D01*
X004185Y015527D01*
X004181Y015518D01*
X004117Y015543D01*
X004052Y015565D01*
X003985Y015582D01*
X003918Y015596D01*
X003850Y015606D01*
X003781Y015612D01*
X003712Y015614D01*
X003644Y015612D01*
X003575Y015607D01*
X003507Y015597D01*
X003439Y015584D01*
X003373Y015567D01*
X003307Y015546D01*
X003243Y015521D01*
X003180Y015493D01*
X003119Y015461D01*
X003060Y015426D01*
X003003Y015388D01*
X002948Y015346D01*
X002896Y015301D01*
X002846Y015254D01*
X002799Y015204D01*
X002755Y015151D01*
X002714Y015095D01*
X002676Y015038D01*
X002642Y014978D01*
X002611Y014917D01*
X002583Y014854D01*
X002559Y014790D01*
X002539Y014724D01*
X002523Y014657D01*
X002510Y014589D01*
X002501Y014521D01*
X002496Y014452D01*
X002495Y014384D01*
X002498Y014315D01*
X002505Y014246D01*
X002515Y014178D01*
X002530Y014111D01*
X002548Y014045D01*
X002570Y013980D01*
X002596Y013916D01*
X002625Y013854D01*
X002658Y013793D01*
X002694Y013734D01*
X002733Y013678D01*
X002776Y013624D01*
X002821Y013572D01*
X002869Y013523D01*
X002920Y013477D01*
X002974Y013434D01*
X003030Y013394D01*
X003088Y013357D01*
X003148Y013323D01*
X003210Y013293D01*
X003273Y013267D01*
X003338Y013244D01*
X003404Y013225D01*
X003471Y013209D01*
X003539Y013198D01*
X003608Y013190D01*
X003676Y013186D01*
X003745Y013187D01*
X003814Y013191D01*
X003882Y013198D01*
X003950Y013210D01*
X004017Y013226D01*
X004083Y013245D01*
X004148Y013268D01*
X004211Y013295D01*
X004273Y013325D01*
X004333Y013359D01*
X004391Y013396D01*
X004447Y013436D01*
X004500Y013479D01*
X004551Y013526D01*
X004599Y013575D01*
X004645Y013626D01*
X004687Y013681D01*
X004726Y013737D01*
X004762Y013796D01*
X004795Y013857D01*
X004824Y013919D01*
X004849Y013983D01*
X004871Y014048D01*
X004889Y014115D01*
X004903Y014182D01*
X004914Y014250D01*
X007741Y015180D02*
X007669Y015126D01*
X007670Y015127D02*
X007627Y015180D01*
X007582Y015231D01*
X007533Y015279D01*
X007482Y015324D01*
X007428Y015367D01*
X007372Y015406D01*
X007314Y015442D01*
X007254Y015475D01*
X007193Y015504D01*
X007129Y015529D01*
X007065Y015551D01*
X006999Y015570D01*
X006932Y015584D01*
X006865Y015595D01*
X006797Y015602D01*
X006729Y015605D01*
X006660Y015604D01*
X006592Y015599D01*
X006524Y015591D01*
X006457Y015578D01*
X006391Y015562D01*
X006326Y015542D01*
X006261Y015519D01*
X006199Y015492D01*
X006138Y015461D01*
X006079Y015427D01*
X006021Y015390D01*
X005966Y015349D01*
X005914Y015305D01*
X005864Y015259D01*
X005817Y015210D01*
X005772Y015158D01*
X005731Y015104D01*
X005692Y015047D01*
X005657Y014988D01*
X005626Y014928D01*
X005598Y014866D01*
X005573Y014802D01*
X005552Y014737D01*
X005535Y014671D01*
X005521Y014604D01*
X005512Y014536D01*
X005506Y014468D01*
X005504Y014400D01*
X005506Y014332D01*
X005512Y014264D01*
X005521Y014196D01*
X005535Y014129D01*
X005552Y014063D01*
X005573Y013998D01*
X005598Y013934D01*
X005626Y013872D01*
X005657Y013812D01*
X005692Y013753D01*
X005731Y013696D01*
X005772Y013642D01*
X005817Y013590D01*
X005864Y013541D01*
X005914Y013495D01*
X005966Y013451D01*
X006021Y013410D01*
X006079Y013373D01*
X006138Y013339D01*
X006199Y013308D01*
X006261Y013281D01*
X006326Y013258D01*
X006391Y013238D01*
X006457Y013222D01*
X006524Y013209D01*
X006592Y013201D01*
X006660Y013196D01*
X006729Y013195D01*
X006797Y013198D01*
X006865Y013205D01*
X006932Y013216D01*
X006999Y013230D01*
X007065Y013249D01*
X007129Y013271D01*
X007193Y013296D01*
X007254Y013325D01*
X007314Y013358D01*
X007372Y013394D01*
X007428Y013433D01*
X007482Y013476D01*
X007533Y013521D01*
X007582Y013569D01*
X007627Y013620D01*
X007670Y013673D01*
X007741Y013620D01*
X007742Y013619D01*
X007698Y013564D01*
X007650Y013511D01*
X007600Y013460D01*
X007547Y013413D01*
X007492Y013369D01*
X007434Y013327D01*
X007374Y013289D01*
X007313Y013254D01*
X007249Y013223D01*
X007184Y013195D01*
X007117Y013171D01*
X007049Y013150D01*
X006980Y013134D01*
X006910Y013121D01*
X006840Y013112D01*
X006769Y013106D01*
X006698Y013105D01*
X006627Y013108D01*
X006556Y013114D01*
X006486Y013124D01*
X006417Y013138D01*
X006348Y013156D01*
X006280Y013178D01*
X006214Y013203D01*
X006149Y013232D01*
X006086Y013265D01*
X006025Y013301D01*
X005966Y013340D01*
X005909Y013382D01*
X005854Y013427D01*
X005802Y013476D01*
X005753Y013527D01*
X005706Y013580D01*
X005663Y013637D01*
X005623Y013695D01*
X005586Y013756D01*
X005552Y013818D01*
X005522Y013882D01*
X005495Y013948D01*
X005472Y014015D01*
X005453Y014084D01*
X005438Y014153D01*
X005426Y014223D01*
X005418Y014294D01*
X005414Y014365D01*
X005414Y014435D01*
X005418Y014506D01*
X005426Y014577D01*
X005438Y014647D01*
X005453Y014716D01*
X005472Y014785D01*
X005495Y014852D01*
X005522Y014918D01*
X005552Y014982D01*
X005586Y015044D01*
X005623Y015105D01*
X005663Y015163D01*
X005706Y015220D01*
X005753Y015273D01*
X005802Y015324D01*
X005854Y015373D01*
X005909Y015418D01*
X005966Y015460D01*
X006025Y015499D01*
X006086Y015535D01*
X006149Y015568D01*
X006214Y015597D01*
X006280Y015622D01*
X006348Y015644D01*
X006417Y015662D01*
X006486Y015676D01*
X006556Y015686D01*
X006627Y015692D01*
X006698Y015695D01*
X006769Y015694D01*
X006840Y015688D01*
X006910Y015679D01*
X006980Y015666D01*
X007049Y015650D01*
X007117Y015629D01*
X007184Y015605D01*
X007249Y015577D01*
X007313Y015546D01*
X007374Y015511D01*
X007434Y015473D01*
X007492Y015431D01*
X007547Y015387D01*
X007600Y015340D01*
X007650Y015289D01*
X007698Y015236D01*
X007742Y015181D01*
X007735Y015176D01*
X007690Y015231D01*
X007643Y015284D01*
X007592Y015335D01*
X007539Y015382D01*
X007483Y015427D01*
X007425Y015468D01*
X007365Y015506D01*
X007303Y015541D01*
X007239Y015572D01*
X007173Y015599D01*
X007106Y015623D01*
X007037Y015643D01*
X006968Y015660D01*
X006898Y015672D01*
X006827Y015681D01*
X006756Y015685D01*
X006685Y015686D01*
X006614Y015682D01*
X006543Y015675D01*
X006472Y015664D01*
X006403Y015649D01*
X006334Y015630D01*
X006266Y015607D01*
X006200Y015581D01*
X006135Y015551D01*
X006073Y015517D01*
X006012Y015481D01*
X005953Y015440D01*
X005896Y015397D01*
X005842Y015350D01*
X005791Y015301D01*
X005743Y015248D01*
X005697Y015194D01*
X005655Y015136D01*
X005616Y015077D01*
X005580Y015015D01*
X005547Y014952D01*
X005519Y014887D01*
X005493Y014820D01*
X005472Y014752D01*
X005454Y014683D01*
X005441Y014613D01*
X005431Y014542D01*
X005425Y014471D01*
X005423Y014400D01*
X005425Y014329D01*
X005431Y014258D01*
X005441Y014187D01*
X005454Y014117D01*
X005472Y014048D01*
X005493Y013980D01*
X005519Y013913D01*
X005547Y013848D01*
X005580Y013785D01*
X005616Y013723D01*
X005655Y013664D01*
X005697Y013606D01*
X005743Y013552D01*
X005791Y013499D01*
X005842Y013450D01*
X005896Y013403D01*
X005953Y013360D01*
X006012Y013319D01*
X006073Y013283D01*
X006135Y013249D01*
X006200Y013219D01*
X006266Y013193D01*
X006334Y013170D01*
X006403Y013151D01*
X006472Y013136D01*
X006543Y013125D01*
X006614Y013118D01*
X006685Y013114D01*
X006756Y013115D01*
X006827Y013119D01*
X006898Y013128D01*
X006968Y013140D01*
X007037Y013157D01*
X007106Y013177D01*
X007173Y013201D01*
X007239Y013228D01*
X007303Y013259D01*
X007365Y013294D01*
X007425Y013332D01*
X007483Y013373D01*
X007539Y013418D01*
X007592Y013465D01*
X007643Y013516D01*
X007690Y013569D01*
X007735Y013624D01*
X007728Y013630D01*
X007683Y013575D01*
X007636Y013522D01*
X007586Y013472D01*
X007533Y013425D01*
X007478Y013381D01*
X007420Y013339D01*
X007361Y013302D01*
X007299Y013267D01*
X007235Y013236D01*
X007170Y013209D01*
X007103Y013185D01*
X007035Y013165D01*
X006966Y013149D01*
X006897Y013137D01*
X006826Y013128D01*
X006756Y013124D01*
X006685Y013123D01*
X006614Y013127D01*
X006544Y013134D01*
X006474Y013145D01*
X006405Y013160D01*
X006337Y013179D01*
X006269Y013201D01*
X006204Y013227D01*
X006139Y013257D01*
X006077Y013290D01*
X006017Y013327D01*
X005958Y013367D01*
X005902Y013410D01*
X005848Y013456D01*
X005798Y013506D01*
X005749Y013557D01*
X005704Y013612D01*
X005662Y013669D01*
X005623Y013728D01*
X005588Y013789D01*
X005555Y013852D01*
X005527Y013917D01*
X005502Y013983D01*
X005481Y014051D01*
X005463Y014119D01*
X005450Y014189D01*
X005440Y014259D01*
X005434Y014329D01*
X005432Y014400D01*
X005434Y014471D01*
X005440Y014541D01*
X005450Y014611D01*
X005463Y014681D01*
X005481Y014749D01*
X005502Y014817D01*
X005527Y014883D01*
X005555Y014948D01*
X005588Y015011D01*
X005623Y015072D01*
X005662Y015131D01*
X005704Y015188D01*
X005749Y015243D01*
X005798Y015294D01*
X005848Y015344D01*
X005902Y015390D01*
X005958Y015433D01*
X006017Y015473D01*
X006077Y015510D01*
X006139Y015543D01*
X006204Y015573D01*
X006269Y015599D01*
X006337Y015621D01*
X006405Y015640D01*
X006474Y015655D01*
X006544Y015666D01*
X006614Y015673D01*
X006685Y015677D01*
X006756Y015676D01*
X006826Y015672D01*
X006897Y015663D01*
X006966Y015651D01*
X007035Y015635D01*
X007103Y015615D01*
X007170Y015591D01*
X007235Y015564D01*
X007299Y015533D01*
X007361Y015498D01*
X007420Y015461D01*
X007478Y015419D01*
X007533Y015375D01*
X007586Y015328D01*
X007636Y015278D01*
X007683Y015225D01*
X007728Y015170D01*
X007720Y015165D01*
X007676Y015220D01*
X007628Y015273D01*
X007578Y015323D01*
X007525Y015371D01*
X007469Y015415D01*
X007411Y015456D01*
X007351Y015493D01*
X007289Y015528D01*
X007225Y015558D01*
X007159Y015585D01*
X007092Y015609D01*
X007024Y015628D01*
X006954Y015644D01*
X006884Y015656D01*
X006814Y015664D01*
X006743Y015668D01*
X006672Y015667D01*
X006601Y015663D01*
X006530Y015655D01*
X006460Y015643D01*
X006391Y015627D01*
X006323Y015608D01*
X006255Y015584D01*
X006190Y015557D01*
X006126Y015526D01*
X006064Y015492D01*
X006004Y015454D01*
X005946Y015412D01*
X005890Y015368D01*
X005837Y015321D01*
X005787Y015270D01*
X005740Y015217D01*
X005695Y015162D01*
X005654Y015104D01*
X005617Y015044D01*
X005582Y014981D01*
X005551Y014917D01*
X005524Y014852D01*
X005501Y014785D01*
X005481Y014716D01*
X005465Y014647D01*
X005453Y014577D01*
X005445Y014506D01*
X005441Y014436D01*
X005441Y014364D01*
X005445Y014294D01*
X005453Y014223D01*
X005465Y014153D01*
X005481Y014084D01*
X005501Y014015D01*
X005524Y013948D01*
X005551Y013883D01*
X005582Y013819D01*
X005617Y013756D01*
X005654Y013696D01*
X005695Y013638D01*
X005740Y013583D01*
X005787Y013530D01*
X005837Y013479D01*
X005890Y013432D01*
X005946Y013388D01*
X006004Y013346D01*
X006064Y013308D01*
X006126Y013274D01*
X006190Y013243D01*
X006255Y013216D01*
X006323Y013192D01*
X006391Y013173D01*
X006460Y013157D01*
X006530Y013145D01*
X006601Y013137D01*
X006672Y013133D01*
X006743Y013132D01*
X006814Y013136D01*
X006884Y013144D01*
X006954Y013156D01*
X007024Y013172D01*
X007092Y013191D01*
X007159Y013215D01*
X007225Y013242D01*
X007289Y013272D01*
X007351Y013307D01*
X007411Y013344D01*
X007469Y013385D01*
X007525Y013429D01*
X007578Y013477D01*
X007628Y013527D01*
X007676Y013580D01*
X007720Y013635D01*
X007713Y013641D01*
X007669Y013586D01*
X007622Y013533D01*
X007572Y013483D01*
X007519Y013436D01*
X007464Y013392D01*
X007406Y013352D01*
X007347Y013314D01*
X007285Y013280D01*
X007221Y013250D01*
X007156Y013223D01*
X007089Y013200D01*
X007021Y013180D01*
X006953Y013165D01*
X006883Y013153D01*
X006813Y013145D01*
X006742Y013141D01*
X006672Y013142D01*
X006601Y013146D01*
X006531Y013154D01*
X006462Y013166D01*
X006393Y013181D01*
X006325Y013201D01*
X006259Y013224D01*
X006194Y013251D01*
X006130Y013282D01*
X006068Y013316D01*
X006009Y013354D01*
X005951Y013395D01*
X005896Y013439D01*
X005843Y013486D01*
X005794Y013536D01*
X005747Y013588D01*
X005703Y013644D01*
X005662Y013701D01*
X005624Y013761D01*
X005590Y013823D01*
X005560Y013886D01*
X005533Y013951D01*
X005509Y014018D01*
X005490Y014086D01*
X005474Y014155D01*
X005462Y014224D01*
X005454Y014294D01*
X005450Y014365D01*
X005450Y014435D01*
X005454Y014506D01*
X005462Y014576D01*
X005474Y014645D01*
X005490Y014714D01*
X005509Y014782D01*
X005533Y014849D01*
X005560Y014914D01*
X005590Y014977D01*
X005624Y015039D01*
X005662Y015099D01*
X005703Y015156D01*
X005747Y015212D01*
X005794Y015264D01*
X005843Y015314D01*
X005896Y015361D01*
X005951Y015405D01*
X006009Y015446D01*
X006068Y015484D01*
X006130Y015518D01*
X006194Y015549D01*
X006259Y015576D01*
X006325Y015599D01*
X006393Y015619D01*
X006462Y015634D01*
X006531Y015646D01*
X006601Y015654D01*
X006672Y015658D01*
X006742Y015659D01*
X006813Y015655D01*
X006883Y015647D01*
X006953Y015635D01*
X007021Y015620D01*
X007089Y015600D01*
X007156Y015577D01*
X007221Y015550D01*
X007285Y015520D01*
X007347Y015486D01*
X007406Y015448D01*
X007464Y015408D01*
X007519Y015364D01*
X007572Y015317D01*
X007622Y015267D01*
X007669Y015214D01*
X007713Y015159D01*
X007706Y015154D01*
X007662Y015209D01*
X007615Y015261D01*
X007566Y015310D01*
X007513Y015357D01*
X007459Y015400D01*
X007401Y015441D01*
X007342Y015478D01*
X007281Y015512D01*
X007217Y015542D01*
X007153Y015569D01*
X007086Y015592D01*
X007019Y015611D01*
X006951Y015626D01*
X006882Y015638D01*
X006812Y015646D01*
X006742Y015650D01*
X006672Y015649D01*
X006602Y015645D01*
X006533Y015637D01*
X006464Y015626D01*
X006395Y015610D01*
X006328Y015591D01*
X006262Y015567D01*
X006197Y015540D01*
X006134Y015510D01*
X006073Y015476D01*
X006014Y015439D01*
X005956Y015398D01*
X005902Y015354D01*
X005850Y015308D01*
X005800Y015258D01*
X005753Y015206D01*
X005710Y015151D01*
X005669Y015094D01*
X005632Y015035D01*
X005598Y014973D01*
X005568Y014910D01*
X005541Y014845D01*
X005518Y014779D01*
X005499Y014712D01*
X005483Y014644D01*
X005471Y014575D01*
X005463Y014505D01*
X005459Y014435D01*
X005459Y014365D01*
X005463Y014295D01*
X005471Y014225D01*
X005483Y014156D01*
X005499Y014088D01*
X005518Y014021D01*
X005541Y013955D01*
X005568Y013890D01*
X005598Y013827D01*
X005632Y013765D01*
X005669Y013706D01*
X005710Y013649D01*
X005753Y013594D01*
X005800Y013542D01*
X005850Y013492D01*
X005902Y013446D01*
X005956Y013402D01*
X006014Y013361D01*
X006073Y013324D01*
X006134Y013290D01*
X006197Y013260D01*
X006262Y013233D01*
X006328Y013209D01*
X006395Y013190D01*
X006464Y013174D01*
X006533Y013163D01*
X006602Y013155D01*
X006672Y013151D01*
X006742Y013150D01*
X006812Y013154D01*
X006882Y013162D01*
X006951Y013174D01*
X007019Y013189D01*
X007086Y013208D01*
X007153Y013231D01*
X007217Y013258D01*
X007281Y013288D01*
X007342Y013322D01*
X007401Y013359D01*
X007459Y013400D01*
X007513Y013443D01*
X007566Y013490D01*
X007615Y013539D01*
X007662Y013591D01*
X007706Y013646D01*
X007699Y013651D01*
X007655Y013597D01*
X007609Y013545D01*
X007560Y013496D01*
X007508Y013450D01*
X007453Y013407D01*
X007396Y013367D01*
X007337Y013330D01*
X007276Y013296D01*
X007214Y013266D01*
X007149Y013240D01*
X007084Y013217D01*
X007017Y013198D01*
X006949Y013182D01*
X006880Y013171D01*
X006811Y013163D01*
X006742Y013159D01*
X006672Y013160D01*
X006603Y013164D01*
X006534Y013171D01*
X006465Y013183D01*
X006398Y013199D01*
X006331Y013218D01*
X006265Y013241D01*
X006201Y013268D01*
X006138Y013298D01*
X006077Y013332D01*
X006019Y013369D01*
X005962Y013409D01*
X005908Y013452D01*
X005856Y013499D01*
X005807Y013548D01*
X005760Y013600D01*
X005717Y013654D01*
X005677Y013711D01*
X005640Y013770D01*
X005606Y013831D01*
X005576Y013894D01*
X005549Y013958D01*
X005526Y014023D01*
X005507Y014090D01*
X005492Y014158D01*
X005480Y014227D01*
X005472Y014296D01*
X005468Y014365D01*
X005468Y014435D01*
X005472Y014504D01*
X005480Y014573D01*
X005492Y014642D01*
X005507Y014710D01*
X005526Y014777D01*
X005549Y014842D01*
X005576Y014906D01*
X005606Y014969D01*
X005640Y015030D01*
X005677Y015089D01*
X005717Y015146D01*
X005760Y015200D01*
X005807Y015252D01*
X005856Y015301D01*
X005908Y015348D01*
X005962Y015391D01*
X006019Y015431D01*
X006077Y015468D01*
X006138Y015502D01*
X006201Y015532D01*
X006265Y015559D01*
X006331Y015582D01*
X006398Y015601D01*
X006465Y015617D01*
X006534Y015629D01*
X006603Y015636D01*
X006672Y015640D01*
X006742Y015641D01*
X006811Y015637D01*
X006880Y015629D01*
X006949Y015618D01*
X007017Y015602D01*
X007084Y015583D01*
X007149Y015560D01*
X007214Y015534D01*
X007276Y015504D01*
X007337Y015470D01*
X007396Y015433D01*
X007453Y015393D01*
X007508Y015350D01*
X007560Y015304D01*
X007609Y015255D01*
X007655Y015203D01*
X007699Y015149D01*
X007692Y015143D01*
X007648Y015197D01*
X007602Y015248D01*
X007553Y015297D01*
X007502Y015343D01*
X007448Y015386D01*
X007391Y015426D01*
X007333Y015462D01*
X007272Y015496D01*
X007210Y015526D01*
X007146Y015552D01*
X007081Y015574D01*
X007015Y015593D01*
X006947Y015609D01*
X006879Y015620D01*
X006811Y015628D01*
X006742Y015632D01*
X006673Y015631D01*
X006604Y015627D01*
X006535Y015620D01*
X006467Y015608D01*
X006400Y015593D01*
X006333Y015573D01*
X006268Y015550D01*
X006205Y015524D01*
X006142Y015494D01*
X006082Y015461D01*
X006024Y015424D01*
X005967Y015384D01*
X005913Y015341D01*
X005862Y015295D01*
X005813Y015246D01*
X005767Y015194D01*
X005724Y015140D01*
X005684Y015084D01*
X005648Y015025D01*
X005614Y014965D01*
X005584Y014903D01*
X005558Y014839D01*
X005535Y014774D01*
X005516Y014707D01*
X005501Y014640D01*
X005489Y014572D01*
X005481Y014503D01*
X005477Y014435D01*
X005477Y014365D01*
X005481Y014297D01*
X005489Y014228D01*
X005501Y014160D01*
X005516Y014093D01*
X005535Y014026D01*
X005558Y013961D01*
X005584Y013897D01*
X005614Y013835D01*
X005648Y013775D01*
X005684Y013716D01*
X005724Y013660D01*
X005767Y013606D01*
X005813Y013554D01*
X005862Y013505D01*
X005913Y013459D01*
X005967Y013416D01*
X006024Y013376D01*
X006082Y013339D01*
X006142Y013306D01*
X006205Y013276D01*
X006268Y013250D01*
X006333Y013227D01*
X006400Y013207D01*
X006467Y013192D01*
X006535Y013180D01*
X006604Y013173D01*
X006673Y013169D01*
X006742Y013168D01*
X006811Y013172D01*
X006879Y013180D01*
X006947Y013191D01*
X007015Y013207D01*
X007081Y013226D01*
X007146Y013248D01*
X007210Y013274D01*
X007272Y013304D01*
X007333Y013338D01*
X007391Y013374D01*
X007448Y013414D01*
X007502Y013457D01*
X007553Y013503D01*
X007602Y013552D01*
X007648Y013603D01*
X007692Y013657D01*
X007684Y013662D01*
X007641Y013608D01*
X007595Y013557D01*
X007545Y013508D01*
X007494Y013462D01*
X007439Y013419D01*
X007382Y013379D01*
X007324Y013343D01*
X007263Y013309D01*
X007200Y013280D01*
X007136Y013254D01*
X007070Y013232D01*
X007003Y013213D01*
X006936Y013198D01*
X006867Y013187D01*
X006798Y013180D01*
X006729Y013177D01*
X006660Y013178D01*
X006590Y013183D01*
X006522Y013191D01*
X006454Y013204D01*
X006386Y013220D01*
X006320Y013241D01*
X006255Y013264D01*
X006191Y013292D01*
X006129Y013323D01*
X006069Y013358D01*
X006011Y013396D01*
X005955Y013437D01*
X005902Y013481D01*
X005851Y013528D01*
X005803Y013578D01*
X005758Y013631D01*
X005716Y013686D01*
X005677Y013743D01*
X005642Y013803D01*
X005610Y013864D01*
X005581Y013927D01*
X005556Y013992D01*
X005535Y014058D01*
X005517Y014125D01*
X005504Y014193D01*
X005494Y014262D01*
X005488Y014331D01*
X005486Y014400D01*
X005488Y014469D01*
X005494Y014538D01*
X005504Y014607D01*
X005517Y014675D01*
X005535Y014742D01*
X005556Y014808D01*
X005581Y014873D01*
X005610Y014936D01*
X005642Y014997D01*
X005677Y015057D01*
X005716Y015114D01*
X005758Y015169D01*
X005803Y015222D01*
X005851Y015272D01*
X005902Y015319D01*
X005955Y015363D01*
X006011Y015404D01*
X006069Y015442D01*
X006129Y015477D01*
X006191Y015508D01*
X006255Y015536D01*
X006320Y015559D01*
X006386Y015580D01*
X006454Y015596D01*
X006522Y015609D01*
X006590Y015617D01*
X006660Y015622D01*
X006729Y015623D01*
X006798Y015620D01*
X006867Y015613D01*
X006936Y015602D01*
X007003Y015587D01*
X007070Y015568D01*
X007136Y015546D01*
X007200Y015520D01*
X007263Y015491D01*
X007324Y015457D01*
X007382Y015421D01*
X007439Y015381D01*
X007494Y015338D01*
X007545Y015292D01*
X007595Y015243D01*
X007641Y015192D01*
X007684Y015138D01*
X007677Y015132D01*
X007634Y015186D01*
X007588Y015237D01*
X007539Y015286D01*
X007488Y015331D01*
X007434Y015374D01*
X007377Y015413D01*
X007319Y015450D01*
X007259Y015483D01*
X007196Y015512D01*
X007133Y015538D01*
X007067Y015560D01*
X007001Y015578D01*
X006934Y015593D01*
X006866Y015604D01*
X006797Y015611D01*
X006729Y015614D01*
X006660Y015613D01*
X006591Y015608D01*
X006523Y015600D01*
X006455Y015587D01*
X006389Y015571D01*
X006323Y015551D01*
X006258Y015527D01*
X006195Y015500D01*
X006134Y015469D01*
X006074Y015435D01*
X006016Y015397D01*
X005961Y015356D01*
X005908Y015312D01*
X005858Y015265D01*
X005810Y015216D01*
X005765Y015164D01*
X005723Y015109D01*
X005685Y015052D01*
X005650Y014993D01*
X005618Y014932D01*
X005589Y014869D01*
X005565Y014805D01*
X005543Y014739D01*
X005526Y014673D01*
X005513Y014605D01*
X005503Y014537D01*
X005497Y014469D01*
X005495Y014400D01*
X005497Y014331D01*
X005503Y014263D01*
X005513Y014195D01*
X005526Y014127D01*
X005543Y014061D01*
X005565Y013995D01*
X005589Y013931D01*
X005618Y013868D01*
X005650Y013807D01*
X005685Y013748D01*
X005723Y013691D01*
X005765Y013636D01*
X005810Y013584D01*
X005858Y013535D01*
X005908Y013488D01*
X005961Y013444D01*
X006016Y013403D01*
X006074Y013365D01*
X006134Y013331D01*
X006195Y013300D01*
X006258Y013273D01*
X006323Y013249D01*
X006389Y013229D01*
X006455Y013213D01*
X006523Y013200D01*
X006591Y013192D01*
X006660Y013187D01*
X006729Y013186D01*
X006797Y013189D01*
X006866Y013196D01*
X006934Y013207D01*
X007001Y013222D01*
X007067Y013240D01*
X007133Y013262D01*
X007196Y013288D01*
X007259Y013317D01*
X007319Y013350D01*
X007377Y013387D01*
X007434Y013426D01*
X007488Y013469D01*
X007539Y013514D01*
X007588Y013563D01*
X007634Y013614D01*
X007677Y013668D01*
X010994Y014559D02*
X010904Y014549D01*
X010905Y014549D02*
X010894Y014617D01*
X010880Y014683D01*
X010862Y014749D01*
X010841Y014814D01*
X010815Y014878D01*
X010787Y014939D01*
X010754Y015000D01*
X010719Y015058D01*
X010680Y015114D01*
X010638Y015168D01*
X010593Y015219D01*
X010545Y015268D01*
X010494Y015314D01*
X010441Y015357D01*
X010386Y015397D01*
X010328Y015434D01*
X010269Y015467D01*
X010207Y015497D01*
X010145Y015524D01*
X010080Y015546D01*
X010015Y015566D01*
X009948Y015581D01*
X009881Y015593D01*
X009813Y015601D01*
X009745Y015604D01*
X009677Y015605D01*
X009608Y015601D01*
X009540Y015593D01*
X009473Y015582D01*
X009407Y015566D01*
X009341Y015547D01*
X009277Y015525D01*
X009214Y015498D01*
X009152Y015469D01*
X009092Y015435D01*
X009035Y015399D01*
X008979Y015359D01*
X008926Y015316D01*
X008876Y015270D01*
X008828Y015222D01*
X008782Y015170D01*
X008740Y015117D01*
X008701Y015061D01*
X008665Y015002D01*
X008633Y014942D01*
X008604Y014881D01*
X008579Y014817D01*
X008557Y014753D01*
X008539Y014687D01*
X008524Y014620D01*
X008514Y014552D01*
X008507Y014484D01*
X008504Y014416D01*
X008505Y014348D01*
X008510Y014280D01*
X008519Y014212D01*
X008531Y014145D01*
X008548Y014079D01*
X008568Y014013D01*
X008591Y013949D01*
X008619Y013887D01*
X008650Y013826D01*
X008684Y013767D01*
X008721Y013710D01*
X008762Y013655D01*
X008806Y013602D01*
X008852Y013553D01*
X008902Y013505D01*
X008954Y013461D01*
X009008Y013420D01*
X009065Y013382D01*
X009124Y013347D01*
X009184Y013315D01*
X009246Y013287D01*
X009310Y013263D01*
X009375Y013242D01*
X009441Y013225D01*
X009508Y013212D01*
X009576Y013202D01*
X009644Y013197D01*
X009712Y013195D01*
X009781Y013197D01*
X009849Y013203D01*
X009916Y013213D01*
X009983Y013227D01*
X010049Y013244D01*
X010114Y013265D01*
X010178Y013290D01*
X010213Y013208D01*
X010213Y013207D01*
X010147Y013181D01*
X010080Y013159D01*
X010011Y013141D01*
X009942Y013126D01*
X009871Y013115D01*
X009801Y013108D01*
X009730Y013105D01*
X009659Y013106D01*
X009588Y013111D01*
X009518Y013119D01*
X009448Y013132D01*
X009379Y013148D01*
X009310Y013168D01*
X009244Y013192D01*
X009178Y013219D01*
X009114Y013250D01*
X009052Y013284D01*
X008992Y013322D01*
X008934Y013363D01*
X008878Y013407D01*
X008825Y013454D01*
X008774Y013504D01*
X008727Y013556D01*
X008682Y013611D01*
X008640Y013669D01*
X008602Y013728D01*
X008567Y013790D01*
X008535Y013853D01*
X008507Y013919D01*
X008482Y013985D01*
X008461Y014053D01*
X008444Y014122D01*
X008431Y014192D01*
X008421Y014262D01*
X008416Y014333D01*
X008414Y014404D01*
X008416Y014475D01*
X008422Y014545D01*
X008432Y014616D01*
X008446Y014685D01*
X008463Y014754D01*
X008485Y014822D01*
X008510Y014888D01*
X008538Y014953D01*
X008570Y015017D01*
X008606Y015078D01*
X008644Y015137D01*
X008686Y015195D01*
X008732Y015249D01*
X008780Y015302D01*
X008830Y015351D01*
X008884Y015398D01*
X008940Y015442D01*
X008998Y015482D01*
X009058Y015520D01*
X009121Y015554D01*
X009185Y015584D01*
X009250Y015611D01*
X009317Y015634D01*
X009386Y015654D01*
X009455Y015670D01*
X009525Y015682D01*
X009595Y015690D01*
X009666Y015694D01*
X009737Y015695D01*
X009808Y015691D01*
X009879Y015684D01*
X009949Y015673D01*
X010018Y015658D01*
X010087Y015639D01*
X010154Y015616D01*
X010220Y015590D01*
X010284Y015560D01*
X010347Y015527D01*
X010408Y015490D01*
X010466Y015450D01*
X010523Y015407D01*
X010577Y015361D01*
X010628Y015312D01*
X010677Y015260D01*
X010722Y015206D01*
X010765Y015149D01*
X010805Y015090D01*
X010841Y015029D01*
X010874Y014966D01*
X010903Y014902D01*
X010929Y014836D01*
X010951Y014768D01*
X010969Y014700D01*
X010983Y014630D01*
X010994Y014560D01*
X010985Y014559D01*
X010974Y014629D01*
X010960Y014699D01*
X010941Y014768D01*
X010919Y014836D01*
X010893Y014902D01*
X010863Y014967D01*
X010830Y015030D01*
X010794Y015091D01*
X010754Y015150D01*
X010711Y015207D01*
X010664Y015261D01*
X010615Y015313D01*
X010563Y015361D01*
X010509Y015407D01*
X010452Y015450D01*
X010392Y015489D01*
X010331Y015526D01*
X010268Y015558D01*
X010203Y015588D01*
X010136Y015613D01*
X010068Y015635D01*
X009999Y015653D01*
X009929Y015667D01*
X009859Y015677D01*
X009788Y015684D01*
X009717Y015686D01*
X009645Y015684D01*
X009574Y015679D01*
X009504Y015669D01*
X009434Y015656D01*
X009364Y015639D01*
X009296Y015618D01*
X009230Y015593D01*
X009164Y015565D01*
X009100Y015533D01*
X009039Y015497D01*
X008979Y015459D01*
X008921Y015417D01*
X008866Y015371D01*
X008814Y015323D01*
X008764Y015272D01*
X008717Y015218D01*
X008673Y015162D01*
X008633Y015104D01*
X008595Y015043D01*
X008561Y014980D01*
X008531Y014916D01*
X008504Y014850D01*
X008481Y014782D01*
X008462Y014714D01*
X008446Y014644D01*
X008435Y014574D01*
X008427Y014503D01*
X008423Y014432D01*
X008424Y014361D01*
X008428Y014289D01*
X008436Y014219D01*
X008448Y014148D01*
X008464Y014079D01*
X008483Y014010D01*
X008507Y013943D01*
X008534Y013877D01*
X008565Y013813D01*
X008599Y013750D01*
X008637Y013690D01*
X008678Y013632D01*
X008722Y013576D01*
X008769Y013522D01*
X008819Y013472D01*
X008872Y013424D01*
X008927Y013379D01*
X008985Y013337D01*
X009045Y013299D01*
X009107Y013264D01*
X009171Y013232D01*
X009237Y013204D01*
X009304Y013180D01*
X009372Y013159D01*
X009441Y013142D01*
X009511Y013129D01*
X009582Y013120D01*
X009653Y013115D01*
X009724Y013114D01*
X009795Y013117D01*
X009866Y013124D01*
X009937Y013134D01*
X010007Y013149D01*
X010075Y013167D01*
X010143Y013190D01*
X010210Y013215D01*
X010206Y013224D01*
X010140Y013198D01*
X010073Y013176D01*
X010004Y013158D01*
X009935Y013143D01*
X009865Y013133D01*
X009795Y013126D01*
X009724Y013123D01*
X009653Y013124D01*
X009583Y013129D01*
X009513Y013138D01*
X009443Y013151D01*
X009374Y013168D01*
X009306Y013188D01*
X009240Y013212D01*
X009175Y013240D01*
X009111Y013271D01*
X009050Y013306D01*
X008990Y013345D01*
X008933Y013386D01*
X008878Y013431D01*
X008825Y013478D01*
X008776Y013528D01*
X008729Y013581D01*
X008685Y013637D01*
X008644Y013695D01*
X008607Y013755D01*
X008573Y013817D01*
X008542Y013881D01*
X008515Y013946D01*
X008492Y014013D01*
X008472Y014081D01*
X008457Y014150D01*
X008445Y014220D01*
X008437Y014290D01*
X008433Y014361D01*
X008432Y014432D01*
X008436Y014502D01*
X008444Y014573D01*
X008455Y014642D01*
X008471Y014712D01*
X008490Y014780D01*
X008513Y014847D01*
X008539Y014912D01*
X008569Y014976D01*
X008603Y015038D01*
X008640Y015099D01*
X008681Y015157D01*
X008724Y015213D01*
X008771Y015266D01*
X008820Y015317D01*
X008872Y015365D01*
X008927Y015409D01*
X008984Y015451D01*
X009043Y015490D01*
X009105Y015525D01*
X009168Y015557D01*
X009233Y015585D01*
X009299Y015609D01*
X009367Y015630D01*
X009436Y015647D01*
X009505Y015661D01*
X009575Y015670D01*
X009646Y015675D01*
X009717Y015677D01*
X009787Y015675D01*
X009858Y015668D01*
X009928Y015658D01*
X009997Y015644D01*
X010066Y015626D01*
X010133Y015605D01*
X010199Y015579D01*
X010264Y015550D01*
X010327Y015518D01*
X010387Y015482D01*
X010446Y015443D01*
X010503Y015400D01*
X010557Y015355D01*
X010609Y015306D01*
X010658Y015255D01*
X010704Y015201D01*
X010746Y015145D01*
X010786Y015086D01*
X010822Y015025D01*
X010855Y014963D01*
X010885Y014898D01*
X010911Y014833D01*
X010933Y014765D01*
X010951Y014697D01*
X010966Y014628D01*
X010976Y014558D01*
X010967Y014557D01*
X010957Y014627D01*
X010942Y014696D01*
X010923Y014765D01*
X010901Y014832D01*
X010875Y014899D01*
X010845Y014963D01*
X010812Y015026D01*
X010775Y015087D01*
X010735Y015145D01*
X010692Y015202D01*
X010645Y015255D01*
X010596Y015306D01*
X010543Y015355D01*
X010489Y015400D01*
X010431Y015442D01*
X010372Y015481D01*
X010310Y015516D01*
X010247Y015548D01*
X010182Y015577D01*
X010115Y015601D01*
X010047Y015622D01*
X009978Y015639D01*
X009908Y015652D01*
X009838Y015661D01*
X009767Y015667D01*
X009696Y015668D01*
X009625Y015665D01*
X009554Y015659D01*
X009484Y015648D01*
X009414Y015633D01*
X009346Y015615D01*
X009278Y015593D01*
X009212Y015567D01*
X009148Y015537D01*
X009085Y015504D01*
X009024Y015467D01*
X008965Y015427D01*
X008909Y015384D01*
X008855Y015337D01*
X008804Y015288D01*
X008756Y015236D01*
X008710Y015181D01*
X008668Y015124D01*
X008629Y015065D01*
X008594Y015003D01*
X008562Y014940D01*
X008533Y014874D01*
X008508Y014808D01*
X008487Y014740D01*
X008470Y014671D01*
X008457Y014601D01*
X008448Y014531D01*
X008442Y014460D01*
X008441Y014389D01*
X008444Y014318D01*
X008450Y014247D01*
X008461Y014177D01*
X008475Y014107D01*
X008494Y014039D01*
X008516Y013971D01*
X008542Y013905D01*
X008571Y013840D01*
X008604Y013777D01*
X008641Y013716D01*
X008681Y013658D01*
X008724Y013601D01*
X008770Y013547D01*
X008820Y013496D01*
X008872Y013448D01*
X008926Y013402D01*
X008984Y013360D01*
X009043Y013321D01*
X009104Y013285D01*
X009168Y013253D01*
X009233Y013225D01*
X009299Y013200D01*
X009367Y013179D01*
X009436Y013162D01*
X009506Y013148D01*
X009577Y013139D01*
X009647Y013133D01*
X009718Y013132D01*
X009789Y013135D01*
X009860Y013141D01*
X009930Y013151D01*
X010000Y013166D01*
X010069Y013184D01*
X010136Y013206D01*
X010202Y013232D01*
X010199Y013240D01*
X010133Y013215D01*
X010066Y013193D01*
X009998Y013175D01*
X009929Y013160D01*
X009859Y013150D01*
X009789Y013144D01*
X009718Y013141D01*
X009648Y013142D01*
X009577Y013148D01*
X009507Y013157D01*
X009438Y013170D01*
X009370Y013188D01*
X009302Y013208D01*
X009236Y013233D01*
X009172Y013261D01*
X009109Y013293D01*
X009048Y013329D01*
X008989Y013367D01*
X008932Y013409D01*
X008878Y013454D01*
X008826Y013503D01*
X008777Y013553D01*
X008731Y013607D01*
X008688Y013663D01*
X008649Y013721D01*
X008612Y013782D01*
X008579Y013844D01*
X008550Y013908D01*
X008524Y013974D01*
X008502Y014041D01*
X008484Y014109D01*
X008470Y014178D01*
X008459Y014248D01*
X008453Y014318D01*
X008450Y014389D01*
X008451Y014459D01*
X008457Y014530D01*
X008466Y014600D01*
X008479Y014669D01*
X008496Y014737D01*
X008517Y014805D01*
X008541Y014871D01*
X008570Y014936D01*
X008601Y014999D01*
X008637Y015060D01*
X008675Y015119D01*
X008717Y015176D01*
X008762Y015230D01*
X008810Y015282D01*
X008861Y015331D01*
X008915Y015377D01*
X008970Y015420D01*
X009029Y015459D01*
X009089Y015496D01*
X009152Y015529D01*
X009216Y015558D01*
X009281Y015584D01*
X009348Y015606D01*
X009416Y015625D01*
X009486Y015639D01*
X009555Y015650D01*
X009626Y015656D01*
X009696Y015659D01*
X009767Y015658D01*
X009837Y015652D01*
X009907Y015643D01*
X009976Y015630D01*
X010045Y015613D01*
X010112Y015593D01*
X010178Y015568D01*
X010243Y015540D01*
X010306Y015508D01*
X010367Y015473D01*
X010426Y015435D01*
X010483Y015393D01*
X010538Y015348D01*
X010589Y015300D01*
X010638Y015249D01*
X010685Y015196D01*
X010728Y015140D01*
X010767Y015082D01*
X010804Y015021D01*
X010837Y014959D01*
X010867Y014895D01*
X010893Y014829D01*
X010915Y014762D01*
X010933Y014694D01*
X010948Y014625D01*
X010958Y014556D01*
X010949Y014554D01*
X010939Y014624D01*
X010924Y014692D01*
X010906Y014760D01*
X010884Y014826D01*
X010858Y014892D01*
X010829Y014955D01*
X010796Y015017D01*
X010760Y015077D01*
X010720Y015135D01*
X010678Y015190D01*
X010632Y015243D01*
X010583Y015294D01*
X010532Y015341D01*
X010478Y015386D01*
X010421Y015427D01*
X010363Y015466D01*
X010302Y015500D01*
X010239Y015532D01*
X010175Y015560D01*
X010109Y015584D01*
X010042Y015605D01*
X009974Y015622D01*
X009905Y015634D01*
X009836Y015644D01*
X009766Y015649D01*
X009696Y015650D01*
X009626Y015647D01*
X009556Y015641D01*
X009487Y015630D01*
X009419Y015616D01*
X009351Y015598D01*
X009284Y015576D01*
X009219Y015550D01*
X009156Y015521D01*
X009094Y015488D01*
X009034Y015452D01*
X008976Y015412D01*
X008920Y015370D01*
X008867Y015324D01*
X008817Y015275D01*
X008769Y015224D01*
X008724Y015170D01*
X008683Y015114D01*
X008644Y015055D01*
X008609Y014994D01*
X008578Y014932D01*
X008550Y014868D01*
X008525Y014802D01*
X008505Y014735D01*
X008488Y014667D01*
X008475Y014598D01*
X008466Y014529D01*
X008460Y014459D01*
X008459Y014389D01*
X008462Y014319D01*
X008468Y014249D01*
X008479Y014180D01*
X008493Y014111D01*
X008511Y014044D01*
X008533Y013977D01*
X008558Y013912D01*
X008587Y013848D01*
X008620Y013786D01*
X008656Y013726D01*
X008696Y013668D01*
X008738Y013613D01*
X008784Y013559D01*
X008832Y013509D01*
X008884Y013461D01*
X008937Y013417D01*
X008994Y013375D01*
X009052Y013336D01*
X009113Y013301D01*
X009175Y013270D01*
X009240Y013241D01*
X009305Y013217D01*
X009372Y013196D01*
X009440Y013179D01*
X009509Y013166D01*
X009578Y013157D01*
X009648Y013151D01*
X009718Y013150D01*
X009788Y013153D01*
X009858Y013159D01*
X009927Y013169D01*
X009996Y013183D01*
X010064Y013201D01*
X010130Y013223D01*
X010195Y013249D01*
X010192Y013257D01*
X010127Y013232D01*
X010061Y013210D01*
X009994Y013192D01*
X009926Y013178D01*
X009857Y013168D01*
X009788Y013161D01*
X009718Y013159D01*
X009649Y013160D01*
X009579Y013166D01*
X009510Y013175D01*
X009442Y013188D01*
X009375Y013205D01*
X009308Y013226D01*
X009243Y013250D01*
X009179Y013278D01*
X009117Y013309D01*
X009057Y013344D01*
X008999Y013382D01*
X008943Y013424D01*
X008890Y013468D01*
X008839Y013515D01*
X008790Y013566D01*
X008745Y013618D01*
X008703Y013674D01*
X008664Y013731D01*
X008628Y013791D01*
X008595Y013852D01*
X008567Y013915D01*
X008541Y013980D01*
X008519Y014046D01*
X008502Y014113D01*
X008487Y014182D01*
X008477Y014250D01*
X008471Y014320D01*
X008468Y014389D01*
X008469Y014459D01*
X008475Y014528D01*
X008484Y014597D01*
X008497Y014665D01*
X008513Y014733D01*
X008534Y014799D01*
X008558Y014864D01*
X008586Y014928D01*
X008617Y014990D01*
X008652Y015050D01*
X008690Y015109D01*
X008731Y015165D01*
X008776Y015218D01*
X008823Y015269D01*
X008873Y015317D01*
X008926Y015363D01*
X008981Y015405D01*
X009038Y015444D01*
X009098Y015480D01*
X009159Y015513D01*
X009223Y015542D01*
X009287Y015567D01*
X009353Y015589D01*
X009421Y015607D01*
X009489Y015621D01*
X009557Y015632D01*
X009627Y015638D01*
X009696Y015641D01*
X009766Y015640D01*
X009835Y015635D01*
X009904Y015626D01*
X009972Y015613D01*
X010040Y015596D01*
X010106Y015576D01*
X010172Y015552D01*
X010235Y015524D01*
X010298Y015493D01*
X010358Y015458D01*
X010416Y015420D01*
X010472Y015379D01*
X010526Y015334D01*
X010577Y015287D01*
X010625Y015237D01*
X010671Y015185D01*
X010713Y015129D01*
X010752Y015072D01*
X010788Y015013D01*
X010821Y014951D01*
X010850Y014888D01*
X010876Y014823D01*
X010897Y014757D01*
X010916Y014690D01*
X010930Y014622D01*
X010940Y014553D01*
X010932Y014552D01*
X010921Y014621D01*
X010907Y014688D01*
X010889Y014755D01*
X010867Y014820D01*
X010842Y014885D01*
X010813Y014947D01*
X010780Y015008D01*
X010745Y015067D01*
X010706Y015124D01*
X010664Y015179D01*
X010618Y015231D01*
X010570Y015281D01*
X010520Y015328D01*
X010466Y015372D01*
X010411Y015413D01*
X010353Y015450D01*
X010293Y015485D01*
X010232Y015516D01*
X010168Y015543D01*
X010103Y015567D01*
X010037Y015587D01*
X009970Y015604D01*
X009903Y015617D01*
X009834Y015626D01*
X009765Y015631D01*
X009696Y015632D01*
X009627Y015629D01*
X009559Y015623D01*
X009490Y015612D01*
X009423Y015598D01*
X009356Y015580D01*
X009290Y015559D01*
X009226Y015533D01*
X009163Y015505D01*
X009102Y015472D01*
X009043Y015437D01*
X008986Y015398D01*
X008932Y015356D01*
X008879Y015311D01*
X008830Y015263D01*
X008783Y015212D01*
X008739Y015159D01*
X008698Y015103D01*
X008660Y015046D01*
X008625Y014986D01*
X008594Y014924D01*
X008566Y014861D01*
X008542Y014796D01*
X008522Y014730D01*
X008505Y014663D01*
X008493Y014595D01*
X008484Y014527D01*
X008478Y014458D01*
X008477Y014389D01*
X008480Y014320D01*
X008486Y014251D01*
X008496Y014183D01*
X008510Y014116D01*
X008528Y014049D01*
X008550Y013983D01*
X008575Y013919D01*
X008604Y013856D01*
X008636Y013795D01*
X008671Y013736D01*
X008710Y013679D01*
X008752Y013624D01*
X008797Y013572D01*
X008845Y013522D01*
X008895Y013475D01*
X008949Y013431D01*
X009004Y013390D01*
X009062Y013352D01*
X009121Y013317D01*
X009183Y013286D01*
X009246Y013258D01*
X009311Y013234D01*
X009377Y013214D01*
X009444Y013197D01*
X009512Y013184D01*
X009580Y013175D01*
X009649Y013169D01*
X009718Y013168D01*
X009787Y013170D01*
X009856Y013177D01*
X009924Y013187D01*
X009992Y013201D01*
X010058Y013219D01*
X010124Y013240D01*
X010188Y013265D01*
X010185Y013273D01*
X010120Y013248D01*
X010054Y013227D01*
X009987Y013209D01*
X009919Y013195D01*
X009851Y013185D01*
X009782Y013179D01*
X009712Y013177D01*
X009643Y013179D01*
X009574Y013184D01*
X009505Y013194D01*
X009437Y013208D01*
X009370Y013225D01*
X009304Y013246D01*
X009240Y013271D01*
X009176Y013299D01*
X009115Y013331D01*
X009055Y013366D01*
X008998Y013405D01*
X008943Y013447D01*
X008890Y013492D01*
X008840Y013540D01*
X008792Y013590D01*
X008748Y013644D01*
X008707Y013699D01*
X008669Y013757D01*
X008634Y013817D01*
X008602Y013879D01*
X008575Y013943D01*
X008551Y014008D01*
X008530Y014074D01*
X008514Y014141D01*
X008501Y014209D01*
X008492Y014278D01*
X008487Y014347D01*
X008486Y014416D01*
X008489Y014486D01*
X008496Y014555D01*
X008507Y014623D01*
X008521Y014691D01*
X008539Y014758D01*
X008562Y014823D01*
X008587Y014888D01*
X008617Y014951D01*
X008650Y015011D01*
X008686Y015071D01*
X008726Y015127D01*
X008769Y015182D01*
X008814Y015234D01*
X008863Y015283D01*
X008914Y015330D01*
X008968Y015373D01*
X009025Y015414D01*
X009083Y015451D01*
X009144Y015485D01*
X009206Y015515D01*
X009270Y015542D01*
X009336Y015565D01*
X009402Y015584D01*
X009470Y015599D01*
X009538Y015611D01*
X009607Y015619D01*
X009676Y015623D01*
X009745Y015622D01*
X009815Y015618D01*
X009883Y015610D01*
X009952Y015599D01*
X010019Y015583D01*
X010086Y015564D01*
X010151Y015540D01*
X010215Y015513D01*
X010277Y015483D01*
X010338Y015449D01*
X010396Y015412D01*
X010452Y015371D01*
X010506Y015328D01*
X010557Y015281D01*
X010606Y015231D01*
X010652Y015179D01*
X010694Y015125D01*
X010734Y015068D01*
X010770Y015008D01*
X010803Y014947D01*
X010832Y014885D01*
X010858Y014820D01*
X010880Y014754D01*
X010898Y014688D01*
X010912Y014620D01*
X010923Y014551D01*
X010914Y014550D01*
X010903Y014618D01*
X010889Y014685D01*
X010871Y014752D01*
X010849Y014817D01*
X010824Y014881D01*
X010795Y014943D01*
X010762Y015004D01*
X010726Y015063D01*
X010687Y015119D01*
X010645Y015174D01*
X010599Y015225D01*
X010551Y015274D01*
X010500Y015321D01*
X010447Y015364D01*
X010391Y015404D01*
X010333Y015441D01*
X010273Y015475D01*
X010211Y015505D01*
X010148Y015532D01*
X010083Y015555D01*
X010017Y015574D01*
X009950Y015590D01*
X009882Y015602D01*
X009814Y015609D01*
X009745Y015613D01*
X009676Y015614D01*
X009608Y015610D01*
X009539Y015602D01*
X009471Y015591D01*
X009404Y015575D01*
X009338Y015556D01*
X009273Y015533D01*
X009210Y015507D01*
X009148Y015477D01*
X009088Y015443D01*
X009030Y015406D01*
X008974Y015366D01*
X008920Y015323D01*
X008869Y015277D01*
X008821Y015228D01*
X008776Y015176D01*
X008733Y015122D01*
X008694Y015066D01*
X008658Y015007D01*
X008625Y014946D01*
X008596Y014884D01*
X008570Y014820D01*
X008548Y014755D01*
X008530Y014689D01*
X008515Y014622D01*
X008505Y014554D01*
X008498Y014485D01*
X008495Y014416D01*
X008496Y014348D01*
X008501Y014279D01*
X008510Y014211D01*
X008523Y014143D01*
X008539Y014076D01*
X008559Y014010D01*
X008583Y013946D01*
X008611Y013883D01*
X008642Y013822D01*
X008676Y013762D01*
X008714Y013705D01*
X008755Y013649D01*
X008799Y013596D01*
X008846Y013546D01*
X008896Y013499D01*
X008948Y013454D01*
X009003Y013412D01*
X009060Y013374D01*
X009119Y013339D01*
X009180Y013307D01*
X009243Y013279D01*
X009307Y013254D01*
X009373Y013233D01*
X009439Y013216D01*
X009507Y013203D01*
X009575Y013193D01*
X009644Y013188D01*
X009712Y013186D01*
X009781Y013188D01*
X009850Y013194D01*
X009918Y013204D01*
X009985Y013218D01*
X010052Y013235D01*
X010117Y013257D01*
X010181Y013282D01*
X006190Y002323D02*
X006112Y002278D01*
X006112Y002279D02*
X006084Y002323D01*
X006053Y002365D01*
X006020Y002405D01*
X005984Y002443D01*
X005945Y002478D01*
X005904Y002510D01*
X005860Y002540D01*
X005815Y002566D01*
X005768Y002589D01*
X005720Y002609D01*
X005670Y002625D01*
X005620Y002638D01*
X005568Y002647D01*
X005516Y002653D01*
X005464Y002655D01*
X005463Y002744D01*
X005464Y002745D01*
X005519Y002743D01*
X005573Y002737D01*
X005628Y002728D01*
X005681Y002715D01*
X005733Y002699D01*
X005785Y002680D01*
X005835Y002657D01*
X005883Y002631D01*
X005930Y002602D01*
X005974Y002570D01*
X006017Y002535D01*
X006057Y002497D01*
X006094Y002457D01*
X006129Y002415D01*
X006161Y002370D01*
X006190Y002324D01*
X006182Y002319D01*
X006154Y002365D01*
X006122Y002409D01*
X006087Y002451D01*
X006050Y002491D01*
X006011Y002528D01*
X005969Y002563D01*
X005925Y002594D01*
X005879Y002623D01*
X005831Y002649D01*
X005781Y002671D01*
X005731Y002691D01*
X005679Y002707D01*
X005626Y002719D01*
X005572Y002728D01*
X005518Y002734D01*
X005464Y002736D01*
X005464Y002727D01*
X005518Y002725D01*
X005571Y002719D01*
X005624Y002710D01*
X005676Y002698D01*
X005728Y002682D01*
X005778Y002663D01*
X005827Y002641D01*
X005874Y002615D01*
X005920Y002587D01*
X005963Y002555D01*
X006005Y002521D01*
X006044Y002485D01*
X006081Y002445D01*
X006115Y002404D01*
X006146Y002360D01*
X006175Y002315D01*
X006167Y002310D01*
X006137Y002358D01*
X006103Y002404D01*
X006067Y002447D01*
X006027Y002488D01*
X005985Y002526D01*
X005941Y002561D01*
X005894Y002593D01*
X005845Y002621D01*
X005794Y002646D01*
X005741Y002668D01*
X005688Y002685D01*
X005633Y002699D01*
X005577Y002709D01*
X005521Y002716D01*
X005464Y002718D01*
X005464Y002709D01*
X005520Y002707D01*
X005576Y002701D01*
X005631Y002691D01*
X005685Y002677D01*
X005738Y002659D01*
X005790Y002638D01*
X005841Y002613D01*
X005889Y002585D01*
X005935Y002554D01*
X005980Y002519D01*
X006021Y002482D01*
X006060Y002441D01*
X006096Y002399D01*
X006129Y002353D01*
X006159Y002306D01*
X006151Y002301D01*
X006122Y002348D01*
X006089Y002393D01*
X006053Y002435D01*
X006015Y002475D01*
X005974Y002512D01*
X005930Y002547D01*
X005884Y002578D01*
X005836Y002605D01*
X005787Y002630D01*
X005735Y002651D01*
X005683Y002668D01*
X005629Y002682D01*
X005574Y002692D01*
X005519Y002698D01*
X005464Y002700D01*
X005464Y002691D01*
X005519Y002689D01*
X005573Y002683D01*
X005627Y002673D01*
X005680Y002659D01*
X005732Y002642D01*
X005783Y002622D01*
X005832Y002597D01*
X005879Y002570D01*
X005925Y002539D01*
X005968Y002506D01*
X006009Y002469D01*
X006047Y002429D01*
X006082Y002387D01*
X006114Y002343D01*
X006143Y002297D01*
X006135Y002292D01*
X006107Y002338D01*
X006075Y002382D01*
X006040Y002423D01*
X006002Y002462D01*
X005962Y002499D01*
X005920Y002532D01*
X005875Y002562D01*
X005828Y002590D01*
X005779Y002613D01*
X005729Y002634D01*
X005678Y002651D01*
X005625Y002664D01*
X005572Y002674D01*
X005518Y002680D01*
X005464Y002682D01*
X005464Y002673D01*
X005517Y002671D01*
X005571Y002665D01*
X005623Y002655D01*
X005675Y002642D01*
X005726Y002625D01*
X005776Y002605D01*
X005824Y002582D01*
X005870Y002555D01*
X005914Y002525D01*
X005956Y002492D01*
X005996Y002456D01*
X006033Y002417D01*
X006068Y002376D01*
X006099Y002333D01*
X006128Y002288D01*
X006120Y002283D01*
X006092Y002328D01*
X006061Y002371D01*
X006027Y002411D01*
X005990Y002449D01*
X005951Y002485D01*
X005909Y002517D01*
X005865Y002547D01*
X005819Y002574D01*
X005772Y002597D01*
X005723Y002617D01*
X005673Y002634D01*
X005621Y002647D01*
X005569Y002656D01*
X005517Y002662D01*
X005464Y002664D01*
X005464Y001056D02*
X005464Y001146D01*
X005464Y001145D02*
X005518Y001147D01*
X005571Y001153D01*
X005624Y001163D01*
X005676Y001177D01*
X005727Y001194D01*
X005776Y001215D01*
X005824Y001239D01*
X005870Y001267D01*
X005914Y001298D01*
X005956Y001332D01*
X005995Y001368D01*
X006032Y001408D01*
X006065Y001450D01*
X006096Y001494D01*
X006123Y001540D01*
X006202Y001498D01*
X006174Y001449D01*
X006142Y001403D01*
X006107Y001358D01*
X006070Y001316D01*
X006029Y001276D01*
X005986Y001240D01*
X005941Y001206D01*
X005894Y001175D01*
X005844Y001148D01*
X005793Y001124D01*
X005741Y001103D01*
X005687Y001086D01*
X005632Y001073D01*
X005577Y001063D01*
X005520Y001057D01*
X005464Y001055D01*
X005464Y001064D01*
X005520Y001066D01*
X005575Y001072D01*
X005630Y001082D01*
X005685Y001095D01*
X005738Y001112D01*
X005790Y001132D01*
X005840Y001156D01*
X005889Y001183D01*
X005936Y001213D01*
X005981Y001247D01*
X006023Y001283D01*
X006063Y001322D01*
X006100Y001364D01*
X006135Y001408D01*
X006166Y001454D01*
X006194Y001502D01*
X006186Y001506D01*
X006158Y001459D01*
X006127Y001413D01*
X006093Y001370D01*
X006057Y001328D01*
X006017Y001290D01*
X005975Y001254D01*
X005931Y001221D01*
X005885Y001191D01*
X005836Y001164D01*
X005786Y001141D01*
X005735Y001120D01*
X005682Y001104D01*
X005629Y001091D01*
X005574Y001081D01*
X005519Y001075D01*
X005464Y001073D01*
X005464Y001082D01*
X005519Y001084D01*
X005573Y001090D01*
X005627Y001099D01*
X005680Y001112D01*
X005732Y001129D01*
X005783Y001149D01*
X005832Y001172D01*
X005880Y001199D01*
X005926Y001228D01*
X005970Y001261D01*
X006011Y001296D01*
X006050Y001335D01*
X006087Y001375D01*
X006120Y001418D01*
X006151Y001464D01*
X006178Y001511D01*
X006170Y001515D01*
X006143Y001468D01*
X006113Y001424D01*
X006080Y001381D01*
X006044Y001341D01*
X006005Y001303D01*
X005964Y001268D01*
X005921Y001236D01*
X005875Y001206D01*
X005828Y001180D01*
X005779Y001157D01*
X005729Y001137D01*
X005677Y001121D01*
X005625Y001108D01*
X005572Y001099D01*
X005518Y001093D01*
X005464Y001091D01*
X005464Y001100D01*
X005517Y001102D01*
X005570Y001108D01*
X005623Y001117D01*
X005675Y001130D01*
X005726Y001146D01*
X005776Y001165D01*
X005824Y001188D01*
X005871Y001214D01*
X005915Y001243D01*
X005958Y001275D01*
X005999Y001310D01*
X006037Y001347D01*
X006073Y001387D01*
X006106Y001429D01*
X006136Y001473D01*
X006163Y001519D01*
X006155Y001523D01*
X006128Y001478D01*
X006098Y001434D01*
X006066Y001393D01*
X006031Y001353D01*
X005993Y001316D01*
X005953Y001282D01*
X005910Y001250D01*
X005866Y001222D01*
X005820Y001196D01*
X005772Y001174D01*
X005723Y001154D01*
X005673Y001138D01*
X005621Y001126D01*
X005569Y001117D01*
X005517Y001111D01*
X005464Y001109D01*
X005464Y001118D01*
X005520Y001120D01*
X005575Y001127D01*
X005630Y001137D01*
X005684Y001151D01*
X005736Y001169D01*
X005788Y001190D01*
X005837Y001216D01*
X005885Y001244D01*
X005931Y001276D01*
X005974Y001311D01*
X006014Y001349D01*
X006052Y001390D01*
X006087Y001434D01*
X006118Y001480D01*
X006147Y001528D01*
X006139Y001532D01*
X006111Y001484D01*
X006080Y001439D01*
X006045Y001396D01*
X006008Y001356D01*
X005968Y001318D01*
X005925Y001283D01*
X005880Y001252D01*
X005833Y001223D01*
X005784Y001199D01*
X005733Y001177D01*
X005681Y001160D01*
X005628Y001146D01*
X005574Y001136D01*
X005519Y001129D01*
X005464Y001127D01*
X005464Y001136D01*
X005518Y001138D01*
X005572Y001144D01*
X005626Y001154D01*
X005678Y001168D01*
X005730Y001186D01*
X005780Y001207D01*
X005829Y001231D01*
X005875Y001259D01*
X005920Y001291D01*
X005962Y001325D01*
X006001Y001362D01*
X006038Y001402D01*
X006072Y001444D01*
X006103Y001489D01*
X006131Y001536D01*
X004814Y001356D02*
X004883Y001413D01*
X004882Y001413D02*
X004919Y001373D01*
X004958Y001335D01*
X005000Y001301D01*
X005044Y001269D01*
X005090Y001241D01*
X005139Y001216D01*
X005189Y001195D01*
X005240Y001177D01*
X005293Y001164D01*
X005346Y001154D01*
X005400Y001147D01*
X005454Y001145D01*
X005455Y001056D01*
X005454Y001055D01*
X005398Y001057D01*
X005342Y001063D01*
X005287Y001073D01*
X005232Y001086D01*
X005179Y001103D01*
X005126Y001123D01*
X005075Y001147D01*
X005026Y001174D01*
X004979Y001205D01*
X004934Y001238D01*
X004891Y001274D01*
X004851Y001313D01*
X004813Y001355D01*
X004820Y001361D01*
X004857Y001320D01*
X004897Y001281D01*
X004939Y001245D01*
X004984Y001212D01*
X005031Y001182D01*
X005079Y001155D01*
X005130Y001132D01*
X005182Y001111D01*
X005235Y001095D01*
X005289Y001082D01*
X005343Y001072D01*
X005398Y001066D01*
X005454Y001064D01*
X005454Y001073D01*
X005399Y001075D01*
X005344Y001081D01*
X005290Y001090D01*
X005237Y001103D01*
X005185Y001120D01*
X005133Y001140D01*
X005084Y001163D01*
X005035Y001190D01*
X004989Y001219D01*
X004945Y001252D01*
X004903Y001288D01*
X004864Y001326D01*
X004827Y001367D01*
X004834Y001372D01*
X004870Y001332D01*
X004909Y001294D01*
X004951Y001259D01*
X004994Y001227D01*
X005040Y001197D01*
X005088Y001171D01*
X005137Y001148D01*
X005187Y001128D01*
X005239Y001112D01*
X005292Y001099D01*
X005346Y001090D01*
X005400Y001084D01*
X005454Y001082D01*
X005454Y001091D01*
X005400Y001093D01*
X005347Y001099D01*
X005294Y001108D01*
X005242Y001121D01*
X005190Y001137D01*
X005140Y001156D01*
X005092Y001179D01*
X005045Y001205D01*
X004999Y001234D01*
X004956Y001266D01*
X004915Y001301D01*
X004877Y001338D01*
X004841Y001378D01*
X004848Y001384D01*
X004883Y001345D01*
X004921Y001308D01*
X004962Y001273D01*
X005005Y001242D01*
X005049Y001213D01*
X005096Y001187D01*
X005144Y001165D01*
X005193Y001145D01*
X005244Y001129D01*
X005296Y001117D01*
X005348Y001108D01*
X005401Y001102D01*
X005454Y001100D01*
X005454Y001109D01*
X005402Y001111D01*
X005349Y001117D01*
X005298Y001126D01*
X005247Y001138D01*
X005196Y001154D01*
X005147Y001173D01*
X005100Y001195D01*
X005054Y001221D01*
X005010Y001249D01*
X004968Y001280D01*
X004927Y001314D01*
X004890Y001351D01*
X004855Y001390D01*
X004861Y001396D01*
X004896Y001357D01*
X004934Y001321D01*
X004973Y001287D01*
X005015Y001256D01*
X005059Y001228D01*
X005104Y001203D01*
X005151Y001181D01*
X005199Y001162D01*
X005249Y001147D01*
X005299Y001134D01*
X005351Y001126D01*
X005402Y001120D01*
X005454Y001118D01*
X005454Y001127D01*
X005403Y001129D01*
X005352Y001134D01*
X005301Y001143D01*
X005251Y001155D01*
X005202Y001171D01*
X005155Y001189D01*
X005108Y001211D01*
X005063Y001236D01*
X005020Y001264D01*
X004979Y001294D01*
X004940Y001327D01*
X004903Y001363D01*
X004868Y001401D01*
X004875Y001407D01*
X004912Y001366D01*
X004952Y001328D01*
X004994Y001294D01*
X005039Y001262D01*
X005086Y001233D01*
X005135Y001208D01*
X005186Y001187D01*
X005237Y001169D01*
X005291Y001155D01*
X005345Y001145D01*
X005399Y001138D01*
X005454Y001136D01*
X005455Y002744D02*
X005455Y002654D01*
X005454Y002655D02*
X005400Y002653D01*
X005347Y002647D01*
X005294Y002637D01*
X005242Y002623D01*
X005191Y002606D01*
X005141Y002585D01*
X005093Y002561D01*
X005047Y002533D01*
X005003Y002502D01*
X004962Y002468D01*
X004922Y002431D01*
X004886Y002392D01*
X004818Y002449D01*
X004817Y002450D01*
X004855Y002491D01*
X004895Y002529D01*
X004938Y002565D01*
X004983Y002598D01*
X005030Y002628D01*
X005078Y002654D01*
X005129Y002678D01*
X005181Y002698D01*
X005234Y002714D01*
X005288Y002728D01*
X005343Y002737D01*
X005398Y002743D01*
X005454Y002745D01*
X005454Y002736D01*
X005399Y002734D01*
X005344Y002728D01*
X005290Y002719D01*
X005236Y002706D01*
X005184Y002689D01*
X005132Y002670D01*
X005082Y002646D01*
X005034Y002620D01*
X004988Y002590D01*
X004943Y002558D01*
X004901Y002523D01*
X004861Y002484D01*
X004824Y002444D01*
X004831Y002438D01*
X004868Y002478D01*
X004907Y002516D01*
X004949Y002551D01*
X004993Y002583D01*
X005039Y002612D01*
X005087Y002638D01*
X005136Y002661D01*
X005187Y002681D01*
X005239Y002697D01*
X005292Y002710D01*
X005345Y002719D01*
X005400Y002725D01*
X005454Y002727D01*
X005454Y002718D01*
X005400Y002716D01*
X005347Y002710D01*
X005294Y002701D01*
X005241Y002688D01*
X005190Y002672D01*
X005139Y002653D01*
X005091Y002630D01*
X005043Y002605D01*
X004998Y002576D01*
X004954Y002544D01*
X004913Y002509D01*
X004874Y002472D01*
X004838Y002432D01*
X004845Y002426D01*
X004881Y002466D01*
X004919Y002503D01*
X004960Y002537D01*
X005003Y002568D01*
X005048Y002597D01*
X005095Y002622D01*
X005143Y002645D01*
X005193Y002664D01*
X005244Y002680D01*
X005295Y002692D01*
X005348Y002701D01*
X005401Y002707D01*
X005454Y002709D01*
X005454Y002700D01*
X005401Y002698D01*
X005349Y002692D01*
X005297Y002683D01*
X005246Y002671D01*
X005196Y002655D01*
X005146Y002636D01*
X005099Y002614D01*
X005052Y002589D01*
X005008Y002561D01*
X004966Y002530D01*
X004925Y002496D01*
X004887Y002459D01*
X004852Y002421D01*
X004858Y002415D01*
X004894Y002453D01*
X004931Y002489D01*
X004971Y002523D01*
X005013Y002553D01*
X005057Y002581D01*
X005103Y002606D01*
X005150Y002628D01*
X005199Y002647D01*
X005248Y002662D01*
X005299Y002675D01*
X005350Y002683D01*
X005402Y002689D01*
X005454Y002691D01*
X005454Y002682D01*
X005398Y002680D01*
X005343Y002673D01*
X005288Y002663D01*
X005234Y002649D01*
X005181Y002631D01*
X005130Y002609D01*
X005080Y002584D01*
X005032Y002555D01*
X004987Y002523D01*
X004944Y002488D01*
X004903Y002450D01*
X004865Y002409D01*
X004872Y002403D01*
X004909Y002444D01*
X004950Y002481D01*
X004992Y002516D01*
X005037Y002548D01*
X005085Y002576D01*
X005134Y002601D01*
X005185Y002623D01*
X005237Y002640D01*
X005290Y002654D01*
X005344Y002664D01*
X005399Y002671D01*
X005454Y002673D01*
X005454Y002664D01*
X005400Y002662D01*
X005346Y002656D01*
X005292Y002646D01*
X005239Y002632D01*
X005188Y002614D01*
X005138Y002593D01*
X005089Y002568D01*
X005042Y002540D01*
X004998Y002509D01*
X004956Y002475D01*
X004916Y002437D01*
X004879Y002397D01*
D15*
X002709Y014400D02*
X002711Y014463D01*
X002717Y014525D01*
X002727Y014587D01*
X002740Y014649D01*
X002758Y014709D01*
X002779Y014768D01*
X002804Y014826D01*
X002833Y014882D01*
X002865Y014936D01*
X002900Y014988D01*
X002938Y015037D01*
X002980Y015085D01*
X003024Y015129D01*
X003072Y015171D01*
X003121Y015209D01*
X003173Y015244D01*
X003227Y015276D01*
X003283Y015305D01*
X003341Y015330D01*
X003400Y015351D01*
X003460Y015369D01*
X003522Y015382D01*
X003584Y015392D01*
X003646Y015398D01*
X003709Y015400D01*
X003772Y015398D01*
X003834Y015392D01*
X003896Y015382D01*
X003958Y015369D01*
X004018Y015351D01*
X004077Y015330D01*
X004135Y015305D01*
X004191Y015276D01*
X004245Y015244D01*
X004297Y015209D01*
X004346Y015171D01*
X004394Y015129D01*
X004438Y015085D01*
X004480Y015037D01*
X004518Y014988D01*
X004553Y014936D01*
X004585Y014882D01*
X004614Y014826D01*
X004639Y014768D01*
X004660Y014709D01*
X004678Y014649D01*
X004691Y014587D01*
X004701Y014525D01*
X004707Y014463D01*
X004709Y014400D01*
X004707Y014337D01*
X004701Y014275D01*
X004691Y014213D01*
X004678Y014151D01*
X004660Y014091D01*
X004639Y014032D01*
X004614Y013974D01*
X004585Y013918D01*
X004553Y013864D01*
X004518Y013812D01*
X004480Y013763D01*
X004438Y013715D01*
X004394Y013671D01*
X004346Y013629D01*
X004297Y013591D01*
X004245Y013556D01*
X004191Y013524D01*
X004135Y013495D01*
X004077Y013470D01*
X004018Y013449D01*
X003958Y013431D01*
X003896Y013418D01*
X003834Y013408D01*
X003772Y013402D01*
X003709Y013400D01*
X003646Y013402D01*
X003584Y013408D01*
X003522Y013418D01*
X003460Y013431D01*
X003400Y013449D01*
X003341Y013470D01*
X003283Y013495D01*
X003227Y013524D01*
X003173Y013556D01*
X003121Y013591D01*
X003072Y013629D01*
X003024Y013671D01*
X002980Y013715D01*
X002938Y013763D01*
X002900Y013812D01*
X002865Y013864D01*
X002833Y013918D01*
X002804Y013974D01*
X002779Y014032D01*
X002758Y014091D01*
X002740Y014151D01*
X002727Y014213D01*
X002717Y014275D01*
X002711Y014337D01*
X002709Y014400D01*
X005709Y014400D02*
X005711Y014463D01*
X005717Y014525D01*
X005727Y014587D01*
X005740Y014649D01*
X005758Y014709D01*
X005779Y014768D01*
X005804Y014826D01*
X005833Y014882D01*
X005865Y014936D01*
X005900Y014988D01*
X005938Y015037D01*
X005980Y015085D01*
X006024Y015129D01*
X006072Y015171D01*
X006121Y015209D01*
X006173Y015244D01*
X006227Y015276D01*
X006283Y015305D01*
X006341Y015330D01*
X006400Y015351D01*
X006460Y015369D01*
X006522Y015382D01*
X006584Y015392D01*
X006646Y015398D01*
X006709Y015400D01*
X006772Y015398D01*
X006834Y015392D01*
X006896Y015382D01*
X006958Y015369D01*
X007018Y015351D01*
X007077Y015330D01*
X007135Y015305D01*
X007191Y015276D01*
X007245Y015244D01*
X007297Y015209D01*
X007346Y015171D01*
X007394Y015129D01*
X007438Y015085D01*
X007480Y015037D01*
X007518Y014988D01*
X007553Y014936D01*
X007585Y014882D01*
X007614Y014826D01*
X007639Y014768D01*
X007660Y014709D01*
X007678Y014649D01*
X007691Y014587D01*
X007701Y014525D01*
X007707Y014463D01*
X007709Y014400D01*
X007707Y014337D01*
X007701Y014275D01*
X007691Y014213D01*
X007678Y014151D01*
X007660Y014091D01*
X007639Y014032D01*
X007614Y013974D01*
X007585Y013918D01*
X007553Y013864D01*
X007518Y013812D01*
X007480Y013763D01*
X007438Y013715D01*
X007394Y013671D01*
X007346Y013629D01*
X007297Y013591D01*
X007245Y013556D01*
X007191Y013524D01*
X007135Y013495D01*
X007077Y013470D01*
X007018Y013449D01*
X006958Y013431D01*
X006896Y013418D01*
X006834Y013408D01*
X006772Y013402D01*
X006709Y013400D01*
X006646Y013402D01*
X006584Y013408D01*
X006522Y013418D01*
X006460Y013431D01*
X006400Y013449D01*
X006341Y013470D01*
X006283Y013495D01*
X006227Y013524D01*
X006173Y013556D01*
X006121Y013591D01*
X006072Y013629D01*
X006024Y013671D01*
X005980Y013715D01*
X005938Y013763D01*
X005900Y013812D01*
X005865Y013864D01*
X005833Y013918D01*
X005804Y013974D01*
X005779Y014032D01*
X005758Y014091D01*
X005740Y014151D01*
X005727Y014213D01*
X005717Y014275D01*
X005711Y014337D01*
X005709Y014400D01*
X008709Y014400D02*
X008711Y014463D01*
X008717Y014525D01*
X008727Y014587D01*
X008740Y014649D01*
X008758Y014709D01*
X008779Y014768D01*
X008804Y014826D01*
X008833Y014882D01*
X008865Y014936D01*
X008900Y014988D01*
X008938Y015037D01*
X008980Y015085D01*
X009024Y015129D01*
X009072Y015171D01*
X009121Y015209D01*
X009173Y015244D01*
X009227Y015276D01*
X009283Y015305D01*
X009341Y015330D01*
X009400Y015351D01*
X009460Y015369D01*
X009522Y015382D01*
X009584Y015392D01*
X009646Y015398D01*
X009709Y015400D01*
X009772Y015398D01*
X009834Y015392D01*
X009896Y015382D01*
X009958Y015369D01*
X010018Y015351D01*
X010077Y015330D01*
X010135Y015305D01*
X010191Y015276D01*
X010245Y015244D01*
X010297Y015209D01*
X010346Y015171D01*
X010394Y015129D01*
X010438Y015085D01*
X010480Y015037D01*
X010518Y014988D01*
X010553Y014936D01*
X010585Y014882D01*
X010614Y014826D01*
X010639Y014768D01*
X010660Y014709D01*
X010678Y014649D01*
X010691Y014587D01*
X010701Y014525D01*
X010707Y014463D01*
X010709Y014400D01*
X010707Y014337D01*
X010701Y014275D01*
X010691Y014213D01*
X010678Y014151D01*
X010660Y014091D01*
X010639Y014032D01*
X010614Y013974D01*
X010585Y013918D01*
X010553Y013864D01*
X010518Y013812D01*
X010480Y013763D01*
X010438Y013715D01*
X010394Y013671D01*
X010346Y013629D01*
X010297Y013591D01*
X010245Y013556D01*
X010191Y013524D01*
X010135Y013495D01*
X010077Y013470D01*
X010018Y013449D01*
X009958Y013431D01*
X009896Y013418D01*
X009834Y013408D01*
X009772Y013402D01*
X009709Y013400D01*
X009646Y013402D01*
X009584Y013408D01*
X009522Y013418D01*
X009460Y013431D01*
X009400Y013449D01*
X009341Y013470D01*
X009283Y013495D01*
X009227Y013524D01*
X009173Y013556D01*
X009121Y013591D01*
X009072Y013629D01*
X009024Y013671D01*
X008980Y013715D01*
X008938Y013763D01*
X008900Y013812D01*
X008865Y013864D01*
X008833Y013918D01*
X008804Y013974D01*
X008779Y014032D01*
X008758Y014091D01*
X008740Y014151D01*
X008727Y014213D01*
X008717Y014275D01*
X008711Y014337D01*
X008709Y014400D01*
D16*
X004839Y002410D02*
X004839Y002230D01*
X004839Y001590D02*
X004839Y001390D01*
M02*
