G75*
%MOIN*%
%OFA0B0*%
%FSLAX24Y24*%
%IPPOS*%
%LPD*%
%AMOC8*
5,1,8,0,0,1.08239X$1,22.5*
%
%ADD10C,0.0000*%
%ADD11C,0.0030*%
%ADD12C,0.0040*%
%ADD13C,0.0050*%
%ADD14C,0.0080*%
%ADD15C,0.0010*%
%ADD16C,0.0060*%
%ADD17C,0.0100*%
D10*
X002209Y000487D02*
X002209Y016235D01*
X011068Y016235D01*
X011068Y000487D01*
X002209Y000487D01*
D11*
X004324Y002361D02*
X004585Y002623D01*
X004716Y002492D01*
X004716Y002405D01*
X004629Y002317D01*
X004542Y002317D01*
X004411Y002448D01*
X004584Y002100D02*
X004759Y002100D01*
X004759Y001926D01*
X005020Y002188D01*
X005106Y002102D02*
X005237Y001971D01*
X005237Y001884D01*
X005150Y001796D01*
X005063Y001796D01*
X004932Y001927D01*
X005019Y001840D02*
X005019Y001665D01*
X004844Y001840D02*
X005106Y002102D01*
X004846Y002362D02*
X004584Y002100D01*
X010149Y004606D02*
X010149Y004853D01*
X010520Y004853D01*
X010520Y004975D02*
X010149Y004975D01*
X010520Y005222D01*
X010149Y005222D01*
X010211Y005343D02*
X010149Y005405D01*
X010149Y005528D01*
X010211Y005590D01*
X010458Y005590D01*
X010520Y005528D01*
X010520Y005405D01*
X010458Y005343D01*
X010335Y005343D02*
X010335Y005467D01*
X010335Y005343D02*
X010211Y005343D01*
X010211Y005711D02*
X010149Y005773D01*
X010149Y005897D01*
X010211Y005958D01*
X010335Y005897D02*
X010335Y005773D01*
X010273Y005711D01*
X010211Y005711D01*
X010335Y005897D02*
X010396Y005958D01*
X010458Y005958D01*
X010520Y005897D01*
X010520Y005773D01*
X010458Y005711D01*
D12*
X010267Y003467D02*
X009960Y003467D01*
X010113Y003467D02*
X010113Y003007D01*
X009806Y003083D02*
X009729Y003007D01*
X009576Y003007D01*
X009499Y003083D01*
X009499Y003390D01*
X009576Y003467D01*
X009729Y003467D01*
X009806Y003390D01*
X009346Y003314D02*
X009346Y003007D01*
X009346Y003237D02*
X009039Y003237D01*
X009039Y003314D02*
X009039Y003007D01*
X009039Y003314D02*
X009192Y003467D01*
X009346Y003314D01*
D13*
X007521Y004924D02*
X005521Y004924D01*
X005521Y005174D01*
X005521Y005674D02*
X005521Y006174D01*
X005521Y006674D02*
X005521Y007174D01*
X005521Y007674D02*
X005521Y008174D01*
X005521Y008674D02*
X005521Y008924D01*
X006021Y008924D01*
X006521Y008424D02*
X006565Y008426D01*
X006608Y008432D01*
X006650Y008441D01*
X006692Y008454D01*
X006732Y008471D01*
X006771Y008491D01*
X006808Y008514D01*
X006842Y008541D01*
X006875Y008570D01*
X006904Y008603D01*
X006931Y008637D01*
X006954Y008674D01*
X006974Y008713D01*
X006991Y008753D01*
X007004Y008795D01*
X007013Y008837D01*
X007019Y008880D01*
X007021Y008924D01*
X007521Y008924D01*
X007521Y008674D01*
X007521Y008174D02*
X007521Y007674D01*
X007521Y007174D02*
X007521Y006674D01*
X007521Y006174D02*
X007521Y005674D01*
X007521Y005174D02*
X007521Y004924D01*
X009059Y006912D02*
X009059Y008561D01*
X009609Y008624D02*
X009609Y008782D01*
X009609Y007849D02*
X009609Y007624D01*
X009059Y008562D02*
X009107Y008597D01*
X009157Y008630D01*
X009209Y008661D01*
X009263Y008688D01*
X009318Y008712D01*
X009375Y008732D01*
X009432Y008750D01*
X009490Y008764D01*
X009549Y008775D01*
X009609Y008782D01*
X010712Y007427D02*
X010692Y007367D01*
X010668Y007308D01*
X010640Y007251D01*
X010609Y007196D01*
X010574Y007142D01*
X010537Y007091D01*
X010496Y007042D01*
X010452Y006996D01*
X010406Y006952D01*
X010357Y006911D01*
X010306Y006873D01*
X010253Y006839D01*
X010197Y006807D01*
X010140Y006780D01*
X010081Y006755D01*
X010021Y006735D01*
X009960Y006717D01*
X009898Y006704D01*
X009835Y006695D01*
X009772Y006689D01*
X009708Y006687D01*
X009644Y006689D01*
X009581Y006695D01*
X009518Y006704D01*
X009456Y006718D01*
X009395Y006735D01*
X009335Y006756D01*
X009276Y006780D01*
X009219Y006808D01*
X009163Y006840D01*
X009110Y006875D01*
X009059Y006912D01*
X009609Y006849D02*
X009609Y006691D01*
X010712Y008047D02*
X010692Y008106D01*
X010669Y008163D01*
X010642Y008220D01*
X010611Y008274D01*
X010578Y008327D01*
X010541Y008377D01*
X010502Y008426D01*
X010459Y008471D01*
X010414Y008515D01*
X010367Y008555D01*
X010317Y008593D01*
X010265Y008628D01*
X010211Y008659D01*
X010156Y008687D01*
X010099Y008712D01*
X010040Y008733D01*
X009980Y008751D01*
X009919Y008766D01*
X009858Y008776D01*
X009796Y008783D01*
X009734Y008787D01*
X009671Y008786D01*
X009609Y008782D01*
X008349Y009862D02*
X008304Y009862D01*
X008304Y009952D01*
X008349Y009997D01*
X008349Y010087D01*
X008304Y010132D01*
X008214Y010132D01*
X008169Y010087D01*
X008169Y009997D01*
X008214Y009952D01*
X008214Y009862D01*
X008169Y009862D01*
X008059Y009862D02*
X007924Y009952D01*
X008059Y010042D01*
X007924Y010132D02*
X007924Y009862D01*
X007515Y009862D02*
X007334Y009862D01*
X007425Y009862D02*
X007425Y010132D01*
X007334Y010042D01*
X006021Y008924D02*
X006023Y008880D01*
X006029Y008837D01*
X006038Y008795D01*
X006051Y008753D01*
X006068Y008713D01*
X006088Y008674D01*
X006111Y008637D01*
X006138Y008603D01*
X006167Y008570D01*
X006200Y008541D01*
X006234Y008514D01*
X006271Y008491D01*
X006310Y008471D01*
X006350Y008454D01*
X006392Y008441D01*
X006434Y008432D01*
X006477Y008426D01*
X006521Y008424D01*
X007019Y010984D02*
X007078Y011004D01*
X007135Y011027D01*
X007192Y011054D01*
X007246Y011085D01*
X007299Y011118D01*
X007349Y011155D01*
X007398Y011194D01*
X007443Y011237D01*
X007487Y011282D01*
X007527Y011329D01*
X007565Y011379D01*
X007600Y011431D01*
X007631Y011485D01*
X007659Y011540D01*
X007684Y011597D01*
X007705Y011656D01*
X007723Y011716D01*
X007738Y011777D01*
X007748Y011838D01*
X007755Y011900D01*
X007759Y011962D01*
X007758Y012025D01*
X007754Y012087D01*
X007755Y012087D02*
X007597Y012087D01*
X007534Y012637D02*
X005885Y012637D01*
X005822Y012087D02*
X005664Y012087D01*
X004755Y012087D02*
X004597Y012087D01*
X004534Y012637D02*
X002885Y012637D01*
X002822Y012087D02*
X002664Y012087D01*
X003597Y012087D02*
X003822Y012087D01*
X004534Y012637D02*
X004569Y012589D01*
X004602Y012539D01*
X004633Y012487D01*
X004660Y012433D01*
X004684Y012378D01*
X004704Y012321D01*
X004722Y012264D01*
X004736Y012206D01*
X004747Y012147D01*
X004754Y012087D01*
X003399Y010984D02*
X003339Y011004D01*
X003280Y011028D01*
X003223Y011056D01*
X003168Y011087D01*
X003114Y011122D01*
X003063Y011159D01*
X003014Y011200D01*
X002968Y011244D01*
X002924Y011290D01*
X002883Y011339D01*
X002845Y011390D01*
X002811Y011443D01*
X002779Y011499D01*
X002752Y011556D01*
X002727Y011615D01*
X002707Y011675D01*
X002689Y011736D01*
X002676Y011798D01*
X002667Y011861D01*
X002661Y011924D01*
X002659Y011988D01*
X002661Y012052D01*
X002667Y012115D01*
X002676Y012178D01*
X002690Y012240D01*
X002707Y012301D01*
X002728Y012361D01*
X002752Y012420D01*
X002780Y012477D01*
X002812Y012533D01*
X002847Y012586D01*
X002884Y012637D01*
X004754Y012087D02*
X004758Y012025D01*
X004759Y011962D01*
X004755Y011900D01*
X004748Y011838D01*
X004738Y011777D01*
X004723Y011716D01*
X004705Y011656D01*
X004684Y011597D01*
X004659Y011540D01*
X004631Y011485D01*
X004600Y011431D01*
X004565Y011379D01*
X004527Y011329D01*
X004487Y011282D01*
X004443Y011237D01*
X004398Y011194D01*
X004349Y011155D01*
X004299Y011118D01*
X004246Y011085D01*
X004192Y011054D01*
X004135Y011027D01*
X004078Y011004D01*
X004019Y010984D01*
X003584Y007627D02*
X003584Y007582D01*
X003494Y007582D01*
X003449Y007627D01*
X003359Y007627D01*
X003314Y007582D01*
X003314Y007492D01*
X003359Y007447D01*
X003449Y007447D01*
X003494Y007492D01*
X003584Y007492D01*
X003584Y007447D01*
X003584Y007336D02*
X003494Y007201D01*
X003404Y007336D01*
X003314Y007201D02*
X003584Y007201D01*
X003584Y006792D02*
X003584Y006612D01*
X003584Y006702D02*
X003314Y006702D01*
X003404Y006612D01*
X006399Y010984D02*
X006339Y011004D01*
X006280Y011028D01*
X006223Y011056D01*
X006168Y011087D01*
X006114Y011122D01*
X006063Y011159D01*
X006014Y011200D01*
X005968Y011244D01*
X005924Y011290D01*
X005883Y011339D01*
X005845Y011390D01*
X005811Y011443D01*
X005779Y011499D01*
X005752Y011556D01*
X005727Y011615D01*
X005707Y011675D01*
X005689Y011736D01*
X005676Y011798D01*
X005667Y011861D01*
X005661Y011924D01*
X005659Y011988D01*
X005661Y012052D01*
X005667Y012115D01*
X005676Y012178D01*
X005690Y012240D01*
X005707Y012301D01*
X005728Y012361D01*
X005752Y012420D01*
X005780Y012477D01*
X005812Y012533D01*
X005847Y012586D01*
X005884Y012637D01*
X006597Y012087D02*
X006822Y012087D01*
X007534Y012637D02*
X007569Y012589D01*
X007602Y012539D01*
X007633Y012487D01*
X007660Y012433D01*
X007684Y012378D01*
X007704Y012321D01*
X007722Y012264D01*
X007736Y012206D01*
X007747Y012147D01*
X007754Y012087D01*
X008414Y012087D02*
X008572Y012087D01*
X008635Y012637D02*
X010284Y012637D01*
X010347Y012087D02*
X010505Y012087D01*
X009572Y012087D02*
X009347Y012087D01*
X010284Y012637D02*
X010319Y012589D01*
X010352Y012539D01*
X010383Y012487D01*
X010410Y012433D01*
X010434Y012378D01*
X010454Y012321D01*
X010472Y012264D01*
X010486Y012206D01*
X010497Y012147D01*
X010504Y012087D01*
X010508Y012025D01*
X010509Y011962D01*
X010505Y011900D01*
X010498Y011838D01*
X010488Y011777D01*
X010473Y011716D01*
X010455Y011656D01*
X010434Y011597D01*
X010409Y011540D01*
X010381Y011485D01*
X010350Y011431D01*
X010315Y011379D01*
X010277Y011329D01*
X010237Y011282D01*
X010193Y011237D01*
X010148Y011194D01*
X010099Y011155D01*
X010049Y011118D01*
X009996Y011085D01*
X009942Y011054D01*
X009885Y011027D01*
X009828Y011004D01*
X009769Y010984D01*
X009149Y010984D02*
X009089Y011004D01*
X009030Y011028D01*
X008973Y011056D01*
X008918Y011087D01*
X008864Y011122D01*
X008813Y011159D01*
X008764Y011200D01*
X008718Y011244D01*
X008674Y011290D01*
X008633Y011339D01*
X008595Y011390D01*
X008561Y011443D01*
X008529Y011499D01*
X008502Y011556D01*
X008477Y011615D01*
X008457Y011675D01*
X008439Y011736D01*
X008426Y011798D01*
X008417Y011861D01*
X008411Y011924D01*
X008409Y011988D01*
X008411Y012052D01*
X008417Y012115D01*
X008426Y012178D01*
X008440Y012240D01*
X008457Y012301D01*
X008478Y012361D01*
X008502Y012420D01*
X008530Y012477D01*
X008562Y012533D01*
X008597Y012586D01*
X008634Y012637D01*
D14*
X007709Y013737D02*
X007709Y015237D01*
X010042Y013246D02*
X010792Y014545D01*
X009450Y010459D02*
X009450Y009514D01*
X006969Y009514D01*
X006969Y010459D01*
X009450Y010459D01*
X009209Y006237D02*
X008959Y005987D01*
X008959Y005487D01*
X009209Y005237D01*
X008959Y004987D01*
X008959Y004487D01*
X009209Y004237D01*
X009709Y004237D01*
X009959Y004487D01*
X009959Y004987D01*
X009709Y005237D01*
X009959Y005487D01*
X009959Y005987D01*
X009709Y006237D01*
X009209Y006237D01*
X007114Y003687D02*
X006309Y003687D01*
X005509Y003337D02*
X005509Y001637D01*
X004709Y001737D02*
X004709Y001237D01*
X004459Y000987D01*
X003959Y000987D01*
X003709Y001237D01*
X003459Y000987D01*
X002959Y000987D01*
X002709Y001237D01*
X002709Y001737D01*
X002959Y001987D01*
X003459Y001987D01*
X003709Y001737D01*
X003959Y001987D01*
X004459Y001987D01*
X004709Y001737D01*
X002725Y003487D02*
X002727Y003549D01*
X002733Y003612D01*
X002743Y003673D01*
X002757Y003734D01*
X002774Y003794D01*
X002795Y003853D01*
X002821Y003910D01*
X002849Y003965D01*
X002881Y004019D01*
X002917Y004070D01*
X002955Y004120D01*
X002997Y004166D01*
X003041Y004210D01*
X003089Y004251D01*
X003138Y004289D01*
X003190Y004323D01*
X003244Y004354D01*
X003300Y004382D01*
X003358Y004406D01*
X003417Y004427D01*
X003477Y004443D01*
X003538Y004456D01*
X003600Y004465D01*
X003662Y004470D01*
X003725Y004471D01*
X003787Y004468D01*
X003849Y004461D01*
X003911Y004450D01*
X003971Y004435D01*
X004031Y004417D01*
X004089Y004395D01*
X004146Y004369D01*
X004201Y004339D01*
X004254Y004306D01*
X004305Y004270D01*
X004353Y004231D01*
X004399Y004188D01*
X004442Y004143D01*
X004482Y004095D01*
X004519Y004045D01*
X004553Y003992D01*
X004584Y003938D01*
X004610Y003882D01*
X004634Y003824D01*
X004653Y003764D01*
X004669Y003704D01*
X004681Y003642D01*
X004689Y003581D01*
X004693Y003518D01*
X004693Y003456D01*
X004689Y003393D01*
X004681Y003332D01*
X004669Y003270D01*
X004653Y003210D01*
X004634Y003150D01*
X004610Y003092D01*
X004584Y003036D01*
X004553Y002982D01*
X004519Y002929D01*
X004482Y002879D01*
X004442Y002831D01*
X004399Y002786D01*
X004353Y002743D01*
X004305Y002704D01*
X004254Y002668D01*
X004201Y002635D01*
X004146Y002605D01*
X004089Y002579D01*
X004031Y002557D01*
X003971Y002539D01*
X003911Y002524D01*
X003849Y002513D01*
X003787Y002506D01*
X003725Y002503D01*
X003662Y002504D01*
X003600Y002509D01*
X003538Y002518D01*
X003477Y002531D01*
X003417Y002547D01*
X003358Y002568D01*
X003300Y002592D01*
X003244Y002620D01*
X003190Y002651D01*
X003138Y002685D01*
X003089Y002723D01*
X003041Y002764D01*
X002997Y002808D01*
X002955Y002854D01*
X002917Y002904D01*
X002881Y002955D01*
X002849Y003009D01*
X002821Y003064D01*
X002795Y003121D01*
X002774Y003180D01*
X002757Y003240D01*
X002743Y003301D01*
X002733Y003362D01*
X002727Y003425D01*
X002725Y003487D01*
X003009Y004037D02*
X003409Y004037D01*
X002987Y006247D02*
X002987Y008727D01*
X003932Y008727D01*
X003932Y006247D01*
X002987Y006247D01*
X006009Y002487D02*
X006011Y002539D01*
X006017Y002591D01*
X006027Y002643D01*
X006040Y002693D01*
X006057Y002743D01*
X006078Y002791D01*
X006103Y002837D01*
X006131Y002881D01*
X006162Y002923D01*
X006196Y002963D01*
X006233Y003000D01*
X006273Y003034D01*
X006315Y003065D01*
X006359Y003093D01*
X006405Y003118D01*
X006453Y003139D01*
X006503Y003156D01*
X006553Y003169D01*
X006605Y003179D01*
X006657Y003185D01*
X006709Y003187D01*
X006761Y003185D01*
X006813Y003179D01*
X006865Y003169D01*
X006915Y003156D01*
X006965Y003139D01*
X007013Y003118D01*
X007059Y003093D01*
X007103Y003065D01*
X007145Y003034D01*
X007185Y003000D01*
X007222Y002963D01*
X007256Y002923D01*
X007287Y002881D01*
X007315Y002837D01*
X007340Y002791D01*
X007361Y002743D01*
X007378Y002693D01*
X007391Y002643D01*
X007401Y002591D01*
X007407Y002539D01*
X007409Y002487D01*
X007407Y002435D01*
X007401Y002383D01*
X007391Y002331D01*
X007378Y002281D01*
X007361Y002231D01*
X007340Y002183D01*
X007315Y002137D01*
X007287Y002093D01*
X007256Y002051D01*
X007222Y002011D01*
X007185Y001974D01*
X007145Y001940D01*
X007103Y001909D01*
X007059Y001881D01*
X007013Y001856D01*
X006965Y001835D01*
X006915Y001818D01*
X006865Y001805D01*
X006813Y001795D01*
X006761Y001789D01*
X006709Y001787D01*
X006657Y001789D01*
X006605Y001795D01*
X006553Y001805D01*
X006503Y001818D01*
X006453Y001835D01*
X006405Y001856D01*
X006359Y001881D01*
X006315Y001909D01*
X006273Y001940D01*
X006233Y001974D01*
X006196Y002011D01*
X006162Y002051D01*
X006131Y002093D01*
X006103Y002137D01*
X006078Y002183D01*
X006057Y002231D01*
X006040Y002281D01*
X006027Y002331D01*
X006017Y002383D01*
X006011Y002435D01*
X006009Y002487D01*
X006309Y001287D02*
X007102Y001287D01*
X007909Y001637D02*
X007909Y003337D01*
X005009Y014304D02*
X004259Y015603D01*
D15*
X004271Y015645D02*
X004235Y015563D01*
X004236Y015563D02*
X004172Y015588D01*
X004107Y015609D01*
X004041Y015626D01*
X003974Y015640D01*
X003907Y015650D01*
X003839Y015656D01*
X003770Y015658D01*
X003702Y015656D01*
X003634Y015651D01*
X003566Y015641D01*
X003499Y015628D01*
X003433Y015611D01*
X003368Y015590D01*
X003304Y015566D01*
X003242Y015538D01*
X003182Y015506D01*
X003123Y015471D01*
X003066Y015433D01*
X003012Y015392D01*
X002960Y015348D01*
X002910Y015300D01*
X002864Y015251D01*
X002820Y015198D01*
X002779Y015143D01*
X002742Y015086D01*
X002708Y015027D01*
X002677Y014966D01*
X002649Y014904D01*
X002626Y014840D01*
X002606Y014774D01*
X002589Y014708D01*
X002577Y014641D01*
X002568Y014573D01*
X002563Y014505D01*
X002562Y014437D01*
X002565Y014369D01*
X002572Y014301D01*
X002582Y014233D01*
X002597Y014166D01*
X002615Y014100D01*
X002637Y014036D01*
X002662Y013972D01*
X002691Y013911D01*
X002723Y013851D01*
X002759Y013792D01*
X002798Y013736D01*
X002840Y013683D01*
X002886Y013631D01*
X002934Y013583D01*
X002984Y013537D01*
X003037Y013494D01*
X003093Y013454D01*
X003150Y013418D01*
X003210Y013384D01*
X003272Y013355D01*
X003335Y013328D01*
X003399Y013306D01*
X003465Y013287D01*
X003531Y013271D01*
X003598Y013260D01*
X003666Y013252D01*
X003735Y013248D01*
X003803Y013249D01*
X003871Y013252D01*
X003939Y013260D01*
X004006Y013272D01*
X004073Y013287D01*
X004138Y013307D01*
X004203Y013329D01*
X004265Y013356D01*
X004327Y013386D01*
X004386Y013419D01*
X004444Y013456D01*
X004499Y013496D01*
X004552Y013539D01*
X004603Y013585D01*
X004651Y013634D01*
X004696Y013685D01*
X004738Y013739D01*
X004777Y013795D01*
X004812Y013853D01*
X004845Y013914D01*
X004873Y013975D01*
X004899Y014039D01*
X004920Y014104D01*
X004938Y014170D01*
X004952Y014236D01*
X004963Y014304D01*
X005052Y014294D01*
X005052Y014293D01*
X005041Y014223D01*
X005027Y014153D01*
X005009Y014085D01*
X004987Y014017D01*
X004961Y013951D01*
X004932Y013887D01*
X004899Y013824D01*
X004863Y013763D01*
X004823Y013704D01*
X004780Y013647D01*
X004735Y013593D01*
X004686Y013541D01*
X004635Y013492D01*
X004581Y013446D01*
X004524Y013403D01*
X004466Y013363D01*
X004405Y013326D01*
X004342Y013293D01*
X004278Y013263D01*
X004212Y013237D01*
X004145Y013214D01*
X004076Y013195D01*
X004007Y013180D01*
X003937Y013169D01*
X003866Y013162D01*
X003795Y013158D01*
X003724Y013159D01*
X003653Y013163D01*
X003583Y013171D01*
X003513Y013183D01*
X003444Y013199D01*
X003375Y013219D01*
X003308Y013242D01*
X003243Y013269D01*
X003179Y013299D01*
X003116Y013333D01*
X003056Y013371D01*
X002998Y013411D01*
X002942Y013455D01*
X002888Y013502D01*
X002838Y013551D01*
X002790Y013604D01*
X002744Y013658D01*
X002702Y013716D01*
X002664Y013775D01*
X002628Y013836D01*
X002596Y013900D01*
X002568Y013965D01*
X002543Y014031D01*
X002521Y014099D01*
X002504Y014168D01*
X002490Y014237D01*
X002480Y014308D01*
X002474Y014378D01*
X002472Y014449D01*
X002474Y014520D01*
X002479Y014591D01*
X002489Y014661D01*
X002502Y014731D01*
X002519Y014800D01*
X002540Y014868D01*
X002565Y014934D01*
X002593Y015000D01*
X002625Y015063D01*
X002660Y015125D01*
X002698Y015184D01*
X002740Y015242D01*
X002785Y015297D01*
X002832Y015349D01*
X002883Y015399D01*
X002936Y015446D01*
X002992Y015490D01*
X003050Y015531D01*
X003110Y015569D01*
X003172Y015603D01*
X003236Y015634D01*
X003302Y015661D01*
X003368Y015685D01*
X003437Y015705D01*
X003506Y015721D01*
X003576Y015734D01*
X003646Y015742D01*
X003717Y015747D01*
X003788Y015748D01*
X003859Y015745D01*
X003929Y015738D01*
X004000Y015727D01*
X004069Y015712D01*
X004138Y015694D01*
X004205Y015672D01*
X004271Y015646D01*
X004268Y015638D01*
X004201Y015663D01*
X004133Y015686D01*
X004065Y015704D01*
X003995Y015719D01*
X003924Y015729D01*
X003853Y015736D01*
X003782Y015739D01*
X003711Y015738D01*
X003640Y015733D01*
X003569Y015724D01*
X003499Y015711D01*
X003430Y015694D01*
X003362Y015673D01*
X003295Y015649D01*
X003229Y015621D01*
X003165Y015589D01*
X003103Y015554D01*
X003043Y015516D01*
X002985Y015474D01*
X002930Y015429D01*
X002877Y015381D01*
X002827Y015331D01*
X002780Y015277D01*
X002736Y015221D01*
X002695Y015163D01*
X002657Y015103D01*
X002623Y015040D01*
X002592Y014976D01*
X002565Y014910D01*
X002541Y014843D01*
X002522Y014774D01*
X002506Y014705D01*
X002494Y014634D01*
X002486Y014564D01*
X002482Y014492D01*
X002481Y014421D01*
X002485Y014350D01*
X002493Y014279D01*
X002504Y014209D01*
X002520Y014139D01*
X002539Y014071D01*
X002562Y014003D01*
X002589Y013937D01*
X002619Y013873D01*
X002653Y013810D01*
X002691Y013749D01*
X002731Y013691D01*
X002775Y013635D01*
X002822Y013581D01*
X002872Y013530D01*
X002924Y013482D01*
X002979Y013436D01*
X003037Y013394D01*
X003097Y013356D01*
X003158Y013320D01*
X003222Y013288D01*
X003288Y013260D01*
X003354Y013235D01*
X003422Y013214D01*
X003492Y013197D01*
X003562Y013184D01*
X003632Y013174D01*
X003703Y013169D01*
X003775Y013167D01*
X003846Y013169D01*
X003917Y013176D01*
X003987Y013186D01*
X004057Y013200D01*
X004126Y013218D01*
X004194Y013240D01*
X004261Y013265D01*
X004326Y013295D01*
X004389Y013327D01*
X004450Y013364D01*
X004510Y013403D01*
X004567Y013446D01*
X004621Y013492D01*
X004673Y013540D01*
X004722Y013592D01*
X004769Y013646D01*
X004812Y013703D01*
X004852Y013762D01*
X004888Y013823D01*
X004921Y013886D01*
X004951Y013951D01*
X004977Y014017D01*
X004999Y014085D01*
X005018Y014154D01*
X005032Y014224D01*
X005043Y014294D01*
X005034Y014295D01*
X005024Y014225D01*
X005009Y014156D01*
X004991Y014088D01*
X004969Y014020D01*
X004943Y013955D01*
X004913Y013890D01*
X004880Y013828D01*
X004844Y013767D01*
X004804Y013708D01*
X004762Y013652D01*
X004716Y013598D01*
X004667Y013547D01*
X004615Y013498D01*
X004561Y013453D01*
X004504Y013410D01*
X004445Y013371D01*
X004385Y013335D01*
X004322Y013303D01*
X004257Y013274D01*
X004191Y013248D01*
X004124Y013227D01*
X004055Y013209D01*
X003986Y013195D01*
X003916Y013185D01*
X003845Y013178D01*
X003775Y013176D01*
X003704Y013178D01*
X003633Y013183D01*
X003563Y013192D01*
X003494Y013206D01*
X003425Y013223D01*
X003357Y013244D01*
X003291Y013268D01*
X003226Y013296D01*
X003163Y013328D01*
X003101Y013363D01*
X003042Y013402D01*
X002985Y013444D01*
X002930Y013488D01*
X002878Y013536D01*
X002829Y013587D01*
X002782Y013640D01*
X002739Y013696D01*
X002698Y013754D01*
X002661Y013815D01*
X002627Y013877D01*
X002597Y013941D01*
X002571Y014006D01*
X002548Y014073D01*
X002529Y014141D01*
X002513Y014211D01*
X002502Y014280D01*
X002494Y014351D01*
X002490Y014421D01*
X002491Y014492D01*
X002495Y014563D01*
X002503Y014633D01*
X002515Y014703D01*
X002530Y014772D01*
X002550Y014840D01*
X002573Y014907D01*
X002600Y014972D01*
X002631Y015036D01*
X002665Y015098D01*
X002702Y015158D01*
X002743Y015216D01*
X002787Y015272D01*
X002834Y015325D01*
X002883Y015375D01*
X002936Y015422D01*
X002991Y015467D01*
X003048Y015508D01*
X003108Y015547D01*
X003169Y015582D01*
X003233Y015613D01*
X003298Y015641D01*
X003364Y015665D01*
X003432Y015685D01*
X003501Y015702D01*
X003571Y015715D01*
X003641Y015724D01*
X003711Y015729D01*
X003782Y015730D01*
X003853Y015727D01*
X003923Y015720D01*
X003993Y015710D01*
X004062Y015695D01*
X004131Y015677D01*
X004198Y015655D01*
X004264Y015629D01*
X004260Y015621D01*
X004194Y015647D01*
X004127Y015669D01*
X004058Y015687D01*
X003988Y015702D01*
X003918Y015712D01*
X003847Y015718D01*
X003776Y015721D01*
X003705Y015720D01*
X003635Y015714D01*
X003564Y015705D01*
X003494Y015691D01*
X003425Y015674D01*
X003357Y015653D01*
X003291Y015628D01*
X003226Y015600D01*
X003162Y015568D01*
X003101Y015532D01*
X003042Y015493D01*
X002984Y015451D01*
X002930Y015405D01*
X002878Y015357D01*
X002828Y015306D01*
X002782Y015252D01*
X002739Y015195D01*
X002699Y015137D01*
X002662Y015076D01*
X002629Y015013D01*
X002600Y014948D01*
X002574Y014882D01*
X002552Y014814D01*
X002533Y014746D01*
X002519Y014676D01*
X002508Y014606D01*
X002502Y014535D01*
X002499Y014464D01*
X002500Y014393D01*
X002506Y014322D01*
X002515Y014252D01*
X002528Y014182D01*
X002545Y014113D01*
X002566Y014045D01*
X002591Y013979D01*
X002620Y013913D01*
X002652Y013850D01*
X002687Y013788D01*
X002726Y013729D01*
X002768Y013672D01*
X002814Y013617D01*
X002862Y013565D01*
X002913Y013516D01*
X002967Y013469D01*
X003023Y013426D01*
X003082Y013386D01*
X003143Y013349D01*
X003206Y013316D01*
X003270Y013286D01*
X003336Y013260D01*
X003404Y013238D01*
X003472Y013220D01*
X003542Y013205D01*
X003612Y013194D01*
X003683Y013188D01*
X003754Y013185D01*
X003825Y013186D01*
X003896Y013192D01*
X003966Y013201D01*
X004036Y013214D01*
X004105Y013231D01*
X004173Y013252D01*
X004240Y013276D01*
X004305Y013305D01*
X004368Y013337D01*
X004430Y013372D01*
X004489Y013411D01*
X004547Y013453D01*
X004601Y013498D01*
X004654Y013547D01*
X004703Y013598D01*
X004750Y013651D01*
X004793Y013708D01*
X004833Y013766D01*
X004870Y013827D01*
X004903Y013890D01*
X004933Y013954D01*
X004959Y014021D01*
X004981Y014088D01*
X005000Y014157D01*
X005015Y014226D01*
X005025Y014296D01*
X005016Y014297D01*
X005006Y014228D01*
X004991Y014159D01*
X004973Y014091D01*
X004951Y014024D01*
X004925Y013958D01*
X004895Y013894D01*
X004862Y013832D01*
X004825Y013771D01*
X004786Y013713D01*
X004743Y013657D01*
X004696Y013604D01*
X004647Y013553D01*
X004596Y013505D01*
X004541Y013460D01*
X004484Y013418D01*
X004425Y013380D01*
X004364Y013345D01*
X004301Y013313D01*
X004236Y013285D01*
X004170Y013260D01*
X004103Y013240D01*
X004034Y013223D01*
X003965Y013210D01*
X003895Y013201D01*
X003825Y013195D01*
X003754Y013194D01*
X003684Y013197D01*
X003613Y013203D01*
X003544Y013214D01*
X003474Y013228D01*
X003406Y013247D01*
X003339Y013269D01*
X003274Y013295D01*
X003210Y013324D01*
X003147Y013357D01*
X003087Y013394D01*
X003028Y013433D01*
X002973Y013476D01*
X002919Y013522D01*
X002868Y013571D01*
X002820Y013623D01*
X002775Y013677D01*
X002733Y013734D01*
X002695Y013793D01*
X002659Y013854D01*
X002628Y013917D01*
X002599Y013982D01*
X002575Y014048D01*
X002554Y014116D01*
X002537Y014184D01*
X002524Y014253D01*
X002515Y014323D01*
X002509Y014394D01*
X002508Y014464D01*
X002511Y014535D01*
X002517Y014605D01*
X002528Y014675D01*
X002542Y014744D01*
X002560Y014812D01*
X002582Y014879D01*
X002608Y014945D01*
X002637Y015009D01*
X002670Y015071D01*
X002707Y015132D01*
X002746Y015190D01*
X002789Y015246D01*
X002835Y015300D01*
X002884Y015350D01*
X002936Y015399D01*
X002990Y015444D01*
X003047Y015486D01*
X003106Y015524D01*
X003167Y015560D01*
X003230Y015592D01*
X003294Y015620D01*
X003360Y015645D01*
X003428Y015665D01*
X003496Y015683D01*
X003565Y015696D01*
X003635Y015705D01*
X003706Y015711D01*
X003776Y015712D01*
X003847Y015709D01*
X003917Y015703D01*
X003987Y015693D01*
X004056Y015678D01*
X004124Y015660D01*
X004191Y015638D01*
X004257Y015613D01*
X004253Y015604D01*
X004188Y015630D01*
X004122Y015652D01*
X004054Y015670D01*
X003985Y015684D01*
X003916Y015694D01*
X003846Y015700D01*
X003776Y015703D01*
X003706Y015702D01*
X003636Y015696D01*
X003567Y015687D01*
X003498Y015674D01*
X003430Y015657D01*
X003363Y015636D01*
X003298Y015612D01*
X003233Y015583D01*
X003171Y015552D01*
X003110Y015517D01*
X003052Y015478D01*
X002995Y015436D01*
X002942Y015392D01*
X002890Y015344D01*
X002842Y015294D01*
X002796Y015240D01*
X002754Y015185D01*
X002714Y015127D01*
X002678Y015067D01*
X002645Y015005D01*
X002616Y014941D01*
X002591Y014876D01*
X002569Y014809D01*
X002551Y014742D01*
X002537Y014673D01*
X002526Y014604D01*
X002520Y014534D01*
X002517Y014464D01*
X002518Y014394D01*
X002524Y014324D01*
X002533Y014255D01*
X002546Y014186D01*
X002563Y014118D01*
X002583Y014051D01*
X002608Y013985D01*
X002636Y013921D01*
X002667Y013859D01*
X002702Y013798D01*
X002741Y013739D01*
X002782Y013683D01*
X002827Y013629D01*
X002875Y013578D01*
X002925Y013529D01*
X002978Y013483D01*
X003034Y013441D01*
X003092Y013401D01*
X003152Y013365D01*
X003214Y013332D01*
X003277Y013303D01*
X003342Y013277D01*
X003409Y013255D01*
X003477Y013237D01*
X003545Y013223D01*
X003614Y013212D01*
X003684Y013206D01*
X003754Y013203D01*
X003824Y013204D01*
X003894Y013209D01*
X003963Y013219D01*
X004032Y013231D01*
X004100Y013248D01*
X004167Y013269D01*
X004233Y013293D01*
X004297Y013321D01*
X004360Y013353D01*
X004421Y013387D01*
X004479Y013426D01*
X004536Y013467D01*
X004590Y013512D01*
X004641Y013559D01*
X004690Y013610D01*
X004736Y013663D01*
X004778Y013718D01*
X004818Y013776D01*
X004854Y013836D01*
X004887Y013898D01*
X004916Y013961D01*
X004942Y014027D01*
X004964Y014093D01*
X004982Y014161D01*
X004997Y014229D01*
X005007Y014299D01*
X004998Y014300D01*
X004988Y014231D01*
X004974Y014163D01*
X004955Y014096D01*
X004934Y014030D01*
X004908Y013965D01*
X004879Y013902D01*
X004846Y013840D01*
X004810Y013781D01*
X004771Y013724D01*
X004729Y013668D01*
X004683Y013616D01*
X004635Y013566D01*
X004584Y013519D01*
X004530Y013474D01*
X004474Y013433D01*
X004416Y013395D01*
X004356Y013360D01*
X004293Y013329D01*
X004230Y013301D01*
X004164Y013277D01*
X004098Y013257D01*
X004030Y013240D01*
X003962Y013227D01*
X003893Y013218D01*
X003824Y013213D01*
X003754Y013212D01*
X003685Y013215D01*
X003615Y013221D01*
X003547Y013232D01*
X003479Y013246D01*
X003411Y013264D01*
X003345Y013286D01*
X003281Y013311D01*
X003217Y013340D01*
X003156Y013373D01*
X003096Y013409D01*
X003039Y013448D01*
X002984Y013490D01*
X002931Y013536D01*
X002881Y013584D01*
X002834Y013635D01*
X002789Y013688D01*
X002748Y013744D01*
X002710Y013803D01*
X002675Y013863D01*
X002644Y013925D01*
X002616Y013989D01*
X002592Y014054D01*
X002571Y014120D01*
X002555Y014188D01*
X002542Y014256D01*
X002533Y014325D01*
X002527Y014394D01*
X002526Y014464D01*
X002529Y014533D01*
X002535Y014603D01*
X002545Y014671D01*
X002560Y014740D01*
X002577Y014807D01*
X002599Y014873D01*
X002625Y014938D01*
X002653Y015001D01*
X002686Y015062D01*
X002722Y015122D01*
X002761Y015179D01*
X002803Y015235D01*
X002848Y015287D01*
X002897Y015338D01*
X002948Y015385D01*
X003001Y015429D01*
X003057Y015471D01*
X003115Y015509D01*
X003175Y015544D01*
X003237Y015575D01*
X003301Y015603D01*
X003366Y015627D01*
X003433Y015648D01*
X003500Y015665D01*
X003568Y015678D01*
X003637Y015687D01*
X003707Y015693D01*
X003776Y015694D01*
X003846Y015692D01*
X003915Y015685D01*
X003984Y015675D01*
X004052Y015661D01*
X004119Y015643D01*
X004185Y015621D01*
X004250Y015596D01*
X004246Y015588D01*
X004182Y015613D01*
X004116Y015634D01*
X004050Y015652D01*
X003982Y015666D01*
X003914Y015676D01*
X003845Y015683D01*
X003776Y015685D01*
X003707Y015684D01*
X003638Y015678D01*
X003570Y015669D01*
X003502Y015656D01*
X003435Y015639D01*
X003369Y015619D01*
X003304Y015595D01*
X003241Y015567D01*
X003179Y015536D01*
X003120Y015501D01*
X003062Y015463D01*
X003007Y015422D01*
X002953Y015378D01*
X002903Y015331D01*
X002855Y015281D01*
X002810Y015229D01*
X002768Y015174D01*
X002729Y015117D01*
X002694Y015058D01*
X002662Y014997D01*
X002633Y014934D01*
X002608Y014870D01*
X002586Y014804D01*
X002568Y014737D01*
X002554Y014670D01*
X002544Y014602D01*
X002538Y014533D01*
X002535Y014464D01*
X002536Y014395D01*
X002542Y014326D01*
X002551Y014258D01*
X002563Y014190D01*
X002580Y014123D01*
X002600Y014057D01*
X002624Y013992D01*
X002652Y013929D01*
X002683Y013867D01*
X002718Y013807D01*
X002756Y013750D01*
X002797Y013694D01*
X002841Y013641D01*
X002888Y013590D01*
X002937Y013542D01*
X002990Y013497D01*
X003044Y013455D01*
X003101Y013416D01*
X003160Y013381D01*
X003221Y013348D01*
X003284Y013320D01*
X003348Y013294D01*
X003414Y013273D01*
X003481Y013255D01*
X003548Y013241D01*
X003617Y013230D01*
X003685Y013224D01*
X003754Y013221D01*
X003823Y013222D01*
X003892Y013227D01*
X003961Y013236D01*
X004028Y013249D01*
X004095Y013266D01*
X004161Y013286D01*
X004226Y013310D01*
X004290Y013337D01*
X004351Y013368D01*
X004411Y013403D01*
X004469Y013440D01*
X004524Y013481D01*
X004578Y013525D01*
X004628Y013572D01*
X004676Y013622D01*
X004722Y013674D01*
X004764Y013729D01*
X004803Y013786D01*
X004838Y013845D01*
X004871Y013906D01*
X004900Y013968D01*
X004925Y014033D01*
X004947Y014098D01*
X004965Y014165D01*
X004979Y014232D01*
X004990Y014301D01*
X004981Y014302D01*
X004970Y014233D01*
X004956Y014165D01*
X004938Y014099D01*
X004916Y014033D01*
X004890Y013968D01*
X004861Y013906D01*
X004828Y013845D01*
X004792Y013785D01*
X004752Y013728D01*
X004710Y013674D01*
X004664Y013622D01*
X004615Y013572D01*
X004564Y013525D01*
X004510Y013482D01*
X004454Y013441D01*
X004396Y013404D01*
X004335Y013370D01*
X004273Y013340D01*
X004209Y013313D01*
X004144Y013289D01*
X004077Y013270D01*
X004010Y013254D01*
X003941Y013243D01*
X003873Y013235D01*
X003803Y013231D01*
X003734Y013230D01*
X003665Y013234D01*
X003596Y013242D01*
X003528Y013254D01*
X003460Y013269D01*
X003394Y013288D01*
X003328Y013311D01*
X003264Y013338D01*
X003202Y013368D01*
X003141Y013402D01*
X003083Y013439D01*
X003026Y013480D01*
X002972Y013523D01*
X002921Y013570D01*
X002872Y013619D01*
X002827Y013671D01*
X002784Y013726D01*
X002744Y013782D01*
X002708Y013842D01*
X002675Y013902D01*
X002645Y013965D01*
X002620Y014030D01*
X002597Y014095D01*
X002579Y014162D01*
X002565Y014230D01*
X002554Y014298D01*
X002547Y014367D01*
X002544Y014437D01*
X002545Y014506D01*
X002550Y014575D01*
X002559Y014644D01*
X002572Y014712D01*
X002588Y014779D01*
X002609Y014845D01*
X002633Y014910D01*
X002660Y014974D01*
X002692Y015036D01*
X002727Y015096D01*
X002765Y015154D01*
X002806Y015209D01*
X002850Y015263D01*
X002898Y015313D01*
X002948Y015361D01*
X003001Y015406D01*
X003056Y015448D01*
X003113Y015487D01*
X003173Y015522D01*
X003234Y015554D01*
X003298Y015582D01*
X003362Y015607D01*
X003428Y015628D01*
X003495Y015645D01*
X003563Y015659D01*
X003632Y015669D01*
X003701Y015674D01*
X003770Y015676D01*
X003840Y015674D01*
X003909Y015668D01*
X003977Y015658D01*
X004045Y015644D01*
X004112Y015626D01*
X004178Y015605D01*
X004243Y015580D01*
X004239Y015571D01*
X004175Y015596D01*
X004110Y015618D01*
X004043Y015635D01*
X003976Y015649D01*
X003908Y015659D01*
X003839Y015665D01*
X003770Y015667D01*
X003702Y015665D01*
X003633Y015660D01*
X003565Y015650D01*
X003497Y015637D01*
X003431Y015620D01*
X003365Y015599D01*
X003301Y015574D01*
X003238Y015546D01*
X003177Y015514D01*
X003118Y015479D01*
X003061Y015441D01*
X003006Y015399D01*
X002954Y015354D01*
X002904Y015307D01*
X002857Y015257D01*
X002813Y015204D01*
X002772Y015148D01*
X002734Y015091D01*
X002700Y015031D01*
X002669Y014970D01*
X002641Y014907D01*
X002617Y014843D01*
X002597Y014777D01*
X002581Y014710D01*
X002568Y014642D01*
X002559Y014574D01*
X002554Y014505D01*
X002553Y014437D01*
X002556Y014368D01*
X002563Y014299D01*
X002573Y014231D01*
X002588Y014164D01*
X002606Y014098D01*
X002628Y014033D01*
X002654Y013969D01*
X002683Y013907D01*
X002716Y013846D01*
X002752Y013787D01*
X002791Y013731D01*
X002834Y013677D01*
X002879Y013625D01*
X002927Y013576D01*
X002978Y013530D01*
X003032Y013487D01*
X003088Y013447D01*
X003146Y013410D01*
X003206Y013376D01*
X003268Y013346D01*
X003331Y013320D01*
X003396Y013297D01*
X003462Y013278D01*
X003529Y013262D01*
X003597Y013251D01*
X003666Y013243D01*
X003734Y013239D01*
X003803Y013240D01*
X003872Y013244D01*
X003940Y013251D01*
X004008Y013263D01*
X004075Y013279D01*
X004141Y013298D01*
X004206Y013321D01*
X004269Y013348D01*
X004331Y013378D01*
X004391Y013412D01*
X004449Y013449D01*
X004505Y013489D01*
X004558Y013532D01*
X004609Y013579D01*
X004657Y013628D01*
X004703Y013679D01*
X004745Y013734D01*
X004784Y013790D01*
X004820Y013849D01*
X004853Y013910D01*
X004882Y013972D01*
X004907Y014036D01*
X004929Y014101D01*
X004947Y014168D01*
X004961Y014235D01*
X004972Y014303D01*
X007741Y015267D02*
X007669Y015213D01*
X007670Y015214D02*
X007627Y015267D01*
X007582Y015318D01*
X007533Y015366D01*
X007482Y015411D01*
X007428Y015454D01*
X007372Y015493D01*
X007314Y015529D01*
X007254Y015562D01*
X007193Y015591D01*
X007129Y015616D01*
X007065Y015638D01*
X006999Y015657D01*
X006932Y015671D01*
X006865Y015682D01*
X006797Y015689D01*
X006729Y015692D01*
X006660Y015691D01*
X006592Y015686D01*
X006524Y015678D01*
X006457Y015665D01*
X006391Y015649D01*
X006326Y015629D01*
X006261Y015606D01*
X006199Y015579D01*
X006138Y015548D01*
X006079Y015514D01*
X006021Y015477D01*
X005966Y015436D01*
X005914Y015392D01*
X005864Y015346D01*
X005817Y015297D01*
X005772Y015245D01*
X005731Y015191D01*
X005692Y015134D01*
X005657Y015075D01*
X005626Y015015D01*
X005598Y014953D01*
X005573Y014889D01*
X005552Y014824D01*
X005535Y014758D01*
X005521Y014691D01*
X005512Y014623D01*
X005506Y014555D01*
X005504Y014487D01*
X005506Y014419D01*
X005512Y014351D01*
X005521Y014283D01*
X005535Y014216D01*
X005552Y014150D01*
X005573Y014085D01*
X005598Y014021D01*
X005626Y013959D01*
X005657Y013899D01*
X005692Y013840D01*
X005731Y013783D01*
X005772Y013729D01*
X005817Y013677D01*
X005864Y013628D01*
X005914Y013582D01*
X005966Y013538D01*
X006021Y013497D01*
X006079Y013460D01*
X006138Y013426D01*
X006199Y013395D01*
X006261Y013368D01*
X006326Y013345D01*
X006391Y013325D01*
X006457Y013309D01*
X006524Y013296D01*
X006592Y013288D01*
X006660Y013283D01*
X006729Y013282D01*
X006797Y013285D01*
X006865Y013292D01*
X006932Y013303D01*
X006999Y013317D01*
X007065Y013336D01*
X007129Y013358D01*
X007193Y013383D01*
X007254Y013412D01*
X007314Y013445D01*
X007372Y013481D01*
X007428Y013520D01*
X007482Y013563D01*
X007533Y013608D01*
X007582Y013656D01*
X007627Y013707D01*
X007670Y013760D01*
X007741Y013707D01*
X007742Y013706D01*
X007698Y013651D01*
X007650Y013598D01*
X007600Y013547D01*
X007547Y013500D01*
X007492Y013456D01*
X007434Y013414D01*
X007374Y013376D01*
X007313Y013341D01*
X007249Y013310D01*
X007184Y013282D01*
X007117Y013258D01*
X007049Y013237D01*
X006980Y013221D01*
X006910Y013208D01*
X006840Y013199D01*
X006769Y013193D01*
X006698Y013192D01*
X006627Y013195D01*
X006556Y013201D01*
X006486Y013211D01*
X006417Y013225D01*
X006348Y013243D01*
X006280Y013265D01*
X006214Y013290D01*
X006149Y013319D01*
X006086Y013352D01*
X006025Y013388D01*
X005966Y013427D01*
X005909Y013469D01*
X005854Y013514D01*
X005802Y013563D01*
X005753Y013614D01*
X005706Y013667D01*
X005663Y013724D01*
X005623Y013782D01*
X005586Y013843D01*
X005552Y013905D01*
X005522Y013969D01*
X005495Y014035D01*
X005472Y014102D01*
X005453Y014171D01*
X005438Y014240D01*
X005426Y014310D01*
X005418Y014381D01*
X005414Y014452D01*
X005414Y014522D01*
X005418Y014593D01*
X005426Y014664D01*
X005438Y014734D01*
X005453Y014803D01*
X005472Y014872D01*
X005495Y014939D01*
X005522Y015005D01*
X005552Y015069D01*
X005586Y015131D01*
X005623Y015192D01*
X005663Y015250D01*
X005706Y015307D01*
X005753Y015360D01*
X005802Y015411D01*
X005854Y015460D01*
X005909Y015505D01*
X005966Y015547D01*
X006025Y015586D01*
X006086Y015622D01*
X006149Y015655D01*
X006214Y015684D01*
X006280Y015709D01*
X006348Y015731D01*
X006417Y015749D01*
X006486Y015763D01*
X006556Y015773D01*
X006627Y015779D01*
X006698Y015782D01*
X006769Y015781D01*
X006840Y015775D01*
X006910Y015766D01*
X006980Y015753D01*
X007049Y015737D01*
X007117Y015716D01*
X007184Y015692D01*
X007249Y015664D01*
X007313Y015633D01*
X007374Y015598D01*
X007434Y015560D01*
X007492Y015518D01*
X007547Y015474D01*
X007600Y015427D01*
X007650Y015376D01*
X007698Y015323D01*
X007742Y015268D01*
X007735Y015263D01*
X007690Y015318D01*
X007643Y015371D01*
X007592Y015422D01*
X007539Y015469D01*
X007483Y015514D01*
X007425Y015555D01*
X007365Y015593D01*
X007303Y015628D01*
X007239Y015659D01*
X007173Y015686D01*
X007106Y015710D01*
X007037Y015730D01*
X006968Y015747D01*
X006898Y015759D01*
X006827Y015768D01*
X006756Y015772D01*
X006685Y015773D01*
X006614Y015769D01*
X006543Y015762D01*
X006472Y015751D01*
X006403Y015736D01*
X006334Y015717D01*
X006266Y015694D01*
X006200Y015668D01*
X006135Y015638D01*
X006073Y015604D01*
X006012Y015568D01*
X005953Y015527D01*
X005896Y015484D01*
X005842Y015437D01*
X005791Y015388D01*
X005743Y015335D01*
X005697Y015281D01*
X005655Y015223D01*
X005616Y015164D01*
X005580Y015102D01*
X005547Y015039D01*
X005519Y014974D01*
X005493Y014907D01*
X005472Y014839D01*
X005454Y014770D01*
X005441Y014700D01*
X005431Y014629D01*
X005425Y014558D01*
X005423Y014487D01*
X005425Y014416D01*
X005431Y014345D01*
X005441Y014274D01*
X005454Y014204D01*
X005472Y014135D01*
X005493Y014067D01*
X005519Y014000D01*
X005547Y013935D01*
X005580Y013872D01*
X005616Y013810D01*
X005655Y013751D01*
X005697Y013693D01*
X005743Y013639D01*
X005791Y013586D01*
X005842Y013537D01*
X005896Y013490D01*
X005953Y013447D01*
X006012Y013406D01*
X006073Y013370D01*
X006135Y013336D01*
X006200Y013306D01*
X006266Y013280D01*
X006334Y013257D01*
X006403Y013238D01*
X006472Y013223D01*
X006543Y013212D01*
X006614Y013205D01*
X006685Y013201D01*
X006756Y013202D01*
X006827Y013206D01*
X006898Y013215D01*
X006968Y013227D01*
X007037Y013244D01*
X007106Y013264D01*
X007173Y013288D01*
X007239Y013315D01*
X007303Y013346D01*
X007365Y013381D01*
X007425Y013419D01*
X007483Y013460D01*
X007539Y013505D01*
X007592Y013552D01*
X007643Y013603D01*
X007690Y013656D01*
X007735Y013711D01*
X007728Y013717D01*
X007683Y013662D01*
X007636Y013609D01*
X007586Y013559D01*
X007533Y013512D01*
X007478Y013468D01*
X007420Y013426D01*
X007361Y013389D01*
X007299Y013354D01*
X007235Y013323D01*
X007170Y013296D01*
X007103Y013272D01*
X007035Y013252D01*
X006966Y013236D01*
X006897Y013224D01*
X006826Y013215D01*
X006756Y013211D01*
X006685Y013210D01*
X006614Y013214D01*
X006544Y013221D01*
X006474Y013232D01*
X006405Y013247D01*
X006337Y013266D01*
X006269Y013288D01*
X006204Y013314D01*
X006139Y013344D01*
X006077Y013377D01*
X006017Y013414D01*
X005958Y013454D01*
X005902Y013497D01*
X005848Y013543D01*
X005798Y013593D01*
X005749Y013644D01*
X005704Y013699D01*
X005662Y013756D01*
X005623Y013815D01*
X005588Y013876D01*
X005555Y013939D01*
X005527Y014004D01*
X005502Y014070D01*
X005481Y014138D01*
X005463Y014206D01*
X005450Y014276D01*
X005440Y014346D01*
X005434Y014416D01*
X005432Y014487D01*
X005434Y014558D01*
X005440Y014628D01*
X005450Y014698D01*
X005463Y014768D01*
X005481Y014836D01*
X005502Y014904D01*
X005527Y014970D01*
X005555Y015035D01*
X005588Y015098D01*
X005623Y015159D01*
X005662Y015218D01*
X005704Y015275D01*
X005749Y015330D01*
X005798Y015381D01*
X005848Y015431D01*
X005902Y015477D01*
X005958Y015520D01*
X006017Y015560D01*
X006077Y015597D01*
X006139Y015630D01*
X006204Y015660D01*
X006269Y015686D01*
X006337Y015708D01*
X006405Y015727D01*
X006474Y015742D01*
X006544Y015753D01*
X006614Y015760D01*
X006685Y015764D01*
X006756Y015763D01*
X006826Y015759D01*
X006897Y015750D01*
X006966Y015738D01*
X007035Y015722D01*
X007103Y015702D01*
X007170Y015678D01*
X007235Y015651D01*
X007299Y015620D01*
X007361Y015585D01*
X007420Y015548D01*
X007478Y015506D01*
X007533Y015462D01*
X007586Y015415D01*
X007636Y015365D01*
X007683Y015312D01*
X007728Y015257D01*
X007720Y015252D01*
X007676Y015307D01*
X007628Y015360D01*
X007578Y015410D01*
X007525Y015458D01*
X007469Y015502D01*
X007411Y015543D01*
X007351Y015580D01*
X007289Y015615D01*
X007225Y015645D01*
X007159Y015672D01*
X007092Y015696D01*
X007024Y015715D01*
X006954Y015731D01*
X006884Y015743D01*
X006814Y015751D01*
X006743Y015755D01*
X006672Y015754D01*
X006601Y015750D01*
X006530Y015742D01*
X006460Y015730D01*
X006391Y015714D01*
X006323Y015695D01*
X006255Y015671D01*
X006190Y015644D01*
X006126Y015613D01*
X006064Y015579D01*
X006004Y015541D01*
X005946Y015499D01*
X005890Y015455D01*
X005837Y015408D01*
X005787Y015357D01*
X005740Y015304D01*
X005695Y015249D01*
X005654Y015191D01*
X005617Y015131D01*
X005582Y015068D01*
X005551Y015004D01*
X005524Y014939D01*
X005501Y014872D01*
X005481Y014803D01*
X005465Y014734D01*
X005453Y014664D01*
X005445Y014593D01*
X005441Y014523D01*
X005441Y014451D01*
X005445Y014381D01*
X005453Y014310D01*
X005465Y014240D01*
X005481Y014171D01*
X005501Y014102D01*
X005524Y014035D01*
X005551Y013970D01*
X005582Y013906D01*
X005617Y013843D01*
X005654Y013783D01*
X005695Y013725D01*
X005740Y013670D01*
X005787Y013617D01*
X005837Y013566D01*
X005890Y013519D01*
X005946Y013475D01*
X006004Y013433D01*
X006064Y013395D01*
X006126Y013361D01*
X006190Y013330D01*
X006255Y013303D01*
X006323Y013279D01*
X006391Y013260D01*
X006460Y013244D01*
X006530Y013232D01*
X006601Y013224D01*
X006672Y013220D01*
X006743Y013219D01*
X006814Y013223D01*
X006884Y013231D01*
X006954Y013243D01*
X007024Y013259D01*
X007092Y013278D01*
X007159Y013302D01*
X007225Y013329D01*
X007289Y013359D01*
X007351Y013394D01*
X007411Y013431D01*
X007469Y013472D01*
X007525Y013516D01*
X007578Y013564D01*
X007628Y013614D01*
X007676Y013667D01*
X007720Y013722D01*
X007713Y013728D01*
X007669Y013673D01*
X007622Y013620D01*
X007572Y013570D01*
X007519Y013523D01*
X007464Y013479D01*
X007406Y013439D01*
X007347Y013401D01*
X007285Y013367D01*
X007221Y013337D01*
X007156Y013310D01*
X007089Y013287D01*
X007021Y013267D01*
X006953Y013252D01*
X006883Y013240D01*
X006813Y013232D01*
X006742Y013228D01*
X006672Y013229D01*
X006601Y013233D01*
X006531Y013241D01*
X006462Y013253D01*
X006393Y013268D01*
X006325Y013288D01*
X006259Y013311D01*
X006194Y013338D01*
X006130Y013369D01*
X006068Y013403D01*
X006009Y013441D01*
X005951Y013482D01*
X005896Y013526D01*
X005843Y013573D01*
X005794Y013623D01*
X005747Y013675D01*
X005703Y013731D01*
X005662Y013788D01*
X005624Y013848D01*
X005590Y013910D01*
X005560Y013973D01*
X005533Y014038D01*
X005509Y014105D01*
X005490Y014173D01*
X005474Y014242D01*
X005462Y014311D01*
X005454Y014381D01*
X005450Y014452D01*
X005450Y014522D01*
X005454Y014593D01*
X005462Y014663D01*
X005474Y014732D01*
X005490Y014801D01*
X005509Y014869D01*
X005533Y014936D01*
X005560Y015001D01*
X005590Y015064D01*
X005624Y015126D01*
X005662Y015186D01*
X005703Y015243D01*
X005747Y015299D01*
X005794Y015351D01*
X005843Y015401D01*
X005896Y015448D01*
X005951Y015492D01*
X006009Y015533D01*
X006068Y015571D01*
X006130Y015605D01*
X006194Y015636D01*
X006259Y015663D01*
X006325Y015686D01*
X006393Y015706D01*
X006462Y015721D01*
X006531Y015733D01*
X006601Y015741D01*
X006672Y015745D01*
X006742Y015746D01*
X006813Y015742D01*
X006883Y015734D01*
X006953Y015722D01*
X007021Y015707D01*
X007089Y015687D01*
X007156Y015664D01*
X007221Y015637D01*
X007285Y015607D01*
X007347Y015573D01*
X007406Y015535D01*
X007464Y015495D01*
X007519Y015451D01*
X007572Y015404D01*
X007622Y015354D01*
X007669Y015301D01*
X007713Y015246D01*
X007706Y015241D01*
X007662Y015296D01*
X007615Y015348D01*
X007566Y015397D01*
X007513Y015444D01*
X007459Y015487D01*
X007401Y015528D01*
X007342Y015565D01*
X007281Y015599D01*
X007217Y015629D01*
X007153Y015656D01*
X007086Y015679D01*
X007019Y015698D01*
X006951Y015713D01*
X006882Y015725D01*
X006812Y015733D01*
X006742Y015737D01*
X006672Y015736D01*
X006602Y015732D01*
X006533Y015724D01*
X006464Y015713D01*
X006395Y015697D01*
X006328Y015678D01*
X006262Y015654D01*
X006197Y015627D01*
X006134Y015597D01*
X006073Y015563D01*
X006014Y015526D01*
X005956Y015485D01*
X005902Y015441D01*
X005850Y015395D01*
X005800Y015345D01*
X005753Y015293D01*
X005710Y015238D01*
X005669Y015181D01*
X005632Y015122D01*
X005598Y015060D01*
X005568Y014997D01*
X005541Y014932D01*
X005518Y014866D01*
X005499Y014799D01*
X005483Y014731D01*
X005471Y014662D01*
X005463Y014592D01*
X005459Y014522D01*
X005459Y014452D01*
X005463Y014382D01*
X005471Y014312D01*
X005483Y014243D01*
X005499Y014175D01*
X005518Y014108D01*
X005541Y014042D01*
X005568Y013977D01*
X005598Y013914D01*
X005632Y013852D01*
X005669Y013793D01*
X005710Y013736D01*
X005753Y013681D01*
X005800Y013629D01*
X005850Y013579D01*
X005902Y013533D01*
X005956Y013489D01*
X006014Y013448D01*
X006073Y013411D01*
X006134Y013377D01*
X006197Y013347D01*
X006262Y013320D01*
X006328Y013296D01*
X006395Y013277D01*
X006464Y013261D01*
X006533Y013250D01*
X006602Y013242D01*
X006672Y013238D01*
X006742Y013237D01*
X006812Y013241D01*
X006882Y013249D01*
X006951Y013261D01*
X007019Y013276D01*
X007086Y013295D01*
X007153Y013318D01*
X007217Y013345D01*
X007281Y013375D01*
X007342Y013409D01*
X007401Y013446D01*
X007459Y013487D01*
X007513Y013530D01*
X007566Y013577D01*
X007615Y013626D01*
X007662Y013678D01*
X007706Y013733D01*
X007699Y013738D01*
X007655Y013684D01*
X007609Y013632D01*
X007560Y013583D01*
X007508Y013537D01*
X007453Y013494D01*
X007396Y013454D01*
X007337Y013417D01*
X007276Y013383D01*
X007214Y013353D01*
X007149Y013327D01*
X007084Y013304D01*
X007017Y013285D01*
X006949Y013269D01*
X006880Y013258D01*
X006811Y013250D01*
X006742Y013246D01*
X006672Y013247D01*
X006603Y013251D01*
X006534Y013258D01*
X006465Y013270D01*
X006398Y013286D01*
X006331Y013305D01*
X006265Y013328D01*
X006201Y013355D01*
X006138Y013385D01*
X006077Y013419D01*
X006019Y013456D01*
X005962Y013496D01*
X005908Y013539D01*
X005856Y013586D01*
X005807Y013635D01*
X005760Y013687D01*
X005717Y013741D01*
X005677Y013798D01*
X005640Y013857D01*
X005606Y013918D01*
X005576Y013981D01*
X005549Y014045D01*
X005526Y014110D01*
X005507Y014177D01*
X005492Y014245D01*
X005480Y014314D01*
X005472Y014383D01*
X005468Y014452D01*
X005468Y014522D01*
X005472Y014591D01*
X005480Y014660D01*
X005492Y014729D01*
X005507Y014797D01*
X005526Y014864D01*
X005549Y014929D01*
X005576Y014993D01*
X005606Y015056D01*
X005640Y015117D01*
X005677Y015176D01*
X005717Y015233D01*
X005760Y015287D01*
X005807Y015339D01*
X005856Y015388D01*
X005908Y015435D01*
X005962Y015478D01*
X006019Y015518D01*
X006077Y015555D01*
X006138Y015589D01*
X006201Y015619D01*
X006265Y015646D01*
X006331Y015669D01*
X006398Y015688D01*
X006465Y015704D01*
X006534Y015716D01*
X006603Y015723D01*
X006672Y015727D01*
X006742Y015728D01*
X006811Y015724D01*
X006880Y015716D01*
X006949Y015705D01*
X007017Y015689D01*
X007084Y015670D01*
X007149Y015647D01*
X007214Y015621D01*
X007276Y015591D01*
X007337Y015557D01*
X007396Y015520D01*
X007453Y015480D01*
X007508Y015437D01*
X007560Y015391D01*
X007609Y015342D01*
X007655Y015290D01*
X007699Y015236D01*
X007692Y015230D01*
X007648Y015284D01*
X007602Y015335D01*
X007553Y015384D01*
X007502Y015430D01*
X007448Y015473D01*
X007391Y015513D01*
X007333Y015549D01*
X007272Y015583D01*
X007210Y015613D01*
X007146Y015639D01*
X007081Y015661D01*
X007015Y015680D01*
X006947Y015696D01*
X006879Y015707D01*
X006811Y015715D01*
X006742Y015719D01*
X006673Y015718D01*
X006604Y015714D01*
X006535Y015707D01*
X006467Y015695D01*
X006400Y015680D01*
X006333Y015660D01*
X006268Y015637D01*
X006205Y015611D01*
X006142Y015581D01*
X006082Y015548D01*
X006024Y015511D01*
X005967Y015471D01*
X005913Y015428D01*
X005862Y015382D01*
X005813Y015333D01*
X005767Y015281D01*
X005724Y015227D01*
X005684Y015171D01*
X005648Y015112D01*
X005614Y015052D01*
X005584Y014990D01*
X005558Y014926D01*
X005535Y014861D01*
X005516Y014794D01*
X005501Y014727D01*
X005489Y014659D01*
X005481Y014590D01*
X005477Y014522D01*
X005477Y014452D01*
X005481Y014384D01*
X005489Y014315D01*
X005501Y014247D01*
X005516Y014180D01*
X005535Y014113D01*
X005558Y014048D01*
X005584Y013984D01*
X005614Y013922D01*
X005648Y013862D01*
X005684Y013803D01*
X005724Y013747D01*
X005767Y013693D01*
X005813Y013641D01*
X005862Y013592D01*
X005913Y013546D01*
X005967Y013503D01*
X006024Y013463D01*
X006082Y013426D01*
X006142Y013393D01*
X006205Y013363D01*
X006268Y013337D01*
X006333Y013314D01*
X006400Y013294D01*
X006467Y013279D01*
X006535Y013267D01*
X006604Y013260D01*
X006673Y013256D01*
X006742Y013255D01*
X006811Y013259D01*
X006879Y013267D01*
X006947Y013278D01*
X007015Y013294D01*
X007081Y013313D01*
X007146Y013335D01*
X007210Y013361D01*
X007272Y013391D01*
X007333Y013425D01*
X007391Y013461D01*
X007448Y013501D01*
X007502Y013544D01*
X007553Y013590D01*
X007602Y013639D01*
X007648Y013690D01*
X007692Y013744D01*
X007684Y013749D01*
X007641Y013695D01*
X007595Y013644D01*
X007545Y013595D01*
X007494Y013549D01*
X007439Y013506D01*
X007382Y013466D01*
X007324Y013430D01*
X007263Y013396D01*
X007200Y013367D01*
X007136Y013341D01*
X007070Y013319D01*
X007003Y013300D01*
X006936Y013285D01*
X006867Y013274D01*
X006798Y013267D01*
X006729Y013264D01*
X006660Y013265D01*
X006590Y013270D01*
X006522Y013278D01*
X006454Y013291D01*
X006386Y013307D01*
X006320Y013328D01*
X006255Y013351D01*
X006191Y013379D01*
X006129Y013410D01*
X006069Y013445D01*
X006011Y013483D01*
X005955Y013524D01*
X005902Y013568D01*
X005851Y013615D01*
X005803Y013665D01*
X005758Y013718D01*
X005716Y013773D01*
X005677Y013830D01*
X005642Y013890D01*
X005610Y013951D01*
X005581Y014014D01*
X005556Y014079D01*
X005535Y014145D01*
X005517Y014212D01*
X005504Y014280D01*
X005494Y014349D01*
X005488Y014418D01*
X005486Y014487D01*
X005488Y014556D01*
X005494Y014625D01*
X005504Y014694D01*
X005517Y014762D01*
X005535Y014829D01*
X005556Y014895D01*
X005581Y014960D01*
X005610Y015023D01*
X005642Y015084D01*
X005677Y015144D01*
X005716Y015201D01*
X005758Y015256D01*
X005803Y015309D01*
X005851Y015359D01*
X005902Y015406D01*
X005955Y015450D01*
X006011Y015491D01*
X006069Y015529D01*
X006129Y015564D01*
X006191Y015595D01*
X006255Y015623D01*
X006320Y015646D01*
X006386Y015667D01*
X006454Y015683D01*
X006522Y015696D01*
X006590Y015704D01*
X006660Y015709D01*
X006729Y015710D01*
X006798Y015707D01*
X006867Y015700D01*
X006936Y015689D01*
X007003Y015674D01*
X007070Y015655D01*
X007136Y015633D01*
X007200Y015607D01*
X007263Y015578D01*
X007324Y015544D01*
X007382Y015508D01*
X007439Y015468D01*
X007494Y015425D01*
X007545Y015379D01*
X007595Y015330D01*
X007641Y015279D01*
X007684Y015225D01*
X007677Y015219D01*
X007634Y015273D01*
X007588Y015324D01*
X007539Y015373D01*
X007488Y015418D01*
X007434Y015461D01*
X007377Y015500D01*
X007319Y015537D01*
X007259Y015570D01*
X007196Y015599D01*
X007133Y015625D01*
X007067Y015647D01*
X007001Y015665D01*
X006934Y015680D01*
X006866Y015691D01*
X006797Y015698D01*
X006729Y015701D01*
X006660Y015700D01*
X006591Y015695D01*
X006523Y015687D01*
X006455Y015674D01*
X006389Y015658D01*
X006323Y015638D01*
X006258Y015614D01*
X006195Y015587D01*
X006134Y015556D01*
X006074Y015522D01*
X006016Y015484D01*
X005961Y015443D01*
X005908Y015399D01*
X005858Y015352D01*
X005810Y015303D01*
X005765Y015251D01*
X005723Y015196D01*
X005685Y015139D01*
X005650Y015080D01*
X005618Y015019D01*
X005589Y014956D01*
X005565Y014892D01*
X005543Y014826D01*
X005526Y014760D01*
X005513Y014692D01*
X005503Y014624D01*
X005497Y014556D01*
X005495Y014487D01*
X005497Y014418D01*
X005503Y014350D01*
X005513Y014282D01*
X005526Y014214D01*
X005543Y014148D01*
X005565Y014082D01*
X005589Y014018D01*
X005618Y013955D01*
X005650Y013894D01*
X005685Y013835D01*
X005723Y013778D01*
X005765Y013723D01*
X005810Y013671D01*
X005858Y013622D01*
X005908Y013575D01*
X005961Y013531D01*
X006016Y013490D01*
X006074Y013452D01*
X006134Y013418D01*
X006195Y013387D01*
X006258Y013360D01*
X006323Y013336D01*
X006389Y013316D01*
X006455Y013300D01*
X006523Y013287D01*
X006591Y013279D01*
X006660Y013274D01*
X006729Y013273D01*
X006797Y013276D01*
X006866Y013283D01*
X006934Y013294D01*
X007001Y013309D01*
X007067Y013327D01*
X007133Y013349D01*
X007196Y013375D01*
X007259Y013404D01*
X007319Y013437D01*
X007377Y013474D01*
X007434Y013513D01*
X007488Y013556D01*
X007539Y013601D01*
X007588Y013650D01*
X007634Y013701D01*
X007677Y013755D01*
X010836Y014554D02*
X010746Y014544D01*
X010747Y014544D02*
X010736Y014612D01*
X010722Y014678D01*
X010704Y014744D01*
X010683Y014809D01*
X010657Y014873D01*
X010629Y014934D01*
X010596Y014995D01*
X010561Y015053D01*
X010522Y015109D01*
X010480Y015163D01*
X010435Y015214D01*
X010387Y015263D01*
X010336Y015309D01*
X010283Y015352D01*
X010228Y015392D01*
X010170Y015429D01*
X010111Y015462D01*
X010049Y015492D01*
X009987Y015519D01*
X009922Y015541D01*
X009857Y015561D01*
X009790Y015576D01*
X009723Y015588D01*
X009655Y015596D01*
X009587Y015599D01*
X009519Y015600D01*
X009450Y015596D01*
X009382Y015588D01*
X009315Y015577D01*
X009249Y015561D01*
X009183Y015542D01*
X009119Y015520D01*
X009056Y015493D01*
X008994Y015464D01*
X008934Y015430D01*
X008877Y015394D01*
X008821Y015354D01*
X008768Y015311D01*
X008718Y015265D01*
X008670Y015217D01*
X008624Y015165D01*
X008582Y015112D01*
X008543Y015056D01*
X008507Y014997D01*
X008475Y014937D01*
X008446Y014876D01*
X008421Y014812D01*
X008399Y014748D01*
X008381Y014682D01*
X008366Y014615D01*
X008356Y014547D01*
X008349Y014479D01*
X008346Y014411D01*
X008347Y014343D01*
X008352Y014275D01*
X008361Y014207D01*
X008373Y014140D01*
X008390Y014074D01*
X008410Y014008D01*
X008433Y013944D01*
X008461Y013882D01*
X008492Y013821D01*
X008526Y013762D01*
X008563Y013705D01*
X008604Y013650D01*
X008648Y013597D01*
X008694Y013548D01*
X008744Y013500D01*
X008796Y013456D01*
X008850Y013415D01*
X008907Y013377D01*
X008966Y013342D01*
X009026Y013310D01*
X009088Y013282D01*
X009152Y013258D01*
X009217Y013237D01*
X009283Y013220D01*
X009350Y013207D01*
X009418Y013197D01*
X009486Y013192D01*
X009554Y013190D01*
X009623Y013192D01*
X009691Y013198D01*
X009758Y013208D01*
X009825Y013222D01*
X009891Y013239D01*
X009956Y013260D01*
X010020Y013285D01*
X010055Y013203D01*
X010055Y013202D01*
X009989Y013176D01*
X009922Y013154D01*
X009853Y013136D01*
X009784Y013121D01*
X009713Y013110D01*
X009643Y013103D01*
X009572Y013100D01*
X009501Y013101D01*
X009430Y013106D01*
X009360Y013114D01*
X009290Y013127D01*
X009221Y013143D01*
X009152Y013163D01*
X009086Y013187D01*
X009020Y013214D01*
X008956Y013245D01*
X008894Y013279D01*
X008834Y013317D01*
X008776Y013358D01*
X008720Y013402D01*
X008667Y013449D01*
X008616Y013499D01*
X008569Y013551D01*
X008524Y013606D01*
X008482Y013664D01*
X008444Y013723D01*
X008409Y013785D01*
X008377Y013848D01*
X008349Y013914D01*
X008324Y013980D01*
X008303Y014048D01*
X008286Y014117D01*
X008273Y014187D01*
X008263Y014257D01*
X008258Y014328D01*
X008256Y014399D01*
X008258Y014470D01*
X008264Y014540D01*
X008274Y014611D01*
X008288Y014680D01*
X008305Y014749D01*
X008327Y014817D01*
X008352Y014883D01*
X008380Y014948D01*
X008412Y015012D01*
X008448Y015073D01*
X008486Y015132D01*
X008528Y015190D01*
X008574Y015244D01*
X008622Y015297D01*
X008672Y015346D01*
X008726Y015393D01*
X008782Y015437D01*
X008840Y015477D01*
X008900Y015515D01*
X008963Y015549D01*
X009027Y015579D01*
X009092Y015606D01*
X009159Y015629D01*
X009228Y015649D01*
X009297Y015665D01*
X009367Y015677D01*
X009437Y015685D01*
X009508Y015689D01*
X009579Y015690D01*
X009650Y015686D01*
X009721Y015679D01*
X009791Y015668D01*
X009860Y015653D01*
X009929Y015634D01*
X009996Y015611D01*
X010062Y015585D01*
X010126Y015555D01*
X010189Y015522D01*
X010250Y015485D01*
X010308Y015445D01*
X010365Y015402D01*
X010419Y015356D01*
X010470Y015307D01*
X010519Y015255D01*
X010564Y015201D01*
X010607Y015144D01*
X010647Y015085D01*
X010683Y015024D01*
X010716Y014961D01*
X010745Y014897D01*
X010771Y014831D01*
X010793Y014763D01*
X010811Y014695D01*
X010825Y014625D01*
X010836Y014555D01*
X010827Y014554D01*
X010816Y014624D01*
X010802Y014694D01*
X010783Y014763D01*
X010761Y014831D01*
X010735Y014897D01*
X010705Y014962D01*
X010672Y015025D01*
X010636Y015086D01*
X010596Y015145D01*
X010553Y015202D01*
X010506Y015256D01*
X010457Y015308D01*
X010405Y015356D01*
X010351Y015402D01*
X010294Y015445D01*
X010234Y015484D01*
X010173Y015521D01*
X010110Y015553D01*
X010045Y015583D01*
X009978Y015608D01*
X009910Y015630D01*
X009841Y015648D01*
X009771Y015662D01*
X009701Y015672D01*
X009630Y015679D01*
X009559Y015681D01*
X009487Y015679D01*
X009416Y015674D01*
X009346Y015664D01*
X009276Y015651D01*
X009206Y015634D01*
X009138Y015613D01*
X009072Y015588D01*
X009006Y015560D01*
X008942Y015528D01*
X008881Y015492D01*
X008821Y015454D01*
X008763Y015412D01*
X008708Y015366D01*
X008656Y015318D01*
X008606Y015267D01*
X008559Y015213D01*
X008515Y015157D01*
X008475Y015099D01*
X008437Y015038D01*
X008403Y014975D01*
X008373Y014911D01*
X008346Y014845D01*
X008323Y014777D01*
X008304Y014709D01*
X008288Y014639D01*
X008277Y014569D01*
X008269Y014498D01*
X008265Y014427D01*
X008266Y014356D01*
X008270Y014284D01*
X008278Y014214D01*
X008290Y014143D01*
X008306Y014074D01*
X008325Y014005D01*
X008349Y013938D01*
X008376Y013872D01*
X008407Y013808D01*
X008441Y013745D01*
X008479Y013685D01*
X008520Y013627D01*
X008564Y013571D01*
X008611Y013517D01*
X008661Y013467D01*
X008714Y013419D01*
X008769Y013374D01*
X008827Y013332D01*
X008887Y013294D01*
X008949Y013259D01*
X009013Y013227D01*
X009079Y013199D01*
X009146Y013175D01*
X009214Y013154D01*
X009283Y013137D01*
X009353Y013124D01*
X009424Y013115D01*
X009495Y013110D01*
X009566Y013109D01*
X009637Y013112D01*
X009708Y013119D01*
X009779Y013129D01*
X009849Y013144D01*
X009917Y013162D01*
X009985Y013185D01*
X010052Y013210D01*
X010048Y013219D01*
X009982Y013193D01*
X009915Y013171D01*
X009846Y013153D01*
X009777Y013138D01*
X009707Y013128D01*
X009637Y013121D01*
X009566Y013118D01*
X009495Y013119D01*
X009425Y013124D01*
X009355Y013133D01*
X009285Y013146D01*
X009216Y013163D01*
X009148Y013183D01*
X009082Y013207D01*
X009017Y013235D01*
X008953Y013266D01*
X008892Y013301D01*
X008832Y013340D01*
X008775Y013381D01*
X008720Y013426D01*
X008667Y013473D01*
X008618Y013523D01*
X008571Y013576D01*
X008527Y013632D01*
X008486Y013690D01*
X008449Y013750D01*
X008415Y013812D01*
X008384Y013876D01*
X008357Y013941D01*
X008334Y014008D01*
X008314Y014076D01*
X008299Y014145D01*
X008287Y014215D01*
X008279Y014285D01*
X008275Y014356D01*
X008274Y014427D01*
X008278Y014497D01*
X008286Y014568D01*
X008297Y014637D01*
X008313Y014707D01*
X008332Y014775D01*
X008355Y014842D01*
X008381Y014907D01*
X008411Y014971D01*
X008445Y015033D01*
X008482Y015094D01*
X008523Y015152D01*
X008566Y015208D01*
X008613Y015261D01*
X008662Y015312D01*
X008714Y015360D01*
X008769Y015404D01*
X008826Y015446D01*
X008885Y015485D01*
X008947Y015520D01*
X009010Y015552D01*
X009075Y015580D01*
X009141Y015604D01*
X009209Y015625D01*
X009278Y015642D01*
X009347Y015656D01*
X009417Y015665D01*
X009488Y015670D01*
X009559Y015672D01*
X009629Y015670D01*
X009700Y015663D01*
X009770Y015653D01*
X009839Y015639D01*
X009908Y015621D01*
X009975Y015600D01*
X010041Y015574D01*
X010106Y015545D01*
X010169Y015513D01*
X010229Y015477D01*
X010288Y015438D01*
X010345Y015395D01*
X010399Y015350D01*
X010451Y015301D01*
X010500Y015250D01*
X010546Y015196D01*
X010588Y015140D01*
X010628Y015081D01*
X010664Y015020D01*
X010697Y014958D01*
X010727Y014893D01*
X010753Y014828D01*
X010775Y014760D01*
X010793Y014692D01*
X010808Y014623D01*
X010818Y014553D01*
X010809Y014552D01*
X010799Y014622D01*
X010784Y014691D01*
X010765Y014760D01*
X010743Y014827D01*
X010717Y014894D01*
X010687Y014958D01*
X010654Y015021D01*
X010617Y015082D01*
X010577Y015140D01*
X010534Y015197D01*
X010487Y015250D01*
X010438Y015301D01*
X010385Y015350D01*
X010331Y015395D01*
X010273Y015437D01*
X010214Y015476D01*
X010152Y015511D01*
X010089Y015543D01*
X010024Y015572D01*
X009957Y015596D01*
X009889Y015617D01*
X009820Y015634D01*
X009750Y015647D01*
X009680Y015656D01*
X009609Y015662D01*
X009538Y015663D01*
X009467Y015660D01*
X009396Y015654D01*
X009326Y015643D01*
X009256Y015628D01*
X009188Y015610D01*
X009120Y015588D01*
X009054Y015562D01*
X008990Y015532D01*
X008927Y015499D01*
X008866Y015462D01*
X008807Y015422D01*
X008751Y015379D01*
X008697Y015332D01*
X008646Y015283D01*
X008598Y015231D01*
X008552Y015176D01*
X008510Y015119D01*
X008471Y015060D01*
X008436Y014998D01*
X008404Y014935D01*
X008375Y014869D01*
X008350Y014803D01*
X008329Y014735D01*
X008312Y014666D01*
X008299Y014596D01*
X008290Y014526D01*
X008284Y014455D01*
X008283Y014384D01*
X008286Y014313D01*
X008292Y014242D01*
X008303Y014172D01*
X008317Y014102D01*
X008336Y014034D01*
X008358Y013966D01*
X008384Y013900D01*
X008413Y013835D01*
X008446Y013772D01*
X008483Y013711D01*
X008523Y013653D01*
X008566Y013596D01*
X008612Y013542D01*
X008662Y013491D01*
X008714Y013443D01*
X008768Y013397D01*
X008826Y013355D01*
X008885Y013316D01*
X008946Y013280D01*
X009010Y013248D01*
X009075Y013220D01*
X009141Y013195D01*
X009209Y013174D01*
X009278Y013157D01*
X009348Y013143D01*
X009419Y013134D01*
X009489Y013128D01*
X009560Y013127D01*
X009631Y013130D01*
X009702Y013136D01*
X009772Y013146D01*
X009842Y013161D01*
X009911Y013179D01*
X009978Y013201D01*
X010044Y013227D01*
X010041Y013235D01*
X009975Y013210D01*
X009908Y013188D01*
X009840Y013170D01*
X009771Y013155D01*
X009701Y013145D01*
X009631Y013139D01*
X009560Y013136D01*
X009490Y013137D01*
X009419Y013143D01*
X009349Y013152D01*
X009280Y013165D01*
X009212Y013183D01*
X009144Y013203D01*
X009078Y013228D01*
X009014Y013256D01*
X008951Y013288D01*
X008890Y013324D01*
X008831Y013362D01*
X008774Y013404D01*
X008720Y013449D01*
X008668Y013498D01*
X008619Y013548D01*
X008573Y013602D01*
X008530Y013658D01*
X008491Y013716D01*
X008454Y013777D01*
X008421Y013839D01*
X008392Y013903D01*
X008366Y013969D01*
X008344Y014036D01*
X008326Y014104D01*
X008312Y014173D01*
X008301Y014243D01*
X008295Y014313D01*
X008292Y014384D01*
X008293Y014454D01*
X008299Y014525D01*
X008308Y014595D01*
X008321Y014664D01*
X008338Y014732D01*
X008359Y014800D01*
X008383Y014866D01*
X008412Y014931D01*
X008443Y014994D01*
X008479Y015055D01*
X008517Y015114D01*
X008559Y015171D01*
X008604Y015225D01*
X008652Y015277D01*
X008703Y015326D01*
X008757Y015372D01*
X008812Y015415D01*
X008871Y015454D01*
X008931Y015491D01*
X008994Y015524D01*
X009058Y015553D01*
X009123Y015579D01*
X009190Y015601D01*
X009258Y015620D01*
X009328Y015634D01*
X009397Y015645D01*
X009468Y015651D01*
X009538Y015654D01*
X009609Y015653D01*
X009679Y015647D01*
X009749Y015638D01*
X009818Y015625D01*
X009887Y015608D01*
X009954Y015588D01*
X010020Y015563D01*
X010085Y015535D01*
X010148Y015503D01*
X010209Y015468D01*
X010268Y015430D01*
X010325Y015388D01*
X010380Y015343D01*
X010431Y015295D01*
X010480Y015244D01*
X010527Y015191D01*
X010570Y015135D01*
X010609Y015077D01*
X010646Y015016D01*
X010679Y014954D01*
X010709Y014890D01*
X010735Y014824D01*
X010757Y014757D01*
X010775Y014689D01*
X010790Y014620D01*
X010800Y014551D01*
X010791Y014549D01*
X010781Y014619D01*
X010766Y014687D01*
X010748Y014755D01*
X010726Y014821D01*
X010700Y014887D01*
X010671Y014950D01*
X010638Y015012D01*
X010602Y015072D01*
X010562Y015130D01*
X010520Y015185D01*
X010474Y015238D01*
X010425Y015289D01*
X010374Y015336D01*
X010320Y015381D01*
X010263Y015422D01*
X010205Y015461D01*
X010144Y015495D01*
X010081Y015527D01*
X010017Y015555D01*
X009951Y015579D01*
X009884Y015600D01*
X009816Y015617D01*
X009747Y015629D01*
X009678Y015639D01*
X009608Y015644D01*
X009538Y015645D01*
X009468Y015642D01*
X009398Y015636D01*
X009329Y015625D01*
X009261Y015611D01*
X009193Y015593D01*
X009126Y015571D01*
X009061Y015545D01*
X008998Y015516D01*
X008936Y015483D01*
X008876Y015447D01*
X008818Y015407D01*
X008762Y015365D01*
X008709Y015319D01*
X008659Y015270D01*
X008611Y015219D01*
X008566Y015165D01*
X008525Y015109D01*
X008486Y015050D01*
X008451Y014989D01*
X008420Y014927D01*
X008392Y014863D01*
X008367Y014797D01*
X008347Y014730D01*
X008330Y014662D01*
X008317Y014593D01*
X008308Y014524D01*
X008302Y014454D01*
X008301Y014384D01*
X008304Y014314D01*
X008310Y014244D01*
X008321Y014175D01*
X008335Y014106D01*
X008353Y014039D01*
X008375Y013972D01*
X008400Y013907D01*
X008429Y013843D01*
X008462Y013781D01*
X008498Y013721D01*
X008538Y013663D01*
X008580Y013608D01*
X008626Y013554D01*
X008674Y013504D01*
X008726Y013456D01*
X008779Y013412D01*
X008836Y013370D01*
X008894Y013331D01*
X008955Y013296D01*
X009017Y013265D01*
X009082Y013236D01*
X009147Y013212D01*
X009214Y013191D01*
X009282Y013174D01*
X009351Y013161D01*
X009420Y013152D01*
X009490Y013146D01*
X009560Y013145D01*
X009630Y013148D01*
X009700Y013154D01*
X009769Y013164D01*
X009838Y013178D01*
X009906Y013196D01*
X009972Y013218D01*
X010037Y013244D01*
X010034Y013252D01*
X009969Y013227D01*
X009903Y013205D01*
X009836Y013187D01*
X009768Y013173D01*
X009699Y013163D01*
X009630Y013156D01*
X009560Y013154D01*
X009491Y013155D01*
X009421Y013161D01*
X009352Y013170D01*
X009284Y013183D01*
X009217Y013200D01*
X009150Y013221D01*
X009085Y013245D01*
X009021Y013273D01*
X008959Y013304D01*
X008899Y013339D01*
X008841Y013377D01*
X008785Y013419D01*
X008732Y013463D01*
X008681Y013510D01*
X008632Y013561D01*
X008587Y013613D01*
X008545Y013669D01*
X008506Y013726D01*
X008470Y013786D01*
X008437Y013847D01*
X008409Y013910D01*
X008383Y013975D01*
X008361Y014041D01*
X008344Y014108D01*
X008329Y014177D01*
X008319Y014245D01*
X008313Y014315D01*
X008310Y014384D01*
X008311Y014454D01*
X008317Y014523D01*
X008326Y014592D01*
X008339Y014660D01*
X008355Y014728D01*
X008376Y014794D01*
X008400Y014859D01*
X008428Y014923D01*
X008459Y014985D01*
X008494Y015045D01*
X008532Y015104D01*
X008573Y015160D01*
X008618Y015213D01*
X008665Y015264D01*
X008715Y015312D01*
X008768Y015358D01*
X008823Y015400D01*
X008880Y015439D01*
X008940Y015475D01*
X009001Y015508D01*
X009065Y015537D01*
X009129Y015562D01*
X009195Y015584D01*
X009263Y015602D01*
X009331Y015616D01*
X009399Y015627D01*
X009469Y015633D01*
X009538Y015636D01*
X009608Y015635D01*
X009677Y015630D01*
X009746Y015621D01*
X009814Y015608D01*
X009882Y015591D01*
X009948Y015571D01*
X010014Y015547D01*
X010077Y015519D01*
X010140Y015488D01*
X010200Y015453D01*
X010258Y015415D01*
X010314Y015374D01*
X010368Y015329D01*
X010419Y015282D01*
X010467Y015232D01*
X010513Y015180D01*
X010555Y015124D01*
X010594Y015067D01*
X010630Y015008D01*
X010663Y014946D01*
X010692Y014883D01*
X010718Y014818D01*
X010739Y014752D01*
X010758Y014685D01*
X010772Y014617D01*
X010782Y014548D01*
X010774Y014547D01*
X010763Y014616D01*
X010749Y014683D01*
X010731Y014750D01*
X010709Y014815D01*
X010684Y014880D01*
X010655Y014942D01*
X010622Y015003D01*
X010587Y015062D01*
X010548Y015119D01*
X010506Y015174D01*
X010460Y015226D01*
X010412Y015276D01*
X010362Y015323D01*
X010308Y015367D01*
X010253Y015408D01*
X010195Y015445D01*
X010135Y015480D01*
X010074Y015511D01*
X010010Y015538D01*
X009945Y015562D01*
X009879Y015582D01*
X009812Y015599D01*
X009745Y015612D01*
X009676Y015621D01*
X009607Y015626D01*
X009538Y015627D01*
X009469Y015624D01*
X009401Y015618D01*
X009332Y015607D01*
X009265Y015593D01*
X009198Y015575D01*
X009132Y015554D01*
X009068Y015528D01*
X009005Y015500D01*
X008944Y015467D01*
X008885Y015432D01*
X008828Y015393D01*
X008774Y015351D01*
X008721Y015306D01*
X008672Y015258D01*
X008625Y015207D01*
X008581Y015154D01*
X008540Y015098D01*
X008502Y015041D01*
X008467Y014981D01*
X008436Y014919D01*
X008408Y014856D01*
X008384Y014791D01*
X008364Y014725D01*
X008347Y014658D01*
X008335Y014590D01*
X008326Y014522D01*
X008320Y014453D01*
X008319Y014384D01*
X008322Y014315D01*
X008328Y014246D01*
X008338Y014178D01*
X008352Y014111D01*
X008370Y014044D01*
X008392Y013978D01*
X008417Y013914D01*
X008446Y013851D01*
X008478Y013790D01*
X008513Y013731D01*
X008552Y013674D01*
X008594Y013619D01*
X008639Y013567D01*
X008687Y013517D01*
X008737Y013470D01*
X008791Y013426D01*
X008846Y013385D01*
X008904Y013347D01*
X008963Y013312D01*
X009025Y013281D01*
X009088Y013253D01*
X009153Y013229D01*
X009219Y013209D01*
X009286Y013192D01*
X009354Y013179D01*
X009422Y013170D01*
X009491Y013164D01*
X009560Y013163D01*
X009629Y013165D01*
X009698Y013172D01*
X009766Y013182D01*
X009834Y013196D01*
X009900Y013214D01*
X009966Y013235D01*
X010030Y013260D01*
X010027Y013268D01*
X009962Y013243D01*
X009896Y013222D01*
X009829Y013204D01*
X009761Y013190D01*
X009693Y013180D01*
X009624Y013174D01*
X009554Y013172D01*
X009485Y013174D01*
X009416Y013179D01*
X009347Y013189D01*
X009279Y013203D01*
X009212Y013220D01*
X009146Y013241D01*
X009082Y013266D01*
X009018Y013294D01*
X008957Y013326D01*
X008897Y013361D01*
X008840Y013400D01*
X008785Y013442D01*
X008732Y013487D01*
X008682Y013535D01*
X008634Y013585D01*
X008590Y013639D01*
X008549Y013694D01*
X008511Y013752D01*
X008476Y013812D01*
X008444Y013874D01*
X008417Y013938D01*
X008393Y014003D01*
X008372Y014069D01*
X008356Y014136D01*
X008343Y014204D01*
X008334Y014273D01*
X008329Y014342D01*
X008328Y014411D01*
X008331Y014481D01*
X008338Y014550D01*
X008349Y014618D01*
X008363Y014686D01*
X008381Y014753D01*
X008404Y014818D01*
X008429Y014883D01*
X008459Y014946D01*
X008492Y015006D01*
X008528Y015066D01*
X008568Y015122D01*
X008611Y015177D01*
X008656Y015229D01*
X008705Y015278D01*
X008756Y015325D01*
X008810Y015368D01*
X008867Y015409D01*
X008925Y015446D01*
X008986Y015480D01*
X009048Y015510D01*
X009112Y015537D01*
X009178Y015560D01*
X009244Y015579D01*
X009312Y015594D01*
X009380Y015606D01*
X009449Y015614D01*
X009518Y015618D01*
X009587Y015617D01*
X009657Y015613D01*
X009725Y015605D01*
X009794Y015594D01*
X009861Y015578D01*
X009928Y015559D01*
X009993Y015535D01*
X010057Y015508D01*
X010119Y015478D01*
X010180Y015444D01*
X010238Y015407D01*
X010294Y015366D01*
X010348Y015323D01*
X010399Y015276D01*
X010448Y015226D01*
X010494Y015174D01*
X010536Y015120D01*
X010576Y015063D01*
X010612Y015003D01*
X010645Y014942D01*
X010674Y014880D01*
X010700Y014815D01*
X010722Y014749D01*
X010740Y014683D01*
X010754Y014615D01*
X010765Y014546D01*
X010756Y014545D01*
X010745Y014613D01*
X010731Y014680D01*
X010713Y014747D01*
X010691Y014812D01*
X010666Y014876D01*
X010637Y014938D01*
X010604Y014999D01*
X010568Y015058D01*
X010529Y015114D01*
X010487Y015169D01*
X010441Y015220D01*
X010393Y015269D01*
X010342Y015316D01*
X010289Y015359D01*
X010233Y015399D01*
X010175Y015436D01*
X010115Y015470D01*
X010053Y015500D01*
X009990Y015527D01*
X009925Y015550D01*
X009859Y015569D01*
X009792Y015585D01*
X009724Y015597D01*
X009656Y015604D01*
X009587Y015608D01*
X009518Y015609D01*
X009450Y015605D01*
X009381Y015597D01*
X009313Y015586D01*
X009246Y015570D01*
X009180Y015551D01*
X009115Y015528D01*
X009052Y015502D01*
X008990Y015472D01*
X008930Y015438D01*
X008872Y015401D01*
X008816Y015361D01*
X008762Y015318D01*
X008711Y015272D01*
X008663Y015223D01*
X008618Y015171D01*
X008575Y015117D01*
X008536Y015061D01*
X008500Y015002D01*
X008467Y014941D01*
X008438Y014879D01*
X008412Y014815D01*
X008390Y014750D01*
X008372Y014684D01*
X008357Y014617D01*
X008347Y014549D01*
X008340Y014480D01*
X008337Y014411D01*
X008338Y014343D01*
X008343Y014274D01*
X008352Y014206D01*
X008365Y014138D01*
X008381Y014071D01*
X008401Y014005D01*
X008425Y013941D01*
X008453Y013878D01*
X008484Y013817D01*
X008518Y013757D01*
X008556Y013700D01*
X008597Y013644D01*
X008641Y013591D01*
X008688Y013541D01*
X008738Y013494D01*
X008790Y013449D01*
X008845Y013407D01*
X008902Y013369D01*
X008961Y013334D01*
X009022Y013302D01*
X009085Y013274D01*
X009149Y013249D01*
X009215Y013228D01*
X009281Y013211D01*
X009349Y013198D01*
X009417Y013188D01*
X009486Y013183D01*
X009554Y013181D01*
X009623Y013183D01*
X009692Y013189D01*
X009760Y013199D01*
X009827Y013213D01*
X009894Y013230D01*
X009959Y013252D01*
X010023Y013277D01*
X010440Y002410D02*
X010362Y002365D01*
X010362Y002366D02*
X010334Y002410D01*
X010303Y002452D01*
X010270Y002492D01*
X010234Y002530D01*
X010195Y002565D01*
X010154Y002597D01*
X010110Y002627D01*
X010065Y002653D01*
X010018Y002676D01*
X009970Y002696D01*
X009920Y002712D01*
X009870Y002725D01*
X009818Y002734D01*
X009766Y002740D01*
X009714Y002742D01*
X009713Y002831D01*
X009714Y002832D01*
X009769Y002830D01*
X009823Y002824D01*
X009878Y002815D01*
X009931Y002802D01*
X009983Y002786D01*
X010035Y002767D01*
X010085Y002744D01*
X010133Y002718D01*
X010180Y002689D01*
X010224Y002657D01*
X010267Y002622D01*
X010307Y002584D01*
X010344Y002544D01*
X010379Y002502D01*
X010411Y002457D01*
X010440Y002411D01*
X010432Y002406D01*
X010404Y002452D01*
X010372Y002496D01*
X010337Y002538D01*
X010300Y002578D01*
X010261Y002615D01*
X010219Y002650D01*
X010175Y002681D01*
X010129Y002710D01*
X010081Y002736D01*
X010031Y002758D01*
X009981Y002778D01*
X009929Y002794D01*
X009876Y002806D01*
X009822Y002815D01*
X009768Y002821D01*
X009714Y002823D01*
X009714Y002814D01*
X009768Y002812D01*
X009821Y002806D01*
X009874Y002797D01*
X009926Y002785D01*
X009978Y002769D01*
X010028Y002750D01*
X010077Y002728D01*
X010124Y002702D01*
X010170Y002674D01*
X010213Y002642D01*
X010255Y002608D01*
X010294Y002572D01*
X010331Y002532D01*
X010365Y002491D01*
X010396Y002447D01*
X010425Y002402D01*
X010417Y002397D01*
X010387Y002445D01*
X010353Y002491D01*
X010317Y002534D01*
X010277Y002575D01*
X010235Y002613D01*
X010191Y002648D01*
X010144Y002680D01*
X010095Y002708D01*
X010044Y002733D01*
X009991Y002755D01*
X009938Y002772D01*
X009883Y002786D01*
X009827Y002796D01*
X009771Y002803D01*
X009714Y002805D01*
X009714Y002796D01*
X009770Y002794D01*
X009826Y002788D01*
X009881Y002778D01*
X009935Y002764D01*
X009988Y002746D01*
X010040Y002725D01*
X010091Y002700D01*
X010139Y002672D01*
X010185Y002641D01*
X010230Y002606D01*
X010271Y002569D01*
X010310Y002528D01*
X010346Y002486D01*
X010379Y002440D01*
X010409Y002393D01*
X010401Y002388D01*
X010372Y002435D01*
X010339Y002480D01*
X010303Y002522D01*
X010265Y002562D01*
X010224Y002599D01*
X010180Y002634D01*
X010134Y002665D01*
X010086Y002692D01*
X010037Y002717D01*
X009985Y002738D01*
X009933Y002755D01*
X009879Y002769D01*
X009824Y002779D01*
X009769Y002785D01*
X009714Y002787D01*
X009714Y002778D01*
X009769Y002776D01*
X009823Y002770D01*
X009877Y002760D01*
X009930Y002746D01*
X009982Y002729D01*
X010033Y002709D01*
X010082Y002684D01*
X010129Y002657D01*
X010175Y002626D01*
X010218Y002593D01*
X010259Y002556D01*
X010297Y002516D01*
X010332Y002474D01*
X010364Y002430D01*
X010393Y002384D01*
X010385Y002379D01*
X010357Y002425D01*
X010325Y002469D01*
X010290Y002510D01*
X010252Y002549D01*
X010212Y002586D01*
X010170Y002619D01*
X010125Y002649D01*
X010078Y002677D01*
X010029Y002700D01*
X009979Y002721D01*
X009928Y002738D01*
X009875Y002751D01*
X009822Y002761D01*
X009768Y002767D01*
X009714Y002769D01*
X009714Y002760D01*
X009767Y002758D01*
X009821Y002752D01*
X009873Y002742D01*
X009925Y002729D01*
X009976Y002712D01*
X010026Y002692D01*
X010074Y002669D01*
X010120Y002642D01*
X010164Y002612D01*
X010206Y002579D01*
X010246Y002543D01*
X010283Y002504D01*
X010318Y002463D01*
X010349Y002420D01*
X010378Y002375D01*
X010370Y002370D01*
X010342Y002415D01*
X010311Y002458D01*
X010277Y002498D01*
X010240Y002536D01*
X010201Y002572D01*
X010159Y002604D01*
X010115Y002634D01*
X010069Y002661D01*
X010022Y002684D01*
X009973Y002704D01*
X009923Y002721D01*
X009871Y002734D01*
X009819Y002743D01*
X009767Y002749D01*
X009714Y002751D01*
X009714Y001143D02*
X009714Y001233D01*
X009714Y001232D02*
X009768Y001234D01*
X009821Y001240D01*
X009874Y001250D01*
X009926Y001264D01*
X009977Y001281D01*
X010026Y001302D01*
X010074Y001326D01*
X010120Y001354D01*
X010164Y001385D01*
X010206Y001419D01*
X010245Y001455D01*
X010282Y001495D01*
X010315Y001537D01*
X010346Y001581D01*
X010373Y001627D01*
X010452Y001585D01*
X010424Y001536D01*
X010392Y001490D01*
X010357Y001445D01*
X010320Y001403D01*
X010279Y001363D01*
X010236Y001327D01*
X010191Y001293D01*
X010144Y001262D01*
X010094Y001235D01*
X010043Y001211D01*
X009991Y001190D01*
X009937Y001173D01*
X009882Y001160D01*
X009827Y001150D01*
X009770Y001144D01*
X009714Y001142D01*
X009714Y001151D01*
X009770Y001153D01*
X009825Y001159D01*
X009880Y001169D01*
X009935Y001182D01*
X009988Y001199D01*
X010040Y001219D01*
X010090Y001243D01*
X010139Y001270D01*
X010186Y001300D01*
X010231Y001334D01*
X010273Y001370D01*
X010313Y001409D01*
X010350Y001451D01*
X010385Y001495D01*
X010416Y001541D01*
X010444Y001589D01*
X010436Y001593D01*
X010408Y001546D01*
X010377Y001500D01*
X010343Y001457D01*
X010307Y001415D01*
X010267Y001377D01*
X010225Y001341D01*
X010181Y001308D01*
X010135Y001278D01*
X010086Y001251D01*
X010036Y001228D01*
X009985Y001207D01*
X009932Y001191D01*
X009879Y001178D01*
X009824Y001168D01*
X009769Y001162D01*
X009714Y001160D01*
X009714Y001169D01*
X009769Y001171D01*
X009823Y001177D01*
X009877Y001186D01*
X009930Y001199D01*
X009982Y001216D01*
X010033Y001236D01*
X010082Y001259D01*
X010130Y001286D01*
X010176Y001315D01*
X010220Y001348D01*
X010261Y001383D01*
X010300Y001422D01*
X010337Y001462D01*
X010370Y001505D01*
X010401Y001551D01*
X010428Y001598D01*
X010420Y001602D01*
X010393Y001555D01*
X010363Y001511D01*
X010330Y001468D01*
X010294Y001428D01*
X010255Y001390D01*
X010214Y001355D01*
X010171Y001323D01*
X010125Y001293D01*
X010078Y001267D01*
X010029Y001244D01*
X009979Y001224D01*
X009927Y001208D01*
X009875Y001195D01*
X009822Y001186D01*
X009768Y001180D01*
X009714Y001178D01*
X009714Y001187D01*
X009767Y001189D01*
X009820Y001195D01*
X009873Y001204D01*
X009925Y001217D01*
X009976Y001233D01*
X010026Y001252D01*
X010074Y001275D01*
X010121Y001301D01*
X010165Y001330D01*
X010208Y001362D01*
X010249Y001397D01*
X010287Y001434D01*
X010323Y001474D01*
X010356Y001516D01*
X010386Y001560D01*
X010413Y001606D01*
X010405Y001610D01*
X010378Y001565D01*
X010348Y001521D01*
X010316Y001480D01*
X010281Y001440D01*
X010243Y001403D01*
X010203Y001369D01*
X010160Y001337D01*
X010116Y001309D01*
X010070Y001283D01*
X010022Y001261D01*
X009973Y001241D01*
X009923Y001225D01*
X009871Y001213D01*
X009819Y001204D01*
X009767Y001198D01*
X009714Y001196D01*
X009714Y001205D01*
X009770Y001207D01*
X009825Y001214D01*
X009880Y001224D01*
X009934Y001238D01*
X009986Y001256D01*
X010038Y001277D01*
X010087Y001303D01*
X010135Y001331D01*
X010181Y001363D01*
X010224Y001398D01*
X010264Y001436D01*
X010302Y001477D01*
X010337Y001521D01*
X010368Y001567D01*
X010397Y001615D01*
X010389Y001619D01*
X010361Y001571D01*
X010330Y001526D01*
X010295Y001483D01*
X010258Y001443D01*
X010218Y001405D01*
X010175Y001370D01*
X010130Y001339D01*
X010083Y001310D01*
X010034Y001286D01*
X009983Y001264D01*
X009931Y001247D01*
X009878Y001233D01*
X009824Y001223D01*
X009769Y001216D01*
X009714Y001214D01*
X009714Y001223D01*
X009768Y001225D01*
X009822Y001231D01*
X009876Y001241D01*
X009928Y001255D01*
X009980Y001273D01*
X010030Y001294D01*
X010079Y001318D01*
X010125Y001346D01*
X010170Y001378D01*
X010212Y001412D01*
X010251Y001449D01*
X010288Y001489D01*
X010322Y001531D01*
X010353Y001576D01*
X010381Y001623D01*
X009064Y001443D02*
X009133Y001500D01*
X009132Y001500D02*
X009169Y001460D01*
X009208Y001422D01*
X009250Y001388D01*
X009294Y001356D01*
X009340Y001328D01*
X009389Y001303D01*
X009439Y001282D01*
X009490Y001264D01*
X009543Y001251D01*
X009596Y001241D01*
X009650Y001234D01*
X009704Y001232D01*
X009705Y001143D01*
X009704Y001142D01*
X009648Y001144D01*
X009592Y001150D01*
X009537Y001160D01*
X009482Y001173D01*
X009429Y001190D01*
X009376Y001210D01*
X009325Y001234D01*
X009276Y001261D01*
X009229Y001292D01*
X009184Y001325D01*
X009141Y001361D01*
X009101Y001400D01*
X009063Y001442D01*
X009070Y001448D01*
X009107Y001407D01*
X009147Y001368D01*
X009189Y001332D01*
X009234Y001299D01*
X009281Y001269D01*
X009329Y001242D01*
X009380Y001219D01*
X009432Y001198D01*
X009485Y001182D01*
X009539Y001169D01*
X009593Y001159D01*
X009648Y001153D01*
X009704Y001151D01*
X009704Y001160D01*
X009649Y001162D01*
X009594Y001168D01*
X009540Y001177D01*
X009487Y001190D01*
X009435Y001207D01*
X009383Y001227D01*
X009334Y001250D01*
X009285Y001277D01*
X009239Y001306D01*
X009195Y001339D01*
X009153Y001375D01*
X009114Y001413D01*
X009077Y001454D01*
X009084Y001459D01*
X009120Y001419D01*
X009159Y001381D01*
X009201Y001346D01*
X009244Y001314D01*
X009290Y001284D01*
X009338Y001258D01*
X009387Y001235D01*
X009437Y001215D01*
X009489Y001199D01*
X009542Y001186D01*
X009596Y001177D01*
X009650Y001171D01*
X009704Y001169D01*
X009704Y001178D01*
X009650Y001180D01*
X009597Y001186D01*
X009544Y001195D01*
X009492Y001208D01*
X009440Y001224D01*
X009390Y001243D01*
X009342Y001266D01*
X009295Y001292D01*
X009249Y001321D01*
X009206Y001353D01*
X009165Y001388D01*
X009127Y001425D01*
X009091Y001465D01*
X009098Y001471D01*
X009133Y001432D01*
X009171Y001395D01*
X009212Y001360D01*
X009255Y001329D01*
X009299Y001300D01*
X009346Y001274D01*
X009394Y001252D01*
X009443Y001232D01*
X009494Y001216D01*
X009546Y001204D01*
X009598Y001195D01*
X009651Y001189D01*
X009704Y001187D01*
X009704Y001196D01*
X009652Y001198D01*
X009599Y001204D01*
X009548Y001213D01*
X009497Y001225D01*
X009446Y001241D01*
X009397Y001260D01*
X009350Y001282D01*
X009304Y001308D01*
X009260Y001336D01*
X009218Y001367D01*
X009177Y001401D01*
X009140Y001438D01*
X009105Y001477D01*
X009111Y001483D01*
X009146Y001444D01*
X009184Y001408D01*
X009223Y001374D01*
X009265Y001343D01*
X009309Y001315D01*
X009354Y001290D01*
X009401Y001268D01*
X009449Y001249D01*
X009499Y001234D01*
X009549Y001221D01*
X009601Y001213D01*
X009652Y001207D01*
X009704Y001205D01*
X009704Y001214D01*
X009653Y001216D01*
X009602Y001221D01*
X009551Y001230D01*
X009501Y001242D01*
X009452Y001258D01*
X009405Y001276D01*
X009358Y001298D01*
X009313Y001323D01*
X009270Y001351D01*
X009229Y001381D01*
X009190Y001414D01*
X009153Y001450D01*
X009118Y001488D01*
X009125Y001494D01*
X009162Y001453D01*
X009202Y001415D01*
X009244Y001381D01*
X009289Y001349D01*
X009336Y001320D01*
X009385Y001295D01*
X009436Y001274D01*
X009487Y001256D01*
X009541Y001242D01*
X009595Y001232D01*
X009649Y001225D01*
X009704Y001223D01*
X009705Y002831D02*
X009705Y002741D01*
X009704Y002742D02*
X009650Y002740D01*
X009597Y002734D01*
X009544Y002724D01*
X009492Y002710D01*
X009441Y002693D01*
X009391Y002672D01*
X009343Y002648D01*
X009297Y002620D01*
X009253Y002589D01*
X009212Y002555D01*
X009172Y002518D01*
X009136Y002479D01*
X009068Y002536D01*
X009067Y002537D01*
X009105Y002578D01*
X009145Y002616D01*
X009188Y002652D01*
X009233Y002685D01*
X009280Y002715D01*
X009328Y002741D01*
X009379Y002765D01*
X009431Y002785D01*
X009484Y002801D01*
X009538Y002815D01*
X009593Y002824D01*
X009648Y002830D01*
X009704Y002832D01*
X009704Y002823D01*
X009649Y002821D01*
X009594Y002815D01*
X009540Y002806D01*
X009486Y002793D01*
X009434Y002776D01*
X009382Y002757D01*
X009332Y002733D01*
X009284Y002707D01*
X009238Y002677D01*
X009193Y002645D01*
X009151Y002610D01*
X009111Y002571D01*
X009074Y002531D01*
X009081Y002525D01*
X009118Y002565D01*
X009157Y002603D01*
X009199Y002638D01*
X009243Y002670D01*
X009289Y002699D01*
X009337Y002725D01*
X009386Y002748D01*
X009437Y002768D01*
X009489Y002784D01*
X009542Y002797D01*
X009595Y002806D01*
X009650Y002812D01*
X009704Y002814D01*
X009704Y002805D01*
X009650Y002803D01*
X009597Y002797D01*
X009544Y002788D01*
X009491Y002775D01*
X009440Y002759D01*
X009389Y002740D01*
X009341Y002717D01*
X009293Y002692D01*
X009248Y002663D01*
X009204Y002631D01*
X009163Y002596D01*
X009124Y002559D01*
X009088Y002519D01*
X009095Y002513D01*
X009131Y002553D01*
X009169Y002590D01*
X009210Y002624D01*
X009253Y002655D01*
X009298Y002684D01*
X009345Y002709D01*
X009393Y002732D01*
X009443Y002751D01*
X009494Y002767D01*
X009545Y002779D01*
X009598Y002788D01*
X009651Y002794D01*
X009704Y002796D01*
X009704Y002787D01*
X009651Y002785D01*
X009599Y002779D01*
X009547Y002770D01*
X009496Y002758D01*
X009446Y002742D01*
X009396Y002723D01*
X009349Y002701D01*
X009302Y002676D01*
X009258Y002648D01*
X009216Y002617D01*
X009175Y002583D01*
X009137Y002546D01*
X009102Y002508D01*
X009108Y002502D01*
X009144Y002540D01*
X009181Y002576D01*
X009221Y002610D01*
X009263Y002640D01*
X009307Y002668D01*
X009353Y002693D01*
X009400Y002715D01*
X009449Y002734D01*
X009498Y002749D01*
X009549Y002762D01*
X009600Y002770D01*
X009652Y002776D01*
X009704Y002778D01*
X009704Y002769D01*
X009648Y002767D01*
X009593Y002760D01*
X009538Y002750D01*
X009484Y002736D01*
X009431Y002718D01*
X009380Y002696D01*
X009330Y002671D01*
X009282Y002642D01*
X009237Y002610D01*
X009194Y002575D01*
X009153Y002537D01*
X009115Y002496D01*
X009122Y002490D01*
X009159Y002531D01*
X009200Y002568D01*
X009242Y002603D01*
X009287Y002635D01*
X009335Y002663D01*
X009384Y002688D01*
X009435Y002710D01*
X009487Y002727D01*
X009540Y002741D01*
X009594Y002751D01*
X009649Y002758D01*
X009704Y002760D01*
X009704Y002751D01*
X009650Y002749D01*
X009596Y002743D01*
X009542Y002733D01*
X009489Y002719D01*
X009438Y002701D01*
X009388Y002680D01*
X009339Y002655D01*
X009292Y002627D01*
X009248Y002596D01*
X009206Y002562D01*
X009166Y002524D01*
X009129Y002484D01*
D16*
X008551Y014395D02*
X008553Y014458D01*
X008559Y014520D01*
X008569Y014582D01*
X008582Y014644D01*
X008600Y014704D01*
X008621Y014763D01*
X008646Y014821D01*
X008675Y014877D01*
X008707Y014931D01*
X008742Y014983D01*
X008780Y015032D01*
X008822Y015080D01*
X008866Y015124D01*
X008914Y015166D01*
X008963Y015204D01*
X009015Y015239D01*
X009069Y015271D01*
X009125Y015300D01*
X009183Y015325D01*
X009242Y015346D01*
X009302Y015364D01*
X009364Y015377D01*
X009426Y015387D01*
X009488Y015393D01*
X009551Y015395D01*
X009614Y015393D01*
X009676Y015387D01*
X009738Y015377D01*
X009800Y015364D01*
X009860Y015346D01*
X009919Y015325D01*
X009977Y015300D01*
X010033Y015271D01*
X010087Y015239D01*
X010139Y015204D01*
X010188Y015166D01*
X010236Y015124D01*
X010280Y015080D01*
X010322Y015032D01*
X010360Y014983D01*
X010395Y014931D01*
X010427Y014877D01*
X010456Y014821D01*
X010481Y014763D01*
X010502Y014704D01*
X010520Y014644D01*
X010533Y014582D01*
X010543Y014520D01*
X010549Y014458D01*
X010551Y014395D01*
X010549Y014332D01*
X010543Y014270D01*
X010533Y014208D01*
X010520Y014146D01*
X010502Y014086D01*
X010481Y014027D01*
X010456Y013969D01*
X010427Y013913D01*
X010395Y013859D01*
X010360Y013807D01*
X010322Y013758D01*
X010280Y013710D01*
X010236Y013666D01*
X010188Y013624D01*
X010139Y013586D01*
X010087Y013551D01*
X010033Y013519D01*
X009977Y013490D01*
X009919Y013465D01*
X009860Y013444D01*
X009800Y013426D01*
X009738Y013413D01*
X009676Y013403D01*
X009614Y013397D01*
X009551Y013395D01*
X009488Y013397D01*
X009426Y013403D01*
X009364Y013413D01*
X009302Y013426D01*
X009242Y013444D01*
X009183Y013465D01*
X009125Y013490D01*
X009069Y013519D01*
X009015Y013551D01*
X008963Y013586D01*
X008914Y013624D01*
X008866Y013666D01*
X008822Y013710D01*
X008780Y013758D01*
X008742Y013807D01*
X008707Y013859D01*
X008675Y013913D01*
X008646Y013969D01*
X008621Y014027D01*
X008600Y014086D01*
X008582Y014146D01*
X008569Y014208D01*
X008559Y014270D01*
X008553Y014332D01*
X008551Y014395D01*
X005709Y014487D02*
X005711Y014550D01*
X005717Y014612D01*
X005727Y014674D01*
X005740Y014736D01*
X005758Y014796D01*
X005779Y014855D01*
X005804Y014913D01*
X005833Y014969D01*
X005865Y015023D01*
X005900Y015075D01*
X005938Y015124D01*
X005980Y015172D01*
X006024Y015216D01*
X006072Y015258D01*
X006121Y015296D01*
X006173Y015331D01*
X006227Y015363D01*
X006283Y015392D01*
X006341Y015417D01*
X006400Y015438D01*
X006460Y015456D01*
X006522Y015469D01*
X006584Y015479D01*
X006646Y015485D01*
X006709Y015487D01*
X006772Y015485D01*
X006834Y015479D01*
X006896Y015469D01*
X006958Y015456D01*
X007018Y015438D01*
X007077Y015417D01*
X007135Y015392D01*
X007191Y015363D01*
X007245Y015331D01*
X007297Y015296D01*
X007346Y015258D01*
X007394Y015216D01*
X007438Y015172D01*
X007480Y015124D01*
X007518Y015075D01*
X007553Y015023D01*
X007585Y014969D01*
X007614Y014913D01*
X007639Y014855D01*
X007660Y014796D01*
X007678Y014736D01*
X007691Y014674D01*
X007701Y014612D01*
X007707Y014550D01*
X007709Y014487D01*
X007707Y014424D01*
X007701Y014362D01*
X007691Y014300D01*
X007678Y014238D01*
X007660Y014178D01*
X007639Y014119D01*
X007614Y014061D01*
X007585Y014005D01*
X007553Y013951D01*
X007518Y013899D01*
X007480Y013850D01*
X007438Y013802D01*
X007394Y013758D01*
X007346Y013716D01*
X007297Y013678D01*
X007245Y013643D01*
X007191Y013611D01*
X007135Y013582D01*
X007077Y013557D01*
X007018Y013536D01*
X006958Y013518D01*
X006896Y013505D01*
X006834Y013495D01*
X006772Y013489D01*
X006709Y013487D01*
X006646Y013489D01*
X006584Y013495D01*
X006522Y013505D01*
X006460Y013518D01*
X006400Y013536D01*
X006341Y013557D01*
X006283Y013582D01*
X006227Y013611D01*
X006173Y013643D01*
X006121Y013678D01*
X006072Y013716D01*
X006024Y013758D01*
X005980Y013802D01*
X005938Y013850D01*
X005900Y013899D01*
X005865Y013951D01*
X005833Y014005D01*
X005804Y014061D01*
X005779Y014119D01*
X005758Y014178D01*
X005740Y014238D01*
X005727Y014300D01*
X005717Y014362D01*
X005711Y014424D01*
X005709Y014487D01*
X002767Y014453D02*
X002769Y014516D01*
X002775Y014578D01*
X002785Y014640D01*
X002798Y014702D01*
X002816Y014762D01*
X002837Y014821D01*
X002862Y014879D01*
X002891Y014935D01*
X002923Y014989D01*
X002958Y015041D01*
X002996Y015090D01*
X003038Y015138D01*
X003082Y015182D01*
X003130Y015224D01*
X003179Y015262D01*
X003231Y015297D01*
X003285Y015329D01*
X003341Y015358D01*
X003399Y015383D01*
X003458Y015404D01*
X003518Y015422D01*
X003580Y015435D01*
X003642Y015445D01*
X003704Y015451D01*
X003767Y015453D01*
X003830Y015451D01*
X003892Y015445D01*
X003954Y015435D01*
X004016Y015422D01*
X004076Y015404D01*
X004135Y015383D01*
X004193Y015358D01*
X004249Y015329D01*
X004303Y015297D01*
X004355Y015262D01*
X004404Y015224D01*
X004452Y015182D01*
X004496Y015138D01*
X004538Y015090D01*
X004576Y015041D01*
X004611Y014989D01*
X004643Y014935D01*
X004672Y014879D01*
X004697Y014821D01*
X004718Y014762D01*
X004736Y014702D01*
X004749Y014640D01*
X004759Y014578D01*
X004765Y014516D01*
X004767Y014453D01*
X004765Y014390D01*
X004759Y014328D01*
X004749Y014266D01*
X004736Y014204D01*
X004718Y014144D01*
X004697Y014085D01*
X004672Y014027D01*
X004643Y013971D01*
X004611Y013917D01*
X004576Y013865D01*
X004538Y013816D01*
X004496Y013768D01*
X004452Y013724D01*
X004404Y013682D01*
X004355Y013644D01*
X004303Y013609D01*
X004249Y013577D01*
X004193Y013548D01*
X004135Y013523D01*
X004076Y013502D01*
X004016Y013484D01*
X003954Y013471D01*
X003892Y013461D01*
X003830Y013455D01*
X003767Y013453D01*
X003704Y013455D01*
X003642Y013461D01*
X003580Y013471D01*
X003518Y013484D01*
X003458Y013502D01*
X003399Y013523D01*
X003341Y013548D01*
X003285Y013577D01*
X003231Y013609D01*
X003179Y013644D01*
X003130Y013682D01*
X003082Y013724D01*
X003038Y013768D01*
X002996Y013816D01*
X002958Y013865D01*
X002923Y013917D01*
X002891Y013971D01*
X002862Y014027D01*
X002837Y014085D01*
X002816Y014144D01*
X002798Y014204D01*
X002785Y014266D01*
X002775Y014328D01*
X002769Y014390D01*
X002767Y014453D01*
D17*
X009089Y002497D02*
X009089Y002317D01*
X009089Y001677D02*
X009089Y001477D01*
M02*
