%
M48
M72
T01C0.0276
T02C0.0315
T03C0.0320
T04C0.0354
T05C0.0400
%
T01
X3209Y3487
X4209Y3487
T02
X5021Y5424
X5021Y6424
X5021Y7424
X5021Y8424
X8021Y8424
X8021Y7424
X8021Y6424
X8021Y5424
T03
X9209Y1987
X10209Y1987
X9709Y7237
X10459Y7737
X9709Y8237
X9459Y11237
X8959Y11987
X9959Y11987
X9984Y14145
X9118Y14645
X7209Y14487
X6209Y14487
X6209Y11987
X6709Y11237
X7209Y11987
X4209Y11987
X3709Y11237
X3209Y11987
X3334Y14203
X4201Y14703
T04
X6209Y9987
X3459Y9487
X3459Y5487
X10209Y9987
T05
X9459Y5737
X9459Y4737
X7599Y3767
X5819Y3767
X4209Y1487
X3209Y1487
X5819Y1207
X7599Y1207
M30
