G75*
%MOIN*%
%OFA0B0*%
%FSLAX24Y24*%
%IPPOS*%
%LPD*%
%AMOC8*
5,1,8,0,0,1.08239X$1,22.5*
%
%ADD10C,0.0000*%
%ADD11C,0.0515*%
%ADD12C,0.0740*%
%ADD13OC8,0.0520*%
%ADD14C,0.0100*%
%ADD15C,0.0120*%
D10*
X002209Y000150D02*
X002209Y015898D01*
X011208Y015898D01*
X011208Y000150D01*
X002209Y000150D01*
D11*
X004678Y004581D02*
X004678Y005096D01*
X005678Y005096D02*
X005678Y004581D01*
X006678Y004581D02*
X006678Y005096D01*
X007678Y005096D02*
X007678Y004581D01*
X007678Y007581D02*
X007678Y008096D01*
X006678Y008096D02*
X006678Y007581D01*
X005678Y007581D02*
X005678Y008096D01*
X004678Y008096D02*
X004678Y007581D01*
D12*
X003209Y005900D03*
X003367Y009619D03*
X003276Y014150D03*
X004142Y014650D03*
X006209Y014400D03*
X007209Y014400D03*
X009276Y014650D03*
X010142Y014150D03*
X007367Y009619D03*
X009959Y007900D03*
X009959Y006900D03*
X010239Y003040D03*
X010239Y001260D03*
X007679Y001260D03*
X007679Y003040D03*
X005959Y001900D03*
X004959Y001900D03*
X003209Y001900D03*
D13*
X009459Y009150D03*
X009459Y010150D03*
X010209Y009650D03*
X009709Y011400D03*
X009209Y012150D03*
X010209Y012150D03*
X007209Y012150D03*
X006709Y011400D03*
X006209Y012150D03*
X004209Y012150D03*
X003709Y011400D03*
X003209Y012150D03*
D14*
X003179Y012167D02*
X002419Y012167D01*
X002419Y012069D02*
X002799Y012069D01*
X002799Y012120D02*
X002799Y011980D01*
X003040Y011740D01*
X003179Y011740D01*
X003179Y012120D01*
X002799Y012120D01*
X002799Y012180D02*
X003179Y012180D01*
X003179Y012120D01*
X003239Y012120D01*
X003239Y011740D01*
X003379Y011740D01*
X003619Y011980D01*
X003619Y012120D01*
X003239Y012120D01*
X003239Y012180D01*
X003179Y012180D01*
X003179Y012560D01*
X003040Y012560D01*
X002799Y012320D01*
X002799Y012180D01*
X002799Y012266D02*
X002419Y012266D01*
X002419Y012364D02*
X002844Y012364D01*
X002942Y012463D02*
X002419Y012463D01*
X002419Y012561D02*
X003949Y012561D01*
X003949Y012555D02*
X003739Y012345D01*
X003739Y011955D01*
X003785Y011910D01*
X003658Y011910D01*
X003562Y011870D01*
X003515Y011870D01*
X003239Y011595D01*
X003239Y011205D01*
X003515Y010930D01*
X003904Y010930D01*
X004179Y011205D01*
X004179Y011390D01*
X006239Y011390D01*
X006239Y011205D01*
X006515Y010930D01*
X006904Y010930D01*
X007179Y011205D01*
X007179Y011390D01*
X009239Y011390D01*
X009239Y011205D01*
X009515Y010930D01*
X009904Y010930D01*
X010179Y011205D01*
X010179Y011595D01*
X010094Y011680D01*
X010404Y011680D01*
X010679Y011955D01*
X010679Y012345D01*
X010469Y012555D01*
X010469Y013658D01*
X010471Y013658D01*
X010634Y013821D01*
X010722Y014035D01*
X010722Y014265D01*
X010634Y014479D01*
X010471Y014642D01*
X010258Y014730D01*
X010027Y014730D01*
X009856Y014659D01*
X009856Y014765D01*
X009768Y014979D01*
X009605Y015142D01*
X009392Y015230D01*
X009161Y015230D01*
X008948Y015142D01*
X008785Y014979D01*
X008696Y014765D01*
X008696Y014535D01*
X008785Y014321D01*
X008948Y014158D01*
X009161Y014070D01*
X009392Y014070D01*
X009562Y014141D01*
X009562Y014035D01*
X009651Y013821D01*
X009814Y013658D01*
X009949Y013602D01*
X009949Y012555D01*
X009739Y012345D01*
X009739Y011955D01*
X009801Y011893D01*
X009761Y011910D01*
X009549Y011910D01*
X009619Y011980D01*
X009619Y012120D01*
X009239Y012120D01*
X009239Y012180D01*
X009179Y012180D01*
X009179Y012120D01*
X008799Y012120D01*
X008799Y011980D01*
X008870Y011910D01*
X007634Y011910D01*
X007679Y011955D01*
X007679Y012345D01*
X007404Y012620D01*
X007015Y012620D01*
X006739Y012345D01*
X006739Y011955D01*
X006785Y011910D01*
X006549Y011910D01*
X006619Y011980D01*
X006619Y012120D01*
X006239Y012120D01*
X006239Y012180D01*
X006179Y012180D01*
X006179Y012120D01*
X005799Y012120D01*
X005799Y011980D01*
X005870Y011910D01*
X004634Y011910D01*
X004679Y011955D01*
X004679Y012345D01*
X004469Y012555D01*
X004469Y014158D01*
X004471Y014158D01*
X004634Y014321D01*
X004722Y014535D01*
X004722Y014765D01*
X004634Y014979D01*
X004471Y015142D01*
X004258Y015230D01*
X004027Y015230D01*
X003814Y015142D01*
X003651Y014979D01*
X003562Y014765D01*
X003562Y014659D01*
X003392Y014730D01*
X003161Y014730D01*
X002948Y014642D01*
X002785Y014479D01*
X002696Y014265D01*
X002696Y014035D01*
X002785Y013821D01*
X002948Y013658D01*
X003161Y013570D01*
X003392Y013570D01*
X003605Y013658D01*
X003768Y013821D01*
X003856Y014035D01*
X003856Y014141D01*
X003949Y014102D01*
X003949Y012555D01*
X003949Y012660D02*
X002419Y012660D01*
X002419Y012758D02*
X003949Y012758D01*
X003949Y012857D02*
X002419Y012857D01*
X002419Y012955D02*
X003949Y012955D01*
X003949Y013054D02*
X002419Y013054D01*
X002419Y013152D02*
X003949Y013152D01*
X003949Y013251D02*
X002419Y013251D01*
X002419Y013349D02*
X003949Y013349D01*
X003949Y013448D02*
X002419Y013448D01*
X002419Y013546D02*
X003949Y013546D01*
X003949Y013645D02*
X003572Y013645D01*
X003690Y013743D02*
X003949Y013743D01*
X003949Y013842D02*
X003776Y013842D01*
X003817Y013940D02*
X003949Y013940D01*
X003949Y014039D02*
X003856Y014039D01*
X003856Y014137D02*
X003865Y014137D01*
X004142Y014650D02*
X004209Y014650D01*
X004209Y012150D01*
X003857Y012463D02*
X003477Y012463D01*
X003379Y012560D02*
X003619Y012320D01*
X003619Y012180D01*
X003239Y012180D01*
X003239Y012560D01*
X003379Y012560D01*
X003239Y012463D02*
X003179Y012463D01*
X003179Y012364D02*
X003239Y012364D01*
X003239Y012266D02*
X003179Y012266D01*
X003239Y012167D02*
X003739Y012167D01*
X003739Y012069D02*
X003619Y012069D01*
X003609Y011970D02*
X003739Y011970D01*
X003565Y011872D02*
X003511Y011872D01*
X003562Y011870D02*
X003562Y011870D01*
X003418Y011773D02*
X003412Y011773D01*
X003319Y011675D02*
X002419Y011675D01*
X002419Y011773D02*
X003007Y011773D01*
X002908Y011872D02*
X002419Y011872D01*
X002419Y011970D02*
X002810Y011970D01*
X003179Y011970D02*
X003239Y011970D01*
X003239Y011872D02*
X003179Y011872D01*
X003179Y011773D02*
X003239Y011773D01*
X003239Y011576D02*
X002419Y011576D01*
X002419Y011478D02*
X003239Y011478D01*
X003239Y011379D02*
X002419Y011379D01*
X002419Y011281D02*
X003239Y011281D01*
X003263Y011182D02*
X002419Y011182D01*
X002419Y011084D02*
X003361Y011084D01*
X003460Y010985D02*
X002419Y010985D01*
X002419Y010887D02*
X004601Y010887D01*
X004562Y010870D02*
X003749Y010057D01*
X003696Y010110D01*
X003482Y010199D01*
X003252Y010199D01*
X003038Y010110D01*
X002875Y009947D01*
X002787Y009734D01*
X002787Y009503D01*
X002875Y009290D01*
X003038Y009127D01*
X003252Y009039D01*
X003482Y009039D01*
X003696Y009127D01*
X003859Y009290D01*
X003947Y009503D01*
X003947Y009520D01*
X004817Y010390D01*
X009035Y010390D01*
X008989Y010345D01*
X008989Y010298D01*
X008989Y010297D01*
X007562Y008870D01*
X007489Y008797D01*
X007449Y008702D01*
X007449Y008508D01*
X007413Y008493D01*
X007282Y008361D01*
X007211Y008189D01*
X007211Y007489D01*
X007282Y007317D01*
X007413Y007185D01*
X007449Y007170D01*
X007449Y005508D01*
X007413Y005493D01*
X007282Y005361D01*
X007211Y005189D01*
X007211Y004517D01*
X007145Y004582D01*
X007145Y005189D01*
X007074Y005361D01*
X006943Y005493D01*
X006771Y005564D01*
X006585Y005564D01*
X006413Y005493D01*
X006282Y005361D01*
X006211Y005189D01*
X006211Y004489D01*
X006282Y004317D01*
X006413Y004185D01*
X006585Y004114D01*
X006771Y004114D01*
X006846Y004145D01*
X007428Y003564D01*
X007351Y003532D01*
X007188Y003369D01*
X007099Y003155D01*
X007099Y002925D01*
X007188Y002711D01*
X002419Y002711D01*
X002419Y002613D02*
X007287Y002613D01*
X007351Y002548D02*
X007564Y002460D01*
X007795Y002460D01*
X008008Y002548D01*
X008171Y002711D01*
X009748Y002711D01*
X009911Y002548D01*
X010124Y002460D01*
X010355Y002460D01*
X010568Y002548D01*
X010731Y002711D01*
X010998Y002711D01*
X010998Y002613D02*
X010632Y002613D01*
X010731Y002711D02*
X010819Y002925D01*
X010819Y003155D01*
X010731Y003369D01*
X010568Y003532D01*
X010355Y003620D01*
X010124Y003620D01*
X009911Y003532D01*
X009748Y003369D01*
X009659Y003155D01*
X009659Y002925D01*
X009748Y002711D01*
X009707Y002810D02*
X008212Y002810D01*
X008253Y002908D02*
X009666Y002908D01*
X009659Y003007D02*
X008259Y003007D01*
X008259Y002925D02*
X008259Y003155D01*
X008171Y003369D01*
X008008Y003532D01*
X007969Y003548D01*
X007969Y003702D01*
X007930Y003797D01*
X007857Y003870D01*
X007613Y004114D01*
X007771Y004114D01*
X007943Y004185D01*
X008074Y004317D01*
X008145Y004489D01*
X008145Y005189D01*
X008074Y005361D01*
X007969Y005466D01*
X007969Y007212D01*
X008074Y007317D01*
X008145Y007489D01*
X008145Y007630D01*
X009444Y007630D01*
X009468Y007571D01*
X009631Y007408D01*
X009731Y007367D01*
X009687Y007345D01*
X009621Y007297D01*
X009563Y007239D01*
X009515Y007173D01*
X009478Y007100D01*
X009452Y007022D01*
X009441Y006950D01*
X009909Y006950D01*
X009909Y006850D01*
X009441Y006850D01*
X009452Y006778D01*
X009478Y006700D01*
X009515Y006627D01*
X009563Y006561D01*
X009621Y006503D01*
X009687Y006455D01*
X009760Y006418D01*
X009838Y006393D01*
X009909Y006381D01*
X009909Y006850D01*
X010009Y006850D01*
X010009Y006381D01*
X010081Y006393D01*
X010159Y006418D01*
X010232Y006455D01*
X010298Y006503D01*
X010356Y006561D01*
X010404Y006627D01*
X010441Y006700D01*
X010467Y006778D01*
X010478Y006850D01*
X010009Y006850D01*
X010009Y006950D01*
X010478Y006950D01*
X010467Y007022D01*
X010441Y007100D01*
X010404Y007173D01*
X010356Y007239D01*
X010298Y007297D01*
X010232Y007345D01*
X010188Y007367D01*
X010288Y007408D01*
X010451Y007571D01*
X010539Y007785D01*
X010539Y008015D01*
X010451Y008229D01*
X010288Y008392D01*
X010075Y008480D01*
X009844Y008480D01*
X009631Y008392D01*
X009468Y008229D01*
X009444Y008170D01*
X008145Y008170D01*
X008145Y008189D01*
X008074Y008361D01*
X007969Y008466D01*
X007969Y008542D01*
X009186Y009759D01*
X009265Y009680D01*
X009654Y009680D01*
X009739Y009765D01*
X009739Y009535D01*
X009654Y009620D01*
X009265Y009620D01*
X008989Y009345D01*
X008989Y008955D01*
X009265Y008680D01*
X009654Y008680D01*
X009929Y008955D01*
X009929Y009265D01*
X010015Y009180D01*
X010404Y009180D01*
X010679Y009455D01*
X010679Y009845D01*
X010469Y010055D01*
X010469Y010202D01*
X010430Y010297D01*
X009930Y010797D01*
X009857Y010870D01*
X009761Y010910D01*
X004658Y010910D01*
X004562Y010870D01*
X004480Y010788D02*
X002419Y010788D01*
X002419Y010690D02*
X004381Y010690D01*
X004283Y010591D02*
X002419Y010591D01*
X002419Y010493D02*
X004184Y010493D01*
X004086Y010394D02*
X002419Y010394D01*
X002419Y010296D02*
X003987Y010296D01*
X003889Y010197D02*
X003486Y010197D01*
X003248Y010197D02*
X002419Y010197D01*
X002419Y010099D02*
X003027Y010099D01*
X002928Y010000D02*
X002419Y010000D01*
X002419Y009902D02*
X002856Y009902D01*
X002816Y009803D02*
X002419Y009803D01*
X002419Y009705D02*
X002787Y009705D01*
X002787Y009606D02*
X002419Y009606D01*
X002419Y009508D02*
X002787Y009508D01*
X002826Y009409D02*
X002419Y009409D01*
X002419Y009311D02*
X002867Y009311D01*
X002953Y009212D02*
X002419Y009212D01*
X002419Y009114D02*
X003070Y009114D01*
X003367Y009619D02*
X003709Y009650D01*
X004709Y010650D01*
X009709Y010650D01*
X010209Y010150D01*
X010209Y009650D01*
X010535Y009311D02*
X010998Y009311D01*
X010998Y009409D02*
X010633Y009409D01*
X010679Y009508D02*
X010998Y009508D01*
X010998Y009606D02*
X010679Y009606D01*
X010679Y009705D02*
X010998Y009705D01*
X010998Y009803D02*
X010679Y009803D01*
X010623Y009902D02*
X010998Y009902D01*
X010998Y010000D02*
X010524Y010000D01*
X010469Y010099D02*
X010998Y010099D01*
X010998Y010197D02*
X010469Y010197D01*
X010431Y010296D02*
X010998Y010296D01*
X010998Y010394D02*
X010333Y010394D01*
X010235Y010493D02*
X010998Y010493D01*
X010998Y010591D02*
X010136Y010591D01*
X010038Y010690D02*
X010998Y010690D01*
X010998Y010788D02*
X009939Y010788D01*
X009818Y010887D02*
X010998Y010887D01*
X010998Y010985D02*
X009959Y010985D01*
X010058Y011084D02*
X010998Y011084D01*
X010998Y011182D02*
X010156Y011182D01*
X010179Y011281D02*
X010998Y011281D01*
X010998Y011379D02*
X010179Y011379D01*
X010179Y011478D02*
X010998Y011478D01*
X010998Y011576D02*
X010179Y011576D01*
X010100Y011675D02*
X010998Y011675D01*
X010998Y011773D02*
X010497Y011773D01*
X010596Y011872D02*
X010998Y011872D01*
X010998Y011970D02*
X010679Y011970D01*
X010679Y012069D02*
X010998Y012069D01*
X010998Y012167D02*
X010679Y012167D01*
X010679Y012266D02*
X010998Y012266D01*
X010998Y012364D02*
X010660Y012364D01*
X010562Y012463D02*
X010998Y012463D01*
X010998Y012561D02*
X010469Y012561D01*
X010469Y012660D02*
X010998Y012660D01*
X010998Y012758D02*
X010469Y012758D01*
X010469Y012857D02*
X010998Y012857D01*
X010998Y012955D02*
X010469Y012955D01*
X010469Y013054D02*
X010998Y013054D01*
X010998Y013152D02*
X010469Y013152D01*
X010469Y013251D02*
X010998Y013251D01*
X010998Y013349D02*
X010469Y013349D01*
X010469Y013448D02*
X010998Y013448D01*
X010998Y013546D02*
X010469Y013546D01*
X010469Y013645D02*
X010998Y013645D01*
X010998Y013743D02*
X010556Y013743D01*
X010643Y013842D02*
X010998Y013842D01*
X010998Y013940D02*
X010683Y013940D01*
X010722Y014039D02*
X010998Y014039D01*
X010998Y014137D02*
X010722Y014137D01*
X010722Y014236D02*
X010998Y014236D01*
X010998Y014334D02*
X010694Y014334D01*
X010653Y014433D02*
X010998Y014433D01*
X010998Y014531D02*
X010582Y014531D01*
X010483Y014630D02*
X010998Y014630D01*
X010998Y014728D02*
X010263Y014728D01*
X010022Y014728D02*
X009856Y014728D01*
X009831Y014827D02*
X010998Y014827D01*
X010998Y014925D02*
X009790Y014925D01*
X009723Y015024D02*
X010998Y015024D01*
X010998Y015122D02*
X009625Y015122D01*
X009415Y015221D02*
X010998Y015221D01*
X010998Y015319D02*
X002419Y015319D01*
X002419Y015221D02*
X004004Y015221D01*
X003794Y015122D02*
X002419Y015122D01*
X002419Y015024D02*
X003696Y015024D01*
X003629Y014925D02*
X002419Y014925D01*
X002419Y014827D02*
X003588Y014827D01*
X003562Y014728D02*
X003397Y014728D01*
X003156Y014728D02*
X002419Y014728D01*
X002419Y014630D02*
X002936Y014630D01*
X002837Y014531D02*
X002419Y014531D01*
X002419Y014433D02*
X002766Y014433D01*
X002725Y014334D02*
X002419Y014334D01*
X002419Y014236D02*
X002696Y014236D01*
X002696Y014137D02*
X002419Y014137D01*
X002419Y014039D02*
X002696Y014039D01*
X002736Y013940D02*
X002419Y013940D01*
X002419Y013842D02*
X002776Y013842D01*
X002863Y013743D02*
X002419Y013743D01*
X002419Y013645D02*
X002981Y013645D01*
X003575Y012364D02*
X003759Y012364D01*
X003739Y012266D02*
X003619Y012266D01*
X003239Y012069D02*
X003179Y012069D01*
X003709Y011650D02*
X003709Y011400D01*
X003709Y011650D02*
X006709Y011650D01*
X006709Y011400D01*
X006709Y011650D02*
X009709Y011650D01*
X009709Y011400D01*
X009361Y011084D02*
X007058Y011084D01*
X007156Y011182D02*
X009263Y011182D01*
X009239Y011281D02*
X007179Y011281D01*
X007179Y011379D02*
X009239Y011379D01*
X009460Y010985D02*
X006959Y010985D01*
X006460Y010985D02*
X003959Y010985D01*
X004058Y011084D02*
X006361Y011084D01*
X006263Y011182D02*
X004156Y011182D01*
X004179Y011281D02*
X006239Y011281D01*
X006239Y011379D02*
X004179Y011379D01*
X004679Y011970D02*
X005810Y011970D01*
X005799Y012069D02*
X004679Y012069D01*
X004679Y012167D02*
X006179Y012167D01*
X006179Y012180D02*
X005799Y012180D01*
X005799Y012320D01*
X006040Y012560D01*
X006179Y012560D01*
X006179Y012180D01*
X006209Y012150D02*
X006709Y012650D01*
X007709Y012650D01*
X008209Y012150D01*
X009209Y012150D01*
X009179Y012167D02*
X007679Y012167D01*
X007679Y012069D02*
X008799Y012069D01*
X008810Y011970D02*
X007679Y011970D01*
X007679Y012266D02*
X008799Y012266D01*
X008799Y012320D02*
X008799Y012180D01*
X009179Y012180D01*
X009179Y012560D01*
X009040Y012560D01*
X008799Y012320D01*
X008844Y012364D02*
X007660Y012364D01*
X007562Y012463D02*
X008942Y012463D01*
X009179Y012463D02*
X009239Y012463D01*
X009239Y012560D02*
X009239Y012180D01*
X009619Y012180D01*
X009619Y012320D01*
X009379Y012560D01*
X009239Y012560D01*
X009239Y012364D02*
X009179Y012364D01*
X009179Y012266D02*
X009239Y012266D01*
X009239Y012167D02*
X009739Y012167D01*
X009739Y012069D02*
X009619Y012069D01*
X009609Y011970D02*
X009739Y011970D01*
X009739Y012266D02*
X009619Y012266D01*
X009575Y012364D02*
X009759Y012364D01*
X009857Y012463D02*
X009477Y012463D01*
X009949Y012561D02*
X007463Y012561D01*
X006956Y012561D02*
X004469Y012561D01*
X004469Y012660D02*
X009949Y012660D01*
X009949Y012758D02*
X004469Y012758D01*
X004469Y012857D02*
X009949Y012857D01*
X009949Y012955D02*
X004469Y012955D01*
X004469Y013054D02*
X009949Y013054D01*
X009949Y013152D02*
X004469Y013152D01*
X004469Y013251D02*
X009949Y013251D01*
X009949Y013349D02*
X004469Y013349D01*
X004469Y013448D02*
X009949Y013448D01*
X009949Y013546D02*
X004469Y013546D01*
X004469Y013645D02*
X009847Y013645D01*
X009729Y013743D02*
X004469Y013743D01*
X004469Y013842D02*
X006042Y013842D01*
X006094Y013820D02*
X005881Y013908D01*
X005718Y014071D01*
X005629Y014285D01*
X005629Y014515D01*
X005718Y014729D01*
X005881Y014892D01*
X006094Y014980D01*
X006325Y014980D01*
X006538Y014892D01*
X006701Y014729D01*
X006709Y014709D01*
X006718Y014729D01*
X006881Y014892D01*
X007094Y014980D01*
X007325Y014980D01*
X007538Y014892D01*
X007701Y014729D01*
X007789Y014515D01*
X007789Y014285D01*
X007701Y014071D01*
X007538Y013908D01*
X007325Y013820D01*
X007094Y013820D01*
X006881Y013908D01*
X006718Y014071D01*
X006709Y014091D01*
X006701Y014071D01*
X006538Y013908D01*
X006325Y013820D01*
X006094Y013820D01*
X005849Y013940D02*
X004469Y013940D01*
X004469Y014039D02*
X005751Y014039D01*
X005691Y014137D02*
X004469Y014137D01*
X004548Y014236D02*
X005650Y014236D01*
X005629Y014334D02*
X004639Y014334D01*
X004680Y014433D02*
X005629Y014433D01*
X005636Y014531D02*
X004721Y014531D01*
X004722Y014630D02*
X005677Y014630D01*
X005718Y014728D02*
X004722Y014728D01*
X004697Y014827D02*
X005816Y014827D01*
X005961Y014925D02*
X004656Y014925D01*
X004589Y015024D02*
X008830Y015024D01*
X008763Y014925D02*
X007458Y014925D01*
X007603Y014827D02*
X008722Y014827D01*
X008696Y014728D02*
X007701Y014728D01*
X007742Y014630D02*
X008696Y014630D01*
X008698Y014531D02*
X007783Y014531D01*
X007789Y014433D02*
X008739Y014433D01*
X008780Y014334D02*
X007789Y014334D01*
X007769Y014236D02*
X008871Y014236D01*
X008999Y014137D02*
X007728Y014137D01*
X007668Y014039D02*
X009562Y014039D01*
X009554Y014137D02*
X009562Y014137D01*
X009602Y013940D02*
X007570Y013940D01*
X007377Y013842D02*
X009642Y013842D01*
X010142Y014150D02*
X010209Y014150D01*
X010209Y012150D01*
X008989Y010297D02*
X008989Y010297D01*
X008987Y010296D02*
X004723Y010296D01*
X004624Y010197D02*
X007248Y010197D01*
X007252Y010199D02*
X007038Y010110D01*
X006875Y009947D01*
X006787Y009734D01*
X006787Y009503D01*
X006875Y009290D01*
X007038Y009127D01*
X007252Y009039D01*
X007482Y009039D01*
X007696Y009127D01*
X007859Y009290D01*
X007947Y009503D01*
X007947Y009734D01*
X007859Y009947D01*
X007696Y010110D01*
X007482Y010199D01*
X007252Y010199D01*
X007027Y010099D02*
X004526Y010099D01*
X004427Y010000D02*
X006928Y010000D01*
X006856Y009902D02*
X004329Y009902D01*
X004230Y009803D02*
X006816Y009803D01*
X006787Y009705D02*
X004132Y009705D01*
X004033Y009606D02*
X006787Y009606D01*
X006787Y009508D02*
X003947Y009508D01*
X003908Y009409D02*
X006826Y009409D01*
X006867Y009311D02*
X003867Y009311D01*
X003781Y009212D02*
X006953Y009212D01*
X007070Y009114D02*
X003663Y009114D01*
X004413Y008407D02*
X004367Y008362D01*
X004329Y008310D01*
X004300Y008253D01*
X004281Y008192D01*
X004271Y008129D01*
X004271Y007868D01*
X004649Y007868D01*
X004649Y008504D01*
X004646Y008504D01*
X004583Y008494D01*
X004522Y008474D01*
X004464Y008445D01*
X004413Y008407D01*
X004436Y008424D02*
X002419Y008424D01*
X002419Y008326D02*
X004341Y008326D01*
X004292Y008227D02*
X002419Y008227D01*
X002419Y008129D02*
X004271Y008129D01*
X004271Y008030D02*
X002419Y008030D01*
X002419Y007932D02*
X004271Y007932D01*
X004271Y007810D02*
X004271Y007549D01*
X004281Y007486D01*
X004300Y007425D01*
X004329Y007368D01*
X004367Y007316D01*
X004413Y007271D01*
X004464Y007233D01*
X004522Y007204D01*
X004583Y007184D01*
X004646Y007174D01*
X004649Y007174D01*
X004649Y007810D01*
X004271Y007810D01*
X004271Y007735D02*
X002419Y007735D01*
X002419Y007833D02*
X004649Y007833D01*
X004649Y007810D02*
X004649Y007868D01*
X004707Y007868D01*
X004707Y008504D01*
X004710Y008504D01*
X004773Y008494D01*
X004834Y008474D01*
X004892Y008445D01*
X004943Y008407D01*
X004989Y008362D01*
X005026Y008310D01*
X005056Y008253D01*
X005075Y008192D01*
X005085Y008129D01*
X005085Y007868D01*
X004707Y007868D01*
X004707Y007810D01*
X005085Y007810D01*
X005085Y007549D01*
X005075Y007486D01*
X005056Y007425D01*
X005026Y007368D01*
X004989Y007316D01*
X004943Y007271D01*
X004892Y007233D01*
X004834Y007204D01*
X004773Y007184D01*
X004710Y007174D01*
X004707Y007174D01*
X004707Y007810D01*
X004649Y007810D01*
X004678Y007839D02*
X004709Y007650D01*
X005209Y007150D01*
X005209Y003650D01*
X007709Y001150D01*
X007679Y001260D01*
X007629Y001234D02*
X002419Y001234D01*
X002419Y001332D02*
X003065Y001332D01*
X003094Y001320D02*
X003325Y001320D01*
X003538Y001408D01*
X003701Y001571D01*
X003789Y001785D01*
X003789Y001890D01*
X004379Y001890D01*
X004379Y001785D01*
X004468Y001571D01*
X004631Y001408D01*
X004844Y001320D01*
X005075Y001320D01*
X005288Y001408D01*
X005451Y001571D01*
X005459Y001591D01*
X005468Y001571D01*
X005631Y001408D01*
X005844Y001320D01*
X006075Y001320D01*
X006288Y001408D01*
X006451Y001571D01*
X006539Y001785D01*
X006539Y002015D01*
X006451Y002229D01*
X006288Y002392D01*
X006075Y002480D01*
X005844Y002480D01*
X005631Y002392D01*
X005468Y002229D01*
X005459Y002209D01*
X005451Y002229D01*
X005288Y002392D01*
X005075Y002480D01*
X004844Y002480D01*
X004675Y002410D01*
X003494Y002410D01*
X003325Y002480D01*
X003094Y002480D01*
X002881Y002392D01*
X002718Y002229D01*
X002629Y002015D01*
X002629Y001785D01*
X002718Y001571D01*
X002881Y001408D01*
X003094Y001320D01*
X002859Y001431D02*
X002419Y001431D01*
X002419Y001529D02*
X002760Y001529D01*
X002695Y001628D02*
X002419Y001628D01*
X002419Y001726D02*
X002654Y001726D01*
X002629Y001825D02*
X002419Y001825D01*
X002419Y001923D02*
X002629Y001923D01*
X002632Y002022D02*
X002419Y002022D01*
X002419Y002120D02*
X002673Y002120D01*
X002714Y002219D02*
X002419Y002219D01*
X002419Y002317D02*
X002806Y002317D01*
X002938Y002416D02*
X002419Y002416D01*
X002419Y002514D02*
X007434Y002514D01*
X007351Y002548D02*
X007188Y002711D01*
X007147Y002810D02*
X002419Y002810D01*
X002419Y002908D02*
X007106Y002908D01*
X007099Y003007D02*
X002419Y003007D01*
X002419Y003105D02*
X007099Y003105D01*
X007119Y003204D02*
X002419Y003204D01*
X002419Y003302D02*
X007160Y003302D01*
X007220Y003401D02*
X002419Y003401D01*
X002419Y003499D02*
X007318Y003499D01*
X007394Y003598D02*
X002419Y003598D01*
X002419Y003696D02*
X007296Y003696D01*
X007197Y003795D02*
X002419Y003795D01*
X002419Y003893D02*
X007099Y003893D01*
X007000Y003992D02*
X002419Y003992D01*
X002419Y004090D02*
X006902Y004090D01*
X007145Y004583D02*
X007211Y004583D01*
X007211Y004681D02*
X007145Y004681D01*
X007145Y004780D02*
X007211Y004780D01*
X007211Y004878D02*
X007145Y004878D01*
X007145Y004977D02*
X007211Y004977D01*
X007211Y005075D02*
X007145Y005075D01*
X007145Y005174D02*
X007211Y005174D01*
X007245Y005272D02*
X007111Y005272D01*
X007065Y005371D02*
X007291Y005371D01*
X007389Y005469D02*
X006967Y005469D01*
X006678Y004839D02*
X006709Y004650D01*
X007709Y003650D01*
X007709Y003150D01*
X007679Y003040D01*
X008072Y002613D02*
X009847Y002613D01*
X009994Y002514D02*
X007925Y002514D01*
X008171Y002711D02*
X008259Y002925D01*
X008259Y003105D02*
X009659Y003105D01*
X009679Y003204D02*
X008240Y003204D01*
X008199Y003302D02*
X009720Y003302D01*
X009780Y003401D02*
X008139Y003401D01*
X008041Y003499D02*
X009878Y003499D01*
X010070Y003598D02*
X007969Y003598D01*
X007969Y003696D02*
X010998Y003696D01*
X010998Y003598D02*
X010409Y003598D01*
X010601Y003499D02*
X010998Y003499D01*
X010998Y003401D02*
X010699Y003401D01*
X010759Y003302D02*
X010998Y003302D01*
X010998Y003204D02*
X010800Y003204D01*
X010819Y003105D02*
X010998Y003105D01*
X010998Y003007D02*
X010819Y003007D01*
X010813Y002908D02*
X010998Y002908D01*
X010998Y002810D02*
X010772Y002810D01*
X010998Y002514D02*
X010485Y002514D01*
X010998Y002416D02*
X006231Y002416D01*
X006363Y002317D02*
X010998Y002317D01*
X010998Y002219D02*
X006455Y002219D01*
X006496Y002120D02*
X010998Y002120D01*
X010998Y002022D02*
X006537Y002022D01*
X006539Y001923D02*
X010998Y001923D01*
X010998Y001825D02*
X010392Y001825D01*
X010355Y001840D02*
X010124Y001840D01*
X009911Y001752D01*
X009748Y001589D01*
X009659Y001375D01*
X009659Y001145D01*
X009748Y000931D01*
X009911Y000768D01*
X010124Y000680D01*
X010355Y000680D01*
X010568Y000768D01*
X010731Y000931D01*
X010819Y001145D01*
X010819Y001375D01*
X010731Y001589D01*
X010568Y001752D01*
X010355Y001840D01*
X010594Y001726D02*
X010998Y001726D01*
X010998Y001628D02*
X010692Y001628D01*
X010756Y001529D02*
X010998Y001529D01*
X010998Y001431D02*
X010797Y001431D01*
X010819Y001332D02*
X010998Y001332D01*
X010998Y001234D02*
X010819Y001234D01*
X010815Y001135D02*
X010998Y001135D01*
X010998Y001037D02*
X010775Y001037D01*
X010734Y000938D02*
X010998Y000938D01*
X010998Y000840D02*
X010639Y000840D01*
X010502Y000741D02*
X010998Y000741D01*
X010998Y000643D02*
X002419Y000643D01*
X002419Y000741D02*
X009977Y000741D01*
X009840Y000840D02*
X007985Y000840D01*
X008018Y000863D02*
X007952Y000815D01*
X007879Y000778D01*
X007801Y000753D01*
X007729Y000741D01*
X007729Y001210D01*
X007629Y001210D01*
X007161Y001210D01*
X007172Y001138D01*
X007198Y001060D01*
X007235Y000987D01*
X007283Y000921D01*
X007341Y000863D01*
X007407Y000815D01*
X007480Y000778D01*
X007558Y000753D01*
X007629Y000741D01*
X007629Y001210D01*
X007629Y001310D01*
X007161Y001310D01*
X007172Y001382D01*
X007198Y001460D01*
X007235Y001533D01*
X007283Y001599D01*
X007341Y001657D01*
X007407Y001705D01*
X007480Y001742D01*
X007558Y001767D01*
X007629Y001779D01*
X007629Y001310D01*
X007729Y001310D01*
X007729Y001779D01*
X007801Y001767D01*
X007879Y001742D01*
X007952Y001705D01*
X008018Y001657D01*
X008076Y001599D01*
X008124Y001533D01*
X008161Y001460D01*
X008187Y001382D01*
X008198Y001310D01*
X007729Y001310D01*
X007729Y001210D01*
X008198Y001210D01*
X008187Y001138D01*
X008161Y001060D01*
X008124Y000987D01*
X008076Y000921D01*
X008018Y000863D01*
X008088Y000938D02*
X009745Y000938D01*
X009704Y001037D02*
X008149Y001037D01*
X008186Y001135D02*
X009663Y001135D01*
X009659Y001234D02*
X007729Y001234D01*
X007729Y001332D02*
X007629Y001332D01*
X007629Y001431D02*
X007729Y001431D01*
X007729Y001529D02*
X007629Y001529D01*
X007629Y001628D02*
X007729Y001628D01*
X007729Y001726D02*
X007629Y001726D01*
X007449Y001726D02*
X006515Y001726D01*
X006539Y001825D02*
X010087Y001825D01*
X009885Y001726D02*
X007910Y001726D01*
X008047Y001628D02*
X009787Y001628D01*
X009723Y001529D02*
X008126Y001529D01*
X008171Y001431D02*
X009682Y001431D01*
X009659Y001332D02*
X008195Y001332D01*
X007729Y001135D02*
X007629Y001135D01*
X007629Y001037D02*
X007729Y001037D01*
X007729Y000938D02*
X007629Y000938D01*
X007629Y000840D02*
X007729Y000840D01*
X007374Y000840D02*
X002419Y000840D01*
X002419Y000938D02*
X007271Y000938D01*
X007210Y001037D02*
X002419Y001037D01*
X002419Y001135D02*
X007173Y001135D01*
X007164Y001332D02*
X006104Y001332D01*
X006310Y001431D02*
X007188Y001431D01*
X007233Y001529D02*
X006409Y001529D01*
X006474Y001628D02*
X007312Y001628D01*
X005815Y001332D02*
X005104Y001332D01*
X005310Y001431D02*
X005609Y001431D01*
X005510Y001529D02*
X005409Y001529D01*
X004959Y001900D02*
X004709Y002150D01*
X003209Y002150D01*
X003209Y001900D01*
X003481Y002416D02*
X004688Y002416D01*
X005231Y002416D02*
X005688Y002416D01*
X005556Y002317D02*
X005363Y002317D01*
X005455Y002219D02*
X005464Y002219D01*
X004815Y001332D02*
X003354Y001332D01*
X003560Y001431D02*
X004609Y001431D01*
X004510Y001529D02*
X003659Y001529D01*
X003724Y001628D02*
X004445Y001628D01*
X004404Y001726D02*
X003765Y001726D01*
X003789Y001825D02*
X004379Y001825D01*
X004585Y004114D02*
X004771Y004114D01*
X004943Y004185D01*
X005074Y004317D01*
X005145Y004489D01*
X005145Y005189D01*
X005074Y005361D01*
X004943Y005493D01*
X004771Y005564D01*
X004585Y005564D01*
X004413Y005493D01*
X004282Y005361D01*
X004211Y005189D01*
X004211Y004489D01*
X004282Y004317D01*
X004413Y004185D01*
X004585Y004114D01*
X004410Y004189D02*
X002419Y004189D01*
X002419Y004287D02*
X004311Y004287D01*
X004253Y004386D02*
X002419Y004386D01*
X002419Y004484D02*
X004212Y004484D01*
X004211Y004583D02*
X002419Y004583D01*
X002419Y004681D02*
X004211Y004681D01*
X004211Y004780D02*
X002419Y004780D01*
X002419Y004878D02*
X004211Y004878D01*
X004211Y004977D02*
X002419Y004977D01*
X002419Y005075D02*
X004211Y005075D01*
X004211Y005174D02*
X002419Y005174D01*
X002419Y005272D02*
X004245Y005272D01*
X004291Y005371D02*
X002419Y005371D01*
X002419Y005469D02*
X002918Y005469D01*
X002937Y005455D02*
X003010Y005418D01*
X003088Y005393D01*
X003169Y005380D01*
X003171Y005380D01*
X003171Y005861D01*
X003248Y005861D01*
X003248Y005380D01*
X003250Y005380D01*
X003331Y005393D01*
X003409Y005418D01*
X003482Y005455D01*
X003548Y005503D01*
X003606Y005561D01*
X003654Y005627D01*
X003691Y005700D01*
X003717Y005778D01*
X003729Y005859D01*
X003729Y005861D01*
X003248Y005861D01*
X003248Y005939D01*
X003171Y005939D01*
X003171Y006420D01*
X003169Y006420D01*
X003088Y006407D01*
X003010Y006382D01*
X002937Y006345D01*
X002871Y006297D01*
X002813Y006239D01*
X002765Y006173D01*
X002728Y006100D01*
X002702Y006022D01*
X002689Y005941D01*
X002689Y005939D01*
X003171Y005939D01*
X003171Y005861D01*
X002689Y005861D01*
X002689Y005859D01*
X002702Y005778D01*
X002728Y005700D01*
X002765Y005627D01*
X002813Y005561D01*
X002871Y005503D01*
X002937Y005455D01*
X002808Y005568D02*
X002419Y005568D01*
X002419Y005666D02*
X002745Y005666D01*
X002707Y005765D02*
X002419Y005765D01*
X002419Y005863D02*
X003171Y005863D01*
X003248Y005863D02*
X007449Y005863D01*
X007449Y005765D02*
X003712Y005765D01*
X003674Y005666D02*
X007449Y005666D01*
X007449Y005568D02*
X003611Y005568D01*
X003501Y005469D02*
X004389Y005469D01*
X004967Y005469D02*
X005389Y005469D01*
X005413Y005493D02*
X005282Y005361D01*
X005211Y005189D01*
X005211Y004489D01*
X005282Y004317D01*
X005413Y004185D01*
X005585Y004114D01*
X005771Y004114D01*
X005943Y004185D01*
X006074Y004317D01*
X006145Y004489D01*
X006145Y005189D01*
X006074Y005361D01*
X005943Y005493D01*
X005771Y005564D01*
X005585Y005564D01*
X005413Y005493D01*
X005291Y005371D02*
X005065Y005371D01*
X005111Y005272D02*
X005245Y005272D01*
X005211Y005174D02*
X005145Y005174D01*
X005145Y005075D02*
X005211Y005075D01*
X005211Y004977D02*
X005145Y004977D01*
X005145Y004878D02*
X005211Y004878D01*
X005211Y004780D02*
X005145Y004780D01*
X005145Y004681D02*
X005211Y004681D01*
X005211Y004583D02*
X005145Y004583D01*
X005144Y004484D02*
X005212Y004484D01*
X005253Y004386D02*
X005103Y004386D01*
X005045Y004287D02*
X005311Y004287D01*
X005410Y004189D02*
X004946Y004189D01*
X005946Y004189D02*
X006410Y004189D01*
X006311Y004287D02*
X006045Y004287D01*
X006103Y004386D02*
X006253Y004386D01*
X006212Y004484D02*
X006144Y004484D01*
X006145Y004583D02*
X006211Y004583D01*
X006211Y004681D02*
X006145Y004681D01*
X006145Y004780D02*
X006211Y004780D01*
X006211Y004878D02*
X006145Y004878D01*
X006145Y004977D02*
X006211Y004977D01*
X006211Y005075D02*
X006145Y005075D01*
X006145Y005174D02*
X006211Y005174D01*
X006245Y005272D02*
X006111Y005272D01*
X006065Y005371D02*
X006291Y005371D01*
X006389Y005469D02*
X005967Y005469D01*
X005771Y007114D02*
X005585Y007114D01*
X005413Y007185D01*
X005282Y007317D01*
X005211Y007489D01*
X005211Y008189D01*
X005282Y008361D01*
X005413Y008493D01*
X005585Y008564D01*
X005771Y008564D01*
X005943Y008493D01*
X006074Y008361D01*
X006145Y008189D01*
X006145Y007489D01*
X006074Y007317D01*
X005943Y007185D01*
X005771Y007114D01*
X005842Y007144D02*
X006514Y007144D01*
X006585Y007114D02*
X006771Y007114D01*
X006943Y007185D01*
X007074Y007317D01*
X007145Y007489D01*
X007145Y008189D01*
X007074Y008361D01*
X006943Y008493D01*
X006771Y008564D01*
X006585Y008564D01*
X006413Y008493D01*
X006282Y008361D01*
X006211Y008189D01*
X006211Y007489D01*
X006282Y007317D01*
X006413Y007185D01*
X006585Y007114D01*
X006356Y007242D02*
X006000Y007242D01*
X006084Y007341D02*
X006272Y007341D01*
X006231Y007439D02*
X006125Y007439D01*
X006145Y007538D02*
X006211Y007538D01*
X006211Y007636D02*
X006145Y007636D01*
X006145Y007735D02*
X006211Y007735D01*
X006211Y007833D02*
X006145Y007833D01*
X006145Y007932D02*
X006211Y007932D01*
X006211Y008030D02*
X006145Y008030D01*
X006145Y008129D02*
X006211Y008129D01*
X006226Y008227D02*
X006130Y008227D01*
X006089Y008326D02*
X006267Y008326D01*
X006344Y008424D02*
X006012Y008424D01*
X005871Y008523D02*
X006485Y008523D01*
X006871Y008523D02*
X007449Y008523D01*
X007449Y008621D02*
X002419Y008621D01*
X002419Y008523D02*
X005485Y008523D01*
X005344Y008424D02*
X004920Y008424D01*
X005015Y008326D02*
X005267Y008326D01*
X005226Y008227D02*
X005064Y008227D01*
X005085Y008129D02*
X005211Y008129D01*
X005211Y008030D02*
X005085Y008030D01*
X005085Y007932D02*
X005211Y007932D01*
X005211Y007833D02*
X004707Y007833D01*
X004707Y007735D02*
X004649Y007735D01*
X004649Y007636D02*
X004707Y007636D01*
X004707Y007538D02*
X004649Y007538D01*
X004649Y007439D02*
X004707Y007439D01*
X004707Y007341D02*
X004649Y007341D01*
X004649Y007242D02*
X004707Y007242D01*
X004904Y007242D02*
X005356Y007242D01*
X005272Y007341D02*
X005007Y007341D01*
X005060Y007439D02*
X005231Y007439D01*
X005211Y007538D02*
X005084Y007538D01*
X005085Y007636D02*
X005211Y007636D01*
X005211Y007735D02*
X005085Y007735D01*
X004707Y007932D02*
X004649Y007932D01*
X004649Y008030D02*
X004707Y008030D01*
X004707Y008129D02*
X004649Y008129D01*
X004649Y008227D02*
X004707Y008227D01*
X004707Y008326D02*
X004649Y008326D01*
X004649Y008424D02*
X004707Y008424D01*
X004271Y007636D02*
X002419Y007636D01*
X002419Y007538D02*
X004272Y007538D01*
X004296Y007439D02*
X002419Y007439D01*
X002419Y007341D02*
X004349Y007341D01*
X004452Y007242D02*
X002419Y007242D01*
X002419Y007144D02*
X005514Y007144D01*
X006842Y007144D02*
X007449Y007144D01*
X007449Y007045D02*
X002419Y007045D01*
X002419Y006947D02*
X007449Y006947D01*
X007449Y006848D02*
X002419Y006848D01*
X002419Y006750D02*
X007449Y006750D01*
X007449Y006651D02*
X002419Y006651D01*
X002419Y006553D02*
X007449Y006553D01*
X007449Y006454D02*
X002419Y006454D01*
X002419Y006356D02*
X002958Y006356D01*
X002831Y006257D02*
X002419Y006257D01*
X002419Y006159D02*
X002758Y006159D01*
X002715Y006060D02*
X002419Y006060D01*
X002419Y005962D02*
X002693Y005962D01*
X003171Y005962D02*
X003248Y005962D01*
X003248Y005939D02*
X003248Y006420D01*
X003250Y006420D01*
X003331Y006407D01*
X003409Y006382D01*
X003482Y006345D01*
X003548Y006297D01*
X003606Y006239D01*
X003654Y006173D01*
X003691Y006100D01*
X003717Y006022D01*
X003729Y005941D01*
X003729Y005939D01*
X003248Y005939D01*
X003248Y006060D02*
X003171Y006060D01*
X003171Y006159D02*
X003248Y006159D01*
X003248Y006257D02*
X003171Y006257D01*
X003171Y006356D02*
X003248Y006356D01*
X003461Y006356D02*
X007449Y006356D01*
X007449Y006257D02*
X003588Y006257D01*
X003661Y006159D02*
X007449Y006159D01*
X007449Y006060D02*
X003704Y006060D01*
X003726Y005962D02*
X007449Y005962D01*
X007969Y005962D02*
X010998Y005962D01*
X010998Y006060D02*
X007969Y006060D01*
X007969Y006159D02*
X010998Y006159D01*
X010998Y006257D02*
X007969Y006257D01*
X007969Y006356D02*
X010998Y006356D01*
X010998Y006454D02*
X010230Y006454D01*
X010347Y006553D02*
X010998Y006553D01*
X010998Y006651D02*
X010416Y006651D01*
X010457Y006750D02*
X010998Y006750D01*
X010998Y006848D02*
X010478Y006848D01*
X010459Y007045D02*
X010998Y007045D01*
X010998Y006947D02*
X010009Y006947D01*
X010009Y006848D02*
X009909Y006848D01*
X009909Y006750D02*
X010009Y006750D01*
X010009Y006651D02*
X009909Y006651D01*
X009909Y006553D02*
X010009Y006553D01*
X010009Y006454D02*
X009909Y006454D01*
X009689Y006454D02*
X007969Y006454D01*
X007969Y006553D02*
X009572Y006553D01*
X009503Y006651D02*
X007969Y006651D01*
X007969Y006750D02*
X009462Y006750D01*
X009441Y006848D02*
X007969Y006848D01*
X007969Y006947D02*
X009909Y006947D01*
X009566Y007242D02*
X008000Y007242D01*
X007969Y007144D02*
X009500Y007144D01*
X009460Y007045D02*
X007969Y007045D01*
X008084Y007341D02*
X009681Y007341D01*
X009600Y007439D02*
X008125Y007439D01*
X008145Y007538D02*
X009502Y007538D01*
X009467Y008227D02*
X008130Y008227D01*
X008089Y008326D02*
X009565Y008326D01*
X009709Y008424D02*
X008012Y008424D01*
X007969Y008523D02*
X010998Y008523D01*
X010998Y008621D02*
X008048Y008621D01*
X008147Y008720D02*
X009225Y008720D01*
X009127Y008818D02*
X008245Y008818D01*
X008344Y008917D02*
X009028Y008917D01*
X008989Y009015D02*
X008442Y009015D01*
X008541Y009114D02*
X008989Y009114D01*
X008989Y009212D02*
X008639Y009212D01*
X008738Y009311D02*
X008989Y009311D01*
X009054Y009409D02*
X008836Y009409D01*
X008935Y009508D02*
X009152Y009508D01*
X009251Y009606D02*
X009033Y009606D01*
X009132Y009705D02*
X009240Y009705D01*
X009209Y010150D02*
X009459Y010150D01*
X009209Y010150D02*
X007709Y008650D01*
X007709Y008150D01*
X007678Y007839D01*
X007709Y007650D01*
X007709Y005150D01*
X007678Y004839D01*
X008065Y005371D02*
X010998Y005371D01*
X010998Y005469D02*
X007969Y005469D01*
X007969Y005568D02*
X010998Y005568D01*
X010998Y005666D02*
X007969Y005666D01*
X007969Y005765D02*
X010998Y005765D01*
X010998Y005863D02*
X007969Y005863D01*
X008111Y005272D02*
X010998Y005272D01*
X010998Y005174D02*
X008145Y005174D01*
X008145Y005075D02*
X010998Y005075D01*
X010998Y004977D02*
X008145Y004977D01*
X008145Y004878D02*
X010998Y004878D01*
X010998Y004780D02*
X008145Y004780D01*
X008145Y004681D02*
X010998Y004681D01*
X010998Y004583D02*
X008145Y004583D01*
X008144Y004484D02*
X010998Y004484D01*
X010998Y004386D02*
X008103Y004386D01*
X008045Y004287D02*
X010998Y004287D01*
X010998Y004189D02*
X007946Y004189D01*
X007736Y003992D02*
X010998Y003992D01*
X010998Y004090D02*
X007637Y004090D01*
X007834Y003893D02*
X010998Y003893D01*
X010998Y003795D02*
X007931Y003795D01*
X010419Y007144D02*
X010998Y007144D01*
X010998Y007242D02*
X010353Y007242D01*
X010238Y007341D02*
X010998Y007341D01*
X010998Y007439D02*
X010319Y007439D01*
X010417Y007538D02*
X010998Y007538D01*
X010998Y007636D02*
X010478Y007636D01*
X010519Y007735D02*
X010998Y007735D01*
X010998Y007833D02*
X010539Y007833D01*
X010539Y007932D02*
X010998Y007932D01*
X010998Y008030D02*
X010533Y008030D01*
X010493Y008129D02*
X010998Y008129D01*
X010998Y008227D02*
X010452Y008227D01*
X010354Y008326D02*
X010998Y008326D01*
X010998Y008424D02*
X010210Y008424D01*
X009891Y008917D02*
X010998Y008917D01*
X010998Y009015D02*
X009929Y009015D01*
X009929Y009114D02*
X010998Y009114D01*
X010998Y009212D02*
X010436Y009212D01*
X009983Y009212D02*
X009929Y009212D01*
X009792Y008818D02*
X010998Y008818D01*
X010998Y008720D02*
X009694Y008720D01*
X009668Y009606D02*
X009739Y009606D01*
X009739Y009705D02*
X009679Y009705D01*
X008889Y010197D02*
X007486Y010197D01*
X007707Y010099D02*
X008790Y010099D01*
X008692Y010000D02*
X007806Y010000D01*
X007878Y009902D02*
X008593Y009902D01*
X008495Y009803D02*
X007918Y009803D01*
X007947Y009705D02*
X008396Y009705D01*
X008298Y009606D02*
X007947Y009606D01*
X007947Y009508D02*
X008199Y009508D01*
X008101Y009409D02*
X007908Y009409D01*
X007867Y009311D02*
X008002Y009311D01*
X007904Y009212D02*
X007781Y009212D01*
X007805Y009114D02*
X007663Y009114D01*
X007707Y009015D02*
X002419Y009015D01*
X002419Y008917D02*
X007608Y008917D01*
X007562Y008870D02*
X007562Y008870D01*
X007510Y008818D02*
X002419Y008818D01*
X002419Y008720D02*
X007457Y008720D01*
X007344Y008424D02*
X007012Y008424D01*
X007089Y008326D02*
X007267Y008326D01*
X007226Y008227D02*
X007130Y008227D01*
X007145Y008129D02*
X007211Y008129D01*
X007211Y008030D02*
X007145Y008030D01*
X007145Y007932D02*
X007211Y007932D01*
X007211Y007833D02*
X007145Y007833D01*
X007145Y007735D02*
X007211Y007735D01*
X007211Y007636D02*
X007145Y007636D01*
X007145Y007538D02*
X007211Y007538D01*
X007231Y007439D02*
X007125Y007439D01*
X007084Y007341D02*
X007272Y007341D01*
X007356Y007242D02*
X007000Y007242D01*
X003790Y010099D02*
X003707Y010099D01*
X004679Y012266D02*
X005799Y012266D01*
X005844Y012364D02*
X004660Y012364D01*
X004562Y012463D02*
X005942Y012463D01*
X006179Y012463D02*
X006239Y012463D01*
X006239Y012560D02*
X006239Y012180D01*
X006619Y012180D01*
X006619Y012320D01*
X006379Y012560D01*
X006239Y012560D01*
X006239Y012364D02*
X006179Y012364D01*
X006179Y012266D02*
X006239Y012266D01*
X006239Y012167D02*
X006739Y012167D01*
X006739Y012069D02*
X006619Y012069D01*
X006609Y011970D02*
X006739Y011970D01*
X006739Y012266D02*
X006619Y012266D01*
X006575Y012364D02*
X006759Y012364D01*
X006857Y012463D02*
X006477Y012463D01*
X006377Y013842D02*
X007042Y013842D01*
X006849Y013940D02*
X006570Y013940D01*
X006668Y014039D02*
X006751Y014039D01*
X006718Y014728D02*
X006701Y014728D01*
X006603Y014827D02*
X006816Y014827D01*
X006961Y014925D02*
X006458Y014925D01*
X004491Y015122D02*
X008928Y015122D01*
X009138Y015221D02*
X004281Y015221D01*
X002419Y015418D02*
X010998Y015418D01*
X010998Y015516D02*
X002419Y015516D01*
X002419Y015615D02*
X010998Y015615D01*
X010998Y015688D02*
X002419Y015688D01*
X002419Y000360D01*
X010998Y000360D01*
X010998Y015688D01*
X003248Y005765D02*
X003171Y005765D01*
X003171Y005666D02*
X003248Y005666D01*
X003248Y005568D02*
X003171Y005568D01*
X003171Y005469D02*
X003248Y005469D01*
X002419Y000544D02*
X010998Y000544D01*
X010998Y000446D02*
X002419Y000446D01*
D15*
X007709Y007900D02*
X009959Y007900D01*
M02*
