G75*
%MOIN*%
%OFA0B0*%
%FSLAX24Y24*%
%IPPOS*%
%LPD*%
%AMOC8*
5,1,8,0,0,1.08239X$1,22.5*
%
%ADD10C,0.0000*%
%ADD11C,0.0050*%
%ADD12C,0.0160*%
%ADD13C,0.0030*%
D10*
X002209Y000150D02*
X002209Y015898D01*
X011208Y015898D01*
X011208Y000150D01*
X002209Y000150D01*
D11*
X009574Y003846D02*
X009676Y003744D01*
X010083Y004151D01*
X009676Y004151D01*
X009574Y004049D01*
X009574Y003846D01*
X009676Y003744D02*
X010083Y003744D01*
X010185Y003846D01*
X010185Y004049D01*
X010083Y004151D01*
X009981Y004352D02*
X009574Y004759D01*
X009676Y004960D02*
X010083Y005367D01*
X009676Y005367D01*
X009574Y005265D01*
X009574Y005061D01*
X009676Y004960D01*
X010083Y004960D01*
X010185Y005061D01*
X010185Y005265D01*
X010083Y005367D01*
X010083Y005567D02*
X010185Y005669D01*
X010185Y005873D01*
X010083Y005974D01*
X009676Y005567D01*
X009574Y005669D01*
X009574Y005873D01*
X009676Y005974D01*
X010083Y005974D01*
X010083Y005567D02*
X009676Y005567D01*
X009981Y004759D02*
X009574Y004352D01*
D12*
X003959Y004430D02*
X003332Y004430D01*
X003543Y004588D02*
X003959Y004588D01*
X003959Y004747D02*
X003755Y004747D01*
X003959Y004900D02*
X003959Y003650D01*
X002959Y004150D01*
X003959Y004900D01*
X003959Y004271D02*
X003121Y004271D01*
X003034Y004113D02*
X003959Y004113D01*
X003959Y003954D02*
X003351Y003954D01*
X003668Y003796D02*
X003959Y003796D01*
D13*
X004071Y003285D02*
X004194Y003162D01*
X004194Y003038D01*
X004071Y002915D01*
X003949Y002915D02*
X003764Y002915D01*
X003702Y002977D01*
X003702Y003100D01*
X003764Y003162D01*
X003949Y003162D01*
X003949Y002792D01*
X003581Y002915D02*
X003457Y002915D01*
X003519Y002915D02*
X003519Y003285D01*
X003581Y003285D01*
X003335Y002977D02*
X003273Y003038D01*
X003088Y003038D01*
X003088Y003100D02*
X003088Y002915D01*
X003273Y002915D01*
X003335Y002977D01*
X003273Y003162D02*
X003150Y003162D01*
X003088Y003100D01*
X002967Y003162D02*
X002967Y002977D01*
X002905Y002915D01*
X002720Y002915D01*
X002720Y002853D02*
X002782Y002792D01*
X002843Y002792D01*
X002720Y002853D02*
X002720Y003162D01*
X002598Y003285D02*
X002475Y003162D01*
X002475Y003038D01*
X002598Y002915D01*
M02*
