%
M48
M72
T01C0.0276
T02C0.0315
T03C0.0320
T04C0.0354
T05C0.0400
%
T01
X3209Y7650
X4209Y7650
T02
X5428Y4339
X6428Y4339
X7428Y4339
X8428Y4339
X8428Y7339
X7428Y7339
X6428Y7339
X5428Y7339
T03
X4959Y1900
X5959Y1900
X9459Y9150
X9459Y10150
X10209Y9650
X9709Y11400
X9209Y12150
X10209Y12150
X10142Y14150
X9276Y14650
X7209Y14400
X6209Y14400
X6209Y12150
X6709Y11400
X7209Y12150
X4209Y12150
X3709Y11400
X3209Y12150
X3276Y14150
X4142Y14650
T04
X3367Y9619
X3209Y5900
X3209Y1900
X7367Y9619
T05
X9959Y7900
X9959Y6900
X10239Y3040
X10239Y1260
X7679Y1260
X7679Y3040
M30
