G75*
%MOIN*%
%OFA0B0*%
%FSLAX24Y24*%
%IPPOS*%
%LPD*%
%AMOC8*
5,1,8,0,0,1.08239X$1,22.5*
%
%ADD10C,0.0000*%
%ADD11C,0.0515*%
%ADD12C,0.0740*%
%ADD13OC8,0.0520*%
%ADD14R,0.0650X0.0650*%
%ADD15C,0.0650*%
%ADD16C,0.0160*%
%ADD17C,0.0100*%
D10*
X002209Y000150D02*
X002209Y015898D01*
X011208Y015898D01*
X011208Y000150D01*
X002209Y000150D01*
D11*
X005428Y004081D02*
X005428Y004596D01*
X006428Y004596D02*
X006428Y004081D01*
X007428Y004081D02*
X007428Y004596D01*
X008428Y004596D02*
X008428Y004081D01*
X008428Y007081D02*
X008428Y007596D01*
X007428Y007596D02*
X007428Y007081D01*
X006428Y007081D02*
X006428Y007596D01*
X005428Y007596D02*
X005428Y007081D01*
D12*
X007367Y009619D03*
X009959Y007900D03*
X009959Y006900D03*
X010239Y003040D03*
X010239Y001260D03*
X007679Y001260D03*
X007679Y003040D03*
X005959Y001900D03*
X004959Y001900D03*
X003209Y001900D03*
X003209Y005900D03*
X003367Y009619D03*
X003276Y014150D03*
X004142Y014650D03*
X006209Y014400D03*
X007209Y014400D03*
X009276Y014650D03*
X010142Y014150D03*
D13*
X010209Y012150D03*
X009709Y011400D03*
X009209Y012150D03*
X009459Y010150D03*
X009459Y009150D03*
X010209Y009650D03*
X007209Y012150D03*
X006709Y011400D03*
X006209Y012150D03*
X004209Y012150D03*
X003709Y011400D03*
X003209Y012150D03*
D14*
X003209Y007650D03*
D15*
X004209Y007650D03*
D16*
X003709Y008650D02*
X003209Y008150D01*
X003209Y007650D01*
X003709Y008650D02*
X004709Y008650D01*
X005209Y009150D01*
X005209Y013150D01*
X006209Y014150D01*
X006209Y014400D01*
X007209Y014400D02*
X007209Y012150D01*
X009209Y013150D02*
X009209Y014650D01*
X009276Y014650D01*
X009209Y013150D02*
X005209Y009150D01*
X004709Y008650D02*
X008209Y008650D01*
X009209Y008650D01*
X009959Y007900D01*
X008428Y007339D02*
X008209Y007650D01*
X008209Y008650D01*
X008209Y009150D01*
X009209Y010150D01*
X009459Y010150D01*
X008428Y007339D02*
X008209Y007150D01*
X008209Y004650D01*
X008428Y004339D01*
X007209Y007150D02*
X007428Y007339D01*
X007209Y007150D02*
X004709Y004650D01*
X004709Y003150D01*
X005959Y001900D01*
X004209Y012150D02*
X004209Y014650D01*
X004142Y014650D01*
D17*
X004491Y015122D02*
X008928Y015122D01*
X008948Y015142D02*
X008785Y014979D01*
X008696Y014765D01*
X008696Y014535D01*
X008785Y014321D01*
X008919Y014187D01*
X008919Y013270D01*
X007679Y012030D01*
X007679Y012345D01*
X007499Y012525D01*
X007499Y013892D01*
X007538Y013908D01*
X007701Y014071D01*
X007789Y014285D01*
X007789Y014515D01*
X007701Y014729D01*
X007538Y014892D01*
X007325Y014980D01*
X007094Y014980D01*
X006881Y014892D01*
X006718Y014729D01*
X006709Y014709D01*
X006701Y014729D01*
X006538Y014892D01*
X006325Y014980D01*
X006094Y014980D01*
X005881Y014892D01*
X005718Y014729D01*
X005629Y014515D01*
X005629Y014285D01*
X005718Y014071D01*
X005719Y014070D01*
X005045Y013396D01*
X004964Y013314D01*
X004919Y013208D01*
X004919Y009270D01*
X004589Y008940D01*
X003652Y008940D01*
X003545Y008896D01*
X003464Y008814D01*
X002964Y008314D01*
X002919Y008208D01*
X002919Y008185D01*
X002797Y008185D01*
X002674Y008062D01*
X002674Y007238D01*
X002797Y007115D01*
X003621Y007115D01*
X003744Y007238D01*
X003744Y007549D01*
X003746Y007539D01*
X003769Y007468D01*
X003803Y007401D01*
X003847Y007341D01*
X003900Y007288D01*
X003961Y007244D01*
X004027Y007210D01*
X004098Y007187D01*
X004172Y007175D01*
X004191Y007175D01*
X004191Y007631D01*
X004228Y007631D01*
X004228Y007175D01*
X004247Y007175D01*
X004321Y007187D01*
X004392Y007210D01*
X004458Y007244D01*
X004519Y007288D01*
X004572Y007341D01*
X004616Y007401D01*
X004650Y007468D01*
X004673Y007539D01*
X004684Y007613D01*
X004684Y007631D01*
X004228Y007631D01*
X004228Y007669D01*
X004191Y007669D01*
X004191Y008125D01*
X004172Y008125D01*
X004098Y008113D01*
X004027Y008090D01*
X003961Y008056D01*
X003900Y008012D01*
X003847Y007959D01*
X003803Y007899D01*
X003769Y007832D01*
X003746Y007761D01*
X003744Y007751D01*
X003744Y008062D01*
X003638Y008168D01*
X003830Y008360D01*
X007919Y008360D01*
X007919Y007675D01*
X007914Y007643D01*
X007919Y007618D01*
X007919Y007592D01*
X007932Y007562D01*
X007939Y007530D01*
X007954Y007509D01*
X007961Y007493D01*
X007961Y007307D01*
X007946Y007271D01*
X007924Y007228D01*
X007924Y007218D01*
X007919Y007208D01*
X007919Y007160D01*
X007916Y007113D01*
X007919Y007103D01*
X007919Y004675D01*
X007914Y004643D01*
X007919Y004618D01*
X007919Y004592D01*
X007932Y004562D01*
X007939Y004530D01*
X007954Y004509D01*
X007961Y004493D01*
X007961Y003989D01*
X008032Y003817D01*
X008163Y003685D01*
X008335Y003614D01*
X008521Y003614D01*
X008693Y003685D01*
X008824Y003817D01*
X008895Y003989D01*
X008895Y004689D01*
X008824Y004861D01*
X008693Y004993D01*
X008521Y005064D01*
X008499Y005064D01*
X008499Y006614D01*
X008521Y006614D01*
X008693Y006685D01*
X008824Y006817D01*
X008895Y006989D01*
X008895Y007689D01*
X008824Y007861D01*
X008693Y007993D01*
X008521Y008064D01*
X008499Y008064D01*
X008499Y008360D01*
X009089Y008360D01*
X009395Y008054D01*
X009379Y008015D01*
X009379Y007785D01*
X009468Y007571D01*
X009631Y007408D01*
X009731Y007367D01*
X009687Y007345D01*
X009621Y007297D01*
X009563Y007239D01*
X009515Y007173D01*
X009478Y007100D01*
X009452Y007022D01*
X009441Y006950D01*
X009909Y006950D01*
X009909Y006850D01*
X009441Y006850D01*
X009452Y006778D01*
X009478Y006700D01*
X009515Y006627D01*
X009563Y006561D01*
X009621Y006503D01*
X009687Y006455D01*
X009760Y006418D01*
X009838Y006393D01*
X009909Y006381D01*
X009909Y006850D01*
X010009Y006850D01*
X010009Y006381D01*
X010081Y006393D01*
X010159Y006418D01*
X010232Y006455D01*
X010298Y006503D01*
X010356Y006561D01*
X010404Y006627D01*
X010441Y006700D01*
X010467Y006778D01*
X010478Y006850D01*
X010009Y006850D01*
X010009Y006950D01*
X010478Y006950D01*
X010467Y007022D01*
X010441Y007100D01*
X010404Y007173D01*
X010356Y007239D01*
X010298Y007297D01*
X010232Y007345D01*
X010188Y007367D01*
X010288Y007408D01*
X010451Y007571D01*
X010539Y007785D01*
X010539Y008015D01*
X010451Y008229D01*
X010288Y008392D01*
X010075Y008480D01*
X009844Y008480D01*
X009806Y008464D01*
X009590Y008680D01*
X009654Y008680D01*
X009929Y008955D01*
X009929Y009265D01*
X010015Y009180D01*
X010404Y009180D01*
X010679Y009455D01*
X010679Y009845D01*
X010404Y010120D01*
X010015Y010120D01*
X009929Y010035D01*
X009929Y010345D01*
X009654Y010620D01*
X009265Y010620D01*
X008989Y010345D01*
X008989Y010340D01*
X008964Y010314D01*
X008045Y009396D01*
X007964Y009314D01*
X007919Y009208D01*
X007919Y008940D01*
X005410Y008940D01*
X005455Y008986D01*
X009455Y012986D01*
X009499Y013092D01*
X009499Y014115D01*
X009562Y014141D01*
X009562Y014035D01*
X009651Y013821D01*
X009814Y013658D01*
X010027Y013570D01*
X010258Y013570D01*
X010471Y013658D01*
X010634Y013821D01*
X010722Y014035D01*
X010722Y014265D01*
X010634Y014479D01*
X010471Y014642D01*
X010258Y014730D01*
X010027Y014730D01*
X009856Y014659D01*
X009856Y014765D01*
X009768Y014979D01*
X009605Y015142D01*
X009392Y015230D01*
X009161Y015230D01*
X008948Y015142D01*
X008830Y015024D02*
X004589Y015024D01*
X004634Y014979D02*
X004471Y015142D01*
X004258Y015230D01*
X004027Y015230D01*
X003814Y015142D01*
X003651Y014979D01*
X003562Y014765D01*
X003562Y014659D01*
X003392Y014730D01*
X003161Y014730D01*
X002948Y014642D01*
X002785Y014479D01*
X002696Y014265D01*
X002696Y014035D01*
X002785Y013821D01*
X002948Y013658D01*
X003161Y013570D01*
X003392Y013570D01*
X003605Y013658D01*
X003768Y013821D01*
X003856Y014035D01*
X003856Y014141D01*
X003919Y014115D01*
X003919Y012525D01*
X003739Y012345D01*
X003739Y011955D01*
X003825Y011870D01*
X003515Y011870D01*
X003239Y011595D01*
X003239Y011205D01*
X003515Y010930D01*
X003904Y010930D01*
X004179Y011205D01*
X004179Y011595D01*
X004094Y011680D01*
X004404Y011680D01*
X004679Y011955D01*
X004679Y012345D01*
X004499Y012525D01*
X004499Y014187D01*
X004634Y014321D01*
X004722Y014535D01*
X004722Y014765D01*
X004634Y014979D01*
X004656Y014925D02*
X005961Y014925D01*
X005816Y014827D02*
X004697Y014827D01*
X004722Y014728D02*
X005718Y014728D01*
X005677Y014630D02*
X004722Y014630D01*
X004721Y014531D02*
X005636Y014531D01*
X005629Y014433D02*
X004680Y014433D01*
X004639Y014334D02*
X005629Y014334D01*
X005650Y014236D02*
X004548Y014236D01*
X004499Y014137D02*
X005691Y014137D01*
X005688Y014039D02*
X004499Y014039D01*
X004499Y013940D02*
X005589Y013940D01*
X005491Y013842D02*
X004499Y013842D01*
X004499Y013743D02*
X005392Y013743D01*
X005294Y013645D02*
X004499Y013645D01*
X004499Y013546D02*
X005195Y013546D01*
X005097Y013448D02*
X004499Y013448D01*
X004499Y013349D02*
X004998Y013349D01*
X004937Y013251D02*
X004499Y013251D01*
X004499Y013152D02*
X004919Y013152D01*
X004919Y013054D02*
X004499Y013054D01*
X004499Y012955D02*
X004919Y012955D01*
X004919Y012857D02*
X004499Y012857D01*
X004499Y012758D02*
X004919Y012758D01*
X004919Y012660D02*
X004499Y012660D01*
X004499Y012561D02*
X004919Y012561D01*
X004919Y012463D02*
X004562Y012463D01*
X004660Y012364D02*
X004919Y012364D01*
X004919Y012266D02*
X004679Y012266D01*
X004679Y012167D02*
X004919Y012167D01*
X004919Y012069D02*
X004679Y012069D01*
X004679Y011970D02*
X004919Y011970D01*
X004919Y011872D02*
X004596Y011872D01*
X004497Y011773D02*
X004919Y011773D01*
X004919Y011675D02*
X004100Y011675D01*
X004179Y011576D02*
X004919Y011576D01*
X004919Y011478D02*
X004179Y011478D01*
X004179Y011379D02*
X004919Y011379D01*
X004919Y011281D02*
X004179Y011281D01*
X004156Y011182D02*
X004919Y011182D01*
X004919Y011084D02*
X004058Y011084D01*
X003959Y010985D02*
X004919Y010985D01*
X004919Y010887D02*
X002419Y010887D01*
X002419Y010985D02*
X003460Y010985D01*
X003361Y011084D02*
X002419Y011084D01*
X002419Y011182D02*
X003263Y011182D01*
X003239Y011281D02*
X002419Y011281D01*
X002419Y011379D02*
X003239Y011379D01*
X003239Y011478D02*
X002419Y011478D01*
X002419Y011576D02*
X003239Y011576D01*
X003319Y011675D02*
X002419Y011675D01*
X002419Y011773D02*
X003007Y011773D01*
X003040Y011740D02*
X003179Y011740D01*
X003179Y012120D01*
X002799Y012120D01*
X002799Y011980D01*
X003040Y011740D01*
X002908Y011872D02*
X002419Y011872D01*
X002419Y011970D02*
X002810Y011970D01*
X002799Y012069D02*
X002419Y012069D01*
X002419Y012167D02*
X003179Y012167D01*
X003179Y012180D02*
X003179Y012120D01*
X003239Y012120D01*
X003239Y011740D01*
X003379Y011740D01*
X003619Y011980D01*
X003619Y012120D01*
X003239Y012120D01*
X003239Y012180D01*
X003179Y012180D01*
X002799Y012180D01*
X002799Y012320D01*
X003040Y012560D01*
X003179Y012560D01*
X003179Y012180D01*
X003239Y012180D02*
X003239Y012560D01*
X003379Y012560D01*
X003619Y012320D01*
X003619Y012180D01*
X003239Y012180D01*
X003239Y012167D02*
X003739Y012167D01*
X003739Y012069D02*
X003619Y012069D01*
X003609Y011970D02*
X003739Y011970D01*
X003823Y011872D02*
X003511Y011872D01*
X003418Y011773D02*
X003412Y011773D01*
X003239Y011773D02*
X003179Y011773D01*
X003179Y011872D02*
X003239Y011872D01*
X003239Y011970D02*
X003179Y011970D01*
X003179Y012069D02*
X003239Y012069D01*
X003239Y012266D02*
X003179Y012266D01*
X003179Y012364D02*
X003239Y012364D01*
X003239Y012463D02*
X003179Y012463D01*
X002942Y012463D02*
X002419Y012463D01*
X002419Y012561D02*
X003919Y012561D01*
X003919Y012660D02*
X002419Y012660D01*
X002419Y012758D02*
X003919Y012758D01*
X003919Y012857D02*
X002419Y012857D01*
X002419Y012955D02*
X003919Y012955D01*
X003919Y013054D02*
X002419Y013054D01*
X002419Y013152D02*
X003919Y013152D01*
X003919Y013251D02*
X002419Y013251D01*
X002419Y013349D02*
X003919Y013349D01*
X003919Y013448D02*
X002419Y013448D01*
X002419Y013546D02*
X003919Y013546D01*
X003919Y013645D02*
X003572Y013645D01*
X003690Y013743D02*
X003919Y013743D01*
X003919Y013842D02*
X003776Y013842D01*
X003817Y013940D02*
X003919Y013940D01*
X003919Y014039D02*
X003856Y014039D01*
X003856Y014137D02*
X003865Y014137D01*
X003562Y014728D02*
X003397Y014728D01*
X003588Y014827D02*
X002419Y014827D01*
X002419Y014925D02*
X003629Y014925D01*
X003696Y015024D02*
X002419Y015024D01*
X002419Y015122D02*
X003794Y015122D01*
X004004Y015221D02*
X002419Y015221D01*
X002419Y015319D02*
X010998Y015319D01*
X010998Y015221D02*
X009415Y015221D01*
X009625Y015122D02*
X010998Y015122D01*
X010998Y015024D02*
X009723Y015024D01*
X009790Y014925D02*
X010998Y014925D01*
X010998Y014827D02*
X009831Y014827D01*
X009856Y014728D02*
X010022Y014728D01*
X010263Y014728D02*
X010998Y014728D01*
X010998Y014630D02*
X010483Y014630D01*
X010582Y014531D02*
X010998Y014531D01*
X010998Y014433D02*
X010653Y014433D01*
X010694Y014334D02*
X010998Y014334D01*
X010998Y014236D02*
X010722Y014236D01*
X010722Y014137D02*
X010998Y014137D01*
X010998Y014039D02*
X010722Y014039D01*
X010683Y013940D02*
X010998Y013940D01*
X010998Y013842D02*
X010643Y013842D01*
X010556Y013743D02*
X010998Y013743D01*
X010998Y013645D02*
X010438Y013645D01*
X009847Y013645D02*
X009499Y013645D01*
X009499Y013743D02*
X009729Y013743D01*
X009642Y013842D02*
X009499Y013842D01*
X009499Y013940D02*
X009602Y013940D01*
X009562Y014039D02*
X009499Y014039D01*
X009554Y014137D02*
X009562Y014137D01*
X009499Y013546D02*
X010998Y013546D01*
X010998Y013448D02*
X009499Y013448D01*
X009499Y013349D02*
X010998Y013349D01*
X010998Y013251D02*
X009499Y013251D01*
X009499Y013152D02*
X010998Y013152D01*
X010998Y013054D02*
X009483Y013054D01*
X009425Y012955D02*
X010998Y012955D01*
X010998Y012857D02*
X009326Y012857D01*
X009228Y012758D02*
X010998Y012758D01*
X010998Y012660D02*
X009129Y012660D01*
X009179Y012560D02*
X009040Y012560D01*
X008799Y012320D01*
X008799Y012180D01*
X009179Y012180D01*
X009179Y012120D01*
X008799Y012120D01*
X008799Y011980D01*
X009040Y011740D01*
X009179Y011740D01*
X009179Y012120D01*
X009239Y012120D01*
X009239Y011740D01*
X009379Y011740D01*
X009619Y011980D01*
X009619Y012120D01*
X009239Y012120D01*
X009239Y012180D01*
X009179Y012180D01*
X009179Y012560D01*
X009239Y012560D02*
X009379Y012560D01*
X009619Y012320D01*
X009619Y012180D01*
X009239Y012180D01*
X009239Y012560D01*
X009239Y012463D02*
X009179Y012463D01*
X009179Y012364D02*
X009239Y012364D01*
X009239Y012266D02*
X009179Y012266D01*
X009179Y012167D02*
X008637Y012167D01*
X008735Y012266D02*
X008799Y012266D01*
X008834Y012364D02*
X008844Y012364D01*
X008932Y012463D02*
X008942Y012463D01*
X009031Y012561D02*
X009956Y012561D01*
X010015Y012620D02*
X009739Y012345D01*
X009739Y011955D01*
X009825Y011870D01*
X009515Y011870D01*
X009239Y011595D01*
X009239Y011205D01*
X009515Y010930D01*
X009904Y010930D01*
X010179Y011205D01*
X010179Y011595D01*
X010094Y011680D01*
X010404Y011680D01*
X010679Y011955D01*
X010679Y012345D01*
X010404Y012620D01*
X010015Y012620D01*
X009857Y012463D02*
X009477Y012463D01*
X009575Y012364D02*
X009759Y012364D01*
X009739Y012266D02*
X009619Y012266D01*
X009739Y012167D02*
X009239Y012167D01*
X009239Y012069D02*
X009179Y012069D01*
X009179Y011970D02*
X009239Y011970D01*
X009239Y011872D02*
X009179Y011872D01*
X009179Y011773D02*
X009239Y011773D01*
X009319Y011675D02*
X008144Y011675D01*
X008243Y011773D02*
X009007Y011773D01*
X008908Y011872D02*
X008341Y011872D01*
X008440Y011970D02*
X008810Y011970D01*
X008799Y012069D02*
X008538Y012069D01*
X008210Y012561D02*
X007499Y012561D01*
X007499Y012660D02*
X008309Y012660D01*
X008407Y012758D02*
X007499Y012758D01*
X007499Y012857D02*
X008506Y012857D01*
X008604Y012955D02*
X007499Y012955D01*
X007499Y013054D02*
X008703Y013054D01*
X008801Y013152D02*
X007499Y013152D01*
X007499Y013251D02*
X008900Y013251D01*
X008919Y013349D02*
X007499Y013349D01*
X007499Y013448D02*
X008919Y013448D01*
X008919Y013546D02*
X007499Y013546D01*
X007499Y013645D02*
X008919Y013645D01*
X008919Y013743D02*
X007499Y013743D01*
X007499Y013842D02*
X008919Y013842D01*
X008919Y013940D02*
X007570Y013940D01*
X007668Y014039D02*
X008919Y014039D01*
X008919Y014137D02*
X007728Y014137D01*
X007769Y014236D02*
X008871Y014236D01*
X008780Y014334D02*
X007789Y014334D01*
X007789Y014433D02*
X008739Y014433D01*
X008698Y014531D02*
X007783Y014531D01*
X007742Y014630D02*
X008696Y014630D01*
X008696Y014728D02*
X007701Y014728D01*
X007603Y014827D02*
X008722Y014827D01*
X008763Y014925D02*
X007458Y014925D01*
X006961Y014925D02*
X006458Y014925D01*
X006603Y014827D02*
X006816Y014827D01*
X006718Y014728D02*
X006701Y014728D01*
X006709Y014091D02*
X006718Y014071D01*
X006881Y013908D01*
X006919Y013892D01*
X006919Y012525D01*
X006739Y012345D01*
X006739Y011955D01*
X006825Y011870D01*
X006515Y011870D01*
X006239Y011595D01*
X006239Y011205D01*
X006515Y010930D01*
X006579Y010930D01*
X005499Y009850D01*
X005499Y013030D01*
X006290Y013820D01*
X006325Y013820D01*
X006538Y013908D01*
X006701Y014071D01*
X006709Y014091D01*
X006668Y014039D02*
X006751Y014039D01*
X006849Y013940D02*
X006570Y013940D01*
X006377Y013842D02*
X006919Y013842D01*
X006919Y013743D02*
X006213Y013743D01*
X006114Y013645D02*
X006919Y013645D01*
X006919Y013546D02*
X006016Y013546D01*
X005917Y013448D02*
X006919Y013448D01*
X006919Y013349D02*
X005819Y013349D01*
X005720Y013251D02*
X006919Y013251D01*
X006919Y013152D02*
X005622Y013152D01*
X005523Y013054D02*
X006919Y013054D01*
X006919Y012955D02*
X005499Y012955D01*
X005499Y012857D02*
X006919Y012857D01*
X006919Y012758D02*
X005499Y012758D01*
X005499Y012660D02*
X006919Y012660D01*
X006919Y012561D02*
X005499Y012561D01*
X005499Y012463D02*
X005942Y012463D01*
X006040Y012560D02*
X005799Y012320D01*
X005799Y012180D01*
X006179Y012180D01*
X006179Y012120D01*
X005799Y012120D01*
X005799Y011980D01*
X006040Y011740D01*
X006179Y011740D01*
X006179Y012120D01*
X006239Y012120D01*
X006239Y011740D01*
X006379Y011740D01*
X006619Y011980D01*
X006619Y012120D01*
X006239Y012120D01*
X006239Y012180D01*
X006179Y012180D01*
X006179Y012560D01*
X006040Y012560D01*
X006179Y012463D02*
X006239Y012463D01*
X006239Y012560D02*
X006379Y012560D01*
X006619Y012320D01*
X006619Y012180D01*
X006239Y012180D01*
X006239Y012560D01*
X006239Y012364D02*
X006179Y012364D01*
X006179Y012266D02*
X006239Y012266D01*
X006239Y012167D02*
X006739Y012167D01*
X006739Y012069D02*
X006619Y012069D01*
X006609Y011970D02*
X006739Y011970D01*
X006823Y011872D02*
X006511Y011872D01*
X006418Y011773D02*
X006412Y011773D01*
X006319Y011675D02*
X005499Y011675D01*
X005499Y011773D02*
X006007Y011773D01*
X005908Y011872D02*
X005499Y011872D01*
X005499Y011970D02*
X005810Y011970D01*
X005799Y012069D02*
X005499Y012069D01*
X005499Y012167D02*
X006179Y012167D01*
X006179Y012069D02*
X006239Y012069D01*
X006239Y011970D02*
X006179Y011970D01*
X006179Y011872D02*
X006239Y011872D01*
X006239Y011773D02*
X006179Y011773D01*
X006239Y011576D02*
X005499Y011576D01*
X005499Y011478D02*
X006239Y011478D01*
X006239Y011379D02*
X005499Y011379D01*
X005499Y011281D02*
X006239Y011281D01*
X006263Y011182D02*
X005499Y011182D01*
X005499Y011084D02*
X006361Y011084D01*
X006460Y010985D02*
X005499Y010985D01*
X005499Y010887D02*
X006536Y010887D01*
X006437Y010788D02*
X005499Y010788D01*
X005499Y010690D02*
X006339Y010690D01*
X006240Y010591D02*
X005499Y010591D01*
X005499Y010493D02*
X006142Y010493D01*
X006043Y010394D02*
X005499Y010394D01*
X005499Y010296D02*
X005945Y010296D01*
X005846Y010197D02*
X005499Y010197D01*
X005499Y010099D02*
X005748Y010099D01*
X005649Y010000D02*
X005499Y010000D01*
X005499Y009902D02*
X005551Y009902D01*
X005879Y009409D02*
X006826Y009409D01*
X006787Y009503D02*
X006875Y009290D01*
X007038Y009127D01*
X007252Y009039D01*
X007482Y009039D01*
X007696Y009127D01*
X007859Y009290D01*
X007947Y009503D01*
X007947Y009734D01*
X007859Y009947D01*
X007696Y010110D01*
X007482Y010199D01*
X007252Y010199D01*
X007038Y010110D01*
X006875Y009947D01*
X006787Y009734D01*
X006787Y009503D01*
X006787Y009508D02*
X005977Y009508D01*
X006076Y009606D02*
X006787Y009606D01*
X006787Y009705D02*
X006174Y009705D01*
X006273Y009803D02*
X006816Y009803D01*
X006856Y009902D02*
X006371Y009902D01*
X006470Y010000D02*
X006928Y010000D01*
X007027Y010099D02*
X006568Y010099D01*
X006667Y010197D02*
X007248Y010197D01*
X007486Y010197D02*
X008846Y010197D01*
X008748Y010099D02*
X007707Y010099D01*
X007806Y010000D02*
X008649Y010000D01*
X008551Y009902D02*
X007878Y009902D01*
X007918Y009803D02*
X008452Y009803D01*
X008354Y009705D02*
X007947Y009705D01*
X007947Y009606D02*
X008255Y009606D01*
X008157Y009508D02*
X007947Y009508D01*
X007908Y009409D02*
X008058Y009409D01*
X007962Y009311D02*
X007867Y009311D01*
X007921Y009212D02*
X007781Y009212D01*
X007663Y009114D02*
X007919Y009114D01*
X007919Y009015D02*
X005485Y009015D01*
X005583Y009114D02*
X007070Y009114D01*
X006953Y009212D02*
X005682Y009212D01*
X005780Y009311D02*
X006867Y009311D01*
X006765Y010296D02*
X008945Y010296D01*
X008964Y010314D02*
X008964Y010314D01*
X009039Y010394D02*
X006864Y010394D01*
X006962Y010493D02*
X009137Y010493D01*
X009236Y010591D02*
X007061Y010591D01*
X007159Y010690D02*
X010998Y010690D01*
X010998Y010788D02*
X007258Y010788D01*
X007356Y010887D02*
X010998Y010887D01*
X010998Y010985D02*
X009959Y010985D01*
X010058Y011084D02*
X010998Y011084D01*
X010998Y011182D02*
X010156Y011182D01*
X010179Y011281D02*
X010998Y011281D01*
X010998Y011379D02*
X010179Y011379D01*
X010179Y011478D02*
X010998Y011478D01*
X010998Y011576D02*
X010179Y011576D01*
X010100Y011675D02*
X010998Y011675D01*
X010998Y011773D02*
X010497Y011773D01*
X010596Y011872D02*
X010998Y011872D01*
X010998Y011970D02*
X010679Y011970D01*
X010679Y012069D02*
X010998Y012069D01*
X010998Y012167D02*
X010679Y012167D01*
X010679Y012266D02*
X010998Y012266D01*
X010998Y012364D02*
X010660Y012364D01*
X010562Y012463D02*
X010998Y012463D01*
X010998Y012561D02*
X010463Y012561D01*
X009823Y011872D02*
X009511Y011872D01*
X009418Y011773D02*
X009412Y011773D01*
X009609Y011970D02*
X009739Y011970D01*
X009739Y012069D02*
X009619Y012069D01*
X009239Y011576D02*
X008046Y011576D01*
X007947Y011478D02*
X009239Y011478D01*
X009239Y011379D02*
X007849Y011379D01*
X007750Y011281D02*
X009239Y011281D01*
X009263Y011182D02*
X007652Y011182D01*
X007553Y011084D02*
X009361Y011084D01*
X009460Y010985D02*
X007455Y010985D01*
X007679Y012069D02*
X007718Y012069D01*
X007679Y012167D02*
X007816Y012167D01*
X007915Y012266D02*
X007679Y012266D01*
X007660Y012364D02*
X008013Y012364D01*
X008112Y012463D02*
X007562Y012463D01*
X006857Y012463D02*
X006477Y012463D01*
X006575Y012364D02*
X006759Y012364D01*
X006739Y012266D02*
X006619Y012266D01*
X005844Y012364D02*
X005499Y012364D01*
X005499Y012266D02*
X005799Y012266D01*
X004919Y010788D02*
X002419Y010788D01*
X002419Y010690D02*
X004919Y010690D01*
X004919Y010591D02*
X002419Y010591D01*
X002419Y010493D02*
X004919Y010493D01*
X004919Y010394D02*
X002419Y010394D01*
X002419Y010296D02*
X004919Y010296D01*
X004919Y010197D02*
X003486Y010197D01*
X003482Y010199D02*
X003252Y010199D01*
X003038Y010110D01*
X002875Y009947D01*
X002787Y009734D01*
X002787Y009503D01*
X002875Y009290D01*
X003038Y009127D01*
X003252Y009039D01*
X003482Y009039D01*
X003696Y009127D01*
X003859Y009290D01*
X003947Y009503D01*
X003947Y009734D01*
X003859Y009947D01*
X003696Y010110D01*
X003482Y010199D01*
X003248Y010197D02*
X002419Y010197D01*
X002419Y010099D02*
X003027Y010099D01*
X002928Y010000D02*
X002419Y010000D01*
X002419Y009902D02*
X002856Y009902D01*
X002816Y009803D02*
X002419Y009803D01*
X002419Y009705D02*
X002787Y009705D01*
X002787Y009606D02*
X002419Y009606D01*
X002419Y009508D02*
X002787Y009508D01*
X002826Y009409D02*
X002419Y009409D01*
X002419Y009311D02*
X002867Y009311D01*
X002953Y009212D02*
X002419Y009212D01*
X002419Y009114D02*
X003070Y009114D01*
X003369Y008720D02*
X002419Y008720D01*
X002419Y008818D02*
X003467Y008818D01*
X003595Y008917D02*
X002419Y008917D01*
X002419Y009015D02*
X004664Y009015D01*
X004763Y009114D02*
X003663Y009114D01*
X003781Y009212D02*
X004861Y009212D01*
X004919Y009311D02*
X003867Y009311D01*
X003908Y009409D02*
X004919Y009409D01*
X004919Y009508D02*
X003947Y009508D01*
X003947Y009606D02*
X004919Y009606D01*
X004919Y009705D02*
X003947Y009705D01*
X003918Y009803D02*
X004919Y009803D01*
X004919Y009902D02*
X003878Y009902D01*
X003806Y010000D02*
X004919Y010000D01*
X004919Y010099D02*
X003707Y010099D01*
X003270Y008621D02*
X002419Y008621D01*
X002419Y008523D02*
X003172Y008523D01*
X003073Y008424D02*
X002419Y008424D01*
X002419Y008326D02*
X002975Y008326D01*
X002927Y008227D02*
X002419Y008227D01*
X002419Y008129D02*
X002741Y008129D01*
X002674Y008030D02*
X002419Y008030D01*
X002419Y007932D02*
X002674Y007932D01*
X002674Y007833D02*
X002419Y007833D01*
X002419Y007735D02*
X002674Y007735D01*
X002674Y007636D02*
X002419Y007636D01*
X002419Y007538D02*
X002674Y007538D01*
X002674Y007439D02*
X002419Y007439D01*
X002419Y007341D02*
X002674Y007341D01*
X002674Y007242D02*
X002419Y007242D01*
X002419Y007144D02*
X002769Y007144D01*
X002419Y007045D02*
X005021Y007045D01*
X005021Y007049D02*
X005031Y006986D01*
X005050Y006925D01*
X005079Y006868D01*
X005117Y006816D01*
X005163Y006771D01*
X005214Y006733D01*
X005272Y006704D01*
X005333Y006684D01*
X005396Y006674D01*
X005399Y006674D01*
X005399Y007310D01*
X005021Y007310D01*
X005021Y007049D01*
X005021Y007144D02*
X003650Y007144D01*
X003744Y007242D02*
X003964Y007242D01*
X003847Y007341D02*
X003744Y007341D01*
X003744Y007439D02*
X003784Y007439D01*
X003747Y007538D02*
X003744Y007538D01*
X003744Y007833D02*
X003770Y007833D01*
X003744Y007932D02*
X003827Y007932D01*
X003744Y008030D02*
X003924Y008030D01*
X003678Y008129D02*
X007919Y008129D01*
X007919Y008227D02*
X003697Y008227D01*
X003795Y008326D02*
X007919Y008326D01*
X007919Y008030D02*
X007603Y008030D01*
X007521Y008064D02*
X007335Y008064D01*
X007163Y007993D01*
X007032Y007861D01*
X006961Y007689D01*
X006961Y007311D01*
X006895Y007246D01*
X006895Y007689D01*
X006824Y007861D01*
X006693Y007993D01*
X006521Y008064D01*
X006335Y008064D01*
X006163Y007993D01*
X006032Y007861D01*
X005961Y007689D01*
X005961Y006989D01*
X006032Y006817D01*
X006163Y006685D01*
X006284Y006635D01*
X004545Y004896D01*
X004464Y004814D01*
X004419Y004708D01*
X004419Y003092D01*
X004464Y002986D01*
X004969Y002480D01*
X004844Y002480D01*
X004631Y002392D01*
X004468Y002229D01*
X004379Y002015D01*
X004379Y001785D01*
X004468Y001571D01*
X004631Y001408D01*
X004844Y001320D01*
X005075Y001320D01*
X005288Y001408D01*
X005451Y001571D01*
X005459Y001591D01*
X005468Y001571D01*
X005631Y001408D01*
X005844Y001320D01*
X006075Y001320D01*
X006288Y001408D01*
X006451Y001571D01*
X006539Y001785D01*
X006539Y002015D01*
X006451Y002229D01*
X006288Y002392D01*
X006075Y002480D01*
X005844Y002480D01*
X005806Y002464D01*
X004999Y003270D01*
X004999Y003894D01*
X005032Y003817D01*
X005163Y003685D01*
X005335Y003614D01*
X005521Y003614D01*
X005693Y003685D01*
X005824Y003817D01*
X005895Y003989D01*
X005895Y004689D01*
X005824Y004861D01*
X005693Y004993D01*
X005530Y005060D01*
X007159Y006689D01*
X007163Y006685D01*
X007335Y006614D01*
X007521Y006614D01*
X007693Y006685D01*
X007824Y006817D01*
X007895Y006989D01*
X007895Y007689D01*
X007824Y007861D01*
X007693Y007993D01*
X007521Y008064D01*
X007754Y007932D02*
X007919Y007932D01*
X007919Y007833D02*
X007836Y007833D01*
X007877Y007735D02*
X007919Y007735D01*
X007915Y007636D02*
X007895Y007636D01*
X007895Y007538D02*
X007937Y007538D01*
X007961Y007439D02*
X007895Y007439D01*
X007895Y007341D02*
X007961Y007341D01*
X007931Y007242D02*
X007895Y007242D01*
X007895Y007144D02*
X007918Y007144D01*
X007919Y007045D02*
X007895Y007045D01*
X007878Y006947D02*
X007919Y006947D01*
X007919Y006848D02*
X007837Y006848D01*
X007757Y006750D02*
X007919Y006750D01*
X007919Y006651D02*
X007610Y006651D01*
X007919Y006553D02*
X007022Y006553D01*
X007121Y006651D02*
X007246Y006651D01*
X006924Y006454D02*
X007919Y006454D01*
X007919Y006356D02*
X006825Y006356D01*
X006727Y006257D02*
X007919Y006257D01*
X007919Y006159D02*
X006628Y006159D01*
X006530Y006060D02*
X007919Y006060D01*
X007919Y005962D02*
X006431Y005962D01*
X006333Y005863D02*
X007919Y005863D01*
X007919Y005765D02*
X006234Y005765D01*
X006136Y005666D02*
X007919Y005666D01*
X007919Y005568D02*
X006037Y005568D01*
X005939Y005469D02*
X007919Y005469D01*
X007919Y005371D02*
X005840Y005371D01*
X005742Y005272D02*
X007919Y005272D01*
X007919Y005174D02*
X005643Y005174D01*
X005545Y005075D02*
X007919Y005075D01*
X007919Y004977D02*
X007709Y004977D01*
X007693Y004993D02*
X007521Y005064D01*
X007335Y005064D01*
X007163Y004993D01*
X007032Y004861D01*
X006961Y004689D01*
X006961Y003989D01*
X007032Y003817D01*
X007163Y003685D01*
X007335Y003614D01*
X007521Y003614D01*
X007693Y003685D01*
X007824Y003817D01*
X007895Y003989D01*
X007895Y004689D01*
X007824Y004861D01*
X007693Y004993D01*
X007808Y004878D02*
X007919Y004878D01*
X007919Y004780D02*
X007858Y004780D01*
X007895Y004681D02*
X007919Y004681D01*
X007924Y004583D02*
X007895Y004583D01*
X007895Y004484D02*
X007961Y004484D01*
X007961Y004386D02*
X007895Y004386D01*
X007895Y004287D02*
X007961Y004287D01*
X007961Y004189D02*
X007895Y004189D01*
X007895Y004090D02*
X007961Y004090D01*
X007961Y003992D02*
X007895Y003992D01*
X007856Y003893D02*
X008000Y003893D01*
X008054Y003795D02*
X007802Y003795D01*
X007704Y003696D02*
X008152Y003696D01*
X008008Y003532D02*
X007795Y003620D01*
X007564Y003620D01*
X007351Y003532D01*
X007188Y003369D01*
X007099Y003155D01*
X007099Y002925D01*
X007188Y002711D01*
X005559Y002711D01*
X005657Y002613D02*
X007287Y002613D01*
X007351Y002548D02*
X007564Y002460D01*
X007795Y002460D01*
X008008Y002548D01*
X008171Y002711D01*
X009748Y002711D01*
X009911Y002548D01*
X010124Y002460D01*
X010355Y002460D01*
X010568Y002548D01*
X010731Y002711D01*
X010998Y002711D01*
X010998Y002613D02*
X010632Y002613D01*
X010731Y002711D02*
X010819Y002925D01*
X010819Y003155D01*
X010731Y003369D01*
X010568Y003532D01*
X010355Y003620D01*
X010124Y003620D01*
X009911Y003532D01*
X009748Y003369D01*
X009659Y003155D01*
X009659Y002925D01*
X009748Y002711D01*
X009707Y002810D02*
X008212Y002810D01*
X008253Y002908D02*
X009666Y002908D01*
X009659Y003007D02*
X008259Y003007D01*
X008259Y002925D02*
X008171Y002711D01*
X008072Y002613D02*
X009847Y002613D01*
X009994Y002514D02*
X007925Y002514D01*
X007434Y002514D02*
X005756Y002514D01*
X005460Y002810D02*
X007147Y002810D01*
X007106Y002908D02*
X005362Y002908D01*
X005263Y003007D02*
X007099Y003007D01*
X007099Y003105D02*
X005165Y003105D01*
X005066Y003204D02*
X007119Y003204D01*
X007160Y003302D02*
X004999Y003302D01*
X004999Y003401D02*
X007220Y003401D01*
X007318Y003499D02*
X004999Y003499D01*
X004999Y003598D02*
X007510Y003598D01*
X007152Y003696D02*
X006704Y003696D01*
X006693Y003685D02*
X006824Y003817D01*
X006895Y003989D01*
X006895Y004689D01*
X006824Y004861D01*
X006693Y004993D01*
X006521Y005064D01*
X006335Y005064D01*
X006163Y004993D01*
X006032Y004861D01*
X005961Y004689D01*
X005961Y003989D01*
X006032Y003817D01*
X006163Y003685D01*
X006335Y003614D01*
X006521Y003614D01*
X006693Y003685D01*
X006802Y003795D02*
X007054Y003795D01*
X007000Y003893D02*
X006856Y003893D01*
X006895Y003992D02*
X006961Y003992D01*
X006961Y004090D02*
X006895Y004090D01*
X006895Y004189D02*
X006961Y004189D01*
X006961Y004287D02*
X006895Y004287D01*
X006895Y004386D02*
X006961Y004386D01*
X006961Y004484D02*
X006895Y004484D01*
X006895Y004583D02*
X006961Y004583D01*
X006961Y004681D02*
X006895Y004681D01*
X006858Y004780D02*
X006998Y004780D01*
X007048Y004878D02*
X006808Y004878D01*
X006709Y004977D02*
X007147Y004977D01*
X006147Y004977D02*
X005709Y004977D01*
X005808Y004878D02*
X006048Y004878D01*
X005998Y004780D02*
X005858Y004780D01*
X005895Y004681D02*
X005961Y004681D01*
X005961Y004583D02*
X005895Y004583D01*
X005895Y004484D02*
X005961Y004484D01*
X005961Y004386D02*
X005895Y004386D01*
X005895Y004287D02*
X005961Y004287D01*
X005961Y004189D02*
X005895Y004189D01*
X005895Y004090D02*
X005961Y004090D01*
X005961Y003992D02*
X005895Y003992D01*
X005856Y003893D02*
X006000Y003893D01*
X006054Y003795D02*
X005802Y003795D01*
X005704Y003696D02*
X006152Y003696D01*
X006231Y002416D02*
X010998Y002416D01*
X010998Y002514D02*
X010485Y002514D01*
X010772Y002810D02*
X010998Y002810D01*
X010998Y002908D02*
X010813Y002908D01*
X010819Y003007D02*
X010998Y003007D01*
X010998Y003105D02*
X010819Y003105D01*
X010800Y003204D02*
X010998Y003204D01*
X010998Y003302D02*
X010759Y003302D01*
X010699Y003401D02*
X010998Y003401D01*
X010998Y003499D02*
X010601Y003499D01*
X010409Y003598D02*
X010998Y003598D01*
X010998Y003696D02*
X008704Y003696D01*
X008802Y003795D02*
X010998Y003795D01*
X010998Y003893D02*
X008856Y003893D01*
X008895Y003992D02*
X010998Y003992D01*
X010998Y004090D02*
X008895Y004090D01*
X008895Y004189D02*
X010998Y004189D01*
X010998Y004287D02*
X008895Y004287D01*
X008895Y004386D02*
X010998Y004386D01*
X010998Y004484D02*
X008895Y004484D01*
X008895Y004583D02*
X010998Y004583D01*
X010998Y004681D02*
X008895Y004681D01*
X008858Y004780D02*
X010998Y004780D01*
X010998Y004878D02*
X008808Y004878D01*
X008709Y004977D02*
X010998Y004977D01*
X010998Y005075D02*
X008499Y005075D01*
X008499Y005174D02*
X010998Y005174D01*
X010998Y005272D02*
X008499Y005272D01*
X008499Y005371D02*
X010998Y005371D01*
X010998Y005469D02*
X008499Y005469D01*
X008499Y005568D02*
X010998Y005568D01*
X010998Y005666D02*
X008499Y005666D01*
X008499Y005765D02*
X010998Y005765D01*
X010998Y005863D02*
X008499Y005863D01*
X008499Y005962D02*
X010998Y005962D01*
X010998Y006060D02*
X008499Y006060D01*
X008499Y006159D02*
X010998Y006159D01*
X010998Y006257D02*
X008499Y006257D01*
X008499Y006356D02*
X010998Y006356D01*
X010998Y006454D02*
X010230Y006454D01*
X010347Y006553D02*
X010998Y006553D01*
X010998Y006651D02*
X010416Y006651D01*
X010457Y006750D02*
X010998Y006750D01*
X010998Y006848D02*
X010478Y006848D01*
X010459Y007045D02*
X010998Y007045D01*
X010998Y006947D02*
X010009Y006947D01*
X010009Y006848D02*
X009909Y006848D01*
X009909Y006750D02*
X010009Y006750D01*
X010009Y006651D02*
X009909Y006651D01*
X009909Y006553D02*
X010009Y006553D01*
X010009Y006454D02*
X009909Y006454D01*
X009689Y006454D02*
X008499Y006454D01*
X008499Y006553D02*
X009572Y006553D01*
X009503Y006651D02*
X008610Y006651D01*
X008757Y006750D02*
X009462Y006750D01*
X009441Y006848D02*
X008837Y006848D01*
X008878Y006947D02*
X009909Y006947D01*
X009566Y007242D02*
X008895Y007242D01*
X008895Y007144D02*
X009500Y007144D01*
X009460Y007045D02*
X008895Y007045D01*
X008895Y007341D02*
X009681Y007341D01*
X009600Y007439D02*
X008895Y007439D01*
X008895Y007538D02*
X009502Y007538D01*
X009441Y007636D02*
X008895Y007636D01*
X008877Y007735D02*
X009400Y007735D01*
X009379Y007833D02*
X008836Y007833D01*
X008754Y007932D02*
X009379Y007932D01*
X009386Y008030D02*
X008603Y008030D01*
X008499Y008129D02*
X009321Y008129D01*
X009222Y008227D02*
X008499Y008227D01*
X008499Y008326D02*
X009124Y008326D01*
X009649Y008621D02*
X010998Y008621D01*
X010998Y008523D02*
X009747Y008523D01*
X009694Y008720D02*
X010998Y008720D01*
X010998Y008818D02*
X009792Y008818D01*
X009891Y008917D02*
X010998Y008917D01*
X010998Y009015D02*
X009929Y009015D01*
X009929Y009114D02*
X010998Y009114D01*
X010998Y009212D02*
X010436Y009212D01*
X010535Y009311D02*
X010998Y009311D01*
X010998Y009409D02*
X010633Y009409D01*
X010679Y009508D02*
X010998Y009508D01*
X010998Y009606D02*
X010679Y009606D01*
X010679Y009705D02*
X010998Y009705D01*
X010998Y009803D02*
X010679Y009803D01*
X010623Y009902D02*
X010998Y009902D01*
X010998Y010000D02*
X010524Y010000D01*
X010426Y010099D02*
X010998Y010099D01*
X010998Y010197D02*
X009929Y010197D01*
X009929Y010099D02*
X009993Y010099D01*
X009929Y010296D02*
X010998Y010296D01*
X010998Y010394D02*
X009880Y010394D01*
X009782Y010493D02*
X010998Y010493D01*
X010998Y010591D02*
X009683Y010591D01*
X009929Y009212D02*
X009983Y009212D01*
X010210Y008424D02*
X010998Y008424D01*
X010998Y008326D02*
X010354Y008326D01*
X010452Y008227D02*
X010998Y008227D01*
X010998Y008129D02*
X010493Y008129D01*
X010533Y008030D02*
X010998Y008030D01*
X010998Y007932D02*
X010539Y007932D01*
X010539Y007833D02*
X010998Y007833D01*
X010998Y007735D02*
X010519Y007735D01*
X010478Y007636D02*
X010998Y007636D01*
X010998Y007538D02*
X010417Y007538D01*
X010319Y007439D02*
X010998Y007439D01*
X010998Y007341D02*
X010238Y007341D01*
X010353Y007242D02*
X010998Y007242D01*
X010998Y007144D02*
X010419Y007144D01*
X010070Y003598D02*
X007849Y003598D01*
X008008Y003532D02*
X008171Y003369D01*
X008259Y003155D01*
X008259Y002925D01*
X008259Y003105D02*
X009659Y003105D01*
X009679Y003204D02*
X008240Y003204D01*
X008199Y003302D02*
X009720Y003302D01*
X009780Y003401D02*
X008139Y003401D01*
X008041Y003499D02*
X009878Y003499D01*
X010998Y002317D02*
X006363Y002317D01*
X006455Y002219D02*
X010998Y002219D01*
X010998Y002120D02*
X006496Y002120D01*
X006537Y002022D02*
X010998Y002022D01*
X010998Y001923D02*
X006539Y001923D01*
X006539Y001825D02*
X010087Y001825D01*
X010124Y001840D02*
X009911Y001752D01*
X009748Y001589D01*
X009659Y001375D01*
X009659Y001145D01*
X009748Y000931D01*
X009911Y000768D01*
X010124Y000680D01*
X010355Y000680D01*
X010568Y000768D01*
X010731Y000931D01*
X010819Y001145D01*
X010819Y001375D01*
X010731Y001589D01*
X010568Y001752D01*
X010355Y001840D01*
X010124Y001840D01*
X009885Y001726D02*
X007910Y001726D01*
X007879Y001742D02*
X007801Y001767D01*
X007729Y001779D01*
X007729Y001310D01*
X007629Y001310D01*
X007629Y001210D01*
X007161Y001210D01*
X007172Y001138D01*
X007198Y001060D01*
X007235Y000987D01*
X007283Y000921D01*
X007341Y000863D01*
X007407Y000815D01*
X007480Y000778D01*
X007558Y000753D01*
X007629Y000741D01*
X007629Y001210D01*
X007729Y001210D01*
X007729Y000741D01*
X007801Y000753D01*
X007879Y000778D01*
X007952Y000815D01*
X008018Y000863D01*
X008076Y000921D01*
X008124Y000987D01*
X008161Y001060D01*
X008187Y001138D01*
X008198Y001210D01*
X007729Y001210D01*
X007729Y001310D01*
X008198Y001310D01*
X008187Y001382D01*
X008161Y001460D01*
X008124Y001533D01*
X008076Y001599D01*
X008018Y001657D01*
X007952Y001705D01*
X007879Y001742D01*
X007729Y001726D02*
X007629Y001726D01*
X007629Y001779D02*
X007558Y001767D01*
X007480Y001742D01*
X007407Y001705D01*
X007341Y001657D01*
X007283Y001599D01*
X007235Y001533D01*
X007198Y001460D01*
X007172Y001382D01*
X007161Y001310D01*
X007629Y001310D01*
X007629Y001779D01*
X007629Y001628D02*
X007729Y001628D01*
X007729Y001529D02*
X007629Y001529D01*
X007629Y001431D02*
X007729Y001431D01*
X007729Y001332D02*
X007629Y001332D01*
X007629Y001234D02*
X002419Y001234D01*
X002419Y001332D02*
X003065Y001332D01*
X003094Y001320D02*
X003325Y001320D01*
X003538Y001408D01*
X003701Y001571D01*
X003789Y001785D01*
X003789Y002015D01*
X003701Y002229D01*
X003538Y002392D01*
X003325Y002480D01*
X003094Y002480D01*
X002881Y002392D01*
X002718Y002229D01*
X002629Y002015D01*
X002629Y001785D01*
X002718Y001571D01*
X002881Y001408D01*
X003094Y001320D01*
X002859Y001431D02*
X002419Y001431D01*
X002419Y001529D02*
X002760Y001529D01*
X002695Y001628D02*
X002419Y001628D01*
X002419Y001726D02*
X002654Y001726D01*
X002629Y001825D02*
X002419Y001825D01*
X002419Y001923D02*
X002629Y001923D01*
X002632Y002022D02*
X002419Y002022D01*
X002419Y002120D02*
X002673Y002120D01*
X002714Y002219D02*
X002419Y002219D01*
X002419Y002317D02*
X002806Y002317D01*
X002938Y002416D02*
X002419Y002416D01*
X002419Y002514D02*
X004935Y002514D01*
X004837Y002613D02*
X002419Y002613D01*
X002419Y002711D02*
X004738Y002711D01*
X004640Y002810D02*
X002419Y002810D01*
X002419Y002908D02*
X004541Y002908D01*
X004455Y003007D02*
X002419Y003007D01*
X002419Y003105D02*
X004419Y003105D01*
X004419Y003204D02*
X002419Y003204D01*
X002419Y003302D02*
X004419Y003302D01*
X004419Y003401D02*
X002419Y003401D01*
X002419Y003499D02*
X004419Y003499D01*
X004419Y003598D02*
X002419Y003598D01*
X002419Y003696D02*
X004419Y003696D01*
X004419Y003795D02*
X002419Y003795D01*
X002419Y003893D02*
X004419Y003893D01*
X004419Y003992D02*
X002419Y003992D01*
X002419Y004090D02*
X004419Y004090D01*
X004419Y004189D02*
X002419Y004189D01*
X002419Y004287D02*
X004419Y004287D01*
X004419Y004386D02*
X002419Y004386D01*
X002419Y004484D02*
X004419Y004484D01*
X004419Y004583D02*
X002419Y004583D01*
X002419Y004681D02*
X004419Y004681D01*
X004449Y004780D02*
X002419Y004780D01*
X002419Y004878D02*
X004527Y004878D01*
X004626Y004977D02*
X002419Y004977D01*
X002419Y005075D02*
X004724Y005075D01*
X004823Y005174D02*
X002419Y005174D01*
X002419Y005272D02*
X004921Y005272D01*
X005020Y005371D02*
X002419Y005371D01*
X002419Y005469D02*
X002918Y005469D01*
X002937Y005455D02*
X003010Y005418D01*
X003088Y005393D01*
X003169Y005380D01*
X003171Y005380D01*
X003171Y005861D01*
X003248Y005861D01*
X003248Y005380D01*
X003250Y005380D01*
X003331Y005393D01*
X003409Y005418D01*
X003482Y005455D01*
X003548Y005503D01*
X003606Y005561D01*
X003654Y005627D01*
X003691Y005700D01*
X003717Y005778D01*
X003729Y005859D01*
X003729Y005861D01*
X003248Y005861D01*
X003248Y005939D01*
X003171Y005939D01*
X003171Y006420D01*
X003169Y006420D01*
X003088Y006407D01*
X003010Y006382D01*
X002937Y006345D01*
X002871Y006297D01*
X002813Y006239D01*
X002765Y006173D01*
X002728Y006100D01*
X002702Y006022D01*
X002689Y005941D01*
X002689Y005939D01*
X003171Y005939D01*
X003171Y005861D01*
X002689Y005861D01*
X002689Y005859D01*
X002702Y005778D01*
X002728Y005700D01*
X002765Y005627D01*
X002813Y005561D01*
X002871Y005503D01*
X002937Y005455D01*
X002808Y005568D02*
X002419Y005568D01*
X002419Y005666D02*
X002745Y005666D01*
X002707Y005765D02*
X002419Y005765D01*
X002419Y005863D02*
X003171Y005863D01*
X003248Y005863D02*
X005512Y005863D01*
X005414Y005765D02*
X003712Y005765D01*
X003674Y005666D02*
X005315Y005666D01*
X005217Y005568D02*
X003611Y005568D01*
X003501Y005469D02*
X005118Y005469D01*
X005611Y005962D02*
X003726Y005962D01*
X003729Y005941D02*
X003717Y006022D01*
X003691Y006100D01*
X003654Y006173D01*
X003606Y006239D01*
X003548Y006297D01*
X003482Y006345D01*
X003409Y006382D01*
X003331Y006407D01*
X003250Y006420D01*
X003248Y006420D01*
X003248Y005939D01*
X003729Y005939D01*
X003729Y005941D01*
X003704Y006060D02*
X005709Y006060D01*
X005808Y006159D02*
X003661Y006159D01*
X003588Y006257D02*
X005906Y006257D01*
X006005Y006356D02*
X003461Y006356D01*
X003248Y006356D02*
X003171Y006356D01*
X003171Y006257D02*
X003248Y006257D01*
X003248Y006159D02*
X003171Y006159D01*
X003171Y006060D02*
X003248Y006060D01*
X003248Y005962D02*
X003171Y005962D01*
X003171Y005765D02*
X003248Y005765D01*
X003248Y005666D02*
X003171Y005666D01*
X003171Y005568D02*
X003248Y005568D01*
X003248Y005469D02*
X003171Y005469D01*
X002693Y005962D02*
X002419Y005962D01*
X002419Y006060D02*
X002715Y006060D01*
X002758Y006159D02*
X002419Y006159D01*
X002419Y006257D02*
X002831Y006257D01*
X002958Y006356D02*
X002419Y006356D01*
X002419Y006454D02*
X006103Y006454D01*
X006202Y006553D02*
X002419Y006553D01*
X002419Y006651D02*
X006246Y006651D01*
X006099Y006750D02*
X005664Y006750D01*
X005642Y006733D02*
X005693Y006771D01*
X005739Y006816D01*
X005776Y006868D01*
X005806Y006925D01*
X005825Y006986D01*
X005835Y007049D01*
X005835Y007310D01*
X005457Y007310D01*
X005457Y007368D01*
X005399Y007368D01*
X005399Y008004D01*
X005396Y008004D01*
X005333Y007994D01*
X005272Y007974D01*
X005214Y007945D01*
X005163Y007907D01*
X005117Y007862D01*
X005079Y007810D01*
X005050Y007753D01*
X005031Y007692D01*
X005021Y007629D01*
X005021Y007368D01*
X005399Y007368D01*
X005399Y007310D01*
X005457Y007310D01*
X005457Y006674D01*
X005460Y006674D01*
X005523Y006684D01*
X005584Y006704D01*
X005642Y006733D01*
X005762Y006848D02*
X006019Y006848D01*
X005978Y006947D02*
X005813Y006947D01*
X005835Y007045D02*
X005961Y007045D01*
X005961Y007144D02*
X005835Y007144D01*
X005835Y007242D02*
X005961Y007242D01*
X005961Y007341D02*
X005457Y007341D01*
X005457Y007368D02*
X005835Y007368D01*
X005835Y007629D01*
X005825Y007692D01*
X005806Y007753D01*
X005776Y007810D01*
X005739Y007862D01*
X005693Y007907D01*
X005642Y007945D01*
X005584Y007974D01*
X005523Y007994D01*
X005460Y008004D01*
X005457Y008004D01*
X005457Y007368D01*
X005399Y007341D02*
X004572Y007341D01*
X004635Y007439D02*
X005021Y007439D01*
X005021Y007538D02*
X004672Y007538D01*
X004684Y007669D02*
X004684Y007687D01*
X004673Y007761D01*
X004650Y007832D01*
X004616Y007899D01*
X004572Y007959D01*
X004519Y008012D01*
X004458Y008056D01*
X004392Y008090D01*
X004321Y008113D01*
X004247Y008125D01*
X004228Y008125D01*
X004228Y007669D01*
X004684Y007669D01*
X004677Y007735D02*
X005044Y007735D01*
X005022Y007636D02*
X004228Y007636D01*
X004228Y007538D02*
X004191Y007538D01*
X004191Y007439D02*
X004228Y007439D01*
X004228Y007341D02*
X004191Y007341D01*
X004191Y007242D02*
X004228Y007242D01*
X004455Y007242D02*
X005021Y007242D01*
X005043Y006947D02*
X002419Y006947D01*
X002419Y006848D02*
X005094Y006848D01*
X005192Y006750D02*
X002419Y006750D01*
X004191Y007735D02*
X004228Y007735D01*
X004228Y007833D02*
X004191Y007833D01*
X004191Y007932D02*
X004228Y007932D01*
X004228Y008030D02*
X004191Y008030D01*
X004495Y008030D02*
X006253Y008030D01*
X006102Y007932D02*
X005660Y007932D01*
X005760Y007833D02*
X006020Y007833D01*
X005979Y007735D02*
X005812Y007735D01*
X005834Y007636D02*
X005961Y007636D01*
X005961Y007538D02*
X005835Y007538D01*
X005835Y007439D02*
X005961Y007439D01*
X005457Y007439D02*
X005399Y007439D01*
X005399Y007538D02*
X005457Y007538D01*
X005457Y007636D02*
X005399Y007636D01*
X005399Y007735D02*
X005457Y007735D01*
X005457Y007833D02*
X005399Y007833D01*
X005399Y007932D02*
X005457Y007932D01*
X005196Y007932D02*
X004592Y007932D01*
X004649Y007833D02*
X005096Y007833D01*
X005399Y007242D02*
X005457Y007242D01*
X005457Y007144D02*
X005399Y007144D01*
X005399Y007045D02*
X005457Y007045D01*
X005457Y006947D02*
X005399Y006947D01*
X005399Y006848D02*
X005457Y006848D01*
X005457Y006750D02*
X005399Y006750D01*
X006603Y008030D02*
X007253Y008030D01*
X007102Y007932D02*
X006754Y007932D01*
X006836Y007833D02*
X007020Y007833D01*
X006979Y007735D02*
X006877Y007735D01*
X006895Y007636D02*
X006961Y007636D01*
X006961Y007538D02*
X006895Y007538D01*
X006895Y007439D02*
X006961Y007439D01*
X006961Y007341D02*
X006895Y007341D01*
X004999Y003893D02*
X005000Y003893D01*
X004999Y003795D02*
X005054Y003795D01*
X004999Y003696D02*
X005152Y003696D01*
X004688Y002416D02*
X003481Y002416D01*
X003613Y002317D02*
X004556Y002317D01*
X004464Y002219D02*
X003705Y002219D01*
X003746Y002120D02*
X004423Y002120D01*
X004382Y002022D02*
X003787Y002022D01*
X003789Y001923D02*
X004379Y001923D01*
X004379Y001825D02*
X003789Y001825D01*
X003765Y001726D02*
X004404Y001726D01*
X004445Y001628D02*
X003724Y001628D01*
X003659Y001529D02*
X004510Y001529D01*
X004609Y001431D02*
X003560Y001431D01*
X003354Y001332D02*
X004815Y001332D01*
X005104Y001332D02*
X005815Y001332D01*
X005609Y001431D02*
X005310Y001431D01*
X005409Y001529D02*
X005510Y001529D01*
X006104Y001332D02*
X007164Y001332D01*
X007188Y001431D02*
X006310Y001431D01*
X006409Y001529D02*
X007233Y001529D01*
X007312Y001628D02*
X006474Y001628D01*
X006515Y001726D02*
X007449Y001726D01*
X007729Y001234D02*
X009659Y001234D01*
X009659Y001332D02*
X008195Y001332D01*
X008171Y001431D02*
X009682Y001431D01*
X009723Y001529D02*
X008126Y001529D01*
X008047Y001628D02*
X009787Y001628D01*
X009663Y001135D02*
X008186Y001135D01*
X008149Y001037D02*
X009704Y001037D01*
X009745Y000938D02*
X008088Y000938D01*
X007985Y000840D02*
X009840Y000840D01*
X009977Y000741D02*
X002419Y000741D01*
X002419Y000643D02*
X010998Y000643D01*
X010998Y000741D02*
X010502Y000741D01*
X010639Y000840D02*
X010998Y000840D01*
X010998Y000938D02*
X010734Y000938D01*
X010775Y001037D02*
X010998Y001037D01*
X010998Y001135D02*
X010815Y001135D01*
X010819Y001234D02*
X010998Y001234D01*
X010998Y001332D02*
X010819Y001332D01*
X010797Y001431D02*
X010998Y001431D01*
X010998Y001529D02*
X010756Y001529D01*
X010692Y001628D02*
X010998Y001628D01*
X010998Y001726D02*
X010594Y001726D01*
X010392Y001825D02*
X010998Y001825D01*
X010998Y000544D02*
X002419Y000544D01*
X002419Y000446D02*
X010998Y000446D01*
X010998Y000360D02*
X002419Y000360D01*
X002419Y015688D01*
X010998Y015688D01*
X010998Y000360D01*
X007729Y000840D02*
X007629Y000840D01*
X007629Y000938D02*
X007729Y000938D01*
X007729Y001037D02*
X007629Y001037D01*
X007629Y001135D02*
X007729Y001135D01*
X007374Y000840D02*
X002419Y000840D01*
X002419Y000938D02*
X007271Y000938D01*
X007210Y001037D02*
X002419Y001037D01*
X002419Y001135D02*
X007173Y001135D01*
X007351Y002548D02*
X007188Y002711D01*
X003739Y012266D02*
X003619Y012266D01*
X003575Y012364D02*
X003759Y012364D01*
X003857Y012463D02*
X003477Y012463D01*
X002844Y012364D02*
X002419Y012364D01*
X002419Y012266D02*
X002799Y012266D01*
X002981Y013645D02*
X002419Y013645D01*
X002419Y013743D02*
X002863Y013743D01*
X002776Y013842D02*
X002419Y013842D01*
X002419Y013940D02*
X002736Y013940D01*
X002696Y014039D02*
X002419Y014039D01*
X002419Y014137D02*
X002696Y014137D01*
X002696Y014236D02*
X002419Y014236D01*
X002419Y014334D02*
X002725Y014334D01*
X002766Y014433D02*
X002419Y014433D01*
X002419Y014531D02*
X002837Y014531D01*
X002936Y014630D02*
X002419Y014630D01*
X002419Y014728D02*
X003156Y014728D01*
X002419Y015418D02*
X010998Y015418D01*
X010998Y015516D02*
X002419Y015516D01*
X002419Y015615D02*
X010998Y015615D01*
X009138Y015221D02*
X004281Y015221D01*
M02*
