G75*
%MOIN*%
%OFA0B0*%
%FSLAX24Y24*%
%IPPOS*%
%LPD*%
%AMOC8*
5,1,8,0,0,1.08239X$1,22.5*
%
%ADD10C,0.0000*%
%ADD11C,0.0515*%
%ADD12C,0.0740*%
%ADD13OC8,0.0520*%
%ADD14R,0.0650X0.0650*%
%ADD15C,0.0650*%
%ADD16C,0.0160*%
D10*
X002209Y000487D02*
X002209Y016235D01*
X011068Y016235D01*
X011068Y000487D01*
X002209Y000487D01*
D11*
X004763Y005424D02*
X005278Y005424D01*
X005278Y006424D02*
X004763Y006424D01*
X004763Y007424D02*
X005278Y007424D01*
X005278Y008424D02*
X004763Y008424D01*
X007763Y008424D02*
X008278Y008424D01*
X008278Y007424D02*
X007763Y007424D01*
X007763Y006424D02*
X008278Y006424D01*
X008278Y005424D02*
X007763Y005424D01*
D12*
X007599Y003767D03*
X009209Y001987D03*
X010209Y001987D03*
X009459Y004737D03*
X009459Y005737D03*
X010209Y009987D03*
X009984Y014145D03*
X009118Y014645D03*
X007209Y014487D03*
X006209Y014487D03*
X004201Y014703D03*
X003334Y014203D03*
X006209Y009987D03*
X003459Y009487D03*
X003459Y005487D03*
X005819Y003767D03*
X004209Y001487D03*
X003209Y001487D03*
X005819Y001207D03*
X007599Y001207D03*
D13*
X009709Y007237D03*
X010459Y007737D03*
X009709Y008237D03*
X009459Y011237D03*
X008959Y011987D03*
X009959Y011987D03*
X007209Y011987D03*
X006709Y011237D03*
X006209Y011987D03*
X004209Y011987D03*
X003709Y011237D03*
X003209Y011987D03*
D14*
X004209Y003487D03*
D15*
X003209Y003487D03*
D16*
X003709Y003987D01*
X005709Y003987D01*
X005819Y003767D01*
X006459Y003987D02*
X005959Y004487D01*
X004459Y004487D01*
X003459Y005487D01*
X005209Y007237D02*
X005021Y007424D01*
X005209Y007237D02*
X005959Y006487D01*
X005959Y006237D01*
X007459Y004737D01*
X007959Y004737D01*
X010209Y002487D01*
X010209Y001987D01*
X009209Y001987D02*
X008959Y001987D01*
X008709Y002237D01*
X007709Y002237D01*
X006459Y003487D01*
X006459Y003987D01*
X007209Y005487D02*
X006209Y006487D01*
X006209Y009987D01*
X006709Y011237D02*
X006959Y011237D01*
X009209Y008987D01*
X009209Y007987D01*
X009709Y007487D01*
X009709Y007237D01*
X009209Y008987D02*
X009209Y010737D01*
X009459Y010987D01*
X009459Y011237D01*
X008959Y011987D02*
X007959Y011987D01*
X007459Y012487D01*
X006709Y012487D01*
X006209Y011987D01*
X003709Y009487D01*
X003459Y009487D01*
X003959Y013487D02*
X004709Y013487D01*
X005709Y014487D01*
X006209Y014487D01*
X003959Y013487D02*
X003459Y013987D01*
X003334Y014203D01*
X007209Y005487D02*
X007959Y005487D01*
X008021Y005424D01*
M02*
